<svg width="130" height="104" viewBox="0 0 130 104" fill="none" xmlns="http://www.w3.org/2000/svg">
<path fill-rule="evenodd" clip-rule="evenodd" d="M109.07 66.1333C110.093 66.1333 110.995 66.3106 111.78 66.664C112.564 67.0186 113.226 67.5213 113.767 68.172C114.307 68.824 114.716 69.608 114.993 70.524C115.27 71.44 115.408 72.464 115.408 73.5946C115.408 74.7133 115.27 75.732 114.993 76.6506C114.716 77.5706 114.307 78.3573 113.767 79.0133C113.226 79.668 112.56 80.1733 111.77 80.5306C110.979 80.888 110.073 81.0666 109.05 81.0666C107.977 81.0666 107.041 80.888 106.243 80.5306C105.445 80.1733 104.783 79.668 104.256 79.0133C103.728 78.3573 103.333 77.5693 103.069 76.6466C102.805 75.724 102.674 74.7 102.674 73.5746C102.674 72.4506 102.805 71.4306 103.069 70.5146C103.333 69.5973 103.728 68.816 104.256 68.168C104.783 67.5186 105.449 67.0186 106.253 66.664C107.056 66.3106 107.996 66.1333 109.07 66.1333ZM109.07 67.2346C108.319 67.2346 107.68 67.3773 107.152 67.6613C106.625 67.9453 106.196 68.3586 105.863 68.9013C105.53 69.444 105.288 70.1106 105.141 70.9013C104.992 71.692 104.918 72.5893 104.918 73.5946C104.918 74.6 104.992 75.4986 105.141 76.2893C105.288 77.08 105.528 77.748 105.857 78.2933C106.186 78.8386 106.613 79.256 107.137 79.544C107.661 79.8306 108.299 79.9746 109.05 79.9746C109.802 79.9746 110.44 79.8306 110.964 79.544C111.488 79.256 111.913 78.8386 112.239 78.2933C112.566 77.748 112.802 77.08 112.946 76.2893C113.091 75.4986 113.164 74.6 113.164 73.5946C113.164 72.5893 113.091 71.692 112.946 70.9013C112.802 70.1106 112.566 69.444 112.239 68.9013C111.913 68.3586 111.491 67.9453 110.974 67.6613C110.456 67.3773 109.822 67.2346 109.07 67.2346Z" fill="#F2FAFF"/>
<path fill-rule="evenodd" clip-rule="evenodd" d="M36.1616 66.1333C36.7592 66.1333 37.2888 66.196 37.7501 66.3226C38.2114 66.448 38.6011 66.6173 38.9195 66.8293C39.2378 67.0413 39.4799 67.284 39.6455 67.5586C39.8111 67.8346 39.8941 68.12 39.8941 68.4186C39.8941 68.856 39.7528 69.1853 39.4701 69.4066C39.1875 69.6293 38.8058 69.74 38.325 69.74C38.325 69.4226 38.2876 69.1093 38.2129 68.8013C38.1383 68.4933 38.0132 68.2186 37.8378 67.976C37.6623 67.7346 37.4317 67.5373 37.1459 67.3853C36.86 67.2333 36.5058 67.1573 36.0836 67.1573C35.7002 67.1573 35.3576 67.212 35.0555 67.32C34.7533 67.4293 34.4984 67.5853 34.2904 67.788C34.0827 67.9893 33.9233 68.2333 33.813 68.5173C33.7025 68.8026 33.6473 69.1213 33.6473 69.472C33.6473 69.876 33.6993 70.232 33.8032 70.54C33.9072 70.848 34.0809 71.1266 34.3245 71.3746C34.5682 71.6226 34.8883 71.8573 35.2845 72.08C35.6807 72.3013 36.1681 72.532 36.7463 72.7706C37.3311 73.016 37.8524 73.2733 38.3104 73.5453C38.7684 73.8173 39.1566 74.12 39.475 74.4546C39.7932 74.7893 40.0369 75.1626 40.2058 75.5773C40.3748 75.9906 40.4593 76.46 40.4593 76.9826C40.4593 77.6253 40.3439 78.2 40.1133 78.7066C39.8826 79.2133 39.553 79.6426 39.1241 79.9933C38.6954 80.3453 38.1789 80.6106 37.5746 80.7933C36.9704 80.976 36.2948 81.0666 35.5475 81.0666C34.8979 81.0666 34.3245 80.9973 33.8276 80.8586C33.3305 80.7186 32.9148 80.5253 32.5801 80.2773C32.2455 80.028 31.9938 79.7266 31.8249 79.372C31.656 79.0186 31.5715 78.6293 31.5715 78.2053C31.5715 77.7946 31.6966 77.464 31.9467 77.212C32.1969 76.96 32.5525 76.8346 33.0139 76.8346C33.0334 77.2586 33.0966 77.6653 33.2038 78.056C33.311 78.4466 33.4718 78.792 33.6863 79.0893C33.9007 79.388 34.1735 79.6253 34.5049 79.8053C34.8363 79.984 35.2357 80.0733 35.7035 80.0733C36.6001 80.0733 37.3002 79.8533 37.8036 79.412C38.3071 78.972 38.5589 78.3373 38.5589 77.5093C38.5589 77.1386 38.5069 76.8106 38.403 76.5266C38.299 76.2413 38.1268 75.9773 37.8865 75.736C37.6461 75.4946 37.3293 75.2626 36.9363 75.04C36.5432 74.8186 36.0543 74.5853 35.4697 74.34C34.8524 74.0813 34.3132 73.8053 33.852 73.5106C33.3906 73.216 33.0074 72.888 32.702 72.5266C32.3966 72.1653 32.1693 71.764 32.0198 71.32C31.8704 70.876 31.7957 70.376 31.7957 69.82C31.7957 69.236 31.9045 68.716 32.1222 68.26C32.3397 67.8026 32.6435 67.4173 33.0334 67.1026C33.4231 66.788 33.8843 66.5466 34.4172 66.3813C34.9499 66.216 35.5314 66.1333 36.1616 66.1333Z" fill="#F2FAFF"/>
<path fill-rule="evenodd" clip-rule="evenodd" d="M0 66.3999H4.59789L8.77248 77.9332L12.9077 66.3999H17.3776V67.2466H17.1215C16.8918 67.2466 16.6769 67.2639 16.4767 67.2959C16.2765 67.3292 16.1009 67.3959 15.9499 67.4986C15.799 67.5999 15.6808 67.7466 15.5955 67.9359C15.5102 68.1266 15.4675 68.3799 15.4675 68.6946V78.5052C15.4675 78.8199 15.5102 79.0732 15.5955 79.2639C15.6808 79.4532 15.799 79.5999 15.9499 79.7012C16.1009 79.8039 16.2765 79.8706 16.4767 79.9039C16.6769 79.9359 16.8918 79.9532 17.1215 79.9532H17.3776V80.7999H12.0117V79.9532H12.0806C12.2972 79.9532 12.4925 79.9386 12.6664 79.9079C12.8404 79.8786 12.9881 79.8199 13.1094 79.7319C13.231 79.6426 13.3278 79.5146 13.4 79.3466C13.4721 79.1799 13.5148 78.9586 13.5278 78.6826V67.9066L8.91031 80.7999H7.81751L3.14083 67.9466V78.5052C3.14083 78.8199 3.17359 79.0732 3.23926 79.2639C3.30492 79.4532 3.40162 79.5999 3.52977 79.7012C3.65764 79.8039 3.81192 79.8706 3.99246 79.9039C4.17287 79.9359 4.37477 79.9532 4.59789 79.9532H4.65692V80.7999H0V79.9532H0.256019C0.479142 79.9532 0.690859 79.9386 0.891032 79.9079C1.09121 79.8786 1.26684 79.8186 1.41779 79.7266C1.56875 79.6346 1.68854 79.4986 1.77715 79.3172C1.86577 79.1372 1.91007 78.8986 1.91007 78.6039V68.6159C1.91007 68.3199 1.86577 68.0826 1.77715 67.9026C1.68854 67.7212 1.56875 67.5812 1.41779 67.4839C1.26684 67.3852 1.09121 67.3212 0.891032 67.2919C0.690859 67.2612 0.479142 67.2466 0.256019 67.2466H0V66.3999Z" fill="#F2FAFF"/>
<path fill-rule="evenodd" clip-rule="evenodd" d="M42.051 66.3999H47.8949V67.2506H47.6303C47.408 67.2506 47.1954 67.2679 46.9929 67.2999C46.7902 67.3332 46.6154 67.4012 46.4682 67.5039C46.3211 67.6052 46.2035 67.7519 46.1152 67.9439C46.027 68.1346 45.9829 68.3892 45.9829 68.7052V76.6132C45.9829 77.1999 46.0663 77.6999 46.2329 78.1119C46.3997 78.5252 46.6317 78.8599 46.9291 79.1172C47.2265 79.3746 47.5796 79.5626 47.988 79.6812C48.3966 79.7999 48.846 79.8586 49.3363 79.8586C49.918 79.8586 50.4198 79.7799 50.8414 79.6212C51.263 79.4639 51.6128 79.2439 51.8906 78.9639C52.1683 78.6826 52.3743 78.3506 52.5083 77.9639C52.6423 77.5786 52.7093 77.1546 52.7093 76.6919V68.6266C52.7093 68.3292 52.6653 68.0906 52.5769 67.9092C52.4887 67.7279 52.3694 67.5879 52.219 67.4879C52.0687 67.3892 51.8938 67.3252 51.6945 67.2959C51.4951 67.2652 51.2843 67.2506 51.062 67.2506H50.8071V66.3999H55.8469V67.2506H55.5823C55.36 67.2506 55.1476 67.2679 54.9449 67.2999C54.7422 67.3332 54.5674 67.4012 54.4203 67.5039C54.2733 67.6052 54.1556 67.7519 54.0674 67.9439C53.9791 68.1346 53.9349 68.3892 53.9349 68.7052V76.7319C53.9349 77.4052 53.8288 78.0106 53.6163 78.5479C53.4039 79.0852 53.09 79.5412 52.6749 79.9132C52.2599 80.2866 51.7452 80.5719 51.1307 80.7692C50.5162 80.9679 49.8102 81.0666 49.0127 81.0666C48.2218 81.0666 47.5125 80.9826 46.885 80.8146C46.2575 80.6466 45.7263 80.3786 45.2916 80.0119C44.8569 79.6466 44.5253 79.1746 44.2964 78.5972C44.0676 78.0199 43.9533 77.3186 43.9533 76.4946V68.6266C43.9533 68.3292 43.9091 68.0906 43.8209 67.9092C43.7327 67.7279 43.6133 67.5879 43.463 67.4879C43.3127 67.3892 43.1377 67.3252 42.9385 67.2959C42.739 67.2652 42.5282 67.2506 42.306 67.2506H42.051V66.3999Z" fill="#F2FAFF"/>
<path fill-rule="evenodd" clip-rule="evenodd" d="M57.0408 66.3999H62.696C63.542 66.3999 64.2762 66.4972 64.8991 66.6906C65.5221 66.8839 66.0368 67.1639 66.4434 67.5279C66.8498 67.8919 67.153 68.3332 67.3531 68.8519C67.553 69.3706 67.653 69.9586 67.653 70.6159C67.653 71.2132 67.5596 71.7879 67.3727 72.3386C67.1858 72.8906 66.8794 73.3786 66.4532 73.8012C66.027 74.2252 65.4695 74.5639 64.7812 74.8159C64.0927 75.0692 63.2501 75.1959 62.2535 75.1959H60.9847V78.6039C60.9847 78.8986 61.029 79.1372 61.1175 79.3172C61.2061 79.4986 61.3257 79.6346 61.4766 79.7266C61.6273 79.8186 61.8028 79.8786 62.0027 79.9079C62.2027 79.9386 62.4142 79.9532 62.637 79.9532H63.3058V80.7999H57.0408V79.9532H57.2965C57.526 79.9532 57.7408 79.9359 57.9407 79.9039C58.1407 79.8706 58.3161 79.8039 58.4669 79.7012C58.6177 79.5999 58.7357 79.4532 58.821 79.2639C58.9063 79.0732 58.9488 78.8199 58.9488 78.5052V68.6159C58.9488 68.3199 58.9045 68.0826 58.8161 67.9026C58.7276 67.7212 58.6079 67.5812 58.4571 67.4839C58.3063 67.3852 58.1309 67.3212 57.9309 67.2919C57.731 67.2612 57.5195 67.2466 57.2965 67.2466H57.0408V66.3999ZM60.9847 67.3652V74.2399H62.0568C62.6666 74.2399 63.1878 74.1759 63.6206 74.0479C64.0533 73.9199 64.4074 73.7132 64.6828 73.4279C64.9582 73.1426 65.1598 72.7746 65.2877 72.3239C65.4156 71.8746 65.4795 71.3306 65.4795 70.6946C65.4795 70.1292 65.4238 69.6386 65.3122 69.2212C65.2008 68.8052 65.0205 68.4586 64.7714 68.1826C64.5221 67.9066 64.1993 67.7012 63.8026 67.5666C63.4059 67.4319 62.9223 67.3652 62.3518 67.3652H60.9847Z" fill="#F2FAFF"/>
<path fill-rule="evenodd" clip-rule="evenodd" d="M69.3774 66.3999H79.4725L79.5702 69.9266H78.5334L78.4355 69.0599C78.4095 68.8359 78.3588 68.6239 78.2839 68.4239C78.209 68.2239 78.1014 68.0479 77.9612 67.8972C77.8209 67.7466 77.6449 67.6266 77.4329 67.5372C77.221 67.4492 76.9649 67.4052 76.665 67.4052H73.3V72.7719H78.1323V73.7572H73.3V79.7959H77.1639C77.4835 79.7959 77.7557 79.7506 77.9807 79.6626C78.2056 79.5732 78.3931 79.4532 78.5432 79.3026C78.6931 79.1519 78.8105 78.9759 78.8953 78.7759C78.9801 78.5759 79.0388 78.3639 79.0713 78.1412L79.2084 77.2732H80.255L80.1181 80.7999H69.3774V79.9532H69.6317C69.8535 79.9532 70.0638 79.9386 70.2628 79.9079C70.4616 79.8786 70.6361 79.8186 70.7859 79.7266C70.9361 79.6346 71.0551 79.4986 71.1431 79.3172C71.2311 79.1372 71.2752 78.8986 71.2752 78.6039V68.6946C71.2752 68.3799 71.2327 68.1266 71.148 67.9359C71.0632 67.7466 70.9458 67.5999 70.7958 67.4986C70.6459 67.3959 70.4714 67.3292 70.2725 67.2959C70.0736 67.2639 69.86 67.2466 69.6317 67.2466H69.3774V66.3999Z" fill="#F2FAFF"/>
<path fill-rule="evenodd" clip-rule="evenodd" d="M81.7144 66.3999H87.0904C88.8206 66.3999 90.1085 66.7239 90.9542 67.3706C91.7998 68.0172 92.2226 68.9906 92.2226 70.2906C92.2226 70.8292 92.1364 71.2999 91.9641 71.7039C91.7916 72.1079 91.5656 72.4572 91.2859 72.7532C91.0062 73.0479 90.6907 73.2946 90.3395 73.4919C89.9882 73.6879 89.6371 73.8466 89.2858 73.9639L92.0275 78.3372C92.3657 78.8759 92.6942 79.2799 93.0128 79.5492C93.3321 79.8186 93.7022 79.9532 94.1254 79.9532H94.1837V80.7999H93.9012C93.2764 80.7999 92.7641 80.7772 92.364 80.7306C91.9641 80.6852 91.6242 80.5959 91.3444 80.4652C91.0648 80.3332 90.8258 80.1492 90.6273 79.9132C90.429 79.6772 90.216 79.3679 89.9882 78.9879L87.2857 74.4466H85.6268V78.6039C85.6268 78.8986 85.6709 79.1372 85.7587 79.3172C85.8465 79.4986 85.9651 79.6346 86.1147 79.7266C86.2644 79.8186 86.4384 79.8786 86.6367 79.9079C86.8352 79.9386 87.0449 79.9532 87.266 79.9532H87.5295V80.7999H81.7144V79.9532H81.9681C82.1893 79.9532 82.399 79.9386 82.5974 79.9079C82.7957 79.8786 82.9698 79.8186 83.1193 79.7266C83.269 79.6346 83.3876 79.4986 83.4755 79.3172C83.5633 79.1372 83.6072 78.8986 83.6072 78.6039V68.6159C83.6072 68.3199 83.5633 68.0826 83.4755 67.9026C83.3876 67.7212 83.269 67.5812 83.1193 67.4839C82.9698 67.3852 82.7957 67.3212 82.5974 67.2919C82.399 67.2612 82.1893 67.2466 81.9681 67.2466H81.7144V66.3999ZM85.6268 67.3652V73.5012H87.0319C87.6173 73.5012 88.1052 73.4359 88.4954 73.3039C88.8857 73.1732 89.1978 72.9759 89.4321 72.7132C89.6662 72.4506 89.8338 72.1226 89.9346 71.7279C90.0354 71.3346 90.0858 70.8746 90.0858 70.3492C90.0858 69.8106 90.0305 69.3532 89.9199 68.9759C89.8094 68.5986 89.6304 68.2892 89.3833 68.0492C89.1362 67.8106 88.8158 67.6359 88.4222 67.5279C88.0288 67.4199 87.549 67.3652 86.9831 67.3652H85.6268Z" fill="#F2FAFF"/>
<path fill-rule="evenodd" clip-rule="evenodd" d="M95.1123 66.3999H100.949V67.2466H100.685C100.462 67.2466 100.25 67.2639 100.048 67.2959C99.8454 67.3292 99.6716 67.3959 99.5243 67.4986C99.3771 67.5999 99.2604 67.7466 99.1715 67.9359C99.0839 68.1266 99.0388 68.3799 99.0388 68.6946V78.5052C99.0388 78.8199 99.0839 79.0732 99.1715 79.2639C99.2604 79.4532 99.3771 79.5999 99.5243 79.7012C99.6716 79.8039 99.8454 79.8706 100.048 79.9039C100.25 79.9359 100.462 79.9532 100.685 79.9532H100.949V80.7999H95.1123V79.9532H95.367C95.5952 79.9532 95.8087 79.9359 96.009 79.9039C96.208 79.8706 96.3818 79.8039 96.5317 79.7012C96.6829 79.5999 96.7996 79.4532 96.8845 79.2639C96.9694 79.0732 97.0119 78.8199 97.0119 78.5052V68.6946C97.0119 68.3799 96.9694 68.1266 96.8845 67.9359C96.7996 67.7466 96.6829 67.5999 96.5317 67.4986C96.3818 67.3959 96.208 67.3292 96.009 67.2959C95.8087 67.2639 95.5952 67.2466 95.367 67.2466H95.1123V66.3999Z" fill="#F2FAFF"/>
<path fill-rule="evenodd" clip-rule="evenodd" d="M117.398 66.3999H122.831C124.58 66.3999 125.881 66.7239 126.737 67.3706C127.591 68.0172 128.018 68.9906 128.018 70.2906C128.018 70.8292 127.931 71.2999 127.757 71.7039C127.583 72.1079 127.354 72.4572 127.071 72.7532C126.788 73.0479 126.47 73.2946 126.115 73.4919C125.76 73.6879 125.405 73.8466 125.049 73.9639L127.82 78.3372C128.163 78.8759 128.494 79.2799 128.817 79.5492C129.139 79.8186 129.513 79.9532 129.94 79.9532H130V80.7999H129.713C129.083 80.7999 128.565 80.7772 128.161 80.7306C127.757 80.6852 127.413 80.5959 127.131 80.4652C126.848 80.3332 126.607 80.1492 126.405 79.9132C126.205 79.6772 125.99 79.3679 125.76 78.9879L123.029 74.4466H121.352V78.6039C121.352 78.8986 121.396 79.1372 121.485 79.3172C121.574 79.4986 121.695 79.6346 121.846 79.7266C121.996 79.8186 122.172 79.8786 122.372 79.9079C122.573 79.9386 122.785 79.9532 123.009 79.9532H123.274V80.7999H117.398V79.9532H117.654C117.878 79.9532 118.09 79.9386 118.291 79.9079C118.491 79.8786 118.666 79.8186 118.817 79.7266C118.969 79.6346 119.089 79.4986 119.178 79.3172C119.267 79.1372 119.311 78.8986 119.311 78.6039V68.6159C119.311 68.3199 119.267 68.0826 119.178 67.9026C119.089 67.7212 118.969 67.5812 118.817 67.4839C118.666 67.3852 118.491 67.3212 118.291 67.2919C118.09 67.2612 117.878 67.2466 117.654 67.2466H117.398V66.3999ZM121.352 67.3652V73.5012H122.772C123.363 73.5012 123.857 73.4359 124.251 73.3039C124.646 73.1732 124.961 72.9759 125.198 72.7132C125.434 72.4506 125.604 72.1226 125.706 71.7279C125.808 71.3346 125.859 70.8746 125.859 70.3492C125.859 69.8106 125.803 69.3532 125.691 68.9759C125.579 68.5986 125.398 68.2892 125.149 68.0492C124.898 67.8106 124.574 67.6359 124.178 67.5279C123.78 67.4199 123.294 67.3652 122.723 67.3652H121.352Z" fill="#F2FAFF"/>
<path fill-rule="evenodd" clip-rule="evenodd" d="M21.198 67.4666H22.121V69.9679H24.7522V71.1292H22.121V77.9799C22.121 78.6746 22.26 79.1839 22.5382 79.5079C22.8163 79.8319 23.1878 79.9945 23.6526 79.9945C23.8948 79.9945 24.1173 79.9812 24.3202 79.9546C24.5232 79.9279 24.7293 79.8946 24.9388 79.8559V80.7492C24.8536 80.7892 24.7425 80.8279 24.6049 80.8679C24.4675 80.9079 24.3185 80.9426 24.1583 80.9719C23.9979 81.0026 23.8293 81.0252 23.6526 81.0412C23.4758 81.0586 23.3089 81.0666 23.1518 81.0666C22.6412 81.0666 22.2027 81.0119 21.8362 80.9026C21.4697 80.7932 21.1685 80.6159 20.9328 80.3719C20.6972 80.1266 20.5221 79.8026 20.4076 79.3986C20.293 78.9946 20.2358 78.5026 20.2358 77.9199V71.1292H18.7041V70.3159C18.9463 70.3159 19.2131 70.2666 19.5043 70.1666C19.7956 70.0679 20.0525 69.9026 20.2751 69.6706C20.5041 69.4186 20.6891 69.1199 20.8297 68.7719C20.9705 68.4252 21.0932 67.9892 21.198 67.4666Z" fill="#F2FAFF"/>
<path fill-rule="evenodd" clip-rule="evenodd" d="M17.5385 41.2147L19.7716 40.82L21.9912 38.2347L25.916 33.2547L29.1643 29.9893C30.1603 30.372 31.1885 30.6627 32.2366 30.86C32.9132 30.86 39.7479 18.3147 39.7479 18.3147L47.2594 23.988L52.6731 12.6543L55.3799 11.4568L64.5156 0L75.9655 16.1376L80.0258 13.906L86.3461 23.8667L90.623 19.7841C90.623 19.7841 102.262 36.7387 102.939 37.6093C103.615 38.48 105.849 35.3773 105.849 35.3773L108.068 38.8067L110.288 37.4453L124.296 57.012L111.317 43.6093L107.892 44.1267L105.335 41.732H101.409L97.4708 38.0987L94.7647 32.248L92.0577 31.228L91.0289 33.9493L96.1589 40.1267L98.7164 44.9293L100.259 49.2293L94.9544 43.5547L90.6907 40.4667L87.104 35.84L82.6243 32.792L79.7144 28.3293L76.4797 30.5613C76.4797 30.5613 68.8464 19.2943 68.6705 19.1175L72.2165 19.4032L70.1728 17.1716L66.3967 12.7087L61.2673 18.1513L55.8537 20.7227L53.2956 25.8667L48.9783 31.296L44.7014 34.0173L40.2623 41.228L34.9704 45.1747L30.5312 49.8L25.4017 54.264L33.0891 41.2147L34.9704 40.82L39.7479 35.6627L42.306 30.22L40.2623 26.6147L37.5554 32.9693L32.1418 37.9493L28.9071 33.8667L24.6304 38.6707C24.6304 38.6707 23.94 46.3987 23.94 47.0933C23.94 47.7867 21.5581 47.6093 21.5581 47.6093L15.8332 50.6573L6.10205 59.0667L17.5385 41.2147Z" fill="#F2FAFF"/>
<path fill-rule="evenodd" clip-rule="evenodd" d="M59.762 93.0799L61.0527 96.5516H58.4713L59.762 93.0799ZM82.0802 92.4227V98.7977H82.6239V95.742H86.3015V98.7977H86.8497V92.4227H86.3015V95.2862H82.6239V92.4227H82.0802ZM73.0095 92.4227V92.8785H75.2109V98.7977H75.7545V92.8785H77.9604V92.4227H73.0095ZM66.2377 92.4227V98.7977H69.964V98.3432H66.7859V92.4227H66.2377ZM59.5056 92.4227L57.07 98.7977H57.6402L58.3033 97.0075H61.225L61.8926 98.7977H62.4584L60.0228 92.4227H59.5056ZM49.8295 92.4227V98.7977H53.8344V98.3432H50.3733V95.742H53.3834V95.2862H50.3733V92.8785H53.8122V92.4227H49.8295ZM40.7768 92.4227V98.7977H41.3204V95.742H44.998V98.7977H45.5462V92.4227H44.998V95.2862H41.3204V92.4227H40.7768ZM0 87.7014H130V104H0V87.7014Z" fill="#F2FAFF"/>
</svg>
