<svg width="290" height="58" viewBox="0 0 290 58" fill="none" xmlns="http://www.w3.org/2000/svg">
<path fill-rule="evenodd" clip-rule="evenodd" d="M250.963 4.26831C252.355 4.26831 253.584 4.50935 254.652 4.99143C255.72 5.47351 256.622 6.15897 257.359 7.04529C258.095 7.93162 258.65 9.0012 259.027 10.2491C259.404 11.497 259.593 12.8905 259.593 14.4296C259.593 15.9537 259.404 17.3397 259.027 18.5926C258.65 19.8455 258.095 20.9176 257.359 21.8089C256.622 22.7003 255.715 23.3907 254.64 23.8753C253.561 24.3624 252.328 24.606 250.935 24.606C249.473 24.606 248.199 24.3624 247.113 23.8753C246.027 23.3907 245.125 22.7003 244.407 21.8089C243.688 20.9176 243.15 19.8429 242.791 18.585C242.431 17.3296 242.253 15.9361 242.253 14.4045C242.253 12.8729 242.431 11.4819 242.791 10.234C243.15 8.98615 243.688 7.92156 244.407 7.03776C245.125 6.15646 246.032 5.47351 247.126 4.99143C248.221 4.50935 249.5 4.26831 250.963 4.26831ZM250.963 5.76726C249.94 5.76726 249.068 5.96313 248.352 6.34979C247.633 6.73646 247.048 7.29888 246.595 8.03957C246.141 8.77775 245.814 9.68415 245.613 10.7613C245.409 11.8384 245.309 13.0612 245.309 14.4296C245.309 15.8005 245.409 17.0233 245.613 18.1004C245.814 19.1751 246.138 20.0865 246.588 20.8297C247.038 21.5729 247.618 22.1403 248.332 22.532C249.046 22.9237 249.913 23.1196 250.935 23.1196C251.961 23.1196 252.828 22.9237 253.541 22.532C254.255 22.1403 254.833 21.5729 255.278 20.8297C255.723 20.0865 256.042 19.1751 256.24 18.1004C256.439 17.0233 256.537 15.8005 256.537 14.4296C256.537 13.0612 256.439 11.8384 256.24 10.7613C256.042 9.68415 255.723 8.77775 255.278 8.03957C254.833 7.29888 254.26 6.73646 253.554 6.34979C252.85 5.96313 251.986 5.76726 250.963 5.76726Z" fill="#F2FAFF"/>
<path fill-rule="evenodd" clip-rule="evenodd" d="M151.612 4.26831C152.438 4.26831 153.172 4.35368 153.811 4.52442C154.451 4.69767 154.992 4.92615 155.431 5.2149C155.874 5.50364 156.208 5.83506 156.437 6.20917C156.668 6.58328 156.781 6.97498 156.781 7.37922C156.781 7.9768 156.585 8.42372 156.195 8.72753C155.803 9.02883 155.273 9.17949 154.607 9.17949C154.607 8.74763 154.557 8.32077 154.454 7.90146C154.348 7.48216 154.175 7.10805 153.934 6.77913C153.69 6.45022 153.371 6.18157 152.974 5.97317C152.579 5.76477 152.087 5.66183 151.504 5.66183C150.971 5.66183 150.496 5.73713 150.079 5.88527C149.659 6.0334 149.307 6.24683 149.018 6.52051C148.729 6.7967 148.511 7.12815 148.357 7.51482C148.204 7.90399 148.126 8.33584 148.126 8.81541C148.126 9.36528 148.199 9.84987 148.342 10.2692C148.488 10.6885 148.727 11.0676 149.066 11.4066C149.403 11.7456 149.847 12.0644 150.395 12.3657C150.946 12.6695 151.619 12.9834 152.421 13.3073C153.23 13.6412 153.954 13.9927 154.587 14.3618C155.223 14.7334 155.761 15.1452 156.2 15.5997C156.643 16.0566 156.979 16.5663 157.213 17.1287C157.447 17.6937 157.565 18.3314 157.565 19.0445C157.565 19.9208 157.404 20.7016 157.085 21.3921C156.766 22.0826 156.308 22.6676 155.715 23.1447C155.122 23.6217 154.406 23.9858 153.569 24.2344C152.732 24.4829 151.795 24.606 150.76 24.606C149.86 24.606 149.066 24.5106 148.377 24.3222C147.689 24.1314 147.113 23.8678 146.648 23.5313C146.186 23.1924 145.837 22.7806 145.603 22.2985C145.369 21.8165 145.251 21.2867 145.251 20.7092C145.251 20.1493 145.425 19.6998 145.771 19.3558C146.118 19.0119 146.611 18.8411 147.249 18.8411C147.277 19.4186 147.365 19.9735 147.513 20.5058C147.661 21.0381 147.885 21.5076 148.181 21.9144C148.478 22.3186 148.857 22.645 149.315 22.8886C149.775 23.1321 150.327 23.2526 150.976 23.2526C152.217 23.2526 153.187 22.9539 153.886 22.3538C154.584 21.7537 154.931 20.8899 154.931 19.7626C154.931 19.2554 154.861 18.811 154.715 18.4218C154.572 18.0351 154.333 17.6761 154.001 17.3472C153.667 17.0183 153.227 16.7019 152.685 16.3981C152.139 16.0968 151.461 15.7779 150.652 15.444C149.797 15.0925 149.051 14.7158 148.41 14.3141C147.772 13.9149 147.242 13.468 146.817 12.9759C146.395 12.4837 146.081 11.9364 145.872 11.3313C145.666 10.7261 145.563 10.0457 145.563 9.28744C145.563 8.49402 145.714 7.78598 146.015 7.1633C146.317 6.54061 146.736 6.01584 147.277 5.58649C147.817 5.15965 148.455 4.83324 149.194 4.60727C149.933 4.38129 150.737 4.26831 151.612 4.26831Z" fill="#F2FAFF"/>
<path fill-rule="evenodd" clip-rule="evenodd" d="M101.776 4.77051H108.026L113.701 20.4556L119.322 4.77051H125.399V5.92297H125.052C124.738 5.92297 124.446 5.94557 124.175 5.99076C123.901 6.03345 123.662 6.12634 123.459 6.26444C123.252 6.40253 123.092 6.60088 122.976 6.8595C122.86 7.11811 122.803 7.46212 122.803 7.89147V21.234C122.803 21.6633 122.86 22.0073 122.976 22.2659C123.092 22.5245 123.252 22.7229 123.459 22.861C123.662 22.9991 123.901 23.092 124.175 23.1372C124.446 23.1799 124.738 23.2025 125.052 23.2025H125.399V24.3549H118.103V23.2025H118.199C118.493 23.2025 118.759 23.1824 118.995 23.1422C119.232 23.102 119.433 23.0217 119.596 22.9011C119.762 22.7806 119.893 22.6074 119.991 22.3789C120.089 22.1504 120.149 21.8491 120.167 21.475V6.81935L113.889 24.3549H112.404L106.046 6.87458V21.234C106.046 21.6633 106.091 22.0073 106.179 22.2659C106.27 22.5245 106.4 22.7229 106.574 22.861C106.75 22.9991 106.958 23.092 107.204 23.1372C107.448 23.1799 107.722 23.2025 108.026 23.2025H108.107V24.3549H101.776V23.2025H102.126C102.427 23.2025 102.716 23.1824 102.988 23.1422C103.259 23.102 103.498 23.0192 103.704 22.8936C103.91 22.7706 104.071 22.5848 104.191 22.3387C104.312 22.0927 104.372 21.7688 104.372 21.367V7.7835C104.372 7.38176 104.312 7.05787 104.191 6.81432C104.071 6.56826 103.91 6.37743 103.704 6.24436C103.498 6.11129 103.259 6.0234 102.988 5.98322C102.716 5.94305 102.427 5.92297 102.126 5.92297H101.776V4.77051Z" fill="#F2FAFF"/>
<path fill-rule="evenodd" clip-rule="evenodd" d="M158.822 4.77051H166.911V5.92045H166.546C166.237 5.92045 165.943 5.94306 165.662 5.98825C165.383 6.03345 165.139 6.12383 164.936 6.26192C164.732 6.40002 164.571 6.60088 164.448 6.8595C164.325 7.11811 164.265 7.45961 164.265 7.88896V18.5825C164.265 19.376 164.38 20.0539 164.611 20.6113C164.843 21.1687 165.162 21.6206 165.574 21.9696C165.986 22.3161 166.476 22.5723 167.042 22.7329C167.607 22.8936 168.228 22.974 168.906 22.974C169.713 22.974 170.406 22.866 170.992 22.6526C171.575 22.4366 172.057 22.1404 172.442 21.7613C172.826 21.3821 173.113 20.9327 173.299 20.4104C173.485 19.8882 173.578 19.3157 173.578 18.6905V7.78098C173.578 7.37925 173.515 7.05787 173.394 6.81181C173.271 6.56575 173.105 6.37743 172.897 6.24185C172.691 6.10877 172.447 6.02088 172.171 5.98071C171.897 5.94054 171.603 5.92045 171.296 5.92045H170.944V4.77051H177.92V5.92045H177.553C177.247 5.92045 176.953 5.94306 176.671 5.98825C176.39 6.03345 176.149 6.12383 175.945 6.26192C175.742 6.40002 175.578 6.60088 175.458 6.8595C175.334 7.11811 175.274 7.45961 175.274 7.88896V18.7432C175.274 19.6547 175.126 20.4732 174.832 21.1988C174.538 21.927 174.103 22.5421 173.53 23.0468C172.955 23.5515 172.241 23.9356 171.392 24.2043C170.54 24.4729 169.562 24.606 168.459 24.606C167.363 24.606 166.383 24.493 165.514 24.2645C164.644 24.0361 163.91 23.677 163.307 23.1798C162.707 22.6852 162.247 22.0475 161.93 21.2666C161.613 20.4857 161.455 19.5367 161.455 18.4218V7.78098C161.455 7.37925 161.395 7.05787 161.272 6.81181C161.149 6.56575 160.985 6.37743 160.777 6.24185C160.568 6.10877 160.327 6.02088 160.05 5.98071C159.774 5.94054 159.482 5.92045 159.173 5.92045H158.822V4.77051Z" fill="#F2FAFF"/>
<path fill-rule="evenodd" clip-rule="evenodd" d="M179.428 4.77051H187.196C188.357 4.77051 189.364 4.90106 190.221 5.16469C191.076 5.42833 191.784 5.80998 192.342 6.30462C192.9 6.79925 193.317 7.39935 193.591 8.10489C193.865 8.81043 194.003 9.61136 194.003 10.5027C194.003 11.3162 193.875 12.0971 193.619 12.8478C193.363 13.5986 192.94 14.2614 192.355 14.8364C191.769 15.4139 191.005 15.8734 190.058 16.2173C189.113 16.5613 187.957 16.7321 186.588 16.7321H184.844V21.367C184.844 21.7688 184.906 22.0927 185.027 22.3387C185.148 22.5848 185.313 22.7706 185.519 22.8936C185.728 23.0192 185.969 23.102 186.243 23.1422C186.517 23.1824 186.809 23.2025 187.115 23.2025H188.032V24.3549H179.428V23.2025H179.78C180.094 23.2025 180.39 23.1799 180.664 23.1372C180.938 23.092 181.18 22.9991 181.386 22.861C181.594 22.7229 181.755 22.5245 181.873 22.2659C181.991 22.0073 182.049 21.6633 182.049 21.234V7.7835C182.049 7.38176 181.989 7.05787 181.866 6.81432C181.745 6.56826 181.579 6.37743 181.373 6.24436C181.167 6.11129 180.926 6.0234 180.649 5.98322C180.375 5.94305 180.086 5.92297 179.78 5.92297H179.428V4.77051ZM184.844 6.08366V15.434H186.316C187.155 15.434 187.872 15.3461 188.465 15.1729C189.06 14.9971 189.545 14.7159 189.925 14.3292C190.302 13.94 190.578 13.4404 190.754 12.8277C190.93 12.2151 191.018 11.4769 191.018 10.6107C191.018 9.84237 190.943 9.1745 190.789 8.60957C190.636 8.04212 190.387 7.57008 190.045 7.19597C189.704 6.81935 189.259 6.54062 188.716 6.35733C188.171 6.17404 187.505 6.08366 186.723 6.08366H184.844Z" fill="#F2FAFF"/>
<path fill-rule="evenodd" clip-rule="evenodd" d="M195.762 4.77051H209.755L209.891 9.56617H208.453L208.317 8.38861C208.282 8.0848 208.212 7.79604 208.109 7.52236C208.003 7.25119 207.855 7.01267 207.661 6.80678C207.465 6.60089 207.222 6.4377 206.928 6.31718C206.634 6.19666 206.279 6.13638 205.865 6.13638H201.201V13.4379H207.898V14.7761H201.201V22.9891H206.556C206.998 22.9891 207.375 22.9288 207.687 22.8082C208.001 22.6877 208.26 22.5245 208.468 22.3187C208.674 22.1128 208.838 21.8742 208.956 21.6031C209.074 21.3294 209.154 21.0406 209.199 20.7368L209.39 19.5593H210.84L210.649 24.3549H195.762V23.2025H196.114C196.423 23.2025 196.715 23.1824 196.989 23.1422C197.265 23.102 197.506 23.0192 197.715 22.8936C197.924 22.7706 198.087 22.5848 198.21 22.3387C198.331 22.0927 198.394 21.7688 198.394 21.367V7.89147C198.394 7.46212 198.333 7.11811 198.218 6.8595C198.1 6.60088 197.936 6.40253 197.728 6.26444C197.522 6.12634 197.278 6.03345 197.004 5.99076C196.727 5.94557 196.431 5.92297 196.114 5.92297H195.762V4.77051Z" fill="#F2FAFF"/>
<path fill-rule="evenodd" clip-rule="evenodd" d="M213.102 4.77051H220.578C222.983 4.77051 224.775 5.2099 225.951 6.0912C227.127 6.96999 227.715 8.29318 227.715 10.0608C227.715 10.794 227.595 11.4342 227.356 11.9841C227.115 12.534 226.801 13.0085 226.414 13.4103C226.024 13.812 225.584 14.1484 225.097 14.4146C224.607 14.6832 224.119 14.8966 223.632 15.0573L227.444 21.0055C227.914 21.7387 228.371 22.2885 228.814 22.6526C229.258 23.0192 229.774 23.2025 230.362 23.2025H230.442V24.3549H230.047C229.18 24.3549 228.467 24.3248 227.911 24.262C227.356 24.1993 226.884 24.0787 226.494 23.9005C226.105 23.7197 225.773 23.4711 225.496 23.1497C225.22 22.8283 224.923 22.4091 224.607 21.8893L220.85 15.7152H218.543V21.367C218.543 21.7688 218.603 22.0927 218.726 22.3387C218.85 22.5848 219.013 22.7706 219.221 22.8936C219.43 23.0192 219.671 23.102 219.948 23.1422C220.224 23.1824 220.516 23.2025 220.822 23.2025H221.189V24.3549H213.102V23.2025H213.454C213.763 23.2025 214.055 23.1824 214.331 23.1422C214.605 23.102 214.849 23.0192 215.055 22.8936C215.263 22.7706 215.429 22.5848 215.55 22.3387C215.673 22.0927 215.733 21.7688 215.733 21.367V7.7835C215.733 7.38176 215.673 7.05787 215.55 6.81432C215.429 6.56826 215.263 6.37743 215.055 6.24436C214.849 6.11129 214.605 6.0234 214.331 5.98322C214.055 5.94305 213.763 5.92297 213.454 5.92297H213.102V4.77051ZM218.543 6.08366V14.4296H220.496C221.31 14.4296 221.988 14.3393 222.531 14.161C223.074 13.9827 223.509 13.714 223.835 13.3575C224.159 13.001 224.393 12.5541 224.534 12.0167C224.675 11.4819 224.742 10.8567 224.742 10.1412C224.742 9.41051 224.667 8.78781 224.514 8.27309C224.358 7.76089 224.109 7.33906 223.767 7.01517C223.423 6.68876 222.978 6.45276 222.431 6.30462C221.883 6.15648 221.217 6.08366 220.428 6.08366H218.543Z" fill="#F2FAFF"/>
<path fill-rule="evenodd" clip-rule="evenodd" d="M231.196 4.77051H239.237V5.92297H238.873C238.566 5.92297 238.275 5.94557 237.996 5.99076C237.717 6.03345 237.476 6.12634 237.275 6.26444C237.071 6.40253 236.91 6.60088 236.787 6.8595C236.667 7.11811 236.606 7.46212 236.606 7.89147V21.234C236.606 21.6633 236.667 22.0073 236.787 22.2659C236.91 22.5245 237.071 22.7229 237.275 22.861C237.476 22.9991 237.717 23.092 237.996 23.1372C238.275 23.1799 238.566 23.2025 238.873 23.2025H239.237V24.3549H231.196V23.2025H231.548C231.862 23.2025 232.156 23.1799 232.43 23.1372C232.704 23.092 232.945 22.9991 233.153 22.861C233.36 22.7229 233.52 22.5245 233.638 22.2659C233.754 22.0073 233.814 21.6633 233.814 21.234V7.89147C233.814 7.46212 233.754 7.11811 233.638 6.8595C233.52 6.60088 233.36 6.40253 233.153 6.26444C232.945 6.12634 232.704 6.03345 232.43 5.99076C232.156 5.94557 231.862 5.92297 231.548 5.92297H231.196V4.77051Z" fill="#F2FAFF"/>
<path fill-rule="evenodd" clip-rule="evenodd" d="M262.357 4.77051H269.833C272.238 4.77051 274.03 5.2099 275.206 6.0912C276.382 6.96999 276.97 8.29318 276.97 10.0608C276.97 10.794 276.849 11.4342 276.611 11.9841C276.369 12.534 276.055 13.0085 275.666 13.4103C275.279 13.812 274.839 14.1484 274.351 14.4146C273.861 14.6832 273.374 14.8966 272.886 15.0573L276.699 21.0055C277.169 21.7387 277.626 22.2885 278.068 22.6526C278.513 23.0192 279.028 23.2025 279.616 23.2025H279.697V24.3549H279.302C278.435 24.3549 277.721 24.3248 277.166 24.262C276.611 24.1993 276.138 24.0787 275.749 23.9005C275.359 23.7197 275.027 23.4711 274.751 23.1497C274.475 22.8283 274.178 22.4091 273.861 21.8893L270.104 15.7152H267.798V21.367C267.798 21.7688 267.858 22.0927 267.981 22.3387C268.104 22.5848 268.268 22.7706 268.476 22.8936C268.685 23.0192 268.926 23.102 269.202 23.1422C269.479 23.1824 269.77 23.2025 270.077 23.2025H270.444V24.3549H262.357V23.2025H262.709C263.018 23.2025 263.309 23.1824 263.586 23.1422C263.86 23.102 264.103 23.0192 264.31 22.8936C264.518 22.7706 264.684 22.5848 264.807 22.3387C264.928 22.0927 264.988 21.7688 264.988 21.367V7.7835C264.988 7.38176 264.928 7.05787 264.807 6.81432C264.684 6.56826 264.518 6.37743 264.31 6.24436C264.103 6.11129 263.86 6.0234 263.586 5.98322C263.309 5.94305 263.018 5.92297 262.709 5.92297H262.357V4.77051ZM267.798 6.08366V14.4296H269.75C270.564 14.4296 271.243 14.3393 271.786 14.161C272.329 13.9827 272.763 13.714 273.09 13.3575C273.414 13.001 273.648 12.5541 273.789 12.0167C273.929 11.4819 273.997 10.8567 273.997 10.1412C273.997 9.41051 273.922 8.78781 273.768 8.27309C273.613 7.76089 273.364 7.33906 273.022 7.01517C272.678 6.68876 272.233 6.45276 271.685 6.30462C271.137 6.15648 270.471 6.08366 269.682 6.08366H267.798Z" fill="#F2FAFF"/>
<path fill-rule="evenodd" clip-rule="evenodd" d="M130.575 6.2771H131.839V9.64915H135.446V11.2134H131.839V20.4457C131.839 21.3822 132.03 22.0677 132.412 22.5045C132.794 22.9414 133.302 23.1624 133.94 23.1624C134.272 23.1624 134.576 23.1423 134.855 23.1071C135.131 23.072 135.415 23.0268 135.702 22.9741V24.1768C135.586 24.232 135.433 24.2847 135.245 24.3375C135.056 24.3927 134.853 24.4379 134.631 24.478C134.413 24.5182 134.182 24.5509 133.94 24.5735C133.697 24.5961 133.468 24.6061 133.252 24.6061C132.553 24.6061 131.953 24.5333 131.45 24.3851C130.947 24.237 130.535 23.9985 130.211 23.6696C129.889 23.3407 129.648 22.9038 129.492 22.3589C129.334 21.8141 129.256 21.1487 129.256 20.3653V11.2134H127.158V10.1162C127.489 10.1162 127.856 10.0509 128.253 9.91528C128.653 9.78221 129.005 9.55873 129.311 9.24739C129.625 8.90843 129.877 8.5042 130.07 8.03719C130.264 7.56766 130.432 6.98264 130.575 6.2771Z" fill="#F2FAFF"/>
<path fill-rule="evenodd" clip-rule="evenodd" d="M11.3067 40.4694L13.5147 40.0828L15.709 37.5443L19.5893 32.6533L22.8009 29.4469C23.7855 29.8236 24.802 30.1098 25.8384 30.3031C26.5073 30.3031 33.2646 17.985 33.2646 17.985L40.6905 23.5565L46.0431 12.4261L48.7195 11.251L57.7512 0L69.0723 15.8458L73.0855 13.6539L79.3353 23.436L83.5622 19.4262C83.5622 19.4262 95.0717 36.0755 95.7402 36.9292C96.4087 37.7854 98.6176 34.7397 98.6176 34.7397L100.811 38.1068L103.005 36.7685L116.854 55.9838L104.023 42.8221L100.638 43.3292L98.1075 40.9791H94.2274L90.3347 37.4113L87.6584 31.6665L84.9821 30.6647L83.9643 33.3362L89.0355 39.4023L91.5636 44.1177L93.089 48.3409L87.8444 42.7693L83.6301 39.7363L80.0842 35.1917L75.6538 32.1988L72.7789 27.8174L69.5799 30.0094C69.5799 30.0094 62.0334 18.9467 61.86 18.7734L65.3656 19.0521L63.3451 16.8627L59.6108 12.4788L54.5396 17.8243L49.1869 20.3477L46.6589 25.3995L42.3893 30.73L38.1624 33.4015L33.7722 40.4845L28.5401 44.3587L24.1522 48.9008L19.0809 53.2847L26.6813 40.4694L28.5401 40.0828L33.2646 35.0184L35.7926 29.6754L33.7722 26.1351L31.0958 32.3745L25.7447 37.2631L22.5466 33.2558L18.3182 37.9712C18.3182 37.9712 17.636 45.5614 17.636 46.2418C17.636 46.9248 15.2808 46.749 15.2808 46.749L9.62076 49.7419L0 58L11.3067 40.4694Z" fill="#F2FAFF"/>
<path fill-rule="evenodd" clip-rule="evenodd" d="M234.51 39.7891L236.483 45.1397H232.54L234.51 39.7891ZM268.594 38.7772V48.5996H269.424V43.8918H275.04V48.5996H275.877V38.7772H275.04V43.1887H269.424V38.7772H268.594ZM254.743 38.7772V39.4802H258.105V48.5996H258.934V39.4802H262.302V38.7772H254.743ZM244.402 38.7772V48.5996H250.091V47.8965H245.238V38.7772H244.402ZM234.121 38.7772L230.399 48.5996H231.271L232.284 45.8402H236.747L237.765 48.5996H238.629L234.91 38.7772H234.121ZM219.342 38.7772V48.5996H225.459V47.8965H220.174V43.8918H224.77V43.1887H220.174V39.4802H225.426V38.7772H219.342ZM205.518 38.7772V48.5996H206.35V43.8918H211.966V48.5996H212.803V38.7772H211.966V43.1887H206.35V38.7772H205.518ZM91.4731 31.1343H290V56.2425H116.601L102.945 37.2833L100.749 38.6215L98.5548 35.252C98.5548 35.252 96.3484 38.3002 95.6774 37.444C95.4286 37.1226 93.6519 34.5817 91.5309 31.526L91.4731 31.4431V31.1343Z" fill="#F2FAFF"/>
</svg>
