<svg width="200" height="200" viewBox="0 0 200 200" fill="none" xmlns="http://www.w3.org/2000/svg">
<path d="M100 2.5C153.849 2.5 197.5 46.1512 197.5 100C197.5 153.849 153.849 197.5 100 197.5C46.1513 197.5 2.5 153.844 2.5 100C2.5 46.1512 46.1512 2.5 100 2.5Z" fill="#F6F9FD" stroke="#CFD4D9" stroke-width="5"/>
<path fill-rule="evenodd" clip-rule="evenodd" d="M137.819 122.249C133.788 120.389 125.373 117.769 124.495 111.511C123.993 107.943 123.967 104.458 123.958 103.707C123.932 100.301 124.033 96.8116 124.343 93.1564C119.783 101.655 112.246 107.083 101.298 106.851C93.6296 106.69 86.8782 100.314 82.4893 91.8594C83.0658 96.3137 83.3846 100.572 83.5025 104.794C83.5069 104.987 83.4632 106.349 83.4108 107.799C83.1968 114.044 76.3013 118.533 70.1875 120.651C85.865 147.967 120.901 148.56 137.819 122.249Z" fill="url(#paint0_linear_1518_6341)"/>
<path fill-rule="evenodd" clip-rule="evenodd" d="M134.511 62.1747C134.349 62.1266 134.188 62.0873 134.017 62.0786C132.31 61.9651 131.048 63.7468 130.188 66.5941C130.179 66.6159 130.174 66.6377 130.17 66.6596C129.524 68.83 129.109 71.6117 128.908 74.6599C129.109 71.6117 129.524 68.83 130.17 66.6596C130.17 66.6465 130.174 66.629 130.174 66.6159C130.091 66.7295 130.004 66.843 129.908 66.9609C129.432 59.2662 126.821 45.8683 125.716 42.5756C123.235 40.5231 120.178 36.3133 94.09 37.0907C91.0549 36.2173 82.7489 42.5232 82.6484 42.6848C81.727 44.1521 80.4649 47.0649 79.6963 51.3882C77.1504 65.7425 78.4343 61.7074 77.5915 66.9696C77.4517 66.8735 77.1067 66.4849 76.6438 65.9827C76.6133 65.8779 76.5827 65.7643 76.5521 65.6639C75.7267 63.1747 74.5476 61.6463 72.9712 61.7336C72.5738 61.7554 72.207 61.8908 71.8663 62.1135C69.6392 63.5852 68.7876 69.0832 70.5693 74.2756C72.6218 80.2584 73.8708 85.6691 76.884 85.5032C78.1548 85.4333 78.8229 84.5861 79.0675 83.1537C79.9453 86.2237 81.12 89.2151 82.5567 91.9838C86.9412 100.443 93.6926 106.818 101.361 106.976C112.309 107.203 119.842 101.775 124.406 93.2808C125.978 90.3505 127.196 87.0491 128.078 83.49C128.113 84.9398 128.55 85.7215 129.864 85.8088C132.878 86.0054 134.183 80.6121 136.293 74.6468C138.284 69.0178 137.175 63 134.511 62.1747Z" fill="url(#paint1_linear_1518_6341)"/>
<path fill-rule="evenodd" clip-rule="evenodd" d="M184.251 153.89C182.775 146.898 180.142 140.985 173.373 136.457C161.499 128.513 138.319 122.723 129.646 117.591C120.305 146.103 80.9279 140.038 76.1111 117.133C65.9011 120.871 38.603 127.286 28.2357 136.701C25.5544 139.134 23.1002 146.374 22.4364 149.256L20.6328 160.82C38.9131 184.638 67.6654 200.001 100.007 200.001C135.384 199.997 166.473 181.62 184.251 153.89Z" fill="#00818E"/>
<path fill-rule="evenodd" clip-rule="evenodd" d="M77.5837 66.9643C78.4265 61.7021 77.1426 65.7372 79.6886 51.3829C80.4572 47.0596 82.3699 44.4961 83.2957 43.0288C85.0338 40.282 124.996 47.5879 125.123 47.6927C126.228 50.9854 128.394 60.3789 129.905 66.9512C130.001 66.8333 130.088 66.7198 130.171 66.6062C130.175 66.6019 130.18 66.5931 130.189 66.5887C131.049 63.7371 132.311 61.9597 134.018 62.0733C134.189 62.0864 134.35 62.1213 134.512 62.1693C136.796 37.8452 124.057 22.3205 99.6632 16.9316C101.476 19.1282 101.436 20.1326 101.222 23.076C93.7416 18.4863 90.4401 17.9011 86.1823 18.1675C90.6497 23.4646 91.3747 25.6351 90.1737 26.4299C86.75 24.6656 86.143 23.1983 83.2215 19.4994C87.6147 26.0281 71.6533 45.8717 72.959 61.7283C76.2823 61.7283 75.3434 65.4489 77.5837 66.9643Z" fill="url(#paint2_linear_1518_6341)"/>
<path d="M59.2626 164.882C58.0722 164.893 57.0987 163.937 57.0878 162.747C56.7461 125.509 74.9612 116.586 75.7067 116.163C76.7438 115.574 76.7982 115.528 77.9358 115.529C78.545 116.164 78.545 116.382 77.4533 117.255C77.243 117.379 61.082 128.291 61.3979 162.707C61.4088 163.898 60.453 164.871 59.2626 164.882Z" fill="#D0D7DC"/>
<path d="M59.3725 177.094C64.1335 177.05 67.9576 173.155 67.9139 168.394C67.8702 163.633 63.9753 159.809 59.2143 159.853C54.4533 159.896 50.6292 163.791 50.6729 168.552C50.7166 173.313 54.6115 177.137 59.3725 177.094Z" fill="#D0D7DC"/>
<path d="M59.3286 173.023C61.8414 173 63.8597 170.944 63.8366 168.431C63.8136 165.918 61.7579 163.9 59.2451 163.923C56.7323 163.946 54.714 166.002 54.7371 168.515C54.7601 171.027 56.8158 173.046 59.3286 173.023Z" fill="#B2B9BF"/>
<path d="M144.438 168.936L140.885 166.495C144.042 161.901 145.853 155.015 145.853 147.6C145.853 134.749 140.26 123.892 133.64 123.892C127.02 123.892 121.427 134.749 121.427 147.6C121.427 155.015 123.238 161.901 126.395 166.495L122.843 168.936C119.205 163.642 117.117 155.865 117.117 147.6C117.117 131.889 124.375 119.582 133.641 119.582C142.906 119.582 150.164 131.889 150.164 147.6C150.163 155.865 148.076 163.642 144.438 168.936Z" fill="#D0D7DC"/>
<path d="M124.795 170.382C126.382 170.382 127.669 169.095 127.669 167.508C127.669 165.921 126.382 164.635 124.795 164.635C123.208 164.635 121.922 165.921 121.922 167.508C121.922 169.095 123.208 170.382 124.795 170.382Z" fill="#545465"/>
<path d="M142.256 170.589C143.843 170.589 145.13 169.302 145.13 167.715C145.13 166.128 143.843 164.842 142.256 164.842C140.669 164.842 139.383 166.128 139.383 167.715C139.383 169.302 140.669 170.589 142.256 170.589Z" fill="#545465"/>
<path d="M134.15 123.803C133.262 123.803 132.716 123.597 132.404 122.712C130.531 117.406 126.178 114.925 126.072 114.851C125.097 114.168 125.198 113.541 125.198 113.541C125.198 113.541 126.29 112.449 127.818 113.104C127.988 113.223 133.317 114.734 135.675 121.416C136.071 122.538 135.928 123.407 134.805 123.803C134.568 123.886 134.388 123.803 134.15 123.803Z" fill="#D0D7DC"/>
<defs>
<linearGradient id="paint0_linear_1518_6341" x1="102.258" y1="154.587" x2="107.721" y2="50.9265" gradientUnits="userSpaceOnUse">
<stop stop-color="#FDC38B"/>
<stop offset="0.4755" stop-color="#FD955D"/>
</linearGradient>
<linearGradient id="paint1_linear_1518_6341" x1="69.6008" y1="71.9859" x2="201.888" y2="71.9859" gradientUnits="userSpaceOnUse">
<stop stop-color="#FDC38B"/>
<stop offset="0.4761" stop-color="#FD955D"/>
</linearGradient>
<linearGradient id="paint2_linear_1518_6341" x1="72.8839" y1="41.9514" x2="134.775" y2="41.9514" gradientUnits="userSpaceOnUse">
<stop stop-color="#7D4218"/>
<stop offset="1" stop-color="#7D4218"/>
</linearGradient>
</defs>
</svg>
