<svg width="200" height="201" viewBox="0 0 200 201" fill="none" xmlns="http://www.w3.org/2000/svg">
<path d="M100 2.5C153.849 2.5 197.5 46.1512 197.5 100C197.5 153.849 153.849 197.5 100 197.5C46.1512 197.5 2.5 153.849 2.5 100C2.5 46.1512 46.1512 2.5 100 2.5Z" fill="#F6F9FD" stroke="#CFD4D9" stroke-width="5"/>
<path fill-rule="evenodd" clip-rule="evenodd" d="M96.7361 36.1983C116.853 33.5944 130.374 44.0392 129.668 68.5527C128.717 101.889 116.367 106.604 102.194 106.98C83.5023 107.478 75.0463 91.758 73.9343 75.6748C72.6152 56.6199 80.8345 36.2359 96.7361 36.1983Z" fill="url(#paint0_linear_690_7189)"/>
<path fill-rule="evenodd" clip-rule="evenodd" d="M85.3551 98.0838C85.3551 98.0838 88.722 121.53 84.8048 128.111C78.346 136.326 67.6076 138.679 52.2969 146.13C85.3551 223.19 128.824 205.77 152.314 147.09C128.593 133.631 127.379 134.509 121.453 128.172C118.195 124.683 116.981 115.792 116.492 96.7432L85.3551 98.0838Z" fill="url(#paint1_linear_690_7189)"/>
<path fill-rule="evenodd" clip-rule="evenodd" d="M128.962 75.396C128.01 75.3916 127.285 76.1995 126.753 77.5445C126.958 58.1812 127.15 44.4907 102.328 44.4863C96.022 44.4863 94.8604 44.364 91.2969 46.0628C80.9951 50.9757 78.5758 63.1203 78.1348 77.479C77.6107 76.1383 76.8902 75.3348 75.9425 75.3305C73.5975 75.3217 72.1956 80.6058 73.5188 85.7152C74.842 90.8202 75.567 95.4099 77.9121 95.4187C78.8597 95.423 79.2527 94.8728 79.3881 93.8378C83.2398 108.834 94.5547 117.341 101.869 117.594C110.005 118.315 121.482 108.664 125.364 93.1347C125.403 94.6588 125.731 95.4667 126.888 95.4711C129.233 95.4798 129.984 90.8945 131.334 85.7938C132.683 80.6975 131.307 75.4047 128.962 75.396Z" fill="url(#paint2_linear_690_7189)"/>
<path fill-rule="evenodd" clip-rule="evenodd" d="M96.5873 45.5916C125.562 45.3776 127.982 18.289 101.046 18.3939C87.4689 18.4157 69.9878 35.5911 96.5873 45.5916Z" fill="url(#paint3_linear_690_7189)"/>
<path fill-rule="evenodd" clip-rule="evenodd" d="M170.077 171.327L168.094 160.741C166.906 154.492 159.906 147.828 153.356 145.212C144.661 140.993 138.403 139.535 130.442 134.919C120.808 174.702 77.4832 162.977 75.7626 135.111C64.3298 139.299 62.6398 140.57 50.8314 145.151C50.8314 145.164 38.1453 149.278 34.9399 161.929L32.1406 173.44C49.9711 189.926 73.8106 200.005 100.004 200.005C127.298 199.996 152.032 189.057 170.077 171.327Z" fill="#00818E"/>
<path fill-rule="evenodd" clip-rule="evenodd" d="M79.2834 80.3568C82.5805 67.2907 104.236 67.8846 113.547 53.0193C126.242 65.9544 123.744 67.6226 125.373 80.562C127.989 76.4396 128.408 68.5397 128.229 65.557C127.779 51.1677 115.385 37.8047 102.062 39.4642C83.0609 43.2372 79.7463 50.041 73.8203 72.9329C77.41 75.2517 77.7856 76.2955 79.2834 80.3568Z" fill="url(#paint4_linear_690_7189)"/>
<path d="M63.2626 179.293C62.0722 179.304 61.0987 178.348 61.0878 177.158C60.7461 139.92 78.9612 130.998 79.7067 130.575C80.7438 129.985 80.7982 129.939 81.9358 129.94C82.545 130.575 82.545 130.793 81.4533 131.666C81.243 131.79 65.082 142.703 65.3979 177.118C65.4088 178.309 64.453 179.282 63.2626 179.293Z" fill="#D0D7DC"/>
<path d="M63.3725 191.505C68.1335 191.461 71.9576 187.566 71.9139 182.805C71.8702 178.044 67.9753 174.22 63.2143 174.264C58.4533 174.307 54.6292 178.202 54.6729 182.963C54.7166 187.724 58.6115 191.548 63.3725 191.505Z" fill="#D0D7DC"/>
<path d="M63.3286 187.434C65.8414 187.411 67.8597 185.355 67.8366 182.842C67.8136 180.329 65.7579 178.311 63.2451 178.334C60.7323 178.357 58.714 180.413 58.7371 182.926C58.7601 185.439 60.8158 187.457 63.3286 187.434Z" fill="#B2B9BF"/>
<path d="M140.438 183.349L136.885 180.908C140.042 176.314 141.853 169.428 141.853 162.013C141.853 149.162 136.26 138.305 129.64 138.305C123.02 138.305 117.427 149.162 117.427 162.013C117.427 169.428 119.238 176.314 122.395 180.908L118.843 183.349C115.205 178.055 113.117 170.278 113.117 162.013C113.117 146.302 120.375 133.995 129.641 133.995C138.906 133.995 146.164 146.302 146.164 162.013C146.163 170.278 144.076 178.055 140.438 183.349Z" fill="#D0D7DC"/>
<path d="M120.795 184.795C122.382 184.795 123.669 183.508 123.669 181.921C123.669 180.334 122.382 179.048 120.795 179.048C119.208 179.048 117.922 180.334 117.922 181.921C117.922 183.508 119.208 184.795 120.795 184.795Z" fill="#545465"/>
<path d="M138.256 185.002C139.843 185.002 141.13 183.715 141.13 182.128C141.13 180.541 139.843 179.255 138.256 179.255C136.669 179.255 135.383 180.541 135.383 182.128C135.383 183.715 136.669 185.002 138.256 185.002Z" fill="#545465"/>
<path d="M130.15 138.216C129.262 138.216 128.716 138.01 128.404 137.125C126.531 131.819 122.178 129.338 122.072 129.264C121.097 128.581 121.198 127.954 121.198 127.954C121.198 127.954 122.29 126.862 123.818 127.517C123.988 127.636 129.317 129.147 131.675 135.829C132.071 136.951 131.928 137.82 130.805 138.216C130.568 138.299 130.388 138.216 130.15 138.216Z" fill="#D0D7DC"/>
<defs>
<linearGradient id="paint0_linear_690_7189" x1="73.7984" y1="71.4044" x2="129.695" y2="71.4044" gradientUnits="userSpaceOnUse">
<stop stop-color="#34312D"/>
<stop offset="1"/>
</linearGradient>
<linearGradient id="paint1_linear_690_7189" x1="101.661" y1="195.607" x2="102.976" y2="95.5972" gradientUnits="userSpaceOnUse">
<stop stop-color="#A35B36"/>
<stop offset="1" stop-color="#703814"/>
</linearGradient>
<linearGradient id="paint2_linear_690_7189" x1="81.9526" y1="81.7679" x2="190.989" y2="77.6299" gradientUnits="userSpaceOnUse">
<stop stop-color="#9B5E3B"/>
<stop offset="0.698" stop-color="#5A290D"/>
</linearGradient>
<linearGradient id="paint3_linear_690_7189" x1="82.7276" y1="31.994" x2="119.863" y2="31.994" gradientUnits="userSpaceOnUse">
<stop stop-color="#34312D"/>
<stop offset="1"/>
</linearGradient>
<linearGradient id="paint4_linear_690_7189" x1="73.8218" y1="59.9453" x2="128.266" y2="59.9453" gradientUnits="userSpaceOnUse">
<stop stop-color="#34312D"/>
<stop offset="1"/>
</linearGradient>
</defs>
</svg>
