<svg width="200" height="200" viewBox="0 0 200 200" fill="none" xmlns="http://www.w3.org/2000/svg">
<path fill-rule="evenodd" clip-rule="evenodd" d="M99.9956 0C155.225 0 199.996 44.7705 199.996 100C199.996 155.229 155.225 200 99.9956 200C44.7661 200 0 155.229 0 100C0 44.7705 44.7705 0 99.9956 0Z" fill="#80BFC4"/>
<path fill-rule="evenodd" clip-rule="evenodd" d="M148.281 127.542C148.377 127.559 148.469 127.581 148.565 127.599C148.469 127.577 148.377 127.559 148.281 127.542Z" fill="#36393A"/>
<path fill-rule="evenodd" clip-rule="evenodd" d="M59.0156 125.298C59.1204 125.263 59.2252 125.228 59.3257 125.188C59.2252 125.223 59.1204 125.258 59.0156 125.298Z" fill="#36393A"/>
<path fill-rule="evenodd" clip-rule="evenodd" d="M137.811 122.249C133.781 120.389 125.366 117.769 124.488 111.511C123.99 107.943 123.959 104.458 123.951 103.707C123.924 100.301 124.02 96.8116 124.335 93.1564C119.776 101.655 112.238 107.083 101.29 106.851C93.6218 106.69 86.8704 100.318 82.4859 91.8594C83.0624 96.3137 83.3812 100.572 83.4947 104.794C83.4991 104.987 83.4554 106.349 83.403 107.799C83.189 114.044 76.2979 118.533 70.1797 120.651C85.8572 147.971 120.894 148.561 137.811 122.249Z" fill="url(#paint0_linear_690_7121)"/>
<path fill-rule="evenodd" clip-rule="evenodd" d="M127.081 45.002C127.059 45.0282 127.046 45.0631 127.016 45.0849C127.055 45.0675 127.072 45.0369 127.081 45.002Z" fill="white"/>
<path fill-rule="evenodd" clip-rule="evenodd" d="M124.828 47.5654C124.929 47.6091 125.016 47.6528 125.116 47.6965C125.099 47.6615 124.994 47.6178 124.828 47.5654Z" fill="white"/>
<path fill-rule="evenodd" clip-rule="evenodd" d="M78.7617 57.1118C78.7265 57.1162 78.6914 57.103 78.6562 57.0986C78.6914 57.1162 78.7265 57.125 78.7617 57.1118Z" fill="white"/>
<path fill-rule="evenodd" clip-rule="evenodd" d="M134.506 62.1732C134.349 62.1252 134.183 62.0859 134.013 62.0772C132.305 61.9636 131.043 63.741 130.183 66.5927C130.174 66.6145 130.17 66.6363 130.165 66.6582C130.165 66.6407 130.17 66.6276 130.17 66.6101C130.087 66.7237 129.999 66.8372 129.903 66.9551C129.427 59.2605 126.816 45.8625 125.711 42.5698C123.23 40.5173 120.174 36.3075 94.0851 37.0848C91.0501 36.2114 82.744 42.513 82.6436 42.6746C81.7221 44.1419 80.4601 47.0547 79.6915 51.3824C77.1455 65.7367 78.4294 61.7016 77.5866 66.9639C77.4818 66.894 77.2678 66.6625 76.9796 66.3481C76.914 66.1166 76.8486 65.8721 76.7787 65.6538C75.9533 63.1689 74.7742 61.6361 73.1977 61.7235C72.8003 61.7453 72.4335 61.8807 72.0929 62.1034C69.8657 63.5707 69.0142 69.0731 70.7959 74.2655C72.8484 80.2483 74.0974 85.659 77.1106 85.4931C78.6041 85.4101 78.9666 84.4057 78.9142 82.5628C79.805 85.8337 81.0278 89.0303 82.5519 91.9693C86.9363 100.428 93.6877 106.8 101.356 106.961C112.304 107.188 119.842 101.76 124.401 93.2619C125.973 90.3317 127.191 87.0302 128.073 83.4711C128.108 84.921 128.545 85.707 129.86 85.79C132.873 85.9865 134.179 80.5889 136.292 74.6279C138.279 69.0207 137.17 63.003 134.506 62.1732Z" fill="url(#paint1_linear_690_7121)"/>
<path fill-rule="evenodd" clip-rule="evenodd" d="M184.248 153.889C182.772 146.897 180.139 140.984 173.37 136.456C161.496 128.512 138.316 122.722 129.643 117.59C120.302 146.103 80.9246 140.037 76.1078 117.132C65.8977 120.87 38.5996 127.285 28.228 136.7C25.5466 139.137 23.0924 146.373 22.4286 149.256L20.625 160.819C38.9053 184.637 67.6576 200 99.9997 200C135.381 200 166.47 181.619 184.248 153.889Z" fill="#163359"/>
<path fill-rule="evenodd" clip-rule="evenodd" d="M76.3276 65.6625C76.428 65.7717 76.5197 65.8721 76.6114 65.9682C77.0787 66.4791 77.4281 66.8722 77.5678 66.9682C78.4107 61.706 77.1267 65.7411 79.6727 51.3868C80.4413 47.0634 81.699 44.1463 82.6248 42.679C84.3629 39.9321 124.98 47.5919 125.107 47.6967C126.212 50.9894 128.378 60.3828 129.889 66.9552C129.985 66.8372 130.072 66.7237 130.155 66.6102C130.16 66.6058 130.164 66.597 130.173 66.5927C131.033 63.741 132.295 61.9637 134.003 62.0772C134.173 62.086 134.334 62.1252 134.496 62.1733C135.042 56.3564 134.85 50.0767 134.57 43.6703C134.741 25.176 114.076 17.9181 99.2412 18.8482C73.1833 20.4771 68.3403 38.2945 72.3274 62.1078C74.6987 62.1078 75.7206 63.824 76.3276 65.6625Z" fill="url(#paint2_linear_690_7121)"/>
<defs>
<linearGradient id="paint0_linear_690_7121" x1="103.56" y1="140.541" x2="104.031" y2="91.2911" gradientUnits="userSpaceOnUse">
<stop stop-color="#A35B36"/>
<stop offset="1" stop-color="#703814"/>
</linearGradient>
<linearGradient id="paint1_linear_690_7121" x1="80.0897" y1="72.6581" x2="205.005" y2="66.9776" gradientUnits="userSpaceOnUse">
<stop stop-color="#9B5E3B"/>
<stop offset="0.698" stop-color="#5A290D"/>
</linearGradient>
<linearGradient id="paint2_linear_690_7121" x1="71.0955" y1="42.8714" x2="134.845" y2="42.8714" gradientUnits="userSpaceOnUse">
<stop stop-color="#34312D"/>
<stop offset="1"/>
</linearGradient>
</defs>
</svg>
