<svg width="200" height="200" viewBox="0 0 200 200" fill="none" xmlns="http://www.w3.org/2000/svg">
<path fill-rule="evenodd" clip-rule="evenodd" d="M99.9978 0C155.226 0 199.996 44.7695 199.996 99.9978C199.996 155.226 155.226 199.996 99.9978 199.996C44.7695 199.996 0 155.226 0 99.9978C0 44.7695 44.7695 0 99.9978 0Z" fill="#80BFC4"/>
<path fill-rule="evenodd" clip-rule="evenodd" d="M96.7395 36.1973C116.856 33.5934 130.377 44.0381 129.671 68.551C128.719 101.887 116.37 106.602 102.198 106.978C83.506 107.475 75.0502 91.7558 73.9382 75.673C72.6191 56.6185 80.8382 36.2349 96.7395 36.1973Z" fill="url(#paint0_linear_690_7113)"/>
<path fill-rule="evenodd" clip-rule="evenodd" d="M85.3543 98.0809C85.3543 98.0809 88.7212 121.527 84.8041 128.108C78.3454 136.322 67.6072 138.676 52.2969 146.126C85.3544 223.184 128.823 205.764 152.312 147.086C128.591 133.627 127.377 134.505 121.451 128.169C118.193 124.68 116.979 115.789 116.49 96.7402L85.3543 98.0809Z" fill="url(#paint1_linear_690_7113)"/>
<path fill-rule="evenodd" clip-rule="evenodd" d="M128.961 75.3943C128.009 75.3899 127.284 76.1978 126.751 77.5428C126.957 58.18 127.149 44.4897 102.327 44.4853C96.0215 44.4853 94.8599 44.3631 91.2965 46.0618C80.9949 50.9746 78.5757 63.1189 78.1347 77.4773C77.6106 76.1367 76.8901 75.3332 75.9425 75.3288C73.5974 75.3201 72.1956 80.604 73.5188 85.7133C74.842 90.8182 75.5669 95.4078 77.9119 95.4165C78.8596 95.4209 79.2526 94.8707 79.388 93.8357C83.2396 108.832 94.5542 117.338 101.869 117.592C110.004 118.312 121.481 108.661 125.363 93.1327C125.402 94.6567 125.73 95.4646 126.887 95.469C129.232 95.4777 129.983 90.8924 131.332 85.7919C132.682 80.6957 131.306 75.403 128.961 75.3943Z" fill="url(#paint2_linear_690_7113)"/>
<path fill-rule="evenodd" clip-rule="evenodd" d="M96.5869 45.5909C125.561 45.377 127.981 18.2891 101.046 18.3939C87.4688 18.4157 69.9881 35.5907 96.5869 45.5909Z" fill="url(#paint3_linear_690_7113)"/>
<path fill-rule="evenodd" clip-rule="evenodd" d="M170.074 171.323L168.091 160.738C166.903 154.488 159.903 147.825 153.353 145.209C144.658 140.99 138.401 139.532 130.44 134.916C120.806 174.699 77.4822 162.973 75.7617 135.108C64.3291 139.296 62.6391 140.567 50.831 145.148C50.831 145.161 38.1451 149.274 34.9398 161.925L32.1406 173.436C49.9707 189.922 73.8097 200 100.002 200C127.296 199.992 152.03 189.053 170.074 171.323Z" fill="#163359"/>
<path fill-rule="evenodd" clip-rule="evenodd" d="M79.2833 80.3559C82.5803 67.2901 104.236 67.884 113.546 53.019C126.241 65.9538 123.743 67.622 125.372 80.5611C127.987 76.4387 128.407 68.539 128.228 65.5564C127.778 51.1675 115.384 37.8047 102.061 39.4642C83.0607 43.2372 79.7462 50.0408 73.8203 72.9321C77.4099 75.2509 77.7855 76.2946 79.2833 80.3559Z" fill="url(#paint4_linear_690_7113)"/>
<defs>
<linearGradient id="paint0_linear_690_7113" x1="73.8023" y1="71.4026" x2="129.698" y2="71.4026" gradientUnits="userSpaceOnUse">
<stop stop-color="#34312D"/>
<stop offset="1"/>
</linearGradient>
<linearGradient id="paint1_linear_690_7113" x1="101.66" y1="195.602" x2="102.975" y2="95.5943" gradientUnits="userSpaceOnUse">
<stop stop-color="#A35B36"/>
<stop offset="1" stop-color="#703814"/>
</linearGradient>
<linearGradient id="paint2_linear_690_7113" x1="81.9524" y1="81.7661" x2="190.987" y2="77.6282" gradientUnits="userSpaceOnUse">
<stop stop-color="#9B5E3B"/>
<stop offset="0.698" stop-color="#5A290D"/>
</linearGradient>
<linearGradient id="paint3_linear_690_7113" x1="82.7276" y1="31.9937" x2="119.862" y2="31.9937" gradientUnits="userSpaceOnUse">
<stop stop-color="#34312D"/>
<stop offset="1"/>
</linearGradient>
<linearGradient id="paint4_linear_690_7113" x1="73.8218" y1="59.9448" x2="128.264" y2="59.9448" gradientUnits="userSpaceOnUse">
<stop stop-color="#34312D"/>
<stop offset="1"/>
</linearGradient>
</defs>
</svg>
