<svg width="200" height="200" viewBox="0 0 200 200" fill="none" xmlns="http://www.w3.org/2000/svg">
<path fill-rule="evenodd" clip-rule="evenodd" d="M100 0C155.229 0 200 44.7705 200 100C200 155.229 155.229 200 100 200C44.7705 200 0 155.229 0 100C0.004367 44.7705 44.7749 0 100 0Z" fill="#80BFC4"/>
<path fill-rule="evenodd" clip-rule="evenodd" d="M148.281 127.538C148.377 127.556 148.465 127.577 148.565 127.595C148.469 127.577 148.377 127.556 148.281 127.538Z" fill="#36393A"/>
<path fill-rule="evenodd" clip-rule="evenodd" d="M59.0234 125.294C59.1282 125.259 59.233 125.224 59.3335 125.185C59.233 125.22 59.1282 125.259 59.0234 125.294Z" fill="#36393A"/>
<path fill-rule="evenodd" clip-rule="evenodd" d="M137.819 122.25C133.789 120.39 125.373 117.77 124.496 111.512C123.993 107.944 123.967 104.459 123.958 103.708C123.932 100.302 124.033 96.8126 124.343 93.1574C119.784 101.656 112.246 107.084 101.298 106.852C93.6296 106.691 86.8782 100.315 82.4894 91.8604C83.0658 96.3147 83.3846 100.573 83.5025 104.795C83.5069 104.988 83.4632 106.35 83.4108 107.8C83.1968 114.045 76.3013 118.534 70.1875 120.652C85.865 147.968 120.902 148.562 137.819 122.25Z" fill="url(#paint0_linear_690_7132)"/>
<path fill-rule="evenodd" clip-rule="evenodd" d="M127.081 44.998C127.059 45.0242 127.046 45.0592 127.016 45.081C127.055 45.0635 127.072 45.0373 127.081 44.998Z" fill="white"/>
<path fill-rule="evenodd" clip-rule="evenodd" d="M124.828 47.5605C124.929 47.6086 125.02 47.6479 125.121 47.6959C125.108 47.6566 124.998 47.613 124.828 47.5605Z" fill="white"/>
<path fill-rule="evenodd" clip-rule="evenodd" d="M78.7617 57.1079C78.7265 57.1123 78.6914 57.0991 78.6562 57.0947C78.6914 57.1123 78.7265 57.1211 78.7617 57.1079Z" fill="white"/>
<path fill-rule="evenodd" clip-rule="evenodd" d="M134.503 62.1737C134.342 62.1257 134.18 62.0864 134.01 62.0777C132.302 61.9641 131.04 63.7458 130.18 66.5931C130.171 66.615 130.167 66.6368 130.162 66.6586C129.516 68.8291 129.101 71.6108 128.9 74.659C129.101 71.6108 129.516 68.8291 130.162 66.6586C130.162 66.6455 130.167 66.6281 130.167 66.615C130.084 66.7285 129.996 66.842 129.9 66.9599C129.424 59.2653 126.813 45.8673 125.708 42.5746C123.228 40.5221 120.171 36.3124 94.0822 37.0897C91.0471 36.2163 82.7411 42.5222 82.6407 42.6838C81.7192 44.1511 80.4571 47.0639 79.6886 51.3873C77.1426 65.7416 78.4265 61.7065 77.5837 66.9687C77.4439 66.8726 77.0989 66.4839 76.636 65.9817C76.6055 65.8769 76.5749 65.7634 76.5443 65.663C75.7189 63.1738 74.5398 61.6453 72.9634 61.7327C72.566 61.7545 72.1991 61.8899 71.8585 62.1126C69.6313 63.5843 68.7798 69.0823 70.5615 74.2747C72.614 80.2575 73.863 85.6682 76.8762 85.5023C78.147 85.4324 78.8152 84.5852 79.0597 83.1528C79.9375 86.2228 81.1122 89.2142 82.5489 91.9829C86.9334 100.442 93.6848 106.818 101.353 106.975C112.301 107.202 119.834 101.774 124.398 93.2799C125.97 90.3496 127.188 87.0482 128.071 83.4891C128.106 84.9389 128.542 85.7206 129.857 85.8079C132.87 86.0045 134.176 80.6112 136.285 74.6459C138.276 69.0168 137.167 62.9991 134.503 62.1737Z" fill="url(#paint1_linear_690_7132)"/>
<path fill-rule="evenodd" clip-rule="evenodd" d="M184.251 153.889C182.775 146.897 180.142 140.984 173.373 136.456C161.499 128.512 138.319 122.722 129.646 117.59C120.305 146.103 80.928 140.037 76.1112 117.132C65.9012 120.87 38.603 127.285 28.2358 136.7C25.5544 139.133 23.1002 146.373 22.4364 149.256L20.6328 160.819C38.9131 184.637 67.6654 200 100.007 200C135.385 199.996 166.473 181.619 184.251 153.889Z" fill="#163359"/>
<path fill-rule="evenodd" clip-rule="evenodd" d="M77.5915 66.9644C78.4343 61.7021 77.1504 65.7373 79.6964 51.3829C80.465 47.0596 82.3777 44.4962 83.3035 43.0289C85.0416 40.282 125.004 47.588 125.131 47.6928C126.236 50.9855 128.402 60.379 129.913 66.9513C130.009 66.8334 130.096 66.7198 130.179 66.6063C130.183 66.6019 130.188 66.5932 130.196 66.5888C131.057 63.7372 132.319 61.9598 134.026 62.0734C134.197 62.0865 134.358 62.1214 134.52 62.1694C136.804 37.8452 124.065 22.3205 99.6711 16.9316C101.483 19.1282 101.444 20.1326 101.23 23.076C93.7494 18.4863 90.448 17.9011 86.1901 18.1675C90.6576 23.4647 91.3825 25.6351 90.1816 26.4299C86.7578 24.6656 86.1508 23.1983 83.2293 19.4994C87.6225 26.0281 71.6611 45.8718 72.9668 61.7283C76.2901 61.7283 75.3512 65.449 77.5915 66.9644Z" fill="url(#paint2_linear_690_7132)"/>
<defs>
<linearGradient id="paint0_linear_690_7132" x1="102.258" y1="154.588" x2="107.722" y2="50.9274" gradientUnits="userSpaceOnUse">
<stop stop-color="#FDC38B"/>
<stop offset="0.4755" stop-color="#FD955D"/>
</linearGradient>
<linearGradient id="paint1_linear_690_7132" x1="69.593" y1="71.9849" x2="201.881" y2="71.9849" gradientUnits="userSpaceOnUse">
<stop stop-color="#FDC38B"/>
<stop offset="0.4761" stop-color="#FD955D"/>
</linearGradient>
<linearGradient id="paint2_linear_690_7132" x1="72.8917" y1="41.9514" x2="134.783" y2="41.9514" gradientUnits="userSpaceOnUse">
<stop stop-color="#7D4218"/>
<stop offset="1" stop-color="#7D4218"/>
</linearGradient>
</defs>
</svg>
