<svg width="200" height="200" viewBox="0 0 200 200" fill="none" xmlns="http://www.w3.org/2000/svg">
<path fill-rule="evenodd" clip-rule="evenodd" d="M100 0C155.229 0 200 44.7705 200 100C200 155.229 155.229 200 100 200C44.7705 200 0 155.229 0 100C0 44.7705 44.7705 0 100 0Z" fill="#80BFC4"/>
<path fill-rule="evenodd" clip-rule="evenodd" d="M88.6227 103.511C67.6218 85.1432 50.4245 24.4244 98.3917 24.7257C137.206 20.2102 151.512 44.565 120.275 98.3054C109.506 116.826 88.6227 103.511 88.6227 103.511Z" fill="url(#paint0_linear_690_7091)"/>
<path fill-rule="evenodd" clip-rule="evenodd" d="M85.4486 83.6152C85.4486 83.6152 88.7937 106.926 84.8983 113.472C78.4745 121.639 67.7971 123.979 52.5781 131.39C85.4442 208.009 128.66 190.685 152.019 132.347C128.433 118.966 127.228 119.839 121.332 113.538C118.092 110.07 116.887 101.232 116.398 82.292L85.4486 83.6152Z" fill="url(#paint1_linear_690_7091)"/>
<path fill-rule="evenodd" clip-rule="evenodd" d="M128.784 61.0592C127.836 61.0548 127.116 61.8583 126.587 63.1946C126.793 43.9405 126.981 30.3286 102.303 30.3242C96.0359 30.3242 94.8787 30.2019 91.3371 31.892C81.0964 36.7743 78.6902 48.849 78.2535 63.1248C77.7338 61.7928 77.0176 60.9937 76.0744 60.9937C73.7424 60.9893 72.3493 66.2428 73.6638 71.3173C74.9782 76.3961 75.6988 80.9552 78.0308 80.964C78.9697 80.9683 79.3627 80.4269 79.4981 79.4006C83.3279 94.3096 94.5774 102.764 101.848 103.017C109.94 103.734 121.351 94.1349 125.212 78.6932C125.247 80.2129 125.574 81.0164 126.723 81.0208C129.055 81.0295 129.802 76.4703 131.142 71.4002C132.483 66.3301 131.116 61.0679 128.784 61.0592Z" fill="url(#paint2_linear_690_7091)"/>
<path fill-rule="evenodd" clip-rule="evenodd" d="M76.2807 65.7983C76.3811 65.9074 76.4729 66.0079 76.5646 66.1039C77.0318 66.6149 77.3812 67.0079 77.5209 67.104C78.3638 61.8417 77.0799 65.8769 79.6258 51.5225C80.3944 47.1992 81.6521 44.282 82.5779 42.8147C84.316 40.0679 124.933 47.7276 125.06 47.8324C126.165 51.1251 128.331 60.5186 129.842 67.0909C129.938 66.973 130.025 66.8595 130.108 66.7459C130.113 66.7415 130.117 66.7328 130.126 66.7284C130.986 63.8768 132.248 62.0994 133.956 62.213C134.126 62.2217 134.288 62.261 134.449 62.309C134.995 56.4922 134.803 50.2124 134.523 43.806C134.694 25.3118 114.029 18.0538 99.1944 18.984C73.1365 20.6129 68.2935 38.4303 72.2805 62.2435C74.6518 62.2435 75.6737 63.9597 76.2807 65.7983Z" fill="url(#paint3_linear_690_7091)"/>
<path fill-rule="evenodd" clip-rule="evenodd" d="M172.09 169.301L167.709 145.915C166.53 139.701 159.565 133.076 153.054 130.474C144.411 126.281 138.189 124.831 130.271 120.237C120.69 159.794 77.6138 148.134 75.9063 120.429C64.539 124.591 62.8621 125.853 51.1149 130.408C51.1192 130.421 38.5029 134.509 35.315 147.086L29.5156 170.916C47.595 188.887 72.5001 199.988 100.003 199.988C128.323 199.996 153.892 188.218 172.09 169.301Z" fill="#163359"/>
<defs>
<linearGradient id="paint0_linear_690_7091" x1="67.5723" y1="66.1739" x2="137.313" y2="66.1739" gradientUnits="userSpaceOnUse">
<stop stop-color="#34312D"/>
<stop offset="1"/>
</linearGradient>
<linearGradient id="paint1_linear_690_7091" x1="103.635" y1="162.5" x2="99.3184" y2="63.1515" gradientUnits="userSpaceOnUse">
<stop stop-color="#FDC38B"/>
<stop offset="0.6335" stop-color="#FD955D"/>
</linearGradient>
<linearGradient id="paint2_linear_690_7091" x1="81.9289" y1="66.6911" x2="197.509" y2="66.6911" gradientUnits="userSpaceOnUse">
<stop stop-color="#FDC38B"/>
<stop offset="0.4761" stop-color="#FD955D"/>
</linearGradient>
<linearGradient id="paint3_linear_690_7091" x1="71.0487" y1="43.0071" x2="134.798" y2="43.0071" gradientUnits="userSpaceOnUse">
<stop stop-color="#34312D"/>
<stop offset="1"/>
</linearGradient>
</defs>
</svg>
