<svg width="200" height="200" viewBox="0 0 200 200" fill="none" xmlns="http://www.w3.org/2000/svg">
<path fill-rule="evenodd" clip-rule="evenodd" d="M100 0C155.229 0 200 44.7705 200 100C200 155.229 155.229 200 100 200C44.7705 200 0 155.225 0 100C0 44.7705 44.7705 0 100 0Z" fill="#80BFC4"/>
<path fill-rule="evenodd" clip-rule="evenodd" d="M96.2577 181.93C59.6884 178.943 61.0203 108.075 63.4309 77.004C65.7149 47.5267 78.4097 19.0145 96.5503 21.888C123.482 13.5907 138.648 44.0767 140.653 75.8816C142.631 107.355 152.007 185.148 96.2577 181.93Z" fill="url(#paint0_linear_690_7143)"/>
<path fill-rule="evenodd" clip-rule="evenodd" d="M85.4407 83.6196C85.4407 83.6196 88.7859 106.931 84.8905 113.477C78.4666 121.643 67.7893 123.984 52.5703 131.395C85.4364 208.014 128.652 190.69 152.011 132.351C128.425 118.97 127.22 119.844 121.329 113.542C118.088 110.075 116.883 101.236 116.394 82.292L85.4407 83.6196Z" fill="url(#paint1_linear_690_7143)"/>
<path fill-rule="evenodd" clip-rule="evenodd" d="M128.796 61.0641C127.849 61.0597 127.128 61.8632 126.6 63.2039C126.805 43.9498 126.997 30.3335 102.315 30.3291C96.0481 30.3291 91.3317 31.2462 87.7901 32.9406C77.6324 37.7836 77.9512 48.8801 78.1346 62.8152C77.6281 61.6754 76.9512 61.0073 76.0822 61.0029C73.7502 60.9986 72.3571 66.2477 73.6716 71.3265C74.986 76.401 75.7066 80.9645 78.0429 80.9732C78.9819 80.9776 79.3749 80.4317 79.5103 79.4055C83.3401 94.3144 94.5895 102.769 101.861 103.022C109.953 103.738 121.364 94.1397 125.22 78.6937C125.255 80.2134 125.582 81.0213 126.735 81.0213C129.067 81.03 129.814 76.4709 131.154 71.4008C132.495 66.3307 131.128 61.0728 128.796 61.0641Z" fill="url(#paint2_linear_690_7143)"/>
<path fill-rule="evenodd" clip-rule="evenodd" d="M78.0165 63.7277C81.2918 50.7359 81.1345 46.6309 93.1438 36.9842C107.406 52.3997 123.927 47.1462 126.805 66.0116C130.32 63.4176 129.202 56.9457 129.027 53.9762C128.578 39.6699 115.376 24.1452 102.131 25.7959C83.2394 29.5472 79.8637 35.1719 73.9727 57.9327L78.0165 63.7277Z" fill="url(#paint3_linear_690_7143)"/>
<path fill-rule="evenodd" clip-rule="evenodd" d="M172.081 169.301L167.701 145.915C166.522 139.701 159.561 133.076 153.046 130.474C144.403 126.277 138.18 124.831 130.263 120.237C120.682 159.794 77.6055 148.134 75.898 120.429C64.5307 124.591 62.8538 125.853 51.1065 130.408C51.1065 130.421 38.4946 134.509 35.3067 147.09L29.5117 170.925C47.5911 188.895 72.4961 199.996 99.9995 199.996C128.32 199.996 153.888 188.223 172.081 169.301Z" fill="#163359"/>
<defs>
<linearGradient id="paint0_linear_690_7143" x1="62.3865" y1="101.268" x2="142.472" y2="101.268" gradientUnits="userSpaceOnUse">
<stop stop-color="#7D4218"/>
<stop offset="1" stop-color="#7D4218"/>
</linearGradient>
<linearGradient id="paint1_linear_690_7143" x1="98.2233" y1="174.926" x2="107.586" y2="75.926" gradientUnits="userSpaceOnUse">
<stop stop-color="#FDC38B"/>
<stop offset="1" stop-color="#FD955D"/>
</linearGradient>
<linearGradient id="paint2_linear_690_7143" x1="89.0404" y1="69.1293" x2="214.591" y2="42.4685" gradientUnits="userSpaceOnUse">
<stop stop-color="#FDC38B"/>
<stop offset="0.5188" stop-color="#FD955D"/>
</linearGradient>
<linearGradient id="paint3_linear_690_7143" x1="73.9737" y1="45.846" x2="129.335" y2="45.846" gradientUnits="userSpaceOnUse">
<stop stop-color="#7D4218"/>
<stop offset="1" stop-color="#7D4218"/>
</linearGradient>
</defs>
</svg>
