<svg width="240" height="120" viewBox="0 0 240 120" fill="none" xmlns="http://www.w3.org/2000/svg">
<rect x="0.5" y="0.5" width="239" height="119" rx="3.5" fill="#F6F9FD" stroke="#CFD4D9"/>
<g clip-path="url(#clip0_762_6856)">
<path d="M138.75 30H101.25C98.2673 30.0033 95.4078 31.1896 93.2987 33.2987C91.1896 35.4078 90.0033 38.2673 90 41.25V78.75C90.0033 81.7327 91.1896 84.5922 93.2987 86.7013C95.4078 88.8104 98.2673 89.9967 101.25 90H138.75C141.733 89.9967 144.592 88.8104 146.701 86.7013C148.81 84.5922 149.997 81.7327 150 78.75V41.25C149.997 38.2673 148.81 35.4078 146.701 33.2987C144.592 31.1896 141.733 30.0033 138.75 30V30ZM101.25 37.5H138.75C139.745 37.5 140.698 37.8951 141.402 38.5983C142.105 39.3016 142.5 40.2554 142.5 41.25V78.75C142.501 79.2425 142.404 79.7302 142.215 80.185C142.026 80.6398 141.749 81.0528 141.4 81.4L119.57 59.57C117.695 57.6953 115.152 56.6421 112.5 56.6421C109.848 56.6421 107.305 57.6953 105.43 59.57L97.5 67.5V41.25C97.5 40.2554 97.8951 39.3016 98.5983 38.5983C99.3016 37.8951 100.255 37.5 101.25 37.5Z" fill="#80BFC4"/>
<path d="M128.75 55C132.202 55 135 52.2018 135 48.75C135 45.2982 132.202 42.5 128.75 42.5C125.298 42.5 122.5 45.2982 122.5 48.75C122.5 52.2018 125.298 55 128.75 55Z" fill="#80BFC4"/>
</g>
<defs>
<clipPath id="clip0_762_6856">
<rect width="60" height="60" fill="white" transform="translate(90 30)"/>
</clipPath>
</defs>
</svg>
