<svg width="120" height="120" viewBox="0 0 120 120" fill="none" xmlns="http://www.w3.org/2000/svg">
<circle cx="60" cy="60" r="59.5" fill="#F6F9FD" stroke="#CFD4D9"/>
<g clip-path="url(#clip0_762_6867)">
<path d="M78.75 30H41.25C38.2673 30.0033 35.4078 31.1896 33.2987 33.2987C31.1896 35.4078 30.0033 38.2673 30 41.25V78.75C30.0033 81.7327 31.1896 84.5922 33.2987 86.7013C35.4078 88.8104 38.2673 89.9967 41.25 90H78.75C81.7327 89.9967 84.5922 88.8104 86.7013 86.7013C88.8104 84.5922 89.9967 81.7327 90 78.75V41.25C89.9967 38.2673 88.8104 35.4078 86.7013 33.2987C84.5922 31.1896 81.7327 30.0033 78.75 30V30ZM41.25 37.5H78.75C79.7446 37.5 80.6984 37.8951 81.4016 38.5983C82.1049 39.3016 82.5 40.2554 82.5 41.25V78.75C82.5007 79.2425 82.4038 79.7302 82.215 80.185C82.0262 80.6398 81.7492 81.0528 81.4 81.4L59.57 59.57C57.6947 57.6953 55.1516 56.6421 52.5 56.6421C49.8484 56.6421 47.3053 57.6953 45.43 59.57L37.5 67.5V41.25C37.5 40.2554 37.8951 39.3016 38.5983 38.5983C39.3016 37.8951 40.2554 37.5 41.25 37.5Z" fill="#80BFC4"/>
<path d="M68.75 55C72.2018 55 75 52.2018 75 48.75C75 45.2982 72.2018 42.5 68.75 42.5C65.2982 42.5 62.5 45.2982 62.5 48.75C62.5 52.2018 65.2982 55 68.75 55Z" fill="#80BFC4"/>
</g>
<defs>
<clipPath id="clip0_762_6867">
<rect width="60" height="60" fill="white" transform="translate(30 30)"/>
</clipPath>
</defs>
</svg>
