<svg width="75" height="60" viewBox="0 0 75 60" fill="none" xmlns="http://www.w3.org/2000/svg">
<path fill-rule="evenodd" clip-rule="evenodd" d="M62.9247 38.1543C63.5147 38.1543 64.0351 38.2566 64.4882 38.4604C64.9405 38.6651 65.3224 38.9551 65.6346 39.3305C65.9461 39.7066 66.1818 40.1589 66.3418 40.6874C66.5017 41.2158 66.5813 41.8066 66.5813 42.4589C66.5813 43.1043 66.5017 43.692 66.3418 44.222C66.1818 44.7528 65.9461 45.2066 65.6346 45.5851C65.3224 45.9628 64.9382 46.2543 64.4821 46.4604C64.026 46.6666 63.5032 46.7697 62.9132 46.7697C62.2941 46.7697 61.7538 46.6666 61.2938 46.4604C60.8331 46.2543 60.4512 45.9628 60.1474 45.5851C59.8428 45.2066 59.6147 44.752 59.4624 44.2197C59.3101 43.6874 59.2344 43.0966 59.2344 42.4474C59.2344 41.7989 59.3101 41.2104 59.4624 40.682C59.6147 40.1528 59.8428 39.702 60.1474 39.3281C60.4512 38.9535 60.8354 38.6651 61.2992 38.4604C61.7629 38.2566 62.3048 38.1543 62.9247 38.1543ZM62.9247 38.7897C62.4915 38.7897 62.1226 38.872 61.818 39.0358C61.5142 39.1997 61.2663 39.4381 61.0742 39.7512C60.8821 40.0643 60.7428 40.4489 60.6578 40.9051C60.5721 41.3612 60.5293 41.8789 60.5293 42.4589C60.5293 43.0389 60.5721 43.5574 60.6578 44.0135C60.7428 44.4697 60.8813 44.8551 61.0711 45.1697C61.2609 45.4843 61.5073 45.7251 61.8096 45.8912C62.1119 46.0566 62.48 46.1397 62.9132 46.1397C63.3471 46.1397 63.7152 46.0566 64.0175 45.8912C64.3198 45.7251 64.5647 45.4843 64.753 45.1697C64.9413 44.8551 65.0775 44.4697 65.1609 44.0135C65.2443 43.5574 65.2864 43.0389 65.2864 42.4589C65.2864 41.8789 65.2443 41.3612 65.1609 40.9051C65.0775 40.4489 64.9413 40.0643 64.753 39.7512C64.5647 39.4381 64.3214 39.1997 64.0229 39.0358C63.7244 38.872 63.3586 38.7897 62.9247 38.7897Z" fill="white"/>
<path fill-rule="evenodd" clip-rule="evenodd" d="M20.859 38.1543C21.2038 38.1543 21.5093 38.1905 21.7755 38.2635C22.0416 38.3358 22.2665 38.4335 22.4501 38.5558C22.6338 38.6781 22.7735 38.8181 22.869 38.9766C22.9646 39.1358 23.0124 39.3005 23.0124 39.4728C23.0124 39.7251 22.9309 39.9151 22.7678 40.0428C22.6048 40.1712 22.3845 40.2351 22.1072 40.2351C22.1072 40.052 22.0856 39.8712 22.0425 39.6935C21.9994 39.5158 21.9273 39.3574 21.8261 39.2174C21.7248 39.0781 21.5918 38.9643 21.4269 38.8766C21.262 38.7889 21.0576 38.7451 20.814 38.7451C20.5929 38.7451 20.3952 38.7766 20.2209 38.8389C20.0466 38.902 19.8995 38.992 19.7795 39.1089C19.6597 39.2251 19.5677 39.3658 19.5041 39.5297C19.4403 39.6943 19.4085 39.8781 19.4085 40.0805C19.4085 40.3135 19.4385 40.5189 19.4984 40.6966C19.5584 40.8743 19.6587 41.0351 19.7992 41.1781C19.9398 41.3212 20.1244 41.4566 20.353 41.5851C20.5816 41.7128 20.8628 41.8458 21.1964 41.9835C21.5337 42.1251 21.8345 42.2735 22.0988 42.4304C22.363 42.5874 22.587 42.762 22.7706 42.9551C22.9542 43.1481 23.0948 43.3635 23.1922 43.6028C23.2897 43.8412 23.3385 44.112 23.3385 44.4135C23.3385 44.7843 23.2719 45.1158 23.1389 45.4081C23.0058 45.7005 22.8156 45.9481 22.5682 46.1504C22.3209 46.3535 22.0229 46.5066 21.6743 46.612C21.3257 46.7174 20.9359 46.7697 20.5048 46.7697C20.13 46.7697 19.7992 46.7297 19.5125 46.6497C19.2257 46.5689 18.9859 46.4574 18.7928 46.3143C18.5998 46.1704 18.4545 45.9966 18.3571 45.792C18.2597 45.5881 18.2109 45.3635 18.2109 45.1189C18.2109 44.882 18.2831 44.6912 18.4274 44.5458C18.5717 44.4004 18.7769 44.3281 19.0431 44.3281C19.0543 44.5728 19.0908 44.8074 19.1526 45.0328C19.2145 45.2581 19.3072 45.4574 19.431 45.6289C19.5547 45.8012 19.7121 45.9381 19.9033 46.042C20.0944 46.1451 20.3249 46.1966 20.5948 46.1966C21.1121 46.1966 21.5159 46.0697 21.8063 45.8151C22.0969 45.5612 22.2421 45.1951 22.2421 44.7174C22.2421 44.5035 22.2121 44.3143 22.1522 44.1504C22.0922 43.9858 21.9928 43.8335 21.8542 43.6943C21.7155 43.5551 21.5328 43.4212 21.306 43.2928C21.0792 43.1651 20.7971 43.0305 20.4599 42.8889C20.1038 42.7397 19.7927 42.5804 19.5266 42.4104C19.2604 42.2404 19.0393 42.0512 18.8631 41.8428C18.687 41.6343 18.5558 41.4028 18.4695 41.1466C18.3834 40.8905 18.3403 40.602 18.3403 40.2812C18.3403 39.9443 18.403 39.6443 18.5286 39.3812C18.6541 39.1174 18.8294 38.8951 19.0543 38.7135C19.2792 38.532 19.5453 38.3928 19.8527 38.2974C20.16 38.202 20.4955 38.1543 20.859 38.1543Z" fill="white"/>
<path fill-rule="evenodd" clip-rule="evenodd" d="M0 38.3076H2.65263L5.06105 44.9615L7.44673 38.3076H10.0255V38.7961H9.87781C9.74526 38.7961 9.62128 38.8061 9.50579 38.8245C9.39031 38.8438 9.28898 38.8822 9.20189 38.9415C9.1148 38.9999 9.04661 39.0845 8.9974 39.1938C8.94819 39.3038 8.92355 39.4499 8.92355 39.6315V45.2915C8.92355 45.473 8.94819 45.6192 8.9974 45.7292C9.04661 45.8384 9.1148 45.923 9.20189 45.9815C9.28898 46.0407 9.39031 46.0792 9.50579 46.0984C9.62128 46.1169 9.74526 46.1269 9.87781 46.1269H10.0255V46.6153H6.92985V46.1269H6.96957C7.09454 46.1269 7.20719 46.1184 7.30752 46.1007C7.40793 46.0838 7.49311 46.0499 7.56314 45.9992C7.63324 45.9476 7.68911 45.8738 7.73074 45.7768C7.77237 45.6807 7.79702 45.553 7.80452 45.3938V39.1769L5.14056 46.6153H4.5101L1.81202 39.1999V45.2915C1.81202 45.473 1.83092 45.6192 1.8688 45.7292C1.90668 45.8384 1.96248 45.923 2.0364 45.9815C2.11018 46.0407 2.19918 46.0792 2.30334 46.0984C2.40742 46.1169 2.5239 46.1269 2.65263 46.1269H2.68668V46.6153H0V46.1269H0.147704C0.276428 46.1269 0.398572 46.1184 0.514057 46.1007C0.629542 46.0838 0.730866 46.0492 0.817958 45.9961C0.90505 45.943 0.974158 45.8645 1.02528 45.7599C1.0764 45.6561 1.10196 45.5184 1.10196 45.3484V39.5861C1.10196 39.4153 1.0764 39.2784 1.02528 39.1745C0.974158 39.0699 0.90505 38.9892 0.817958 38.933C0.730866 38.8761 0.629542 38.8392 0.514057 38.8222C0.398572 38.8045 0.276428 38.7961 0.147704 38.7961H0V38.3076Z" fill="white"/>
<path fill-rule="evenodd" clip-rule="evenodd" d="M24.2578 38.3076H27.6293V38.7984H27.4766C27.3484 38.7984 27.2257 38.8084 27.1089 38.8268C26.9919 38.8461 26.8911 38.8853 26.8062 38.9445C26.7213 39.003 26.6535 39.0876 26.6026 39.1984C26.5517 39.3084 26.5262 39.4553 26.5262 39.6376V44.1999C26.5262 44.5384 26.5743 44.8268 26.6704 45.0645C26.7666 45.303 26.9005 45.4961 27.0721 45.6445C27.2437 45.793 27.4474 45.9015 27.683 45.9699C27.9187 46.0384 28.178 46.0722 28.4609 46.0722C28.7965 46.0722 29.086 46.0269 29.3292 45.9353C29.5724 45.8445 29.7742 45.7176 29.9345 45.5561C30.0947 45.3938 30.2136 45.2022 30.2909 44.9792C30.3682 44.7568 30.4068 44.5122 30.4068 44.2453V39.5922C30.4068 39.4207 30.3814 39.283 30.3304 39.1784C30.2795 39.0738 30.2107 38.993 30.124 38.9353C30.0373 38.8784 29.9363 38.8415 29.8214 38.8245C29.7063 38.8068 29.5847 38.7984 29.4565 38.7984H29.3094V38.3076H32.217V38.7984H32.0643C31.9361 38.7984 31.8135 38.8084 31.6966 38.8268C31.5797 38.8461 31.4788 38.8853 31.3939 38.9445C31.3091 39.003 31.2412 39.0876 31.1903 39.1984C31.1394 39.3084 31.1139 39.4553 31.1139 39.6376V44.2684C31.1139 44.6568 31.0527 45.0061 30.9301 45.3161C30.8075 45.6261 30.6265 45.8892 30.387 46.1038C30.1475 46.3192 29.8506 46.4838 29.4961 46.5976C29.1415 46.7122 28.7342 46.7692 28.2741 46.7692C27.8179 46.7692 27.4087 46.7207 27.0467 46.6238C26.6846 46.5268 26.3782 46.3722 26.1274 46.1607C25.8766 45.9499 25.6853 45.6776 25.5532 45.3445C25.4212 45.0115 25.3553 44.6068 25.3553 44.1315V39.5922C25.3553 39.4207 25.3298 39.283 25.2789 39.1784C25.228 39.0738 25.1591 38.993 25.0724 38.9353C24.9857 38.8784 24.8848 38.8415 24.7698 38.8245C24.6547 38.8068 24.5331 38.7984 24.4049 38.7984H24.2578V38.3076Z" fill="white"/>
<path fill-rule="evenodd" clip-rule="evenodd" d="M32.9062 38.3076H36.1689C36.6569 38.3076 37.0805 38.3638 37.4399 38.4753C37.7993 38.5869 38.0962 38.7484 38.3308 38.9584C38.5653 39.1684 38.7403 39.423 38.8557 39.7222C38.971 40.0215 39.0287 40.3607 39.0287 40.7399C39.0287 41.0845 38.9748 41.4161 38.867 41.7338C38.7592 42.0522 38.5824 42.3338 38.3365 42.5776C38.0906 42.8222 37.769 43.0176 37.3719 43.163C36.9747 43.3092 36.4886 43.3822 35.9136 43.3822H35.1816V45.3484C35.1816 45.5184 35.2071 45.6561 35.2582 45.7599C35.3093 45.8645 35.3783 45.943 35.4654 45.9961C35.5523 46.0492 35.6535 46.0838 35.7689 46.1007C35.8843 46.1184 36.0063 46.1269 36.1348 46.1269H36.5207V46.6153H32.9062V46.1269H33.0538C33.1862 46.1269 33.3101 46.1169 33.4254 46.0984C33.5408 46.0792 33.642 46.0407 33.729 45.9815C33.816 45.923 33.8841 45.8384 33.9333 45.7292C33.9825 45.6192 34.0071 45.473 34.0071 45.2915V39.5861C34.0071 39.4153 33.9815 39.2784 33.9305 39.1745C33.8794 39.0699 33.8104 38.9892 33.7234 38.933C33.6364 38.8761 33.5352 38.8392 33.4198 38.8222C33.3044 38.8045 33.1824 38.7961 33.0538 38.7961H32.9062V38.3076ZM35.1816 38.8645V42.8307H35.8001C36.1519 42.8307 36.4526 42.7938 36.7023 42.7199C36.952 42.6461 37.1562 42.5268 37.3151 42.3622C37.474 42.1976 37.5903 41.9853 37.6641 41.7253C37.7379 41.4661 37.7747 41.1522 37.7747 40.7853C37.7747 40.4592 37.7426 40.1761 37.6782 39.9353C37.614 39.6953 37.5099 39.4953 37.3662 39.3361C37.2224 39.1768 37.0361 39.0584 36.8073 38.9807C36.5784 38.903 36.2995 38.8645 35.9703 38.8645H35.1816Z" fill="white"/>
<path fill-rule="evenodd" clip-rule="evenodd" d="M40.0234 38.3076H45.8475L45.9039 40.3422H45.3057L45.2493 39.8422C45.2343 39.713 45.205 39.5907 45.1618 39.4753C45.1185 39.3599 45.0565 39.2584 44.9756 39.1715C44.8947 39.0845 44.7931 39.0153 44.6708 38.9638C44.5485 38.913 44.4008 38.8876 44.2278 38.8876H42.2864V41.9838H45.0743V42.5522H42.2864V46.0361H44.5156C44.7 46.0361 44.857 46.0099 44.9868 45.9592C45.1166 45.9076 45.2248 45.8384 45.3114 45.7515C45.3979 45.6645 45.4656 45.563 45.5145 45.4476C45.5634 45.3322 45.5973 45.2099 45.6161 45.0815L45.6951 44.5807H46.2989L46.22 46.6153H40.0234V46.1269H40.1701C40.2981 46.1269 40.4194 46.1184 40.5342 46.1007C40.6489 46.0838 40.7496 46.0492 40.836 45.9961C40.9227 45.943 40.9913 45.8645 41.0421 45.7599C41.0929 45.6561 41.1183 45.5184 41.1183 45.3484V39.6315C41.1183 39.4499 41.0938 39.3038 41.0449 39.1938C40.996 39.0845 40.9283 38.9999 40.8417 38.9415C40.7552 38.8822 40.6546 38.8438 40.5398 38.8245C40.4251 38.8061 40.3019 38.7961 40.1701 38.7961H40.0234V38.3076Z" fill="white"/>
<path fill-rule="evenodd" clip-rule="evenodd" d="M47.1406 38.3076H50.2422C51.2404 38.3076 51.9834 38.4945 52.4713 38.8676C52.9592 39.2407 53.2031 39.8022 53.2031 40.5522C53.2031 40.863 53.1533 41.1345 53.0539 41.3676C52.9544 41.6007 52.824 41.8022 52.6627 41.973C52.5013 42.143 52.3193 42.2853 52.1166 42.3992C51.914 42.5122 51.7114 42.6038 51.5088 42.6715L53.0905 45.1945C53.2857 45.5053 53.4751 45.7384 53.659 45.8938C53.8432 46.0492 54.0567 46.1269 54.3008 46.1269H54.3345V46.6153H54.1715C53.811 46.6153 53.5155 46.6022 53.2847 46.5753C53.0539 46.5492 52.8578 46.4976 52.6964 46.4222C52.5351 46.3461 52.3972 46.2399 52.2827 46.1038C52.1683 45.9676 52.0454 45.7892 51.914 45.5699L50.3548 42.9499H49.3978V45.3484C49.3978 45.5184 49.4232 45.6561 49.4739 45.7599C49.5246 45.8645 49.593 45.943 49.6793 45.9961C49.7656 46.0492 49.866 46.0838 49.9804 46.1007C50.0949 46.1184 50.2159 46.1269 50.3435 46.1269H50.4955V46.6153H47.1406V46.1269H47.287C47.4146 46.1269 47.5356 46.1184 47.6501 46.1007C47.7645 46.0838 47.8649 46.0492 47.9512 45.9961C48.0376 45.943 48.106 45.8645 48.1566 45.7599C48.2073 45.6561 48.2326 45.5184 48.2326 45.3484V39.5861C48.2326 39.4153 48.2073 39.2784 48.1566 39.1745C48.106 39.0699 48.0376 38.9892 47.9512 38.933C47.8649 38.8761 47.7645 38.8392 47.6501 38.8222C47.5356 38.8045 47.4146 38.7961 47.287 38.7961H47.1406V38.3076ZM49.3978 38.8645V42.4045H50.2084C50.5462 42.4045 50.8276 42.3669 51.0528 42.2907C51.2779 42.2153 51.458 42.1015 51.5932 41.9499C51.7283 41.7984 51.8249 41.6092 51.8831 41.3815C51.9412 41.1545 51.9703 40.8892 51.9703 40.5861C51.9703 40.2753 51.9384 40.0115 51.8746 39.7938C51.8108 39.5761 51.7076 39.3976 51.565 39.2592C51.4224 39.1215 51.2376 39.0207 51.0105 38.9584C50.7836 38.8961 50.5067 38.8645 50.1803 38.8645H49.3978Z" fill="white"/>
<path fill-rule="evenodd" clip-rule="evenodd" d="M54.875 38.3076H58.2423V38.7961H58.0901C57.9615 38.7961 57.839 38.8061 57.7227 38.8245C57.6056 38.8438 57.5054 38.8822 57.4204 38.9415C57.3355 38.9999 57.2681 39.0845 57.2168 39.1938C57.1663 39.3038 57.1403 39.4499 57.1403 39.6315V45.2915C57.1403 45.473 57.1663 45.6192 57.2168 45.7292C57.2681 45.8384 57.3355 45.923 57.4204 45.9815C57.5054 46.0407 57.6056 46.0792 57.7227 46.0984C57.839 46.1169 57.9615 46.1269 58.0901 46.1269H58.2423V46.6153H54.875V46.1269H55.0219C55.1536 46.1269 55.2768 46.1169 55.3923 46.0984C55.5071 46.0792 55.6074 46.0407 55.6939 45.9815C55.7811 45.923 55.8485 45.8384 55.8974 45.7292C55.9464 45.6192 55.9709 45.473 55.9709 45.2915V39.6315C55.9709 39.4499 55.9464 39.3038 55.8974 39.1938C55.8485 39.0845 55.7811 38.9999 55.6939 38.9415C55.6074 38.8822 55.5071 38.8438 55.3923 38.8245C55.2768 38.8061 55.1536 38.7961 55.0219 38.7961H54.875V38.3076Z" fill="white"/>
<path fill-rule="evenodd" clip-rule="evenodd" d="M67.7266 38.3076H70.8613C71.8699 38.3076 72.6207 38.4945 73.1143 38.8676C73.6072 39.2407 73.8536 39.8022 73.8536 40.5522C73.8536 40.863 73.8031 41.1345 73.7028 41.3676C73.6026 41.6007 73.4702 41.8022 73.3072 41.973C73.1442 42.143 72.9605 42.2853 72.7554 42.3992C72.551 42.5122 72.346 42.6038 72.1409 42.6715L73.7396 45.1945C73.937 45.5053 74.1283 45.7384 74.3143 45.8938C74.5003 46.0492 74.7161 46.1269 74.9625 46.1269H74.997V46.6153H74.8317C74.4681 46.6153 74.1689 46.6022 73.9363 46.5753C73.7028 46.5492 73.5046 46.4976 73.3416 46.4222C73.1786 46.3461 73.0393 46.2399 72.923 46.1038C72.8074 45.9676 72.6835 45.7892 72.5511 45.5699L70.9753 42.9499H70.0079V45.3484C70.0079 45.5184 70.0332 45.6561 70.0845 45.7599C70.1358 45.8645 70.2054 45.943 70.2926 45.9961C70.3791 46.0492 70.4809 46.0838 70.5965 46.1007C70.712 46.1184 70.8345 46.1269 70.9638 46.1269H71.1169V46.6153H67.7266V46.1269H67.8743C68.0036 46.1269 68.1261 46.1184 68.2416 46.1007C68.3572 46.0838 68.4582 46.0492 68.5454 45.9961C68.6327 45.943 68.7023 45.8645 68.7536 45.7599C68.8049 45.6561 68.8301 45.5184 68.8301 45.3484V39.5861C68.8301 39.4153 68.8049 39.2784 68.7536 39.1745C68.7023 39.0699 68.6327 38.9892 68.5454 38.933C68.4582 38.8761 68.3572 38.8392 68.2416 38.8222C68.1261 38.8045 68.0036 38.7961 67.8743 38.7961H67.7266V38.3076ZM70.0079 38.8645V42.4045H70.8268C71.1681 42.4045 71.4528 42.3669 71.6801 42.2907C71.9082 42.2153 72.0896 42.1015 72.2266 41.9499C72.3628 41.7984 72.4607 41.6092 72.5197 41.3815C72.5786 41.1545 72.6077 40.8892 72.6077 40.5861C72.6077 40.2753 72.5755 40.0115 72.5113 39.7938C72.4462 39.5761 72.3421 39.3976 72.1983 39.2592C72.0536 39.1215 71.8669 39.0207 71.638 38.9584C71.4084 38.8961 71.1283 38.8645 70.7985 38.8645H70.0079Z" fill="white"/>
<path fill-rule="evenodd" clip-rule="evenodd" d="M12.2278 38.9229H12.7603V40.3659H14.2783V41.0359H12.7603V44.9882C12.7603 45.389 12.8405 45.6829 13.001 45.8698C13.1615 46.0567 13.3758 46.1505 13.644 46.1505C13.7837 46.1505 13.912 46.1429 14.0291 46.1275C14.1462 46.1121 14.2652 46.0929 14.386 46.0705V46.5859C14.3369 46.609 14.2727 46.6313 14.1934 46.6544C14.1141 46.6775 14.0281 46.6975 13.9357 46.7144C13.8432 46.7321 13.7459 46.7452 13.644 46.7544C13.5419 46.7644 13.4457 46.769 13.3551 46.769C13.0605 46.769 12.8075 46.7375 12.596 46.6744C12.3846 46.6113 12.2108 46.509 12.0749 46.3682C11.9389 46.2267 11.8379 46.0398 11.7719 45.8067C11.7057 45.5736 11.6728 45.2898 11.6728 44.9536V41.0359H10.7891V40.5667C10.9288 40.5667 11.0827 40.5382 11.2507 40.4805C11.4188 40.4236 11.567 40.3282 11.6954 40.1944C11.8275 40.049 11.9343 39.8767 12.0154 39.6759C12.0966 39.4759 12.1674 39.2244 12.2278 38.9229Z" fill="white"/>
<path fill-rule="evenodd" clip-rule="evenodd" d="M10.1214 23.7777L11.4097 23.55L12.6903 22.0585L14.9546 19.1854L16.8286 17.3015C17.4032 17.5223 17.9964 17.69 18.601 17.8038C18.9914 17.8038 22.9345 10.5662 22.9345 10.5662L27.2681 13.8392L30.3913 7.30054L31.953 6.60969L37.2235 0L43.8293 9.31015L46.1717 8.02269L49.8181 13.7692L52.2855 11.4139C52.2855 11.4139 59.0005 21.1954 59.3908 21.6977C59.7811 22.2 61.0699 20.41 61.0699 20.41L62.3502 22.3885L63.6306 21.6031L71.7122 32.8915L64.2245 25.1592L62.2484 25.4577L60.7729 24.0762H58.5084L56.2362 21.98L54.675 18.6046L53.1132 18.0162L52.5197 19.5862L55.4793 23.15L56.9548 25.9208L57.8449 28.4015L54.7844 25.1277L52.3246 23.3462L50.2553 20.6769L47.6709 18.9185L45.9921 16.3438L44.1259 17.6315C44.1259 17.6315 39.7221 11.1313 39.6206 11.0293L41.6664 11.1942L40.4873 9.90669L38.3088 7.33192L35.3495 10.4719L32.2263 11.9554L30.7505 14.9231L28.2597 18.0554L25.7923 19.6254L23.2313 23.7854L20.1783 26.0623L17.6172 28.7308L14.6579 31.3062L19.0929 23.7777L20.1783 23.55L22.9345 20.5746L24.4103 17.4346L23.2313 15.3546L21.6696 19.0208L18.5464 21.8938L16.6802 19.5385L14.2128 22.31C14.2128 22.31 13.8146 26.7685 13.8146 27.1692C13.8146 27.5692 12.4404 27.4669 12.4404 27.4669L9.13757 29.2254L3.52344 34.0769L10.1214 23.7777Z" fill="white"/>
<path fill-rule="evenodd" clip-rule="evenodd" d="M34.4781 53.5684L35.2227 55.6133H33.7334L34.4781 53.5684ZM47.354 53.1813V56.9362H47.6676V55.1364H49.7893V56.9362H50.1056V53.1813H49.7893V54.8679H47.6676V53.1813H47.354ZM42.1209 53.1813V53.4498H43.3909V56.9362H43.7045V53.4498H44.9771V53.1813H42.1209ZM38.2141 53.1813V56.9362H40.3639V56.6685H38.5303V53.1813H38.2141ZM34.3302 53.1813L32.925 56.9362H33.254L33.6365 55.8818H35.3221L35.7073 56.9362H36.0337L34.6285 53.1813H34.3302ZM28.7478 53.1813V56.9362H31.0583V56.6685H29.0615V55.1364H30.7981V54.8679H29.0615V53.4498H31.0455V53.1813H28.7478ZM23.5251 53.1813V56.9362H23.8387V55.1364H25.9604V56.9362H26.2767V53.1813H25.9604V54.8679H23.8387V53.1813H23.5251ZM0 50.4004H75V60.0004H0V50.4004Z" fill="white"/>
</svg>
