<svg width="201" height="41" viewBox="0 0 201 41" fill="none" xmlns="http://www.w3.org/2000/svg">
<path fill-rule="evenodd" clip-rule="evenodd" d="M173.943 2.95898C174.908 2.95898 175.76 3.12605 176.5 3.46018C177.24 3.79431 177.866 4.26941 178.376 4.88373C178.886 5.49804 179.271 6.23937 179.533 7.10428C179.794 7.96919 179.924 8.93504 179.924 10.0018C179.924 11.0582 179.794 12.0188 179.533 12.8872C179.271 13.7556 178.886 14.4987 178.376 15.1165C177.866 15.7343 177.237 16.2128 176.491 16.5487C175.744 16.8863 174.889 17.0551 173.924 17.0551C172.91 17.0551 172.027 16.8863 171.275 16.5487C170.522 16.2128 169.897 15.7343 169.399 15.1165C168.901 14.4987 168.528 13.7538 168.279 12.882C168.03 12.0118 167.906 11.046 167.906 9.98442C167.906 8.92286 168.03 7.95876 168.279 7.09385C168.528 6.22894 168.901 5.49107 169.399 4.8785C169.897 4.26767 170.526 3.79431 171.284 3.46018C172.043 3.12605 172.93 2.95898 173.943 2.95898ZM173.943 3.99792C173.234 3.99792 172.63 4.13367 172.134 4.40167C171.635 4.66967 171.23 5.05948 170.916 5.57286C170.601 6.0845 170.374 6.71273 170.235 7.4593C170.094 8.20587 170.024 9.05338 170.024 10.0018C170.024 10.952 170.094 11.7995 170.235 12.5461C170.374 13.2909 170.599 13.9226 170.911 14.4377C171.223 14.9529 171.625 15.3462 172.12 15.6177C172.614 15.8891 173.215 16.0249 173.924 16.0249C174.635 16.0249 175.236 15.8891 175.73 15.6177C176.225 15.3462 176.626 14.9529 176.934 14.4377C177.242 13.9226 177.463 13.2909 177.601 12.5461C177.739 11.7995 177.806 10.952 177.806 10.0018C177.806 9.05338 177.739 8.20587 177.601 7.4593C177.463 6.71273 177.242 6.0845 176.934 5.57286C176.626 5.05948 176.228 4.66967 175.739 4.40167C175.251 4.13367 174.652 3.99792 173.943 3.99792Z" fill="#00818E"/>
<path fill-rule="evenodd" clip-rule="evenodd" d="M105.08 2.95898C105.653 2.95898 106.162 3.01816 106.604 3.13649C107.049 3.25657 107.423 3.41494 107.728 3.61507C108.034 3.8152 108.266 4.0449 108.424 4.3042C108.585 4.5635 108.663 4.83499 108.663 5.11517C108.663 5.52935 108.527 5.83912 108.257 6.04969C107.986 6.25852 107.618 6.36295 107.156 6.36295C107.156 6.06362 107.122 5.76776 107.05 5.47714C106.977 5.18652 106.857 4.92722 106.69 4.69925C106.521 4.47127 106.3 4.28507 106.024 4.14063C105.751 3.99619 105.409 3.92484 105.005 3.92484C104.636 3.92484 104.307 3.97703 104.018 4.0797C103.727 4.18238 103.483 4.33031 103.283 4.51999C103.082 4.71142 102.931 4.94115 102.825 5.20915C102.718 5.47889 102.664 5.77821 102.664 6.1106C102.664 6.49171 102.715 6.82759 102.814 7.11822C102.915 7.40884 103.081 7.67163 103.316 7.90656C103.549 8.1415 103.858 8.3625 104.237 8.57133C104.619 8.7819 105.086 8.99944 105.641 9.22393C106.202 9.45538 106.704 9.69901 107.143 9.95483C107.583 10.2124 107.956 10.4978 108.261 10.8128C108.567 11.1295 108.801 11.4828 108.963 11.8726C109.125 12.2642 109.207 12.7062 109.207 13.2004C109.207 13.8078 109.095 14.349 108.874 14.8276C108.653 15.3061 108.336 15.7116 107.925 16.0423C107.514 16.3729 107.017 16.6253 106.437 16.7976C105.857 16.9698 105.207 17.0551 104.49 17.0551C103.866 17.0551 103.316 16.989 102.839 16.8585C102.361 16.7262 101.963 16.5435 101.64 16.3103C101.32 16.0753 101.078 15.79 100.916 15.4558C100.754 15.1217 100.672 14.7545 100.672 14.3542C100.672 13.9661 100.792 13.6546 101.032 13.4162C101.273 13.1778 101.614 13.0595 102.057 13.0595C102.076 13.4597 102.137 13.8443 102.239 14.2133C102.342 14.5822 102.497 14.9076 102.703 15.1896C102.908 15.4697 103.171 15.696 103.488 15.8648C103.807 16.0336 104.19 16.1171 104.64 16.1171C105.5 16.1171 106.172 15.91 106.657 15.4941C107.141 15.0782 107.381 14.4795 107.381 13.6981C107.381 13.3466 107.332 13.0386 107.231 12.7688C107.132 12.5008 106.967 12.252 106.737 12.024C106.505 11.796 106.2 11.5768 105.824 11.3662C105.446 11.1574 104.976 10.9363 104.415 10.7049C103.823 10.4613 103.305 10.2002 102.861 9.92178C102.419 9.64508 102.051 9.33532 101.757 8.99422C101.464 8.65313 101.247 8.27375 101.102 7.85434C100.959 7.43494 100.888 6.96333 100.888 6.43777C100.888 5.88784 100.992 5.3971 101.201 4.96551C101.41 4.53393 101.701 4.17021 102.076 3.87262C102.45 3.57678 102.893 3.35054 103.405 3.19392C103.917 3.03729 104.474 2.95898 105.08 2.95898Z" fill="#00818E"/>
<path fill-rule="evenodd" clip-rule="evenodd" d="M70.5391 3.30664H74.8708L78.8038 14.1781L82.7001 3.30664H86.9117V4.10542H86.6713C86.4536 4.10542 86.2516 4.12108 86.0635 4.15241C85.8736 4.18199 85.7082 4.24637 85.5671 4.34209C85.4242 4.4378 85.3128 4.57528 85.2326 4.75453C85.1525 4.93378 85.1125 5.17221 85.1125 5.4698V14.7175C85.1125 15.0151 85.1525 15.2536 85.2326 15.4328C85.3128 15.612 85.4242 15.7495 85.5671 15.8452C85.7082 15.941 85.8736 16.0053 86.0635 16.0367C86.2516 16.0663 86.4536 16.0819 86.6713 16.0819H86.9117V16.8807H81.8553V16.0819H81.9215C82.1253 16.0819 82.31 16.068 82.4737 16.0402C82.6374 16.0123 82.7768 15.9566 82.89 15.8731C83.0049 15.7895 83.0955 15.6695 83.1634 15.5111C83.2313 15.3527 83.2732 15.1439 83.2854 14.8846V4.7267L78.9344 16.8807H77.905L73.4983 4.76498V14.7175C73.4983 15.0151 73.5297 15.2536 73.5906 15.4328C73.6534 15.612 73.7439 15.7495 73.8641 15.8452C73.986 15.941 74.1306 16.0053 74.3013 16.0367C74.4702 16.0663 74.6601 16.0819 74.8708 16.0819H74.9266V16.8807H70.5391V16.0819H70.7812C70.9902 16.0819 71.1905 16.068 71.3786 16.0402C71.5667 16.0123 71.7322 15.9549 71.875 15.8679C72.0178 15.7826 72.1293 15.6538 72.2129 15.4833C72.2965 15.3127 72.3383 15.0882 72.3383 14.8098V5.39496C72.3383 5.11651 72.2965 4.89202 72.2129 4.72322C72.1293 4.55267 72.0178 4.42041 71.875 4.32817C71.7322 4.23594 71.5667 4.17502 71.3786 4.14718C71.1905 4.11934 70.9902 4.10542 70.7812 4.10542H70.5391V3.30664Z" fill="#00818E"/>
<path fill-rule="evenodd" clip-rule="evenodd" d="M110.078 3.30664H115.685V4.10367H115.432C115.218 4.10367 115.014 4.11934 114.819 4.15066C114.626 4.18199 114.457 4.24463 114.316 4.34035C114.175 4.43606 114.063 4.57528 113.978 4.75453C113.893 4.93378 113.851 5.17047 113.851 5.46805V12.8798C113.851 13.4298 113.931 13.8996 114.091 14.286C114.251 14.6723 114.473 14.9855 114.758 15.2274C115.044 15.4676 115.384 15.6451 115.775 15.7565C116.167 15.8679 116.598 15.9235 117.068 15.9235C117.627 15.9235 118.108 15.8487 118.514 15.7008C118.918 15.5511 119.252 15.3458 119.519 15.083C119.785 14.8202 119.984 14.5087 120.112 14.1467C120.241 13.7848 120.306 13.388 120.306 12.9546V5.39321C120.306 5.11477 120.262 4.89202 120.179 4.72148C120.093 4.55093 119.978 4.42041 119.834 4.32643C119.691 4.2342 119.522 4.17328 119.33 4.14544C119.141 4.11759 118.937 4.10367 118.724 4.10367H118.48V3.30664H123.316V4.10367H123.061C122.849 4.10367 122.645 4.11934 122.45 4.15066C122.255 4.18199 122.088 4.24463 121.947 4.34035C121.805 4.43606 121.692 4.57528 121.609 4.75453C121.523 4.93378 121.481 5.17047 121.481 5.46805V12.9912C121.481 13.6229 121.379 14.1903 121.175 14.6932C120.971 15.1979 120.67 15.6242 120.273 15.974C119.874 16.3238 119.379 16.5901 118.79 16.7763C118.2 16.9625 117.522 17.0547 116.758 17.0547C115.998 17.0547 115.319 16.9764 114.716 16.818C114.114 16.6597 113.605 16.4108 113.187 16.0662C112.771 15.7234 112.452 15.2814 112.233 14.7402C112.013 14.1989 111.903 13.5411 111.903 12.7684V5.39321C111.903 5.11477 111.862 4.89202 111.776 4.72148C111.691 4.55093 111.578 4.42041 111.433 4.32643C111.289 4.2342 111.121 4.17328 110.93 4.14544C110.738 4.11759 110.536 4.10367 110.322 4.10367H110.078V3.30664Z" fill="#00818E"/>
<path fill-rule="evenodd" clip-rule="evenodd" d="M124.359 3.30664H129.743C130.548 3.30664 131.246 3.39712 131.84 3.57985C132.432 3.76258 132.924 4.02711 133.31 4.36994C133.697 4.71277 133.986 5.1287 134.176 5.61771C134.366 6.10673 134.462 6.66186 134.462 7.27965C134.462 7.8435 134.373 8.38474 134.195 8.90507C134.017 9.42541 133.725 9.88483 133.319 10.2833C132.913 10.6836 132.384 11.0021 131.727 11.2405C131.072 11.4789 130.271 11.5973 129.322 11.5973H128.113V14.8098C128.113 15.0882 128.156 15.3127 128.24 15.4833C128.324 15.6538 128.439 15.7826 128.581 15.8679C128.726 15.9549 128.893 16.0123 129.083 16.0402C129.273 16.068 129.475 16.0819 129.687 16.0819H130.323V16.8807H124.359V16.0819H124.603C124.821 16.0819 125.026 16.0663 125.216 16.0367C125.406 16.0053 125.573 15.941 125.716 15.8452C125.861 15.7495 125.972 15.612 126.054 15.4328C126.136 15.2536 126.176 15.0151 126.176 14.7175V5.39496C126.176 5.11651 126.134 4.89202 126.049 4.72322C125.965 4.55267 125.85 4.42041 125.708 4.32817C125.565 4.23594 125.397 4.17502 125.206 4.14718C125.016 4.11934 124.816 4.10542 124.603 4.10542H124.359V3.30664ZM128.113 4.21679V10.6975H129.134C129.715 10.6975 130.212 10.6366 130.623 10.5166C131.036 10.3947 131.372 10.1998 131.635 9.93181C131.896 9.66207 132.088 9.31576 132.21 8.89114C132.331 8.46651 132.392 7.95488 132.392 7.35449C132.392 6.82197 132.34 6.35907 132.234 5.96751C132.128 5.57421 131.955 5.24704 131.718 4.98774C131.481 4.7267 131.173 4.53352 130.797 4.40648C130.419 4.27944 129.957 4.21679 129.416 4.21679H128.113Z" fill="#00818E"/>
<path fill-rule="evenodd" clip-rule="evenodd" d="M135.68 3.30664H145.378L145.472 6.63054H144.476L144.382 5.81437C144.357 5.60379 144.308 5.40365 144.237 5.21396C144.164 5.02601 144.061 4.86069 143.927 4.71799C143.791 4.57529 143.622 4.46218 143.418 4.37865C143.215 4.29512 142.969 4.25333 142.682 4.25333H139.449V9.31403H144.091V10.2416H139.449V15.934H143.161C143.467 15.934 143.728 15.8922 143.944 15.8087C144.162 15.7252 144.342 15.612 144.486 15.4693C144.629 15.3266 144.742 15.1613 144.824 14.9734C144.906 14.7837 144.962 14.5835 144.993 14.373L145.125 13.5568H146.13L145.998 16.8807H135.68V16.0819H135.924C136.138 16.0819 136.34 16.068 136.53 16.0402C136.721 16.0123 136.888 15.9549 137.033 15.8679C137.178 15.7826 137.291 15.6538 137.376 15.4833C137.46 15.3127 137.503 15.0882 137.503 14.8098V5.4698C137.503 5.17221 137.462 4.93378 137.381 4.75453C137.3 4.57528 137.186 4.4378 137.042 4.34209C136.899 4.24637 136.73 4.18199 136.54 4.15241C136.349 4.12108 136.143 4.10542 135.924 4.10542H135.68V3.30664Z" fill="#00818E"/>
<path fill-rule="evenodd" clip-rule="evenodd" d="M147.703 3.30664H152.885C154.552 3.30664 155.794 3.61119 156.609 4.22202C157.424 4.83111 157.832 5.74822 157.832 6.97337C157.832 7.48152 157.748 7.92529 157.582 8.30641C157.415 8.68753 157.198 9.01645 156.929 9.29489C156.659 9.57333 156.354 9.80653 156.017 9.991C155.677 10.1772 155.339 10.3251 155.001 10.4365L157.643 14.5592C157.969 15.0673 158.286 15.4484 158.593 15.7008C158.901 15.9549 159.258 16.0819 159.666 16.0819H159.721V16.8807H159.448C158.847 16.8807 158.352 16.8598 157.967 16.8163C157.582 16.7728 157.255 16.6893 156.985 16.5657C156.715 16.4404 156.485 16.2681 156.294 16.0454C156.102 15.8226 155.896 15.532 155.677 15.1718L153.073 10.8924H151.474V14.8098C151.474 15.0882 151.516 15.3127 151.601 15.4833C151.687 15.6538 151.8 15.7826 151.944 15.8679C152.089 15.9549 152.256 16.0123 152.448 16.0402C152.639 16.068 152.841 16.0819 153.054 16.0819H153.308V16.8807H147.703V16.0819H147.947C148.161 16.0819 148.363 16.068 148.555 16.0402C148.745 16.0123 148.914 15.9549 149.056 15.8679C149.201 15.7826 149.316 15.6538 149.4 15.4833C149.485 15.3127 149.527 15.0882 149.527 14.8098V5.39496C149.527 5.11651 149.485 4.89202 149.4 4.72322C149.316 4.55267 149.201 4.42041 149.056 4.32817C148.914 4.23594 148.745 4.17502 148.555 4.14718C148.363 4.11934 148.161 4.10542 147.947 4.10542H147.703V3.30664ZM151.474 4.21679V10.0014H152.827C153.392 10.0014 153.862 9.93879 154.238 9.81523C154.614 9.69167 154.916 9.50545 155.142 9.25833C155.367 9.01121 155.529 8.70145 155.626 8.32904C155.724 7.95836 155.771 7.52504 155.771 7.02907C155.771 6.52265 155.719 6.09105 155.613 5.7343C155.505 5.37929 155.332 5.08692 155.095 4.86243C154.857 4.63619 154.548 4.47261 154.169 4.36994C153.789 4.26726 153.327 4.21679 152.78 4.21679H151.474Z" fill="#00818E"/>
<path fill-rule="evenodd" clip-rule="evenodd" d="M160.242 3.30664H165.816V4.10542H165.563C165.351 4.10542 165.149 4.12108 164.955 4.15241C164.762 4.18199 164.595 4.24637 164.456 4.34209C164.314 4.4378 164.203 4.57528 164.118 4.75453C164.034 4.93378 163.992 5.17221 163.992 5.4698V14.7175C163.992 15.0151 164.034 15.2536 164.118 15.4328C164.203 15.612 164.314 15.7495 164.456 15.8452C164.595 15.941 164.762 16.0053 164.955 16.0367C165.149 16.0663 165.351 16.0819 165.563 16.0819H165.816V16.8807H160.242V16.0819H160.486C160.704 16.0819 160.908 16.0663 161.097 16.0367C161.287 16.0053 161.454 15.941 161.599 15.8452C161.742 15.7495 161.853 15.612 161.935 15.4328C162.015 15.2536 162.057 15.0151 162.057 14.7175V5.4698C162.057 5.17221 162.015 4.93378 161.935 4.75453C161.853 4.57528 161.742 4.4378 161.599 4.34209C161.454 4.24637 161.287 4.18199 161.097 4.15241C160.908 4.12108 160.704 4.10542 160.486 4.10542H160.242V3.30664Z" fill="#00818E"/>
<path fill-rule="evenodd" clip-rule="evenodd" d="M181.844 3.30664H187.026C188.692 3.30664 189.934 3.61119 190.749 4.22202C191.565 4.83111 191.972 5.74822 191.972 6.97337C191.972 7.48152 191.889 7.92529 191.723 8.30641C191.556 8.68753 191.338 9.01645 191.068 9.29489C190.8 9.57333 190.495 9.80653 190.157 9.991C189.818 10.1772 189.48 10.3251 189.142 10.4365L191.784 14.5592C192.11 15.0673 192.427 15.4484 192.733 15.7008C193.042 15.9549 193.399 16.0819 193.806 16.0819H193.862V16.8807H193.589C192.988 16.8807 192.493 16.8598 192.108 16.8163C191.723 16.7728 191.396 16.6893 191.126 16.5657C190.856 16.4404 190.626 16.2681 190.434 16.0454C190.243 15.8226 190.037 15.532 189.818 15.1718L187.214 10.8924H185.615V14.8098C185.615 15.0882 185.656 15.3127 185.742 15.4833C185.827 15.6538 185.94 15.7826 186.085 15.8679C186.23 15.9549 186.397 16.0123 186.588 16.0402C186.78 16.068 186.982 16.0819 187.194 16.0819H187.449V16.8807H181.844V16.0819H182.088C182.302 16.0819 182.504 16.068 182.695 16.0402C182.885 16.0123 183.054 15.9549 183.197 15.8679C183.342 15.7826 183.457 15.6538 183.542 15.4833C183.626 15.3127 183.667 15.0882 183.667 14.8098V5.39496C183.667 5.11651 183.626 4.89202 183.542 4.72322C183.457 4.55267 183.342 4.42041 183.197 4.32817C183.054 4.23594 182.885 4.17502 182.695 4.14718C182.504 4.11934 182.302 4.10542 182.088 4.10542H181.844V3.30664ZM185.615 4.21679V10.0014H186.968C187.532 10.0014 188.003 9.93879 188.379 9.81523C188.755 9.69167 189.056 9.50545 189.283 9.25833C189.508 9.01121 189.67 8.70145 189.767 8.32904C189.865 7.95836 189.912 7.52504 189.912 7.02907C189.912 6.52265 189.859 6.09105 189.753 5.7343C189.645 5.37929 189.473 5.08692 189.236 4.86243C188.997 4.63619 188.689 4.47261 188.309 4.36994C187.929 4.26726 187.468 4.21679 186.921 4.21679H185.615Z" fill="#00818E"/>
<path fill-rule="evenodd" clip-rule="evenodd" d="M90.5016 4.35059H91.3777V6.68777H93.8772V7.77195H91.3777V14.1709C91.3777 14.82 91.5101 15.2951 91.7749 15.5979C92.0396 15.9007 92.3914 16.0539 92.8338 16.0539C93.0638 16.0539 93.2745 16.0399 93.4679 16.0156C93.6595 15.9912 93.8563 15.9599 94.0548 15.9233V16.7569C93.9747 16.7952 93.8685 16.8318 93.7378 16.8683C93.6072 16.9066 93.4661 16.9379 93.3128 16.9657C93.1613 16.9936 93.0011 17.0162 92.8338 17.0319C92.6649 17.0475 92.5064 17.0545 92.3566 17.0545C91.8724 17.0545 91.4561 17.004 91.1077 16.9014C90.7594 16.7987 90.4738 16.6334 90.2491 16.4054C90.0261 16.1774 89.8589 15.8746 89.7509 15.497C89.6412 15.1193 89.5872 14.6582 89.5872 14.1152V7.77195H88.1328V7.01145C88.3627 7.01145 88.617 6.9662 88.8922 6.87222C89.1692 6.77999 89.413 6.6251 89.6255 6.40931C89.8432 6.17437 90.0174 5.8942 90.1515 5.57051C90.2856 5.24508 90.4023 4.8396 90.5016 4.35059Z" fill="#00818E"/>
<path fill-rule="evenodd" clip-rule="evenodd" d="M7.83675 28.0496L9.36707 27.7816L10.888 26.0222L13.5775 22.6321L15.8034 20.4098C16.4859 20.6708 17.1904 20.8692 17.9087 21.0032C18.3724 21.0032 23.0558 12.4655 23.0558 12.4655L28.2028 16.3271L31.9127 8.61256L33.7677 7.79813L40.0276 0L47.8743 10.9828L50.6559 9.46355L54.9877 16.2436L57.9174 13.4644C57.9174 13.4644 65.8947 25.0041 66.358 25.5958C66.8213 26.1892 68.3523 24.0783 68.3523 24.0783L69.8729 26.412L71.3934 25.4844L80.9923 38.8026L72.0988 29.6802L69.7527 30.0317L67.9987 28.4028H65.3094L62.6114 25.9299L60.7564 21.9482L58.9015 21.2538L58.196 23.1055L61.7109 27.31L63.4632 30.5782L64.5204 33.5053L60.8853 29.6436L57.9644 27.5414L55.5068 24.3915L52.436 22.3171L50.4434 19.2804L48.2261 20.7996C48.2261 20.7996 42.9956 13.132 42.8754 13.0119L45.3052 13.2051L43.9048 11.6876L41.3165 8.6491L37.8017 12.3541L34.0917 14.1031L32.3395 17.6045L29.3802 21.2991L26.4505 23.1507L23.4077 28.06L19.7813 30.7452L16.74 33.8934L13.2251 36.9319L18.4929 28.0496L19.7813 27.7816L23.0558 24.2714L24.808 20.5682L23.4077 18.1144L21.5527 22.4389L17.8437 25.8272L15.6272 23.0498L12.6965 26.318C12.6965 26.318 12.2236 31.5788 12.2236 32.0504C12.2236 32.5238 10.5912 32.4019 10.5912 32.4019L6.66819 34.4763L0 40.2001L7.83675 28.0496Z" fill="#00818E"/>
<path fill-rule="evenodd" clip-rule="evenodd" d="M162.538 27.5778L163.906 31.2863H161.173L162.538 27.5778ZM186.162 26.8765V33.6844H186.737V30.4214H190.63V33.6844H191.21V26.8765H190.63V29.9341H186.737V26.8765H186.162ZM176.561 26.8765V27.3637H178.892V33.6844H179.467V27.3637H181.801V26.8765H176.561ZM169.394 26.8765V33.6844H173.337V33.1971H169.974V26.8765H169.394ZM162.268 26.8765L159.689 33.6844H160.293L160.995 31.7718H164.088L164.794 33.6844H165.393L162.815 26.8765H162.268ZM152.025 26.8765V33.6844H156.264V33.1971H152.601V30.4214H155.787V29.9341H152.601V27.3637H156.242V26.8765H152.025ZM142.443 26.8765V33.6844H143.02V30.4214H146.913V33.6844H147.493V26.8765H146.913V29.9341H143.02V26.8765H142.443ZM63.3984 21.5791H200.998V38.9817H80.8144L71.3496 25.841L69.8273 26.7686L68.3068 24.4331C68.3068 24.4331 66.7775 26.5458 66.3124 25.9524C66.14 25.7296 64.9085 23.9685 63.4385 21.8506L63.3984 21.7932V21.5791Z" fill="#00818E"/>
</svg>
