<svg width="1153" height="231" xmlns="http://www.w3.org/2000/svg" xmlns:xlink="http://www.w3.org/1999/xlink" overflow="hidden"><defs><clipPath id="clip0"><rect x="842" y="468" width="1153" height="231"/></clipPath><linearGradient x1="1206" y1="642" x2="1995" y2="642" gradientUnits="userSpaceOnUse" spreadMethod="reflect" id="fill1"><stop offset="0" stop-color="#2191C9"/><stop offset="0.010989" stop-color="#2090C8"/><stop offset="0.021978" stop-color="#2090C8"/><stop offset="0.032967" stop-color="#2090C8"/><stop offset="0.043956" stop-color="#2090C8"/><stop offset="0.0549451" stop-color="#2090C8"/><stop offset="0.0659341" stop-color="#2090C8"/><stop offset="0.0769231" stop-color="#2090C8"/><stop offset="0.0879121" stop-color="#2090C8"/><stop offset="0.0989011" stop-color="#208FC7"/><stop offset="0.10989" stop-color="#208FC7"/><stop offset="0.120879" stop-color="#208FC7"/><stop offset="0.131868" stop-color="#208FC6"/><stop offset="0.142857" stop-color="#208EC6"/><stop offset="0.153846" stop-color="#208EC6"/><stop offset="0.164835" stop-color="#208EC5"/><stop offset="0.175824" stop-color="#208DC5"/><stop offset="0.186813" stop-color="#208DC5"/><stop offset="0.197802" stop-color="#208DC4"/><stop offset="0.208791" stop-color="#208CC4"/><stop offset="0.21978" stop-color="#208CC3"/><stop offset="0.230769" stop-color="#208BC3"/><stop offset="0.241758" stop-color="#208BC2"/><stop offset="0.252747" stop-color="#208AC2"/><stop offset="0.263736" stop-color="#208AC1"/><stop offset="0.274725" stop-color="#2089C0"/><stop offset="0.285714" stop-color="#2089C0"/><stop offset="0.296703" stop-color="#1F88BF"/><stop offset="0.307692" stop-color="#1F88BE"/><stop offset="0.318681" stop-color="#1F87BE"/><stop offset="0.32967" stop-color="#1F86BD"/><stop offset="0.340659" stop-color="#1F86BC"/><stop offset="0.351648" stop-color="#1F85BC"/><stop offset="0.362637" stop-color="#1F84BB"/><stop offset="0.373626" stop-color="#1F84BA"/><stop offset="0.384615" stop-color="#1F83B9"/><stop offset="0.395604" stop-color="#1F82B8"/><stop offset="0.406593" stop-color="#1F82B7"/><stop offset="0.417582" stop-color="#1F81B7"/><stop offset="0.428571" stop-color="#1E80B6"/><stop offset="0.43956" stop-color="#1E7FB5"/><stop offset="0.450549" stop-color="#1E7EB4"/><stop offset="0.461538" stop-color="#1E7DB3"/><stop offset="0.472527" stop-color="#1E7DB2"/><stop offset="0.483516" stop-color="#1E7CB1"/><stop offset="0.494505" stop-color="#1E7BB0"/><stop offset="0.505495" stop-color="#1E7AAF"/><stop offset="0.516484" stop-color="#1E79AE"/><stop offset="0.527473" stop-color="#1D78AD"/><stop offset="0.538462" stop-color="#1D77AC"/><stop offset="0.549451" stop-color="#1D76AB"/><stop offset="0.56044" stop-color="#1D75A9"/><stop offset="0.571429" stop-color="#1D74A8"/><stop offset="0.582418" stop-color="#1D73A7"/><stop offset="0.593407" stop-color="#1D72A6"/><stop offset="0.604396" stop-color="#1D71A5"/><stop offset="0.615385" stop-color="#1C70A3"/><stop offset="0.626374" stop-color="#1C6FA2"/><stop offset="0.637363" stop-color="#1C6EA1"/><stop offset="0.648352" stop-color="#1C6DA0"/><stop offset="0.659341" stop-color="#1C6B9E"/><stop offset="0.67033" stop-color="#1C6A9D"/><stop offset="0.681319" stop-color="#1C699C"/><stop offset="0.692308" stop-color="#1B689A"/><stop offset="0.703297" stop-color="#1B6799"/><stop offset="0.714286" stop-color="#1B6598"/><stop offset="0.725275" stop-color="#1B6496"/><stop offset="0.736264" stop-color="#1B6395"/><stop offset="0.747253" stop-color="#1B6293"/><stop offset="0.758242" stop-color="#1B6092"/><stop offset="0.769231" stop-color="#1A5F90"/><stop offset="0.78022" stop-color="#1A5E8F"/><stop offset="0.791209" stop-color="#1A5C8D"/><stop offset="0.802198" stop-color="#1A5B8C"/><stop offset="0.813187" stop-color="#1A5A8A"/><stop offset="0.824176" stop-color="#1A5888"/><stop offset="0.835165" stop-color="#195787"/><stop offset="0.846154" stop-color="#195585"/><stop offset="0.857143" stop-color="#195484"/><stop offset="0.868132" stop-color="#195282"/><stop offset="0.879121" stop-color="#195180"/><stop offset="0.89011" stop-color="#184F7F"/><stop offset="0.901099" stop-color="#184E7D"/><stop offset="0.912088" stop-color="#184C7B"/><stop offset="0.923077" stop-color="#184B79"/><stop offset="0.934066" stop-color="#184978"/><stop offset="0.945055" stop-color="#184876"/><stop offset="0.956044" stop-color="#174674"/><stop offset="0.967033" stop-color="#174472"/><stop offset="0.978022" stop-color="#174370"/><stop offset="0.989011" stop-color="#17416E"/><stop offset="1" stop-color="#17406D"/></linearGradient></defs><g clip-path="url(#clip0)" transform="translate(-842 -468)"><path d="M1839.66 485C1845.2 485 1850.09 485.96 1854.34 487.88 1858.59 489.799 1862.18 492.526 1865.11 496.06 1868.04 499.595 1870.25 503.846 1871.75 508.816 1873.25 513.785 1874 519.338 1874 525.473 1874 531.537 1873.25 537.063 1871.75 542.05 1870.25 547.037 1868.04 551.307 1865.11 554.859 1862.18 558.411 1858.57 561.156 1854.29 563.094 1850 565.031 1845.09 566 1839.55 566 1833.73 566 1828.66 565.031 1824.34 563.094 1820.02 561.156 1816.43 558.411 1813.57 554.859 1810.71 551.307 1808.57 547.028 1807.14 542.023 1805.71 537.018 1805 531.465 1805 525.365 1805 519.266 1805.71 513.731 1807.14 508.762 1808.57 503.792 1810.71 499.55 1813.57 496.033 1816.43 492.517 1820.04 489.799 1824.39 487.88 1828.75 485.96 1833.84 485 1839.66 485ZM1839.66 490.974C1835.59 490.974 1832.12 491.745 1829.27 493.289 1826.41 494.831 1824.08 497.074 1822.28 500.016 1820.47 502.958 1819.17 506.573 1818.37 510.861 1817.56 515.149 1817.16 520.019 1817.16 525.473 1817.16 530.927 1817.56 535.798 1818.37 540.086 1819.17 544.373 1820.46 547.997 1822.25 550.957 1824.04 553.917 1826.35 556.178 1829.19 557.739 1832.03 559.3 1835.48 560.08 1839.55 560.08 1843.63 560.08 1847.08 559.3 1849.92 557.739 1852.76 556.178 1855.06 553.917 1856.83 550.957 1858.6 547.997 1859.88 544.373 1860.66 540.086 1861.45 535.798 1861.84 530.927 1861.84 525.473 1861.84 520.019 1861.45 515.149 1860.66 510.861 1859.88 506.573 1858.6 502.958 1856.83 500.016 1855.06 497.074 1852.78 494.831 1849.97 493.289 1847.17 491.745 1843.73 490.974 1839.66 490.974Z" fill="#17406D" fill-rule="evenodd"/><path d="M1444.31 485C1447.6 485 1450.52 485.341 1453.06 486.024 1455.61 486.707 1457.76 487.623 1459.51 488.772 1461.27 489.922 1462.6 491.242 1463.51 492.734 1464.43 494.224 1464.88 495.779 1464.88 497.395 1464.88 499.767 1464.1 501.554 1462.55 502.758 1460.99 503.961 1458.88 504.563 1456.23 504.563 1456.23 502.838 1456.03 501.141 1455.62 499.47 1455.2 497.8 1454.51 496.308 1453.55 494.997 1452.58 493.686 1451.31 492.617 1449.73 491.79 1448.16 490.964 1446.2 490.551 1443.88 490.551 1441.76 490.551 1439.87 490.847 1438.21 491.44 1436.54 492.033 1435.14 492.877 1433.99 493.973 1432.84 495.069 1431.97 496.389 1431.36 497.934 1430.75 499.479 1430.44 501.204 1430.44 503.108 1430.44 505.3 1430.73 507.231 1431.3 508.901 1431.88 510.572 1432.83 512.081 1434.18 513.428 1435.52 514.775 1437.29 516.051 1439.47 517.255 1441.66 518.458 1444.34 519.706 1447.53 521 1450.75 522.329 1453.63 523.731 1456.15 525.204 1458.68 526.677 1460.82 528.32 1462.57 530.135 1464.33 531.949 1465.67 533.979 1466.6 536.225 1467.53 538.47 1468 541.012 1468 543.85 1468 547.336 1467.36 550.452 1466.09 553.201 1464.82 555.949 1463 558.276 1460.64 560.18 1458.28 562.084 1455.43 563.53 1452.1 564.518 1448.77 565.506 1445.04 566 1440.92 566 1437.34 566 1434.18 565.623 1431.44 564.868 1428.7 564.114 1426.41 563.063 1424.56 561.716 1422.72 560.368 1421.33 558.734 1420.4 556.811 1419.47 554.889 1419 552.778 1419 550.479 1419 548.252 1419.69 546.455 1421.07 545.09 1422.45 543.725 1424.41 543.042 1426.95 543.042 1427.06 545.341 1427.41 547.551 1428 549.671 1428.59 551.791 1429.48 553.659 1430.66 555.276 1431.84 556.892 1433.35 558.186 1435.17 559.156 1437 560.126 1439.2 560.611 1441.78 560.611 1446.72 560.611 1450.58 559.416 1453.36 557.027 1456.14 554.638 1457.52 551.198 1457.52 546.707 1457.52 544.695 1457.24 542.916 1456.66 541.371 1456.09 539.826 1455.14 538.398 1453.82 537.087 1452.49 535.776 1450.74 534.518 1448.58 533.314 1446.41 532.111 1443.72 530.844 1440.49 529.515 1437.09 528.114 1434.12 526.614 1431.57 525.015 1429.03 523.416 1426.92 521.638 1425.23 519.68 1423.55 517.721 1422.3 515.539 1421.47 513.132 1420.65 510.725 1420.24 508.012 1420.24 504.994 1420.24 501.832 1420.84 499.012 1422.04 496.533 1423.24 494.054 1424.91 491.961 1427.06 490.255 1429.21 488.548 1431.75 487.245 1434.69 486.347 1437.63 485.449 1440.83 485 1444.31 485Z" fill="#17406D" fill-rule="evenodd"/><path d="M1246 486 1271.14 486 1293.96 549.276 1316.56 486 1341 486 1341 490.647 1339.6 490.647C1338.34 490.647 1337.17 490.737 1336.07 490.918 1334.98 491.098 1334.02 491.467 1333.2 492.025 1332.37 492.584 1331.72 493.385 1331.26 494.43 1330.79 495.474 1330.56 496.861 1330.56 498.59L1330.56 552.41C1330.56 554.139 1330.79 555.526 1331.26 556.571 1331.72 557.615 1332.37 558.417 1333.2 558.975 1334.02 559.534 1334.98 559.903 1336.07 560.083 1337.17 560.263 1338.34 560.353 1339.6 560.353L1341 560.353 1341 565 1311.67 565 1311.67 560.353 1312.04 560.353C1313.23 560.353 1314.29 560.272 1315.25 560.11 1316.2 559.948 1317 559.624 1317.67 559.137 1318.33 558.651 1318.86 557.948 1319.25 557.03 1319.65 556.111 1319.88 554.895 1319.95 553.383L1319.95 494.268 1294.71 565 1288.74 565 1263.17 494.484 1263.17 552.41C1263.17 554.139 1263.35 555.526 1263.71 556.571 1264.07 557.615 1264.6 558.417 1265.3 558.975 1266 559.534 1266.84 559.903 1267.83 560.083 1268.81 560.263 1269.92 560.353 1271.14 560.353L1271.46 560.353 1271.46 565 1246 565 1246 560.353 1247.4 560.353C1248.62 560.353 1249.78 560.272 1250.87 560.11 1251.97 559.948 1252.93 559.615 1253.75 559.11 1254.58 558.606 1255.23 557.858 1255.72 556.868 1256.2 555.877 1256.44 554.571 1256.44 552.95L1256.44 498.158C1256.44 496.537 1256.2 495.231 1255.72 494.241 1255.23 493.25 1254.58 492.485 1253.75 491.944 1252.93 491.404 1251.97 491.053 1250.87 490.89 1249.78 490.728 1248.62 490.647 1247.4 490.647L1246 490.647 1246 486Z" fill="#17406D" fill-rule="evenodd"/><path d="M1474 486 1506.19 486 1506.19 490.643 1504.74 490.643C1503.51 490.643 1502.34 490.733 1501.22 490.913 1500.11 491.092 1499.14 491.461 1498.33 492.019 1497.52 492.577 1496.88 493.378 1496.39 494.421 1495.9 495.465 1495.66 496.85 1495.66 498.578L1495.66 541.709C1495.66 544.911 1496.12 547.637 1497.04 549.887 1497.96 552.136 1499.23 553.962 1500.87 555.366 1502.51 556.769 1504.46 557.795 1506.71 558.443 1508.96 559.091 1511.43 559.414 1514.13 559.414 1517.34 559.414 1520.1 558.982 1522.43 558.119 1524.75 557.255 1526.67 556.058 1528.2 554.529 1529.73 553 1530.87 551.182 1531.61 549.077 1532.35 546.972 1532.72 544.66 1532.72 542.141L1532.72 498.146C1532.72 496.527 1532.47 495.222 1531.99 494.232 1531.5 493.243 1530.84 492.478 1530.01 491.938 1529.19 491.398 1528.22 491.047 1527.12 490.885 1526.03 490.724 1524.86 490.643 1523.64 490.643L1522.24 490.643 1522.24 486 1550 486 1550 490.643 1548.54 490.643C1547.32 490.643 1546.15 490.733 1545.03 490.913 1543.91 491.092 1542.95 491.461 1542.14 492.019 1541.33 492.577 1540.68 493.378 1540.2 494.421 1539.71 495.465 1539.47 496.85 1539.47 498.578L1539.47 542.356C1539.47 546.027 1538.88 549.329 1537.71 552.262 1536.54 555.195 1534.81 557.678 1532.53 559.711 1530.24 561.745 1527.4 563.301 1524.02 564.381 1520.63 565.46 1516.74 566 1512.35 566 1507.99 566 1504.09 565.541 1500.63 564.624 1497.17 563.706 1494.25 562.248 1491.85 560.251 1489.46 558.254 1487.63 555.681 1486.37 552.532 1485.11 549.383 1484.48 545.559 1484.48 541.061L1484.48 498.146C1484.48 496.527 1484.24 495.222 1483.75 494.232 1483.26 493.243 1482.61 492.478 1481.78 491.938 1480.95 491.398 1479.99 491.047 1478.89 490.885 1477.79 490.724 1476.63 490.643 1475.4 490.643L1474 490.643 1474 486Z" fill="#17406D" fill-rule="evenodd"/><path d="M1556 486 1586.91 486C1591.53 486 1595.54 486.532 1598.95 487.594 1602.35 488.657 1605.17 490.188 1607.39 492.187 1609.61 494.187 1611.27 496.609 1612.36 499.455 1613.45 502.301 1614 505.525 1614 509.127 1614 512.406 1613.49 515.557 1612.47 518.584 1611.45 521.61 1609.77 524.284 1607.44 526.608 1605.11 528.931 1602.07 530.787 1598.3 532.174 1594.54 533.56 1589.94 534.254 1584.49 534.254L1577.56 534.254 1577.56 552.95C1577.56 554.571 1577.8 555.877 1578.28 556.868 1578.76 557.858 1579.42 558.606 1580.24 559.11 1581.07 559.615 1582.03 559.948 1583.12 560.11 1584.21 560.272 1585.37 560.353 1586.59 560.353L1590.24 560.353 1590.24 565 1556 565 1556 560.353 1557.4 560.353C1558.65 560.353 1559.83 560.263 1560.92 560.083 1562.01 559.903 1562.97 559.534 1563.79 558.975 1564.62 558.417 1565.26 557.615 1565.73 556.571 1566.2 555.526 1566.43 554.139 1566.43 552.41L1566.43 498.158C1566.43 496.537 1566.19 495.231 1565.7 494.241 1565.22 493.25 1564.57 492.485 1563.74 491.944 1562.92 491.404 1561.96 491.053 1560.86 490.89 1559.77 490.728 1558.62 490.647 1557.4 490.647L1556 490.647 1556 486ZM1577.56 491.296 1577.56 529.013 1583.41 529.013C1586.75 529.013 1589.6 528.661 1591.96 527.959 1594.33 527.256 1596.26 526.122 1597.77 524.554 1599.27 522.987 1600.37 520.97 1601.07 518.502 1601.77 516.035 1602.12 513.054 1602.12 509.56 1602.12 506.462 1601.82 503.769 1601.21 501.482 1600.6 499.194 1599.61 497.293 1598.25 495.781 1596.89 494.268 1595.12 493.142 1592.96 492.403 1590.79 491.665 1588.14 491.296 1585.03 491.296L1577.56 491.296Z" fill="#17406D" fill-rule="evenodd"/><path d="M1621 486 1676.68 486 1677.22 505.345 1671.5 505.345 1670.96 500.59C1670.82 499.365 1670.54 498.203 1670.13 497.105 1669.71 496.006 1669.12 495.042 1668.35 494.214 1667.57 493.385 1666.6 492.727 1665.43 492.241 1664.26 491.755 1662.85 491.512 1661.2 491.512L1642.64 491.512 1642.64 520.961 1669.29 520.961 1669.29 526.365 1642.64 526.365 1642.64 559.489 1663.95 559.489C1665.71 559.489 1667.21 559.245 1668.45 558.759 1669.7 558.273 1670.73 557.615 1671.56 556.787 1672.38 555.958 1673.03 554.995 1673.5 553.896 1673.97 552.797 1674.29 551.635 1674.47 550.41L1675.23 545.656 1681 545.656 1680.24 565 1621 565 1621 560.353 1622.4 560.353C1623.63 560.353 1624.79 560.272 1625.88 560.11 1626.98 559.948 1627.94 559.615 1628.77 559.11 1629.6 558.606 1630.25 557.858 1630.74 556.868 1631.22 555.877 1631.47 554.571 1631.47 552.95L1631.47 498.59C1631.47 496.861 1631.23 495.474 1630.77 494.43 1630.3 493.385 1629.65 492.584 1628.82 492.025 1628 491.467 1627.03 491.098 1625.94 490.918 1624.84 490.737 1623.66 490.647 1622.4 490.647L1621 490.647 1621 486Z" fill="#17406D" fill-rule="evenodd"/><path d="M1690 486 1719.32 486C1728.75 486 1735.78 487.774 1740.39 491.323 1745 494.871 1747.31 500.211 1747.31 507.344 1747.31 510.298 1746.84 512.883 1745.9 515.098 1744.96 517.314 1743.72 519.232 1742.2 520.853 1740.67 522.474 1738.95 523.825 1737.04 524.906 1735.12 525.986 1733.21 526.851 1731.29 527.499L1746.24 551.491C1748.09 554.445 1749.88 556.661 1751.62 558.138 1753.35 559.615 1755.38 560.353 1757.68 560.353L1758 560.353 1758 565 1756.46 565C1753.05 565 1750.26 564.874 1748.08 564.622 1745.9 564.37 1744.04 563.883 1742.52 563.163 1740.99 562.443 1739.69 561.434 1738.61 560.137 1737.52 558.84 1736.36 557.147 1735.12 555.058L1720.38 530.147 1711.34 530.147 1711.34 552.95C1711.34 554.571 1711.58 555.877 1712.05 556.868 1712.53 557.858 1713.18 558.606 1714 559.11 1714.81 559.615 1715.76 559.948 1716.84 560.11 1717.93 560.272 1719.07 560.353 1720.28 560.353L1721.71 560.353 1721.71 565 1690 565 1690 560.353 1691.38 560.353C1692.59 560.353 1693.73 560.272 1694.82 560.11 1695.9 559.948 1696.85 559.615 1697.66 559.11 1698.48 558.606 1699.13 557.858 1699.6 556.868 1700.08 555.877 1700.32 554.571 1700.32 552.95L1700.32 498.158C1700.32 496.537 1700.08 495.231 1699.6 494.241 1699.13 493.25 1698.48 492.485 1697.66 491.944 1696.85 491.404 1695.9 491.053 1694.82 490.89 1693.73 490.728 1692.59 490.647 1691.38 490.647L1690 490.647 1690 486ZM1711.34 491.296 1711.34 524.96 1719 524.96C1722.19 524.96 1724.85 524.599 1726.98 523.879 1729.11 523.158 1730.81 522.078 1732.09 520.637 1733.36 519.196 1734.28 517.395 1734.83 515.233 1735.38 513.072 1735.65 510.55 1735.65 507.668 1735.65 504.714 1735.35 502.202 1734.75 500.131 1734.15 498.059 1733.17 496.366 1731.82 495.051 1730.47 493.736 1728.73 492.782 1726.58 492.187 1724.43 491.593 1721.82 491.296 1718.73 491.296L1711.34 491.296Z" fill="#17406D" fill-rule="evenodd"/><path d="M1762 486 1794 486 1794 490.647 1792.55 490.647C1791.33 490.647 1790.17 490.737 1789.06 490.918 1787.95 491.098 1786.99 491.467 1786.19 492.025 1785.38 492.584 1784.74 493.385 1784.25 494.43 1783.77 495.474 1783.53 496.861 1783.53 498.59L1783.53 552.41C1783.53 554.139 1783.77 555.526 1784.25 556.571 1784.74 557.615 1785.38 558.417 1786.19 558.975 1786.99 559.534 1787.95 559.903 1789.06 560.083 1790.17 560.263 1791.33 560.353 1792.55 560.353L1794 560.353 1794 565 1762 565 1762 560.353 1763.4 560.353C1764.65 560.353 1765.82 560.263 1766.91 560.083 1768 559.903 1768.96 559.534 1769.79 558.975 1770.61 558.417 1771.25 557.615 1771.72 556.571 1772.18 555.526 1772.42 554.139 1772.42 552.41L1772.42 498.59C1772.42 496.861 1772.18 495.474 1771.72 494.43 1771.25 493.385 1770.61 492.584 1769.79 492.025 1768.96 491.467 1768 491.098 1766.91 490.918 1765.82 490.737 1764.65 490.647 1763.4 490.647L1762 490.647 1762 486Z" fill="#17406D" fill-rule="evenodd"/><path d="M1886 486 1915.32 486C1924.75 486 1931.78 487.774 1936.39 491.323 1941 494.871 1943.31 500.211 1943.31 507.344 1943.31 510.298 1942.84 512.883 1941.9 515.098 1940.96 517.314 1939.72 519.232 1938.2 520.853 1936.67 522.474 1934.95 523.825 1933.04 524.906 1931.12 525.986 1929.2 526.851 1927.29 527.499L1942.24 551.491C1944.09 554.445 1945.88 556.661 1947.61 558.138 1949.35 559.615 1951.38 560.353 1953.68 560.353L1954 560.353 1954 565 1952.46 565C1949.05 565 1946.26 564.874 1944.08 564.622 1941.9 564.37 1940.04 563.883 1938.52 563.163 1936.99 562.443 1935.69 561.434 1934.61 560.137 1933.52 558.84 1932.36 557.147 1931.12 555.058L1916.38 530.147 1907.34 530.147 1907.34 552.95C1907.34 554.571 1907.58 555.877 1908.05 556.868 1908.53 557.858 1909.18 558.606 1910 559.11 1910.81 559.615 1911.76 559.948 1912.84 560.11 1913.93 560.272 1915.07 560.353 1916.28 560.353L1917.71 560.353 1917.71 565 1886 565 1886 560.353 1887.38 560.353C1888.59 560.353 1889.73 560.272 1890.82 560.11 1891.9 559.948 1892.85 559.615 1893.66 559.11 1894.48 558.606 1895.13 557.858 1895.6 556.868 1896.08 555.877 1896.32 554.571 1896.32 552.95L1896.32 498.158C1896.32 496.537 1896.08 495.231 1895.6 494.241 1895.13 493.25 1894.48 492.485 1893.66 491.944 1892.85 491.404 1891.9 491.053 1890.82 490.89 1889.73 490.728 1888.59 490.647 1887.38 490.647L1886 490.647 1886 486ZM1907.34 491.296 1907.34 524.96 1915 524.96C1918.19 524.96 1920.85 524.599 1922.98 523.879 1925.11 523.158 1926.81 522.078 1928.09 520.637 1929.36 519.196 1930.28 517.395 1930.83 515.233 1931.38 513.072 1931.65 510.55 1931.65 507.668 1931.65 504.714 1931.35 502.202 1930.75 500.131 1930.15 498.059 1929.17 496.366 1927.82 495.051 1926.47 493.736 1924.73 492.782 1922.58 492.187 1920.43 491.593 1917.82 491.296 1914.73 491.296L1907.34 491.296Z" fill="#17406D" fill-rule="evenodd"/><path d="M1360.6 492 1365.63 492 1365.63 505.612 1379.98 505.612 1379.98 511.931 1365.63 511.931 1365.63 549.201C1365.63 552.982 1366.39 555.755 1367.91 557.52 1369.43 559.284 1371.45 560.166 1373.99 560.166 1375.31 560.166 1376.52 560.095 1377.63 559.95 1378.73 559.806 1379.86 559.626 1381 559.41L1381 564.271C1380.54 564.487 1379.93 564.704 1379.18 564.92 1378.43 565.136 1377.62 565.325 1376.74 565.487 1375.87 565.649 1374.95 565.775 1373.99 565.865 1373.02 565.955 1372.11 566 1371.25 566 1368.47 566 1366.08 565.703 1364.08 565.109 1362.08 564.515 1360.44 563.551 1359.15 562.219 1357.87 560.887 1356.91 559.122 1356.29 556.926 1355.67 554.729 1355.35 552.046 1355.35 548.877L1355.35 511.931 1347 511.931 1347 507.502C1348.32 507.502 1349.78 507.232 1351.36 506.692 1352.95 506.152 1354.35 505.252 1355.57 503.991 1356.82 502.623 1357.82 500.993 1358.59 499.103 1359.36 497.212 1360.03 494.845 1360.6 492Z" fill="#17406D" fill-rule="evenodd"/><path d="M886.993 629.184 895.779 627.641 904.511 617.53 919.952 598.054 932.732 585.283C936.65 586.779 940.695 587.919 944.819 588.688 947.481 588.688 974.37 539.625 974.37 539.625L1003.92 561.815 1025.22 517.489 1035.87 512.806 1071.81 468 1116.86 531.111 1132.83 522.384 1157.7 561.336 1174.52 545.372C1174.52 545.372 1220.32 611.676 1222.98 615.082 1225.64 618.488 1234.43 606.355 1234.43 606.355L1243.16 619.765 1251.89 614.444 1307 690.965 1255.94 638.549 1242.47 640.571 1232.4 631.206 1216.96 631.206 1201.47 616.998 1190.82 594.116 1180.17 590.125 1176.12 600.768 1196.3 624.927 1206.36 643.711 1212.43 660.527 1191.56 638.337 1174.79 626.257 1160.68 608.164 1143.05 596.245 1131.61 578.791 1118.88 587.518C1118.88 587.518 1088.85 543.457 1088.16 542.765L1102.11 543.882 1094.07 535.155 1079.21 517.701 1059.03 538.987 1037.73 549.044 1027.67 569.159 1010.68 590.391 993.858 601.034 976.394 629.237 955.574 644.669 938.109 662.762 917.929 680.216 948.173 629.184 955.574 627.641 974.37 607.473 984.434 586.187 976.394 572.086 965.744 596.936 944.446 616.412 931.72 600.448 914.894 619.233C914.894 619.233 912.178 649.458 912.178 652.172 912.178 654.886 902.807 654.194 902.807 654.194L880.284 666.114 842 699Z" fill="#2191C9" fill-rule="evenodd"/><path d="M1774.47 626.472 1782.31 647.776 1766.64 647.776ZM1909.93 622.443 1909.93 661.557 1913.23 661.557 1913.23 642.806 1935.55 642.806 1935.55 661.557 1938.88 661.557 1938.88 622.443 1935.55 622.443 1935.55 640.012 1913.23 640.012 1913.23 622.443ZM1854.88 622.443 1854.88 625.237 1868.24 625.237 1868.24 661.557 1871.54 661.557 1871.54 625.237 1884.92 625.237 1884.92 622.443ZM1813.78 622.443 1813.78 661.557 1836.39 661.557 1836.39 658.763 1817.1 658.763 1817.1 622.443ZM1772.92 622.443 1758.14 661.557 1761.6 661.557 1765.62 650.57 1783.35 650.57 1787.4 661.557 1790.84 661.557 1776.06 622.443ZM1714.19 622.443 1714.19 661.557 1738.5 661.557 1738.5 658.763 1717.49 658.763 1717.49 642.806 1735.76 642.806 1735.76 640.012 1717.49 640.012 1717.49 625.237 1738.36 625.237 1738.36 622.443ZM1659.25 622.443 1659.25 661.557 1662.55 661.557 1662.55 642.806 1684.87 642.806 1684.87 661.557 1688.19 661.557 1688.19 622.443 1684.87 622.443 1684.87 640.012 1662.55 640.012 1662.55 622.443ZM1206 592 1995 592 1995 692 1305.86 692 1251.59 616.494 1242.87 621.818 1234.15 608.399C1234.15 608.399 1225.37 620.54 1222.71 617.133 1221.72 615.855 1214.66 605.725 1206.23 593.563L1206 593.227Z" fill="url(#fill1)" fill-rule="evenodd"/></g></svg>