<svg xmlns="http://www.w3.org/2000/svg" viewBox="0 0 138.07 143.82"><defs><style>.cls-1{fill:#444;}.cls-2{fill:#858585;}</style></defs><g id="Layer_2" data-name="Layer 2"><g id="Layer_1-2" data-name="Layer 1"><path class="cls-1" d="M34.55,124.76,68.41,107.1V74.61a3.21,3.21,0,0,1-1.93-1.2l-65.18,34Z"/><path class="cls-1" d="M.68,108.39v30.36a4.7,4.7,0,0,1,3.26,2L33.3,125.41Z"/><polygon class="cls-1" points="69.03 74.67 69.03 74.67 69.03 74.67 69.03 107.42 35.17 125.09 69.03 142.76 102.9 125.09 69.03 107.42 69.03 74.67"/><path class="cls-1" d="M103.52,124.76l33.24-17.34-65.18-34a3.19,3.19,0,0,1-1.92,1.2V107.1Z"/><path class="cls-1" d="M103.52,52.79l33.87-17.67v-31a4.73,4.73,0,0,1-3.27-2L70.28,35.44Z"/><path class="cls-1" d="M68.41,68.25V36.42l-32.62,17,30.69,16A3.21,3.21,0,0,1,68.41,68.25Z"/><path class="cls-1" d="M65.79,71.43a3.26,3.26,0,0,1,.38-1.49l-31-16.18L.68,71.76v35.33L66.17,72.92A3.23,3.23,0,0,1,65.79,71.43Z"/><polygon class="cls-1" points="138.01 4.18 138.01 4.18 138.01 4.18 138.01 35.45 104.15 53.11 138.01 70.78 138.07 70.75 138.07 35.48 138.01 35.45 138.01 4.18"/><path class="cls-1" d="M34.54,52.79,67.79,35.44,3.94,2.13a4.71,4.71,0,0,1-3.26,2v31Z"/><path class="cls-1" d="M133.84,141.23l-29.7-15.49-34.48,18v.09h63.67c0-.14,0-.27,0-.41A4.73,4.73,0,0,1,133.84,141.23Z"/><path class="cls-1" d="M33.92,125.74,4.23,141.23a4.73,4.73,0,0,1,.55,2.18c0,.14,0,.27,0,.41H68.41v-.09Z"/><path class="cls-1" d="M133.84,1.63a4.76,4.76,0,0,1-.5-1.63H69.66V35.12Z"/><path class="cls-1" d="M104.77,125.41l29.35,15.32a4.72,4.72,0,0,1,3.27-2V108.39Z"/><polygon class="cls-1" points="33.92 53.11 0.06 35.45 0.06 4.18 0.06 4.18 0.06 35.45 0 35.48 0 70.75 0.06 70.78 33.92 53.11"/><path class="cls-1" d="M68.41,35.12V0H4.73a4.76,4.76,0,0,1-.5,1.63Z"/><path class="cls-1" d="M72.28,71.43a3.23,3.23,0,0,1-.38,1.49l65.49,34.17V71.76l-34.49-18-31,16.18A3.26,3.26,0,0,1,72.28,71.43Z"/><path class="cls-1" d="M71.58,69.45l30.7-16-32.62-17V68.25A3.19,3.19,0,0,1,71.58,69.45Z"/><path class="cls-2" d="M33.92,53.11l.62-.32L.68,35.12v-31c-.21,0-.41.06-.62.06V35.45Z"/><path class="cls-2" d="M66.48,69.45l-30.69-16-.62.32,31,16.18A3.12,3.12,0,0,1,66.48,69.45Z"/><path class="cls-2" d="M103.52,52.79l.63.32L138,35.45V4.18a6.2,6.2,0,0,1-.62-.06v31Z"/><polygon class="cls-2" points="69.03 35.44 69.03 68.19 69.03 68.19 69.03 68.19 69.03 35.44 69.66 35.12 69.66 0 68.41 0 68.41 35.12 69.03 35.44"/><path class="cls-2" d="M71.9,69.94l31-16.18-.62-.32-30.7,16A3.17,3.17,0,0,1,71.9,69.94Z"/><path class="cls-2" d="M138,35.45l.06,0V4.17H138Z"/><path class="cls-2" d="M.06,4.18H0V35.48l.06,0Z"/><path class="cls-2" d="M33.3,125.41l1.25-.65L1.3,107.42l65.18-34a2.71,2.71,0,0,1-.31-.49L.68,107.09v31.66h0V108.39Z"/><path class="cls-2" d="M71.58,73.41l65.18,34-33.24,17.34,1.25.65,32.62-17v30.36h0V107.09L71.9,72.92A2.76,2.76,0,0,1,71.58,73.41Z"/><polygon class="cls-2" points="104.14 125.74 102.9 125.09 69.03 142.76 35.17 125.09 33.92 125.74 68.41 143.73 68.41 143.82 69.66 143.82 69.66 143.73 104.14 125.74"/><path class="cls-2" d="M104.15,53.11l-.63-.32L70.28,35.44,134.12,2.13a4,4,0,0,1-.28-.5L69.66,35.12l-.63.32V68.19a3.28,3.28,0,0,1,.63.06V36.42l32.62,17,.62.32,34.49,18v67a4.2,4.2,0,0,1,.62-.07h.06V70.75l-.06,0Z"/><path class="cls-2" d="M103.52,124.76,69.66,107.1V74.61a3.28,3.28,0,0,1-.63.06v32.75l33.87,17.67,1.24.65,29.7,15.49a4.91,4.91,0,0,1,.28-.5l-29.35-15.32Z"/><path class="cls-2" d="M69,74.67a3.18,3.18,0,0,1-.62-.06V107.1L34.55,124.76l-1.25.65L3.94,140.73a5,5,0,0,1,.29.5l29.69-15.49,1.25-.65L69,107.42Z"/><path class="cls-2" d="M.68,138.75v-67l34.49-18,.62-.32,32.62-17V68.25a3.18,3.18,0,0,1,.62-.06V35.44l-.62-.32L4.23,1.63a4.08,4.08,0,0,1-.29.5L67.79,35.44,34.54,52.79l-.62.32L.06,70.78l-.06,0v67.94H.06A4.36,4.36,0,0,1,.68,138.75Z"/><path class="cls-2" d="M4.23,141.23a5,5,0,0,0-.29-.5,4.7,4.7,0,0,0-3.26-2h0a4.36,4.36,0,0,0-.62-.07H0v5.13H4.74c0-.14,0-.27,0-.41A4.73,4.73,0,0,0,4.23,141.23Z"/><path class="cls-2" d="M138,138.68a4.2,4.2,0,0,0-.62.07h0a4.72,4.72,0,0,0-3.27,2,4.91,4.91,0,0,0-.28.5,4.73,4.73,0,0,0-.55,2.18c0,.14,0,.27,0,.41h4.74v-5.13Z"/><path class="cls-2" d="M0,4.17H.06c.21,0,.41,0,.62-.06a4.71,4.71,0,0,0,3.26-2,4.08,4.08,0,0,0,.29-.5A4.76,4.76,0,0,0,4.73,0H0Z"/><path class="cls-2" d="M68.41,68.25a3.21,3.21,0,0,0-1.93,1.2,3.12,3.12,0,0,0-.31.49,3.11,3.11,0,0,0,0,3,2.71,2.71,0,0,0,.31.49A3.2,3.2,0,0,0,69,74.67h0a3.28,3.28,0,0,0,.63-.06,3.19,3.19,0,0,0,1.92-1.2,2.76,2.76,0,0,0,.32-.49,3.11,3.11,0,0,0,0-3,3.34,3.34,0,0,0-2.24-1.69,3.28,3.28,0,0,0-.63-.06h0A3.18,3.18,0,0,0,68.41,68.25Z"/><path class="cls-2" d="M134.12,2.13a4.73,4.73,0,0,0,3.27,2,6.2,6.2,0,0,0,.62.06h.06V0h-4.73a4.76,4.76,0,0,0,.5,1.63A4,4,0,0,0,134.12,2.13Z"/></g></g></svg>