<svg xmlns="http://www.w3.org/2000/svg" viewBox="0 0 275.89 287.67"><defs><style>.cls-1{fill:#f0f0ec;}.cls-2{fill:#fff;}.cls-3{fill:none;stroke:#fff;stroke-linecap:round;stroke-linejoin:round;stroke-width:0;}.cls-4{fill:#82ccb1;}.cls-5{fill:#cfe297;}.cls-6{fill:#44c3cf;}</style></defs><g id="Layer_2" data-name="Layer 2"><g id="Layer_1-2" data-name="Layer 1"><path class="cls-1" d="M68.35,76.34a4.7,4.7,0,0,1-3.26-2h0L1.25,107.67,34.49,125l33.86-17.67Z"/><path class="cls-1" d="M211.1,73.86l64.18,33.48V72L240.79,54,211.1,69.51a4.66,4.66,0,0,1,.55,2.17A4.73,4.73,0,0,1,211.1,73.86Z"/><polygon class="cls-1" points="68.98 76.4 68.98 76.4 68.98 107.67 35.11 125.34 68.97 143 102.84 125.34 68.98 107.67 68.98 76.4"/><path class="cls-1" d="M241.42,53l33.86-17.67V2.89a3.34,3.34,0,0,1-1.93-1.2l-65.18,34Z"/><polygon class="cls-1" points="206.93 76.4 206.93 76.4 206.93 76.4 206.93 107.67 173.06 125.34 206.93 143.01 240.79 125.34 206.93 107.67 206.93 76.4"/><path class="cls-1" d="M207.55,76.34v31L241.41,125l33.25-17.34L210.81,74.36A4.68,4.68,0,0,1,207.55,76.34Z"/><path class="cls-1" d="M103.47,53l33.86-17.67V2.89a3.3,3.3,0,0,1-1.93-1.2l-65.18,34Z"/><path class="cls-1" d="M2.55,1.69A3.3,3.3,0,0,1,.62,2.89V35.37L34.48,53,67.73,35.69Z"/><path class="cls-1" d="M64.81,73.86a4.62,4.62,0,0,1-.56-2.18,4.55,4.55,0,0,1,.56-2.17L35.11,54,.62,72v35.33L64.79,73.87Z"/><path class="cls-1" d="M68.35,67V36.67l-32.62,17L65.09,69A4.7,4.7,0,0,1,68.35,67Z"/><path class="cls-1" d="M137.33,284.42v-32.1l-32.88,17.16,30.94,16.14a1.62,1.62,0,0,1,.18-.19c0-.06.09-.11.13-.16L136,285l.16-.12a3,3,0,0,1,.36-.19l.18-.09a4.11,4.11,0,0,1,.46-.15l.13,0Z"/><path class="cls-1" d="M172.44,53l33.24-17.35-65.18-34a3.28,3.28,0,0,1-1.92,1.2V35.37Z"/><path class="cls-1" d="M275.28,140.47V108.64l-32.62,17,30.69,16A3.27,3.27,0,0,1,275.28,140.47Z"/><path class="cls-1" d="M272.66,143.66a3.27,3.27,0,0,1,.38-1.5L242,126l-34.49,18v35.34L273,145.15A3.26,3.26,0,0,1,272.66,143.66Z"/><path class="cls-1" d="M35.73,197.64,65.09,213h0a4.7,4.7,0,0,1,3.26-2V180.62Z"/><polygon class="cls-1" points="104.09 53.36 137.95 71.03 171.81 53.36 137.95 35.7 137.95 2.95 137.95 2.95 137.95 2.95 137.95 35.7 104.09 53.36"/><path class="cls-1" d="M207.55,67a4.68,4.68,0,0,1,3.26,2l29.36-15.31-32.62-17Z"/><path class="cls-1" d="M134.71,143.66a3.15,3.15,0,0,1,.38-1.5l-31-16.17L69.6,144v35.34l65.49-34.17A3.14,3.14,0,0,1,134.71,143.66Z"/><path class="cls-1" d="M202.76,213.46,173.06,198l-34.49,18V251l64.07-33.43a4.76,4.76,0,0,1-.43-2A4.66,4.66,0,0,1,202.76,213.46Z"/><polygon class="cls-1" points="137.95 146.9 137.95 146.9 137.95 146.9 137.95 179.65 104.09 197.31 137.95 214.98 171.81 197.31 137.95 179.65 137.95 146.9"/><path class="cls-1" d="M206.3,220.29a4.69,4.69,0,0,1-3.38-2.19L139.2,251.34l33.5,17.49,33.6-17.54Z"/><polygon class="cls-1" points="206.93 220.35 206.93 220.35 206.93 220.35 206.93 251.62 173.33 269.15 206.93 286.68 240.53 269.15 206.93 251.62 206.93 220.35"/><path class="cls-1" d="M103.47,197l33.86-17.67V146.84a3.3,3.3,0,0,1-1.93-1.2l-65.18,34Z"/><path class="cls-1" d="M206.3,76.34a4.7,4.7,0,0,1-3.26-2L139.2,107.67,172.44,125l33.86-17.67Z"/><path class="cls-1" d="M102.22,197.64l-32.62-17V211a4.7,4.7,0,0,1,3.26,2h0Z"/><path class="cls-1" d="M206.3,211V180.62l-32.62,17L203,213A4.7,4.7,0,0,1,206.3,211Z"/><path class="cls-1" d="M172.44,197l33.24-17.35-65.18-34a3.28,3.28,0,0,1-1.92,1.2v32.48Z"/><path class="cls-1" d="M137.33,140.47V108.64l-32.62,17,30.69,16A3.27,3.27,0,0,1,137.33,140.47Z"/><path class="cls-1" d="M69.6,36.67V67a4.7,4.7,0,0,1,3.26,2l29.36-15.31Z"/><path class="cls-1" d="M69.6,76.34v31L103.46,125l33.25-17.34L72.86,74.36h0A4.7,4.7,0,0,1,69.6,76.34Z"/><path class="cls-1" d="M140.5,141.68l30.7-16-32.62-17v31.83A3.25,3.25,0,0,1,140.5,141.68Z"/><path class="cls-1" d="M202.76,69.51,173.06,54,138.57,72v35.33l64.19-33.48a4.73,4.73,0,0,1-.55-2.18A4.66,4.66,0,0,1,202.76,69.51Z"/><path class="cls-1" d="M206.3,67V36.67l-32.62,17L203,69A4.7,4.7,0,0,1,206.3,67Z"/><path class="cls-1" d="M241.42,197l33.86-17.67V146.84a3.34,3.34,0,0,1-1.93-1.2l-65.18,34Z"/><path class="cls-1" d="M211.21,217.59,275.28,251V216l-34.49-18-29.69,15.5a4.57,4.57,0,0,1,.11,4.13Z"/><path class="cls-1" d="M102.84,54l-29.7,15.5a4.55,4.55,0,0,1,.56,2.17,4.62,4.62,0,0,1-.56,2.18h0l64.17,33.47V72Z"/><path class="cls-1" d="M207.55,220.29v31l33.6,17.54,33.51-17.49L210.94,218.1A4.69,4.69,0,0,1,207.55,220.29Z"/><path class="cls-1" d="M207.55,211a4.68,4.68,0,0,1,3.26,2l29.36-15.31-32.62-17Z"/><path class="cls-1" d="M141.19,143.66a3.14,3.14,0,0,1-.38,1.49l65.5,34.17V144l-34.49-18-31,16.17A3.15,3.15,0,0,1,141.19,143.66Z"/><polygon class="cls-1" points="0 179.65 0 146.9 0 146.9 0 179.64 0 214.98 33.86 197.31 0 179.65"/><path class="cls-1" d="M171.46,269.48l-32.88-17.16v32.1h0l.12,0a3.53,3.53,0,0,1,.46.15,1,1,0,0,1,.18.09l.37.19.15.12.32.26.14.16.18.19Z"/><polygon class="cls-1" points="0 35.7 0 35.7 0 71.03 33.86 53.36 0 35.7"/><path class="cls-1" d="M69.6,35.37,135.09,1.2a3.27,3.27,0,0,1-.35-1.2H69.66L69.6,0Z"/><path class="cls-1" d="M69.6,220.29v31l33.6,17.54,33.51-17.49L73,218.1A4.71,4.71,0,0,1,69.6,220.29Z"/><path class="cls-1" d="M102.84,198,73.16,213.45h0a4.66,4.66,0,0,1,.55,2.17,4.77,4.77,0,0,1-.44,2L137.33,251V216Z"/><path class="cls-1" d="M68.35,35.37V0l-.06,0H3.21a3.27,3.27,0,0,1-.35,1.2Z"/><path class="cls-1" d="M272.66,287.61s0-.07,0-.11a3.09,3.09,0,0,1,.08-.61c0-.09.05-.18.08-.28s.09-.26.15-.38,0-.09,0-.12h0l-31.25-16.3-34.23,17.86h65.12s0,0,0-.06Z"/><polygon class="cls-1" points="275.89 214.97 275.89 179.65 242.04 197.31 275.89 214.97"/><path class="cls-1" d="M206.31,35.37V0l-.06,0H141.17a3.1,3.1,0,0,1-.36,1.2Z"/><path class="cls-1" d="M207.55,35.37,273,1.2a3.27,3.27,0,0,1-.35-1.2H207.61l-.06,0Z"/><polygon class="cls-1" points="275.89 71.02 275.89 35.7 242.04 53.36 275.89 71.02"/><path class="cls-1" d="M68.35,144,33.87,126l-31,16.17a3.26,3.26,0,0,1,.37,1.5,3.25,3.25,0,0,1-.37,1.49l65.48,34.17Z"/><path class="cls-1" d="M273.52,285.43a1.07,1.07,0,0,1,.14-.16L274,285l.15-.12c.11-.07.24-.13.36-.19l.18-.09a3.68,3.68,0,0,1,.47-.15l.12,0h0v-32.1L242.4,269.48l30.94,16.14A1.62,1.62,0,0,1,273.52,285.43Z"/><path class="cls-1" d="M134.71,287.61s0-.07,0-.11a4.07,4.07,0,0,1,.07-.61c0-.09.06-.18.09-.28a2.5,2.5,0,0,1,.15-.38s0-.09,0-.12h0l-31.25-16.3L69.6,287.66h65.12s0,0,0-.06Z"/><path class="cls-1" d="M34.13,269.8,2.88,286.1h0s0,.09.05.13a2.54,2.54,0,0,1,.17.46l.06.2a3.29,3.29,0,0,1,.08.71v.06H68.35Z"/><path class="cls-1" d="M206.31,287.66,172.08,269.8l-31.25,16.3h0s0,.08,0,.12a2.46,2.46,0,0,1,.14.38c0,.1.07.19.09.28a2.56,2.56,0,0,1,.07.62.3.3,0,0,1,0,.1h0v.06h65.12Z"/><path class="cls-1" d="M1.17,284.58a3,3,0,0,1,.31.15l.19.1A2.16,2.16,0,0,1,2,285l.17.12.27.27.11.12.06.06h0L33.5,269.48.62,252.32v32.1h0A3.19,3.19,0,0,1,1.17,284.58Z"/><path class="cls-1" d="M.62,108.64v31.83h0a3.33,3.33,0,0,1,1.94,1.2l30.68-16Z"/><path class="cls-1" d="M34.48,197l33.25-17.35-65.17-34a3.23,3.23,0,0,1-1.94,1.2h0v32.48Z"/><polygon class="cls-1" points="68.98 220.35 68.98 220.35 68.98 251.62 35.37 269.15 68.98 286.68 102.58 269.15 68.98 251.62 68.98 220.35"/><path class="cls-1" d="M68.35,220.29A4.67,4.67,0,0,1,65,218.1L1.25,251.34l33.5,17.49,33.6-17.53Z"/><path class="cls-1" d="M64.81,213.46h0L35.11,198,.62,216V251l64.07-33.43a4.77,4.77,0,0,1-.44-2A4.55,4.55,0,0,1,64.81,213.46Z"/><path class="cls-2" d="M68.35,67h0V35.37L2.86,1.2a3.12,3.12,0,0,1-.31.49l65.18,34L34.48,53l1.25.65,32.62-17Z"/><polygon class="cls-2" points="0 107.67 0.62 107.34 0.62 72.01 35.11 54.01 33.86 53.36 0 71.03 0 107.67 0 107.67 0 140.41 0 140.41 0 140.41 0 140.41 0 140.41 0 107.67"/><path class="cls-2" d="M33.24,125.66l-30.68,16a5,5,0,0,1,.31.49l31-16.17Z"/><path class="cls-2" d="M69,76.4h0a4.34,4.34,0,0,1-.63-.06v31L34.49,125l.62.33L69,107.67Z"/><polygon class="cls-2" points="0.62 108.64 0.62 140.47 0.62 140.47 0.62 108.64 0.62 108.64"/><path class="cls-2" d="M206.93,76.4a4.34,4.34,0,0,1-.63-.06v31L172.44,125l.62.33,33.87-17.67Z"/><path class="cls-2" d="M69.6,36.67l32.62,17,1.25-.65L70.22,35.69l65.18-34a3.66,3.66,0,0,1-.31-.49L69.6,35.37V67h0Z"/><polygon class="cls-2" points="173.06 54.01 171.81 53.36 137.95 71.03 104.09 53.36 102.84 54.01 137.33 72 137.33 107.34 137.95 107.67 137.95 140.41 137.95 140.41 137.95 140.41 137.95 107.67 138.57 107.34 138.57 72 173.06 54.01"/><path class="cls-2" d="M172.44,53l1.24.65,32.62-17V67h0V35.37L140.81,1.2a3.66,3.66,0,0,1-.31.49l65.18,34Z"/><path class="cls-2" d="M135.4,141.68l-30.69-16-.63.33,31,16.17A3,3,0,0,1,135.4,141.68Z"/><path class="cls-2" d="M140.81,142.16l31-16.17-.62-.33-30.7,16A3,3,0,0,1,140.81,142.16Z"/><polygon class="cls-2" points="137.33 140.47 137.33 108.64 137.33 108.64 137.33 140.47 137.33 140.47"/><path class="cls-2" d="M69.6,76.34a4.34,4.34,0,0,1-.62.06v31.27l33.86,17.67.62-.33L69.6,107.34Z"/><path class="cls-2" d="M207.55,36.67l32.62,17,1.25-.65L208.17,35.69l65.18-34A5,5,0,0,1,273,1.2L207.55,35.37V67h0Z"/><polygon class="cls-2" points="240.79 54.01 275.28 72 275.28 107.34 275.89 107.66 275.89 71.02 242.04 53.36 240.79 54.01"/><path class="cls-2" d="M273.35,141.68l-30.69-16L242,126l31,16.17A3,3,0,0,1,273.35,141.68Z"/><path class="cls-2" d="M207.55,76.34a4.2,4.2,0,0,1-.62.06v31.27l33.86,17.67.62-.33-33.86-17.67Z"/><path class="cls-2" d="M2.71,285.85a1.88,1.88,0,0,1,.12.18l0,.07,31.25-16.3-.63-.32L2.57,285.62C2.62,285.69,2.66,285.77,2.71,285.85Z"/><polygon class="cls-2" points="0.62 215.95 35.11 197.96 33.86 197.31 0 214.98 0 251.34 0.62 251.02 0.62 215.95"/><path class="cls-2" d="M69,220.35h0a4.34,4.34,0,0,1-.63-.06v31l-33.6,17.53.62.32L69,251.62Z"/><path class="cls-2" d="M34.48,197l1.25.65,32.62-17v-1.3L2.87,145.15a4.07,4.07,0,0,1-.31.49l65.17,34Z"/><polygon class="cls-2" points="137.33 284.42 137.33 252.32 137.33 252.32 137.33 284.42 137.33 284.42"/><path class="cls-2" d="M140.52,285.62h0a.61.61,0,0,0,.07.1l.12.19.12.19,31.25-16.3-.62-.32Z"/><path class="cls-2" d="M135.39,285.62l-30.94-16.14-.63.32,31.25,16.3c0-.06.09-.12.13-.19a1.88,1.88,0,0,1,.12-.18l.06-.11Z"/><path class="cls-2" d="M140.5,145.64l65.18,34L172.44,197l1.24.65,32.62-17V211h0V179.32l-65.5-34.17A3.66,3.66,0,0,1,140.5,145.64Z"/><path class="cls-2" d="M102.22,197.64l1.25-.65L70.22,179.64l65.18-34a3.66,3.66,0,0,1-.31-.49L69.6,179.32V211h0V180.62Z"/><polygon class="cls-2" points="137.95 251.34 138.57 251.02 138.57 215.96 173.06 197.96 171.81 197.31 137.95 214.98 104.09 197.31 102.84 197.96 137.33 215.96 137.33 251.02 137.95 251.34 137.95 284.36 137.95 284.36 137.95 251.34"/><path class="cls-2" d="M69.6,220.29a4.34,4.34,0,0,1-.62.06v31.27l33.6,17.53.62-.32L69.6,251.29Z"/><path class="cls-2" d="M206.93,220.35a4.34,4.34,0,0,1-.63-.06v31l-33.6,17.54.63.32,33.6-17.53Z"/><polygon class="cls-2" points="275.28 284.42 275.28 252.32 275.28 252.32 275.28 284.42 275.28 284.42"/><path class="cls-2" d="M207.55,220.29a4.2,4.2,0,0,1-.62.06v31.27l33.6,17.53.62-.32-33.6-17.54Z"/><path class="cls-2" d="M273.15,285.91l.12-.18a.41.41,0,0,1,.07-.11h0L242.4,269.48l-.62.32L273,286.1C273.06,286,273.11,286,273.15,285.91Z"/><path class="cls-2" d="M207.55,180.62l32.62,17,1.25-.65-33.25-17.35,65.18-34a5,5,0,0,1-.31-.49l-65.49,34.17V211h0Z"/><polygon class="cls-2" points="240.79 197.96 275.28 215.96 275.28 251.02 275.89 251.34 275.89 214.97 242.04 197.31 240.79 197.96"/><line class="cls-3" y1="35.7" y2="35.69"/><line class="cls-3" y1="140.41" y2="140.41"/><line class="cls-3" y1="146.9" y2="179.64"/><polygon class="cls-2" points="0 107.67 0 107.67 0 140.41 0 140.41 0 107.67"/><path class="cls-2" d="M206.31,35.37V67a4.07,4.07,0,0,1,.62-.06,4.2,4.2,0,0,1,.62.06V0l.06,0h-1.36l.06,0Z"/><path class="cls-2" d="M275.28,35.37,241.42,53l-1.25.65L210.81,69a4.21,4.21,0,0,1,.29.51L240.79,54l1.25-.65L275.89,35.7V3a4.07,4.07,0,0,1-.61-.06Z"/><path class="cls-2" d="M171.82,53.36l1.24.65,29.7,15.5A4.16,4.16,0,0,1,203,69L173.68,53.69,172.44,53,138.58,35.37V2.89A3.28,3.28,0,0,1,138,3V35.69Z"/><path class="cls-2" d="M103.47,53l-1.25.65L72.86,69a4.16,4.16,0,0,1,.28.51L102.84,54l1.25-.65L138,35.69V3a3.18,3.18,0,0,1-.62-.06V35.37Z"/><path class="cls-2" d="M68.35,35.37V67a3.29,3.29,0,0,1,1.25,0V0l.06,0H68.29l.06,0Z"/><path class="cls-2" d="M35.11,54l29.7,15.5a4.16,4.16,0,0,1,.28-.51L35.73,53.69,34.48,53,.62,35.37V2.89A3.18,3.18,0,0,1,0,3V35.69L33.86,53.36Z"/><path class="cls-2" d="M64.81,213.46a3.63,3.63,0,0,1,.28-.51h0L35.73,197.64,34.48,197,.62,179.32V146.84a3.18,3.18,0,0,1-.62.06H0v32.74l33.86,17.67,1.25.65,29.68,15.49Z"/><path class="cls-2" d="M138,146.9a3.18,3.18,0,0,1-.62-.06v32.48L103.47,197l-1.25.65L72.86,213h0a5.14,5.14,0,0,1,.29.51h0L102.84,198l1.25-.65L138,179.64Z"/><path class="cls-2" d="M.62,108.64l32.62,17,.63.33,34.48,18v67a3.29,3.29,0,0,1,1.25,0V144l34.48-18,.63-.33,32.62-17h0v31.83a4.2,4.2,0,0,1,.62-.06V107.67l-.62-.33L73.16,73.87h0a4.91,4.91,0,0,1-.28.5h0l63.85,33.31L103.46,125l-.62.33L69,143,35.11,125.34l-.62-.33L1.25,107.67,65.09,74.36h0a4.91,4.91,0,0,1-.28-.5h0L.62,107.34l-.62.33v32.74H0a4.2,4.2,0,0,1,.62.06V108.64Z"/><path class="cls-2" d="M203,213l-29.36-15.31-1.24-.65-33.86-17.67V146.84a3.28,3.28,0,0,1-.63.06v32.74l33.87,17.67,1.24.65,29.7,15.5A4.16,4.16,0,0,1,203,213Z"/><path class="cls-2" d="M275.28,179.32,241.42,197l-1.25.65L210.81,213a4.21,4.21,0,0,1,.29.51L240.79,198l1.25-.65,33.85-17.66V146.9a4.07,4.07,0,0,1-.61-.06Z"/><path class="cls-2" d="M211.1,73.86a5,5,0,0,1-.29.5l63.85,33.31L241.41,125l-.62.33L206.93,143l-33.87-17.67-.62-.33L139.2,107.67,203,74.36a4.91,4.91,0,0,1-.28-.5l-64.19,33.48-.62.33v32.74a4.34,4.34,0,0,1,.63.06V108.64l32.62,17,.62.33,34.49,18v67a4.07,4.07,0,0,1,.62-.06,4.2,4.2,0,0,1,.62.06V144L242,126l.62-.33,32.62-17v31.83a4.07,4.07,0,0,1,.61-.06V107.66l-.61-.32Z"/><path class="cls-4" d="M64.81,73.86a4.91,4.91,0,0,0,.28.5,4.7,4.7,0,0,0,3.26,2,4.34,4.34,0,0,0,.63.06h0a4.34,4.34,0,0,0,.62-.06,4.7,4.7,0,0,0,3.26-2,4.91,4.91,0,0,0,.28-.5,4.62,4.62,0,0,0,.56-2.18,4.55,4.55,0,0,0-.56-2.17,4.16,4.16,0,0,0-.28-.51,4.7,4.7,0,0,0-3.26-2h0a3.29,3.29,0,0,0-1.25,0h0a4.7,4.7,0,0,0-3.26,2,4.16,4.16,0,0,0-.28.51,4.55,4.55,0,0,0-.56,2.17A4.62,4.62,0,0,0,64.81,73.86Z"/><path class="cls-5" d="M203,69a4.16,4.16,0,0,0-.28.51,4.66,4.66,0,0,0-.55,2.17,4.73,4.73,0,0,0,.55,2.18,4.91,4.91,0,0,0,.28.5,4.7,4.7,0,0,0,3.26,2,4.34,4.34,0,0,0,.63.06h0a4.2,4.2,0,0,0,.62-.06,4.68,4.68,0,0,0,3.26-2,5,5,0,0,0,.29-.5,4.73,4.73,0,0,0,.55-2.18,4.66,4.66,0,0,0-.55-2.17,4.21,4.21,0,0,0-.29-.51,4.68,4.68,0,0,0-3.26-2h0a4.2,4.2,0,0,0-.62-.06,4.07,4.07,0,0,0-.62.06h0A4.7,4.7,0,0,0,203,69Z"/><path class="cls-6" d="M2.55,1.69a3.12,3.12,0,0,0,.31-.49A3.27,3.27,0,0,0,3.21,0H0V3a3.18,3.18,0,0,0,.62-.06A3.3,3.3,0,0,0,2.55,1.69Z"/><path class="cls-5" d="M135.4,1.69a3.3,3.3,0,0,0,1.93,1.2A3.18,3.18,0,0,0,138,3h0a3.28,3.28,0,0,0,.63-.06,3.28,3.28,0,0,0,1.92-1.2,3.66,3.66,0,0,0,.31-.49,3.1,3.1,0,0,0,.36-1.2h-6.43a3.27,3.27,0,0,0,.35,1.2A3.66,3.66,0,0,0,135.4,1.69Z"/><path class="cls-4" d="M273.35,1.69a3.34,3.34,0,0,0,1.93,1.2,4.07,4.07,0,0,0,.61.06V0h-3.2A3.27,3.27,0,0,0,273,1.2,5,5,0,0,0,273.35,1.69Z"/><path class="cls-4" d="M0,146.9a3.18,3.18,0,0,0,.62-.06h0a3.23,3.23,0,0,0,1.94-1.2,4.07,4.07,0,0,0,.31-.49,3.25,3.25,0,0,0,.37-1.49,3.26,3.26,0,0,0-.37-1.5,5,5,0,0,0-.31-.49,3.33,3.33,0,0,0-1.94-1.2h0a4.2,4.2,0,0,0-.62-.06H0v6.49Z"/><path class="cls-5" d="M138,140.41a4.2,4.2,0,0,0-.62.06h0a3.27,3.27,0,0,0-1.93,1.21,3,3,0,0,0-.31.48,3.13,3.13,0,0,0,0,3,3.66,3.66,0,0,0,.31.49,3.3,3.3,0,0,0,1.93,1.2,3.18,3.18,0,0,0,.62.06h0a3.18,3.18,0,0,0,2.55-1.26,3.66,3.66,0,0,0,.31-.49,3.13,3.13,0,0,0,0-3,3,3,0,0,0-.31-.48,3.25,3.25,0,0,0-1.92-1.21,4.34,4.34,0,0,0-.63-.06Z"/><path class="cls-6" d="M275.28,140.47a3.27,3.27,0,0,0-1.93,1.21,3,3,0,0,0-.31.48,3.13,3.13,0,0,0,0,3,5,5,0,0,0,.31.49,3.34,3.34,0,0,0,1.93,1.2,4.07,4.07,0,0,0,.61.06v-6.49A4.07,4.07,0,0,0,275.28,140.47Z"/><path class="cls-2" d="M3.1,286.7l.06.2Z"/><path class="cls-2" d="M2.57,285.61l-.06-.06a3.13,3.13,0,0,1,.2.3c0-.08-.09-.16-.14-.23Z"/><path class="cls-2" d="M2.13,285.16l.27.27Z"/><path class="cls-2" d="M1.48,284.73a3,3,0,0,0-.31-.15A3,3,0,0,1,1.48,284.73Z"/><path class="cls-2" d="M2,285a2.16,2.16,0,0,0-.29-.21A2.16,2.16,0,0,1,2,285Z"/><path class="cls-2" d="M2.93,286.24s0-.09-.05-.13h0l0-.07A2,2,0,0,1,2.93,286.24Z"/><path class="cls-2" d="M135.7,285.27,136,285Z"/><path class="cls-2" d="M136.54,284.7a3,3,0,0,0-.36.19A3,3,0,0,1,136.54,284.7Z"/><path class="cls-2" d="M135.07,286.11s0,.08,0,.12a3.24,3.24,0,0,1,.17-.32c0,.07-.09.13-.13.19Z"/><path class="cls-2" d="M139.88,285l.32.26Z"/><path class="cls-2" d="M134.88,286.61c0,.1-.07.19-.09.28C134.81,286.8,134.85,286.71,134.88,286.61Z"/><path class="cls-2" d="M134.71,287.61h0s0-.07,0-.11,0,.07,0,.11Z"/><path class="cls-2" d="M141,286.61c0,.1.07.19.09.28C141.09,286.8,141.05,286.71,141,286.61Z"/><path class="cls-2" d="M139.73,284.89l-.37-.19Z"/><path class="cls-2" d="M141.19,287.61h0a.3.3,0,0,0,0-.1.31.31,0,0,1,0,.1Z"/><path class="cls-2" d="M138.58,284.42h0Z"/><path class="cls-2" d="M137.18,284.46a4.11,4.11,0,0,0-.46.15A4.11,4.11,0,0,1,137.18,284.46Z"/><path class="cls-2" d="M139.18,284.61a3.53,3.53,0,0,0-.46-.15A3.53,3.53,0,0,1,139.18,284.61Z"/><path class="cls-2" d="M137.33,284.42Z"/><path class="cls-2" d="M135.38,285.62l-.06.11a1.81,1.81,0,0,1,.25-.3,1.62,1.62,0,0,0-.18.19Z"/><polygon class="cls-2" points="137.95 284.36 137.95 284.36 137.95 284.36 137.95 284.36 137.95 284.36"/><path class="cls-2" d="M140.52,285.62l-.18-.19a3.47,3.47,0,0,1,.25.29.61.61,0,0,1-.07-.1Z"/><path class="cls-2" d="M140.88,286.23s0-.09,0-.12h0l-.12-.19A3.24,3.24,0,0,1,140.88,286.23Z"/><path class="cls-2" d="M273.66,285.27,274,285Z"/><path class="cls-2" d="M275.28,284.42h0Z"/><path class="cls-2" d="M275.14,284.46a3.68,3.68,0,0,0-.47.15A3.68,3.68,0,0,1,275.14,284.46Z"/><path class="cls-2" d="M274.49,284.7c-.12.06-.25.12-.36.19C274.24,284.82,274.37,284.76,274.49,284.7Z"/><path class="cls-2" d="M272.66,287.61h0s0-.07,0-.11,0,.07,0,.11Z"/><path class="cls-2" d="M272.83,286.61c0,.1-.06.19-.08.28C272.77,286.8,272.8,286.71,272.83,286.61Z"/><path class="cls-2" d="M273,286.11s0,.08,0,.12a3.24,3.24,0,0,1,.17-.32c0,.07-.09.13-.12.19Z"/><path class="cls-2" d="M273.34,285.62a.41.41,0,0,0-.07.11,2.48,2.48,0,0,1,.25-.3,1.62,1.62,0,0,0-.18.19Z"/><path class="cls-2" d="M211.21,217.59a4.11,4.11,0,0,1-.27.51l63.72,33.24-33.51,17.49-.62.32-33.6,17.53-33.6-17.53-.63-.32-33.5-17.49,63.72-33.24a4.16,4.16,0,0,1-.28-.51L138.57,251l-.62.32v33h0a4.34,4.34,0,0,1,.63.06h0v-32.1l32.88,17.16.62.32,34.23,17.86h1.24l34.23-17.86.62-.32,32.88-17.16h0v32.1h0a4.07,4.07,0,0,1,.61-.06v-33l-.61-.32Z"/><path class="cls-2" d="M103.82,269.8l.63-.32,32.88-17.16h0v32.1h0a4.2,4.2,0,0,1,.62-.06h0v-33l-.62-.32L73.26,217.59a4.11,4.11,0,0,1-.27.51l63.72,33.24L103.2,268.83l-.62.32L69,286.68,35.37,269.15l-.62-.32L1.25,251.34,65,218.1a4.16,4.16,0,0,1-.28-.51L.62,251l-.62.32v33H0a4.2,4.2,0,0,1,.62.06v-32.1L33.5,269.48l.63.32,34.22,17.86H69.6Z"/><path class="cls-4" d="M3.16,286.9l-.06-.2a2.54,2.54,0,0,0-.17-.46,2,2,0,0,0-.1-.21,1.88,1.88,0,0,0-.12-.18,3.13,3.13,0,0,0-.2-.3l-.11-.12-.27-.27L2,285a2.16,2.16,0,0,0-.29-.21l-.19-.1a3,3,0,0,0-.31-.15,3.19,3.19,0,0,0-.55-.16h0a4.2,4.2,0,0,0-.62-.06H0v3.3H3.24v-.06A3.29,3.29,0,0,0,3.16,286.9Z"/><path class="cls-5" d="M141.19,287.61a.31.31,0,0,0,0-.1,2.56,2.56,0,0,0-.07-.62c0-.09-.06-.18-.09-.28a2.46,2.46,0,0,0-.14-.38,3.24,3.24,0,0,0-.17-.32l-.12-.19a3.47,3.47,0,0,0-.25-.29l-.14-.16-.32-.26-.15-.12-.37-.19a1,1,0,0,0-.18-.09,3.53,3.53,0,0,0-.46-.15l-.12,0h0a4.34,4.34,0,0,0-.63-.06h0a4.2,4.2,0,0,0-.62.06h0l-.13,0a4.11,4.11,0,0,0-.46.15l-.18.09a3,3,0,0,0-.36.19L136,285l-.32.26c0,.05-.09.1-.13.16a1.81,1.81,0,0,0-.25.3,1.88,1.88,0,0,0-.12.18,3.24,3.24,0,0,0-.17.32,2.5,2.5,0,0,0-.15.38c0,.1-.07.19-.09.28a4.07,4.07,0,0,0-.07.61s0,.07,0,.11h0s0,0,0,.06h6.47v-.06Z"/><path class="cls-6" d="M275.26,284.43l-.12,0a3.68,3.68,0,0,0-.47.15l-.18.09c-.12.06-.25.12-.36.19L274,285l-.32.26a1.07,1.07,0,0,0-.14.16,2.48,2.48,0,0,0-.25.3l-.12.18a3.24,3.24,0,0,0-.17.32c-.06.12-.1.25-.15.38s-.06.19-.08.28a3.09,3.09,0,0,0-.08.61s0,.07,0,.11h0s0,0,0,.06h3.22v-3.31a4.07,4.07,0,0,0-.61.06Z"/><path class="cls-6" d="M73.15,213.46a5.14,5.14,0,0,0-.29-.51,4.7,4.7,0,0,0-3.26-2h0a3.29,3.29,0,0,0-1.25,0,4.7,4.7,0,0,0-3.26,2,3.63,3.63,0,0,0-.28.51,4.55,4.55,0,0,0-.56,2.17,4.77,4.77,0,0,0,.44,2,4.16,4.16,0,0,0,.28.51,4.67,4.67,0,0,0,3.38,2.19,4.34,4.34,0,0,0,.63.06h0a4.34,4.34,0,0,0,.62-.06A4.71,4.71,0,0,0,73,218.1a4.11,4.11,0,0,0,.27-.51,4.77,4.77,0,0,0,.44-2A4.66,4.66,0,0,0,73.15,213.46Z"/><path class="cls-4" d="M203,213a4.16,4.16,0,0,0-.28.51,4.66,4.66,0,0,0-.55,2.17,4.76,4.76,0,0,0,.43,2,4.16,4.16,0,0,0,.28.51,4.69,4.69,0,0,0,3.38,2.19,4.34,4.34,0,0,0,.63.06h0a4.2,4.2,0,0,0,.62-.06,4.69,4.69,0,0,0,3.39-2.19,4.11,4.11,0,0,0,.27-.51,4.57,4.57,0,0,0-.11-4.13,4.21,4.21,0,0,0-.29-.51,4.68,4.68,0,0,0-3.26-2h0a4.2,4.2,0,0,0-.62-.06,4.07,4.07,0,0,0-.62.06h0A4.7,4.7,0,0,0,203,213Z"/></g></g></svg>