<svg id="Layer_1" data-name="Layer 1" xmlns="http://www.w3.org/2000/svg" viewBox="0 0 1940 770"><defs><style>.cls-1{fill:none;}.cls-2{fill:#444;}.cls-3{fill:#44c3cf;}.cls-4{fill:#82ccb1;}.cls-5{fill:#cfe297;}</style></defs><rect class="cls-1" width="1940" height="770"/><polygon class="cls-2" points="630.1 510.77 559.6 327.96 587.65 327.96 644.5 478.38 701.49 327.96 729.4 327.96 658.91 510.77 630.1 510.77"/><path class="cls-2" d="M763.79,481.21h64.76V447.05H763.79Zm-25-34.16a24.08,24.08,0,0,1,2-9.75,26.42,26.42,0,0,1,5.36-8,24.63,24.63,0,0,1,8-5.41,24.21,24.21,0,0,1,9.69-2h64.76V395.68h-82V370.56h82a24.43,24.43,0,0,1,9.81,2,24.93,24.93,0,0,1,13.33,13.32,24.71,24.71,0,0,1,2,9.82V506.33H828.55V483.39a23.41,23.41,0,0,1-2.55,8.92,26.44,26.44,0,0,1-5.54,7.34,25.62,25.62,0,0,1-7.71,4.9,23.87,23.87,0,0,1-9.18,1.78H763.79a24.37,24.37,0,0,1-9.69-2A25,25,0,0,1,740.78,491a24.51,24.51,0,0,1-2-9.82Z"/><rect class="cls-2" x="890.26" y="318.29" width="24.99" height="188.04"/><path class="cls-2" d="M978.24,506.33H953.12V370.56h25.12Zm-26.4-188h27.67v26.14H951.84Z"/><path class="cls-2" d="M1041.08,481.21h70V395.68h-70Zm-25-85.53a24.75,24.75,0,0,1,2-9.82,25.64,25.64,0,0,1,5.36-8,25.16,25.16,0,0,1,8-5.35,24.21,24.21,0,0,1,9.69-2h70V318.3h25.12v188h-25.12V483.38a23.22,23.22,0,0,1-2.54,8.93,26.44,26.44,0,0,1-5.54,7.33,25.75,25.75,0,0,1-7.72,4.91,23.83,23.83,0,0,1-9.18,1.78h-45a24.37,24.37,0,0,1-9.69-2,25.19,25.19,0,0,1-8-5.36,25.52,25.52,0,0,1-5.36-8,24.64,24.64,0,0,1-2-9.82Z"/><path class="cls-2" d="M1199.17,506.33h-25.11V370.56h25.11Zm-26.39-188h27.67v26.14h-27.67Z"/><path class="cls-2" d="M1229.13,370.56h33.14V328.75h25.12v41.81H1332v25.12h-44.61v85.54H1332v25.11h-44.61a24.3,24.3,0,0,1-9.69-2,26.08,26.08,0,0,1-8-5.36,24.86,24.86,0,0,1-5.42-8,24.59,24.59,0,0,1-2-9.81V395.68h-33.14Z"/><path class="cls-2" d="M1393.58,395.68V506.33h-25V370.56h25v24a25.13,25.13,0,0,1,15.56-22.12,24.75,24.75,0,0,1,9.56-1.85h26.64a24.08,24.08,0,0,1,9.75,2,26.09,26.09,0,0,1,8,5.35,24.78,24.78,0,0,1,7.39,17.79v22.95h-25.11V395.68Z"/><path class="cls-2" d="M1521.45,481.22h67.44V395.68h-67.44Zm92.43,0a24.64,24.64,0,0,1-2,9.81,25,25,0,0,1-5.36,8,25.33,25.33,0,0,1-7.9,5.36,24.2,24.2,0,0,1-9.75,2h-67.44a24.29,24.29,0,0,1-9.68-2A24.9,24.9,0,0,1,1498.44,491a24.47,24.47,0,0,1-2-9.81V395.68a24.55,24.55,0,0,1,2-9.82,24.93,24.93,0,0,1,13.33-13.32,24.12,24.12,0,0,1,9.68-2h67.44a24,24,0,0,1,9.75,2,25.5,25.5,0,0,1,7.9,5.36,25.14,25.14,0,0,1,5.36,8,24.72,24.72,0,0,1,2,9.82Z"/><path class="cls-2" d="M1770.56,506.33h-25.12V395.68h-70V506.33h-25V370.56h25v24A25.1,25.1,0,0,1,1691,372.41a24.79,24.79,0,0,1,9.56-1.85h44.87a24.72,24.72,0,0,1,9.82,2,25.16,25.16,0,0,1,8,5.35,25.56,25.56,0,0,1,5.35,8,24.58,24.58,0,0,1,2,9.82Z"/><path class="cls-2" d="M497.53,317.14a167.75,167.75,0,0,1,23.93,86.5c0,93-75.71,168.74-168.75,168.74S184,496.68,184,403.64s75.7-168.75,168.74-168.75A168.12,168.12,0,0,1,465.79,278.5L473.66,266A183.22,183.22,0,0,0,169.44,403.64c0,101.21,82.05,183.27,183.27,183.27S536,504.85,536,403.64a182.46,182.46,0,0,0-29.83-100.18Z"/><polygon class="cls-2" points="358.85 506.33 346.57 498.59 524.31 216.5 536.61 224.24 358.85 506.33"/><rect class="cls-2" x="302.14" y="352.47" width="14.52" height="162.5" transform="translate(-183.59 231.72) rotate(-32.22)"/><path class="cls-3" d="M228.81,365a37.27,37.27,0,1,1,37.28,37.28A37.28,37.28,0,0,1,228.81,365"/><path class="cls-4" d="M315.44,502.46a37.27,37.27,0,1,1,37.27,37.28,37.27,37.27,0,0,1-37.27-37.28"/><path class="cls-5" d="M493.18,220.37a37.28,37.28,0,1,1,37.28,37.28,37.29,37.29,0,0,1-37.28-37.28"/></svg>