<svg width="459" height="458" viewBox="0 0 459 458" fill="none" xmlns="http://www.w3.org/2000/svg">
<path fill-rule="evenodd" clip-rule="evenodd" d="M229.871 0C356.341 0 458.861 102.52 458.861 228.99C458.861 355.46 356.341 457.98 229.871 457.98C103.401 457.98 0.880859 355.46 0.880859 228.99C0.890859 102.52 103.411 0 229.871 0Z" fill="#F6F9FD"/>
<path fill-rule="evenodd" clip-rule="evenodd" d="M340.439 292.051C340.659 292.091 340.859 292.141 341.089 292.181C340.869 292.141 340.659 292.091 340.439 292.051Z" fill="#36393A"/>
<path fill-rule="evenodd" clip-rule="evenodd" d="M136.029 286.91C136.269 286.83 136.509 286.75 136.739 286.66C136.509 286.74 136.269 286.83 136.029 286.91Z" fill="#36393A"/>
<path fill-rule="evenodd" clip-rule="evenodd" d="M316.47 279.942C307.24 275.682 287.97 269.682 285.96 255.352C284.81 247.182 284.75 239.202 284.73 237.482C284.67 229.682 284.9 221.692 285.61 213.322C275.17 232.782 257.91 245.212 232.84 244.682C215.28 244.312 199.82 229.712 189.77 210.352C191.09 220.552 191.82 230.302 192.09 239.972C192.1 240.412 192 243.532 191.88 246.852C191.39 261.152 175.6 271.432 161.6 276.282C197.5 338.832 277.73 340.192 316.47 279.942Z" fill="url(#paint0_linear_867_15340)"/>
<path fill-rule="evenodd" clip-rule="evenodd" d="M291.89 103.041C291.84 103.101 291.81 103.181 291.74 103.231C291.83 103.191 291.87 103.131 291.89 103.041Z" fill="white"/>
<path fill-rule="evenodd" clip-rule="evenodd" d="M286.73 108.91C286.96 109.02 287.171 109.11 287.401 109.22C287.371 109.13 287.12 109.03 286.73 108.91Z" fill="white"/>
<path fill-rule="evenodd" clip-rule="evenodd" d="M181.24 130.77C181.16 130.78 181.08 130.75 181 130.74C181.08 130.78 181.16 130.8 181.24 130.77Z" fill="white"/>
<path fill-rule="evenodd" clip-rule="evenodd" d="M308.89 142.371C308.52 142.261 308.15 142.171 307.76 142.151C303.85 141.891 300.96 145.971 298.99 152.491C298.97 152.541 298.96 152.591 298.95 152.641C297.47 157.611 296.52 163.981 296.06 170.961C296.52 163.981 297.47 157.611 298.95 152.641C298.95 152.611 298.96 152.571 298.96 152.541C298.77 152.801 298.57 153.061 298.35 153.331C297.26 135.711 291.28 105.031 288.75 97.4913C283.07 92.7913 276.07 83.1514 216.33 84.9314C209.38 82.9314 190.36 97.3713 190.13 97.7413C188.02 101.101 185.13 107.771 183.37 117.671C177.54 150.541 180.48 141.301 178.55 153.351C178.23 153.131 177.44 152.241 176.38 151.091C176.31 150.851 176.24 150.591 176.17 150.361C174.28 144.661 171.58 141.161 167.97 141.361C167.06 141.411 166.22 141.721 165.44 142.231C160.34 145.601 158.39 158.191 162.47 170.081C167.17 183.781 170.03 196.171 176.93 195.791C179.84 195.631 181.37 193.691 181.93 190.411C183.94 197.441 186.63 204.291 189.92 210.631C199.96 230.001 215.42 244.601 232.98 244.961C258.05 245.481 275.3 233.051 285.75 213.601C289.35 206.891 292.14 199.331 294.16 191.181C294.24 194.501 295.24 196.291 298.25 196.491C305.15 196.941 308.14 184.591 312.97 170.931C317.53 158.041 314.99 144.261 308.89 142.371Z" fill="url(#paint1_linear_867_15340)"/>
<path fill-rule="evenodd" clip-rule="evenodd" d="M422.801 352.391C419.421 336.381 413.391 322.841 397.891 312.471C370.701 294.281 317.621 281.021 297.761 269.271C276.371 334.561 186.201 320.671 175.171 268.221C151.791 276.781 89.2808 291.471 65.5408 313.031C59.4008 318.601 53.7809 335.181 52.2609 341.781L48.1309 368.261C89.9909 422.801 155.831 457.981 229.891 457.981C310.901 457.971 382.091 415.891 422.801 352.391Z" fill="#00818E"/>
<path fill-rule="evenodd" clip-rule="evenodd" d="M178.54 153.341C180.47 141.291 177.53 150.531 183.36 117.661C185.12 107.761 189.5 101.891 191.62 98.5315C195.6 92.2415 287.11 108.971 287.4 109.211C289.93 116.751 294.89 138.262 298.35 153.312C298.57 153.042 298.77 152.781 298.96 152.521C298.97 152.511 298.98 152.491 299 152.481C300.97 145.951 303.86 141.881 307.77 142.141C308.16 142.171 308.53 142.251 308.9 142.361C314.13 86.6614 284.96 51.1115 229.1 38.7715C233.25 43.8015 233.16 46.1014 232.67 52.8414C215.54 42.3314 207.98 40.9914 198.23 41.6014C208.46 53.7314 210.12 58.7015 207.37 60.5215C199.53 56.4815 198.14 53.1215 191.45 44.6515C201.51 59.6015 164.96 105.041 167.95 141.351C175.56 141.351 173.41 149.871 178.54 153.341Z" fill="url(#paint2_linear_867_15340)"/>
<path d="M148.623 373.504C145.901 373.643 143.582 371.549 143.444 368.826C139.112 283.662 179.936 261.512 181.602 260.473C183.918 259.024 184.038 258.916 186.641 258.808C188.095 260.203 188.116 260.702 185.701 262.803C185.232 263.107 149.298 289.615 153.301 368.325C153.439 371.047 151.346 373.366 148.623 373.504Z" fill="#D0D7DC"/>
<path d="M150.044 401.433C160.933 400.879 169.311 391.603 168.757 380.715C168.203 369.826 158.927 361.448 148.039 362.002C137.15 362.556 128.772 371.832 129.326 382.72C129.88 393.609 139.156 401.987 150.044 401.433Z" fill="#D0D7DC"/>
<path d="M149.572 392.124C155.319 391.831 159.74 386.936 159.448 381.189C159.156 375.442 154.26 371.02 148.513 371.313C142.767 371.605 138.345 376.501 138.637 382.247C138.929 387.994 143.825 392.416 149.572 392.124Z" fill="#B2B9BF"/>
<path d="M333.562 390.329L325.427 384.738C332.656 374.22 336.803 358.45 336.803 341.471C336.803 312.044 323.996 287.182 308.837 287.182C293.678 287.182 280.871 312.044 280.871 341.471C280.871 358.45 285.017 374.22 292.247 384.738L284.112 390.329C275.781 378.206 271.001 360.398 271.001 341.471C271.001 305.494 287.62 277.312 308.838 277.312C330.055 277.312 346.675 305.495 346.675 341.471C346.672 360.398 341.893 378.206 333.562 390.329Z" fill="#D0D7DC"/>
<path d="M288.581 393.638C292.215 393.638 295.161 390.693 295.161 387.059C295.161 383.424 292.215 380.479 288.581 380.479C284.947 380.479 282.001 383.424 282.001 387.059C282.001 390.693 284.947 393.638 288.581 393.638Z" fill="#545465"/>
<path d="M328.577 394.113C332.211 394.113 335.157 391.167 335.157 387.533C335.157 383.899 332.211 380.953 328.577 380.953C324.943 380.953 321.997 383.899 321.997 387.533C321.997 391.167 324.943 394.113 328.577 394.113Z" fill="#545465"/>
<path d="M310.001 286.979C307.967 286.979 306.717 286.506 306.001 284.479C301.713 272.329 291.745 266.65 291.501 266.479C289.268 264.916 289.501 263.479 289.501 263.479C289.501 263.479 292.001 260.978 295.501 262.478C295.89 262.751 308.093 266.211 313.492 281.512C314.4 284.081 314.071 286.071 311.501 286.979C310.957 287.169 310.545 286.979 310.001 286.979Z" fill="#D0D7DC"/>
<defs>
<linearGradient id="paint0_linear_867_15340" x1="235.037" y1="353.992" x2="247.549" y2="116.619" gradientUnits="userSpaceOnUse">
<stop stop-color="#FDC38B"/>
<stop offset="0.4755" stop-color="#FD955D"/>
</linearGradient>
<linearGradient id="paint1_linear_867_15340" x1="160.252" y1="164.838" x2="463.177" y2="164.838" gradientUnits="userSpaceOnUse">
<stop stop-color="#FDC38B"/>
<stop offset="0.4761" stop-color="#FD955D"/>
</linearGradient>
<linearGradient id="paint2_linear_867_15340" x1="167.778" y1="96.0642" x2="309.502" y2="96.0642" gradientUnits="userSpaceOnUse">
<stop stop-color="#7D4218"/>
<stop offset="1" stop-color="#7D4218"/>
</linearGradient>
</defs>
</svg>
