<svg width="200" height="200" viewBox="0 0 200 200" fill="none" xmlns="http://www.w3.org/2000/svg">
<path d="M100 2.5C153.849 2.5 197.5 46.1512 197.5 100C197.5 153.849 153.849 197.5 100 197.5C46.1512 197.5 2.5 153.849 2.5 100C2.5 46.1512 46.1512 2.5 100 2.5Z" fill="#F6F9FD" stroke="#CFD4D9" stroke-width="5"/>
<path fill-rule="evenodd" clip-rule="evenodd" d="M88.6227 103.511C67.6218 85.1432 50.4245 24.4244 98.3917 24.7257C137.206 20.2102 151.512 44.565 120.275 98.3054C109.506 116.826 88.6227 103.511 88.6227 103.511Z" fill="url(#paint0_linear_690_7150)"/>
<path fill-rule="evenodd" clip-rule="evenodd" d="M85.4486 83.6152C85.4486 83.6152 88.7937 106.926 84.8983 113.472C78.4745 121.639 67.7971 123.979 52.5781 131.39C85.4442 208.009 128.66 190.685 152.019 132.347C128.433 118.966 127.228 119.839 121.332 113.538C118.092 110.07 116.887 101.232 116.398 82.292L85.4486 83.6152Z" fill="url(#paint1_linear_690_7150)"/>
<path fill-rule="evenodd" clip-rule="evenodd" d="M128.784 61.0582C127.836 61.0539 127.116 61.8573 126.587 63.1936C126.793 43.9395 126.981 30.3276 102.303 30.3232C96.0359 30.3232 94.8787 30.201 91.3371 31.891C81.0964 36.7733 78.6902 48.8481 78.2535 63.1238C77.7338 61.7919 77.0176 60.9927 76.0744 60.9927C73.7424 60.9883 72.3493 66.2418 73.6638 71.3163C74.9782 76.3951 75.6988 80.9543 78.0308 80.963C78.9697 80.9674 79.3627 80.4259 79.4981 79.3996C83.3279 94.3086 94.5774 102.763 101.848 103.016C109.94 103.733 121.351 94.1339 125.212 78.6922C125.247 80.2119 125.574 81.0154 126.723 81.0198C129.055 81.0285 129.802 76.4693 131.142 71.3993C132.483 66.3292 131.116 61.067 128.784 61.0582Z" fill="url(#paint2_linear_690_7150)"/>
<path fill-rule="evenodd" clip-rule="evenodd" d="M76.2807 65.7973C76.3811 65.9065 76.4729 66.0069 76.5646 66.103C77.0318 66.6139 77.3812 67.0069 77.5209 67.103C78.3638 61.8408 77.0799 65.8759 79.6258 51.5215C80.3944 47.1982 81.6521 44.281 82.5779 42.8137C84.316 40.0669 124.933 47.7266 125.06 47.8314C126.165 51.1242 128.331 60.5176 129.842 67.0899C129.938 66.972 130.025 66.8585 130.108 66.7449C130.113 66.7406 130.117 66.7318 130.126 66.7274C130.986 63.8758 132.248 62.0984 133.956 62.212C134.126 62.2207 134.288 62.26 134.449 62.308C134.995 56.4912 134.803 50.2114 134.523 43.8051C134.694 25.3108 114.029 18.0528 99.1944 18.983C73.1365 20.6119 68.2935 38.4293 72.2805 62.2426C74.6518 62.2426 75.6737 63.9588 76.2807 65.7973Z" fill="url(#paint3_linear_690_7150)"/>
<path fill-rule="evenodd" clip-rule="evenodd" d="M172.09 169.301L167.709 145.915C166.53 139.701 159.565 133.076 153.054 130.474C144.411 126.281 138.189 124.831 130.271 120.237C120.69 159.794 77.6138 148.134 75.9063 120.429C64.539 124.591 62.8621 125.853 51.1149 130.408C51.1192 130.421 38.5029 134.509 35.315 147.086L29.5156 170.916C47.595 188.887 72.5001 199.988 100.003 199.988C128.323 199.996 153.892 188.218 172.09 169.301Z" fill="#00818E"/>
<path d="M65.3459 165.729C64.157 165.789 63.1446 164.875 63.0841 163.686C61.1925 126.495 79.0204 116.822 79.7476 116.368C80.7592 115.735 80.8117 115.688 81.9483 115.641C82.5834 116.25 82.5925 116.468 81.5381 117.385C81.3332 117.518 65.6405 129.094 67.3888 163.467C67.4492 164.656 66.5348 165.668 65.3459 165.729Z" fill="#D0D7DC"/>
<path d="M65.9778 177.925C70.7328 177.683 74.3915 173.633 74.1496 168.877C73.9078 164.122 69.857 160.464 65.102 160.706C60.3469 160.947 56.6882 164.998 56.9301 169.753C57.172 174.508 61.2227 178.167 65.9778 177.925Z" fill="#D0D7DC"/>
<path d="M65.7642 173.86C68.2738 173.732 70.2048 171.594 70.0772 169.085C69.9495 166.575 67.8116 164.644 65.3019 164.772C62.7923 164.899 60.8613 167.037 60.9889 169.547C61.1166 172.057 63.2545 173.988 65.7642 173.86Z" fill="#B2B9BF"/>
<path d="M143.055 170.894L139.502 168.453C142.659 163.859 144.47 156.973 144.47 149.558C144.47 136.707 138.877 125.85 132.257 125.85C125.637 125.85 120.045 136.707 120.045 149.558C120.045 156.973 121.855 163.859 125.013 168.453L121.46 170.894C117.822 165.6 115.734 157.823 115.734 149.558C115.734 133.847 122.992 121.54 132.258 121.54C141.523 121.54 148.781 133.847 148.781 149.558C148.78 157.823 146.693 165.6 143.055 170.894Z" fill="#D0D7DC"/>
<path d="M123.413 172.34C125 172.34 126.286 171.053 126.286 169.466C126.286 167.879 125 166.593 123.413 166.593C121.826 166.593 120.539 167.879 120.539 169.466C120.539 171.053 121.826 172.34 123.413 172.34Z" fill="#545465"/>
<path d="M140.873 172.547C142.46 172.547 143.747 171.26 143.747 169.673C143.747 168.086 142.46 166.8 140.873 166.8C139.287 166.8 138 168.086 138 169.673C138 171.26 139.287 172.547 140.873 172.547Z" fill="#545465"/>
<path d="M132.768 125.761C131.879 125.761 131.333 125.555 131.021 124.67C129.148 119.364 124.795 116.883 124.689 116.809C123.714 116.126 123.816 115.499 123.816 115.499C123.816 115.499 124.907 114.407 126.435 115.062C126.605 115.181 131.934 116.692 134.292 123.374C134.689 124.496 134.545 125.365 133.423 125.761C133.185 125.844 133.005 125.761 132.768 125.761Z" fill="#D0D7DC"/>
<defs>
<linearGradient id="paint0_linear_690_7150" x1="67.5723" y1="66.1739" x2="137.313" y2="66.1739" gradientUnits="userSpaceOnUse">
<stop stop-color="#34312D"/>
<stop offset="1"/>
</linearGradient>
<linearGradient id="paint1_linear_690_7150" x1="101.658" y1="180.583" x2="102.965" y2="81.1527" gradientUnits="userSpaceOnUse">
<stop stop-color="#A35B36"/>
<stop offset="1" stop-color="#703814"/>
</linearGradient>
<linearGradient id="paint2_linear_690_7150" x1="82.0488" y1="67.3932" x2="190.45" y2="63.2801" gradientUnits="userSpaceOnUse">
<stop stop-color="#9B5E3B"/>
<stop offset="0.698" stop-color="#5A290D"/>
</linearGradient>
<linearGradient id="paint3_linear_690_7150" x1="71.0487" y1="43.0062" x2="134.798" y2="43.0062" gradientUnits="userSpaceOnUse">
<stop stop-color="#34312D"/>
<stop offset="1"/>
</linearGradient>
</defs>
</svg>
