<svg width="200" height="200" viewBox="0 0 200 200" fill="none" xmlns="http://www.w3.org/2000/svg">
<path d="M100 2.5C153.849 2.5 197.5 46.1512 197.5 100C197.5 153.849 153.849 197.5 100 197.5C46.1513 197.5 2.5 153.844 2.5 100C2.5 46.1512 46.1512 2.5 100 2.5Z" fill="#F6F9FD" stroke="#CFD4D9" stroke-width="5"/>
<path fill-rule="evenodd" clip-rule="evenodd" d="M96.2616 181.93C59.6923 178.943 61.0242 108.075 63.4348 77.004C65.7188 47.5267 78.4136 19.0145 96.5542 21.888C123.485 13.5907 138.652 44.0767 140.657 75.8816C142.635 107.355 152.011 185.148 96.2616 181.93Z" fill="url(#paint0_linear_690_7259)"/>
<path fill-rule="evenodd" clip-rule="evenodd" d="M85.4486 83.6196C85.4486 83.6196 88.7937 106.931 84.8983 113.477C78.4745 121.643 67.7971 123.984 52.5781 131.395C85.4442 208.014 128.66 190.69 152.019 132.351C128.433 118.97 127.228 119.844 121.337 113.542C118.096 110.075 116.891 101.236 116.402 82.292L85.4486 83.6196Z" fill="url(#paint1_linear_690_7259)"/>
<path fill-rule="evenodd" clip-rule="evenodd" d="M128.796 61.0641C127.849 61.0597 127.128 61.8632 126.6 63.2039C126.805 43.9498 126.997 30.3335 102.315 30.3291C96.0481 30.3291 91.3317 31.2462 87.7901 32.9406C77.6324 37.7836 77.9512 48.8801 78.1346 62.8152C77.6281 61.6754 76.9512 61.0073 76.0822 61.0029C73.7502 60.9986 72.3571 66.2477 73.6716 71.3265C74.986 76.401 75.7066 80.9645 78.0429 80.9732C78.9819 80.9776 79.3749 80.4317 79.5103 79.4055C83.3401 94.3144 94.5895 102.769 101.861 103.022C109.953 103.738 121.364 94.1397 125.22 78.6937C125.255 80.2134 125.582 81.0213 126.735 81.0213C129.067 81.03 129.814 76.4709 131.154 71.4008C132.495 66.3307 131.128 61.0728 128.796 61.0641Z" fill="url(#paint2_linear_690_7259)"/>
<path fill-rule="evenodd" clip-rule="evenodd" d="M78.0126 63.7277C81.2878 50.7359 81.1306 46.6309 93.1399 36.9842C107.403 52.3997 123.923 47.1462 126.801 66.0116C130.316 63.4176 129.198 56.9457 129.024 53.9762C128.574 39.6699 115.372 24.1452 102.127 25.7959C83.2355 29.5472 79.8598 35.1719 73.9688 57.9327L78.0126 63.7277Z" fill="url(#paint3_linear_690_7259)"/>
<path fill-rule="evenodd" clip-rule="evenodd" d="M172.085 169.301L167.705 145.915C166.526 139.701 159.565 133.076 153.049 130.474C144.407 126.277 138.184 124.831 130.267 120.237C120.686 159.794 77.6094 148.134 75.9019 120.429C64.5346 124.591 62.8577 125.853 51.1105 130.408C51.1105 130.421 38.4985 134.509 35.3106 147.09L29.5156 170.925C47.595 188.895 72.5 199.996 100.003 199.996C128.323 199.996 153.892 188.223 172.085 169.301Z" fill="#00818E"/>
<path d="M63.2626 164.881C62.0722 164.892 61.0987 163.936 61.0878 162.746C60.7461 125.508 78.9612 116.586 79.7067 116.162C80.7438 115.573 80.7982 115.527 81.9358 115.528C82.545 116.163 82.545 116.381 81.4532 117.254C81.243 117.378 65.082 128.29 65.3979 162.706C65.4088 163.897 64.453 164.87 63.2626 164.881Z" fill="#D0D7DC"/>
<path d="M63.3725 177.093C68.1335 177.049 71.9576 173.154 71.9139 168.393C71.8702 163.632 67.9753 159.808 63.2143 159.852C58.4533 159.895 54.6292 163.79 54.6729 168.551C54.7166 173.312 58.6115 177.136 63.3725 177.093Z" fill="#D0D7DC"/>
<path d="M63.3286 173.022C65.8414 172.999 67.8597 170.943 67.8366 168.43C67.8136 165.917 65.7579 163.899 63.2451 163.922C60.7323 163.945 58.714 166.001 58.7371 168.514C58.7601 171.026 60.8158 173.045 63.3286 173.022Z" fill="#B2B9BF"/>
<path d="M140.438 168.937L136.885 166.496C140.042 161.902 141.853 155.016 141.853 147.601C141.853 134.75 136.26 123.893 129.64 123.893C123.02 123.893 117.427 134.75 117.427 147.601C117.427 155.016 119.238 161.902 122.395 166.496L118.843 168.937C115.205 163.643 113.117 155.866 113.117 147.601C113.117 131.89 120.375 119.583 129.641 119.583C138.906 119.583 146.164 131.89 146.164 147.601C146.163 155.866 144.076 163.643 140.438 168.937Z" fill="#D0D7DC"/>
<path d="M120.795 170.383C122.382 170.383 123.669 169.096 123.669 167.509C123.669 165.922 122.382 164.636 120.795 164.636C119.208 164.636 117.922 165.922 117.922 167.509C117.922 169.096 119.208 170.383 120.795 170.383Z" fill="#545465"/>
<path d="M138.256 170.59C139.843 170.59 141.13 169.303 141.13 167.716C141.13 166.129 139.843 164.843 138.256 164.843C136.669 164.843 135.383 166.129 135.383 167.716C135.383 169.303 136.669 170.59 138.256 170.59Z" fill="#545465"/>
<path d="M130.15 123.804C129.262 123.804 128.716 123.598 128.404 122.713C126.531 117.407 122.178 114.926 122.072 114.852C121.097 114.169 121.198 113.542 121.198 113.542C121.198 113.542 122.29 112.45 123.818 113.105C123.988 113.224 129.317 114.735 131.675 121.417C132.071 122.539 131.928 123.408 130.805 123.804C130.568 123.887 130.388 123.804 130.15 123.804Z" fill="#D0D7DC"/>
<defs>
<linearGradient id="paint0_linear_690_7259" x1="62.3904" y1="101.268" x2="142.476" y2="101.268" gradientUnits="userSpaceOnUse">
<stop stop-color="#7D4218"/>
<stop offset="1" stop-color="#7D4218"/>
</linearGradient>
<linearGradient id="paint1_linear_690_7259" x1="98.2311" y1="174.926" x2="107.594" y2="75.926" gradientUnits="userSpaceOnUse">
<stop stop-color="#FDC38B"/>
<stop offset="1" stop-color="#FD955D"/>
</linearGradient>
<linearGradient id="paint2_linear_690_7259" x1="89.0404" y1="69.1293" x2="214.591" y2="42.4685" gradientUnits="userSpaceOnUse">
<stop stop-color="#FDC38B"/>
<stop offset="0.5188" stop-color="#FD955D"/>
</linearGradient>
<linearGradient id="paint3_linear_690_7259" x1="73.9698" y1="45.846" x2="129.331" y2="45.846" gradientUnits="userSpaceOnUse">
<stop stop-color="#7D4218"/>
<stop offset="1" stop-color="#7D4218"/>
</linearGradient>
</defs>
</svg>
