<svg width="200" height="200" viewBox="0 0 200 200" fill="none" xmlns="http://www.w3.org/2000/svg">
<path d="M100 2.5C153.849 2.5 197.5 46.1512 197.5 100C197.5 153.849 153.849 197.5 100 197.5C46.1512 197.5 2.5 153.849 2.5 100C2.5 46.1512 46.1512 2.5 100 2.5Z" fill="#F6F9FD" stroke="#CFD4D9" stroke-width="5"/>
<path fill-rule="evenodd" clip-rule="evenodd" d="M88.6227 103.512C67.6218 85.1442 50.4245 24.4254 98.3917 24.7267C137.206 20.2112 151.512 44.566 120.275 98.3063C109.506 116.827 88.6227 103.512 88.6227 103.512Z" fill="url(#paint0_linear_690_7171)"/>
<path fill-rule="evenodd" clip-rule="evenodd" d="M85.4486 83.6142C85.4486 83.6142 88.7937 106.925 84.8983 113.471C78.4745 121.638 67.7971 123.978 52.5781 131.389C85.4442 208.008 128.66 190.684 152.019 132.346C128.433 118.965 127.228 119.838 121.332 113.537C118.092 110.069 116.887 101.231 116.398 82.291L85.4486 83.6142Z" fill="url(#paint1_linear_690_7171)"/>
<path fill-rule="evenodd" clip-rule="evenodd" d="M128.784 61.0592C127.836 61.0548 127.116 61.8583 126.587 63.1946C126.793 43.9405 126.981 30.3286 102.303 30.3242C96.0359 30.3242 94.8787 30.2019 91.3371 31.892C81.0964 36.7743 78.6902 48.849 78.2535 63.1248C77.7338 61.7928 77.0176 60.9937 76.0744 60.9937C73.7424 60.9893 72.3493 66.2428 73.6638 71.3173C74.9782 76.3961 75.6988 80.9552 78.0308 80.964C78.9697 80.9683 79.3627 80.4269 79.4981 79.4006C83.3279 94.3096 94.5774 102.764 101.848 103.017C109.94 103.734 121.351 94.1349 125.212 78.6932C125.247 80.2129 125.574 81.0164 126.723 81.0208C129.055 81.0295 129.802 76.4703 131.142 71.4002C132.483 66.3301 131.116 61.0679 128.784 61.0592Z" fill="url(#paint2_linear_690_7171)"/>
<path fill-rule="evenodd" clip-rule="evenodd" d="M76.2807 65.7983C76.3811 65.9074 76.4729 66.0079 76.5646 66.1039C77.0318 66.6149 77.3812 67.0079 77.5209 67.104C78.3638 61.8417 77.0799 65.8769 79.6258 51.5225C80.3944 47.1992 81.6521 44.282 82.5779 42.8147C84.316 40.0679 124.933 47.7276 125.06 47.8324C126.165 51.1251 128.331 60.5186 129.842 67.0909C129.938 66.973 130.025 66.8595 130.108 66.7459C130.113 66.7415 130.117 66.7328 130.126 66.7284C130.986 63.8768 132.248 62.0994 133.956 62.213C134.126 62.2217 134.288 62.261 134.449 62.309C134.995 56.4922 134.803 50.2124 134.523 43.806C134.694 25.3118 114.029 18.0538 99.1944 18.984C73.1365 20.6129 68.2935 38.4303 72.2805 62.2435C74.6518 62.2435 75.6737 63.9597 76.2807 65.7983Z" fill="url(#paint3_linear_690_7171)"/>
<path fill-rule="evenodd" clip-rule="evenodd" d="M172.09 169.301L167.709 145.915C166.53 139.701 159.565 133.076 153.054 130.474C144.411 126.281 138.189 124.831 130.271 120.237C120.69 159.794 77.6138 148.134 75.9063 120.429C64.539 124.591 62.8621 125.853 51.1149 130.408C51.1192 130.421 38.5029 134.509 35.315 147.086L29.5156 170.916C47.595 188.887 72.5001 199.988 100.003 199.988C128.323 199.996 153.892 188.218 172.09 169.301Z" fill="#00818E"/>
<path d="M64.0334 167.038C62.8445 167.099 61.8321 166.185 61.7716 164.996C59.88 127.805 77.7079 118.131 78.4351 117.678C79.4467 117.045 79.4992 116.998 80.6358 116.951C81.2709 117.56 81.28 117.778 80.2256 118.695C80.0207 118.828 64.328 130.404 66.0763 164.777C66.1367 165.966 65.2223 166.978 64.0334 167.038Z" fill="#D0D7DC"/>
<path d="M64.6653 179.235C69.4203 178.993 73.079 174.942 72.8371 170.187C72.5953 165.432 68.5445 161.773 63.7895 162.015C59.0344 162.257 55.3757 166.308 55.6176 171.063C55.8595 175.818 59.9102 179.477 64.6653 179.235Z" fill="#D0D7DC"/>
<path d="M64.4517 175.17C66.9613 175.042 68.8923 172.904 68.7647 170.394C68.637 167.885 66.4991 165.954 63.9894 166.081C61.4798 166.209 59.5488 168.347 59.6764 170.857C59.8041 173.366 61.942 175.297 64.4517 175.17Z" fill="#B2B9BF"/>
<path d="M143.93 172.204L140.377 169.762C143.534 165.169 145.345 158.282 145.345 150.867C145.345 138.017 139.752 127.16 133.132 127.16C126.512 127.16 120.92 138.017 120.92 150.867C120.92 158.282 122.73 165.169 125.888 169.762L122.335 172.204C118.697 166.91 116.609 159.133 116.609 150.867C116.609 135.156 123.867 122.85 133.133 122.85C142.398 122.85 149.656 135.157 149.656 150.867C149.655 159.133 147.568 166.91 143.93 172.204Z" fill="#D0D7DC"/>
<path d="M124.288 173.649C125.875 173.649 127.161 172.363 127.161 170.776C127.161 169.189 125.875 167.902 124.288 167.902C122.701 167.902 121.414 169.189 121.414 170.776C121.414 172.363 122.701 173.649 124.288 173.649Z" fill="#545465"/>
<path d="M141.748 173.856C143.335 173.856 144.622 172.57 144.622 170.983C144.622 169.396 143.335 168.109 141.748 168.109C140.162 168.109 138.875 169.396 138.875 170.983C138.875 172.57 140.162 173.856 141.748 173.856Z" fill="#545465"/>
<path d="M133.643 127.071C132.754 127.071 132.208 126.864 131.896 125.979C130.023 120.673 125.67 118.193 125.564 118.119C124.589 117.436 124.691 116.809 124.691 116.809C124.691 116.809 125.782 115.716 127.31 116.371C127.48 116.491 132.809 118.001 135.167 124.683C135.564 125.805 135.42 126.674 134.298 127.071C134.06 127.154 133.88 127.071 133.643 127.071Z" fill="#D0D7DC"/>
<defs>
<linearGradient id="paint0_linear_690_7171" x1="67.5723" y1="66.1749" x2="137.313" y2="66.1749" gradientUnits="userSpaceOnUse">
<stop stop-color="#34312D"/>
<stop offset="1"/>
</linearGradient>
<linearGradient id="paint1_linear_690_7171" x1="103.635" y1="162.499" x2="99.3184" y2="63.1505" gradientUnits="userSpaceOnUse">
<stop stop-color="#FDC38B"/>
<stop offset="0.6335" stop-color="#FD955D"/>
</linearGradient>
<linearGradient id="paint2_linear_690_7171" x1="81.9289" y1="66.6911" x2="197.509" y2="66.6911" gradientUnits="userSpaceOnUse">
<stop stop-color="#FDC38B"/>
<stop offset="0.4761" stop-color="#FD955D"/>
</linearGradient>
<linearGradient id="paint3_linear_690_7171" x1="71.0487" y1="43.0071" x2="134.798" y2="43.0071" gradientUnits="userSpaceOnUse">
<stop stop-color="#34312D"/>
<stop offset="1"/>
</linearGradient>
</defs>
</svg>
