<svg width="200" height="200" viewBox="0 0 200 200" fill="none" xmlns="http://www.w3.org/2000/svg">
<path d="M197.5 99.9998C197.5 46.1511 153.849 2.5 99.9998 2.5C46.1557 2.5 2.50437 46.151 2.5 99.9998H197.5ZM197.5 99.9998C197.5 153.849 153.849 197.5 99.9998 197.5M197.5 99.9998L99.9998 197.5M99.9998 197.5C46.1512 197.5 2.50011 153.849 2.5 100L99.9998 197.5Z" fill="#F6F9FD" stroke="#CFD4D9" stroke-width="5"/>
<path fill-rule="evenodd" clip-rule="evenodd" d="M148.281 127.538C148.377 127.556 148.465 127.577 148.565 127.595C148.469 127.577 148.377 127.556 148.281 127.538Z" fill="#36393A"/>
<path fill-rule="evenodd" clip-rule="evenodd" d="M59.0234 125.294C59.1282 125.259 59.233 125.224 59.3335 125.185C59.233 125.22 59.1282 125.259 59.0234 125.294Z" fill="#36393A"/>
<path fill-rule="evenodd" clip-rule="evenodd" d="M137.819 122.25C133.788 120.39 125.373 117.77 124.495 111.512C123.993 107.944 123.967 104.459 123.958 103.708C123.932 100.302 124.033 96.8126 124.343 93.1574C119.783 101.656 112.246 107.084 101.298 106.852C93.6296 106.691 86.8782 100.315 82.4893 91.8604C83.0658 96.3147 83.3846 100.573 83.5025 104.795C83.5069 104.988 83.4632 106.35 83.4108 107.8C83.1968 114.045 76.3013 118.534 70.1875 120.652C85.865 147.968 120.901 148.561 137.819 122.25Z" fill="url(#paint0_linear_690_7238)"/>
<path fill-rule="evenodd" clip-rule="evenodd" d="M127.081 44.998C127.059 45.0242 127.046 45.0592 127.016 45.081C127.055 45.0635 127.072 45.0373 127.081 44.998Z" fill="white"/>
<path fill-rule="evenodd" clip-rule="evenodd" d="M124.828 47.5605C124.929 47.6086 125.02 47.6479 125.121 47.6959C125.108 47.6566 124.998 47.613 124.828 47.5605Z" fill="white"/>
<path fill-rule="evenodd" clip-rule="evenodd" d="M78.7617 57.1069C78.7265 57.1113 78.6914 57.0981 78.6562 57.0938C78.6914 57.1113 78.7265 57.1201 78.7617 57.1069Z" fill="white"/>
<path fill-rule="evenodd" clip-rule="evenodd" d="M134.503 62.1737C134.341 62.1257 134.18 62.0864 134.01 62.0776C132.302 61.9641 131.04 63.7458 130.18 66.5931C130.171 66.6149 130.167 66.6368 130.162 66.6586C129.516 68.829 129.101 71.6108 128.9 74.6589C129.101 71.6108 129.516 68.829 130.162 66.6586C130.162 66.6455 130.167 66.628 130.167 66.6149C130.084 66.7285 129.996 66.842 129.9 66.9599C129.424 59.2653 126.813 45.8673 125.708 42.5746C123.227 40.5221 120.171 36.3124 94.0822 37.0897C91.0471 36.2163 82.7411 42.5222 82.6406 42.6838C81.7192 44.1511 80.4571 47.0639 79.6885 51.3872C77.1426 65.7415 78.4265 61.7064 77.5836 66.9686C77.4439 66.8726 77.0989 66.4839 76.636 65.9817C76.6054 65.8769 76.5749 65.7634 76.5443 65.6629C75.7189 63.1737 74.5398 61.6453 72.9634 61.7326C72.566 61.7545 72.1991 61.8898 71.8585 62.1125C69.6313 63.5842 68.7798 69.0823 70.5615 74.2746C72.614 80.2574 73.863 85.6681 76.8762 85.5022C78.147 85.4323 78.8151 84.5851 79.0597 83.1528C79.9375 86.2228 81.1122 89.2141 82.5489 91.9828C86.9334 100.442 93.6848 106.817 101.353 106.975C112.301 107.202 119.834 101.774 124.398 93.2798C125.97 90.3495 127.188 87.0481 128.07 83.489C128.105 84.9389 128.542 85.7205 129.857 85.8079C132.87 86.0044 134.176 80.6112 136.285 74.6459C138.276 69.0168 137.167 62.9991 134.503 62.1737Z" fill="url(#paint1_linear_690_7238)"/>
<path fill-rule="evenodd" clip-rule="evenodd" d="M184.251 153.889C182.775 146.897 180.142 140.984 173.373 136.456C161.499 128.512 138.319 122.722 129.646 117.59C120.305 146.103 80.9279 140.037 76.1111 117.132C65.9011 120.87 38.603 127.285 28.2357 136.7C25.5544 139.133 23.1002 146.373 22.4364 149.255L20.6328 160.819C38.9131 184.637 67.6654 200 100.007 200C135.384 199.996 166.473 181.619 184.251 153.889Z" fill="#00818E"/>
<path fill-rule="evenodd" clip-rule="evenodd" d="M77.5915 66.9643C78.4343 61.7021 77.1504 65.7372 79.6964 51.3829C80.465 47.0596 82.3777 44.4961 83.3035 43.0288C85.0416 40.282 125.004 47.5879 125.131 47.6927C126.235 50.9855 128.401 60.3789 129.912 66.9512C130.009 66.8333 130.096 66.7198 130.179 66.6062C130.183 66.6019 130.188 66.5931 130.196 66.5887C131.057 63.7371 132.319 61.9597 134.026 62.0733C134.197 62.0864 134.358 62.1213 134.52 62.1693C136.804 37.8452 124.065 22.3205 99.671 16.9316C101.483 19.1282 101.444 20.1326 101.23 23.076C93.7494 18.4863 90.4479 17.9011 86.1901 18.1675C90.6575 23.4646 91.3825 25.6351 90.1815 26.4299C86.7578 24.6656 86.1508 23.1983 83.2293 19.4994C87.6225 26.0281 71.6611 45.8717 72.9668 61.7283C76.2901 61.7283 75.3512 65.4489 77.5915 66.9643Z" fill="url(#paint2_linear_690_7238)"/>
<path d="M64.5256 163.109C63.3367 163.169 62.3243 162.255 62.2638 161.066C60.3721 123.875 78.2 114.202 78.9273 113.748C79.9389 113.115 79.9914 113.068 81.128 113.021C81.7631 113.63 81.7722 113.848 80.7177 114.765C80.5128 114.898 64.8202 126.474 66.5684 160.847C66.6289 162.036 65.7145 163.048 64.5256 163.109Z" fill="#D0D7DC"/>
<path d="M65.1575 175.305C69.9125 175.063 73.5712 171.012 73.3293 166.257C73.0875 161.502 69.0367 157.844 64.2816 158.086C59.5266 158.327 55.8679 162.378 56.1098 167.133C56.3516 171.888 60.4024 175.547 65.1575 175.305Z" fill="#D0D7DC"/>
<path d="M64.9439 171.24C67.4535 171.112 69.3845 168.974 69.2568 166.465C69.1292 163.955 66.9912 162.024 64.4816 162.152C61.972 162.279 60.041 164.417 60.1686 166.927C60.2963 169.437 62.4342 171.368 64.9439 171.24Z" fill="#B2B9BF"/>
<path d="M145.289 170.457L141.737 168.015C144.893 163.422 146.704 156.535 146.704 149.12C146.704 136.27 141.112 125.413 134.492 125.413C127.872 125.413 122.279 136.27 122.279 149.12C122.279 156.535 124.09 163.422 127.247 168.015L123.694 170.457C120.056 165.162 117.969 157.386 117.969 149.12C117.969 133.409 125.226 121.103 134.492 121.103C143.758 121.103 151.016 133.41 151.016 149.12C151.014 157.386 148.927 165.162 145.289 170.457Z" fill="#D0D7DC"/>
<path d="M125.647 171.902C127.234 171.902 128.52 170.616 128.52 169.029C128.52 167.442 127.234 166.155 125.647 166.155C124.06 166.155 122.773 167.442 122.773 169.029C122.773 170.616 124.06 171.902 125.647 171.902Z" fill="#545465"/>
<path d="M143.108 172.109C144.695 172.109 145.981 170.823 145.981 169.236C145.981 167.649 144.695 166.362 143.108 166.362C141.521 166.362 140.234 167.649 140.234 169.236C140.234 170.823 141.521 172.109 143.108 172.109Z" fill="#545465"/>
<path d="M135.002 125.324C134.114 125.324 133.568 125.117 133.255 124.232C131.383 118.926 127.03 116.446 126.923 116.371C125.948 115.689 126.05 115.062 126.05 115.062C126.05 115.062 127.141 113.969 128.67 114.624C128.84 114.744 134.169 116.254 136.526 122.936C136.923 124.058 136.779 124.927 135.657 125.324C135.419 125.407 135.239 125.324 135.002 125.324Z" fill="#D0D7DC"/>
<defs>
<linearGradient id="paint0_linear_690_7238" x1="102.258" y1="154.588" x2="107.721" y2="50.9275" gradientUnits="userSpaceOnUse">
<stop stop-color="#FDC38B"/>
<stop offset="0.4755" stop-color="#FD955D"/>
</linearGradient>
<linearGradient id="paint1_linear_690_7238" x1="69.593" y1="71.9849" x2="201.88" y2="71.9849" gradientUnits="userSpaceOnUse">
<stop stop-color="#FDC38B"/>
<stop offset="0.4761" stop-color="#FD955D"/>
</linearGradient>
<linearGradient id="paint2_linear_690_7238" x1="72.8917" y1="41.9514" x2="134.783" y2="41.9514" gradientUnits="userSpaceOnUse">
<stop stop-color="#7D4218"/>
<stop offset="1" stop-color="#7D4218"/>
</linearGradient>
</defs>
</svg>
