<svg width="24" height="24" viewBox="0 0 24 24" fill="none" xmlns="http://www.w3.org/2000/svg">
<path d="M12.0009 18C11.2449 18 10.5219 17.678 10.0159 17.114L3.58494 10.587C2.98294 9.929 2.83894 9.051 3.18394 8.269C3.52894 7.487 4.27394 7 5.12794 7H18.8739C19.7279 7 20.4739 7.486 20.8179 8.269C21.1619 9.052 21.0179 9.929 20.4419 10.56L13.9549 17.149C13.4799 17.678 12.7569 18.001 12.0009 18.001V18ZM5.12794 9C5.10194 9 5.04694 9 5.01394 9.074C4.98094 9.149 5.01794 9.19 5.03594 9.21L11.4729 15.744C11.6769 15.971 11.8899 16 12.0009 16C12.1119 16 12.3249 15.971 12.4979 15.778L18.9909 9.182C18.9909 9.182 19.0489 9.212 18.9879 9.074C18.9549 9 18.8999 9 18.8739 9H5.12794Z" fill="#405462"/>
</svg>
