<svg width="24" height="24" viewBox="0 0 24 24" fill="none" xmlns="http://www.w3.org/2000/svg">
<g clip-path="url(#clip0_653_14761)">
<path d="M14.4988 12.9991C14.2021 12.9991 13.9121 12.9111 13.6654 12.7463C13.4188 12.5814 13.2265 12.3472 13.113 12.0731C12.9995 11.799 12.9697 11.4974 13.0276 11.2064C13.0855 10.9154 13.2284 10.6482 13.4381 10.4384C13.6479 10.2286 13.9152 10.0858 14.2062 10.0279C14.4971 9.97 14.7987 9.9997 15.0728 10.1132C15.3469 10.2268 15.5812 10.419 15.746 10.6657C15.9108 10.9124 15.9988 11.2024 15.9988 11.4991C15.9988 11.8969 15.8408 12.2784 15.5595 12.5597C15.2782 12.841 14.8966 12.9991 14.4988 12.9991ZM23.9238 18.1431C24.0486 18.8613 24.0148 19.5981 23.8249 20.3019C23.635 21.0057 23.2934 21.6594 22.8242 22.2173C22.355 22.7752 21.7695 23.2237 21.1087 23.5315C20.4479 23.8393 19.7278 23.9989 18.9988 23.9991H14.9988C14.7336 23.9991 14.4792 23.8937 14.2917 23.7062C14.1042 23.5186 13.9988 23.2643 13.9988 22.9991V20.7361C13.346 20.9082 12.6739 20.9966 11.9988 20.9991C11.3233 20.9956 10.6511 20.9048 9.99881 20.7291V22.9991C9.99881 23.2643 9.89345 23.5186 9.70591 23.7062C9.51838 23.8937 9.26402 23.9991 8.99881 23.9991H4.99881C4.26984 23.9989 3.54973 23.8393 2.88892 23.5315C2.22811 23.2237 1.64259 22.7752 1.17339 22.2173C0.704193 21.6594 0.362657 21.0057 0.172714 20.3019C-0.0172275 19.5981 -0.0509811 18.8613 0.0738186 18.1431L0.373818 16.4031C0.473576 15.8243 0.744412 15.2888 1.1514 14.8654C1.55839 14.4421 2.08287 14.1504 2.6572 14.0279C3.23153 13.9055 3.82938 13.9579 4.37366 14.1784C4.91793 14.3989 5.38367 14.7774 5.71081 15.2651C6.97481 17.1231 9.40781 18.9991 11.9988 18.9991C15.1288 18.9991 18.2128 16.2201 19.1288 13.6231C19.2023 13.4278 19.3334 13.2596 19.5046 13.1405C19.6758 13.0214 19.8792 12.957 20.0878 12.9561L20.5198 12.9631C20.7134 12.9654 20.9056 12.9293 21.0851 12.8568C21.2647 12.7842 21.428 12.6767 21.5656 12.5405C21.7032 12.4043 21.8124 12.2421 21.8868 12.0633C21.9611 11.8845 21.9992 11.6927 21.9988 11.4991C21.9984 11.1483 21.8752 10.8088 21.6505 10.5395C21.4258 10.2702 21.1138 10.0882 20.7688 10.0251C20.556 9.98646 20.3615 9.87994 20.2144 9.72146C20.0673 9.56299 19.9755 9.36109 19.9528 9.14605C19.7473 7.18134 18.82 5.36278 17.3506 4.04247C15.8813 2.72216 13.9742 1.99403 11.9988 1.99905C6.42181 1.99905 4.89081 5.62705 3.66081 8.54305C3.43681 9.07005 3.22581 9.57305 2.99882 10.0261C5.0096 9.91973 6.9703 9.36005 8.73423 8.3889C10.4982 7.41776 12.0196 6.06028 13.1848 4.41805C13.2611 4.31116 13.3577 4.22033 13.4691 4.15077C13.5805 4.08121 13.7045 4.03427 13.834 4.01264C13.9636 3.991 14.0961 3.99509 14.2241 4.02467C14.352 4.05426 14.4729 4.10875 14.5798 4.18505C14.6867 4.26135 14.7775 4.35796 14.8471 4.46935C14.9166 4.58075 14.9636 4.70476 14.9852 4.8343C15.0069 4.96383 15.0028 5.09636 14.9732 5.22432C14.9436 5.35228 14.8891 5.47316 14.8128 5.58005C13.5148 7.42021 11.8214 8.94652 9.85681 10.0471C10.1563 10.1206 10.4258 10.2846 10.6287 10.5168C10.8316 10.749 10.958 11.0382 10.9907 11.3448C11.0234 11.6514 10.9608 11.9607 10.8114 12.2304C10.662 12.5002 10.4331 12.7174 10.1559 12.8524C9.87862 12.9874 9.5665 13.0337 9.26201 12.9849C8.95752 12.9362 8.67545 12.7948 8.45422 12.5799C8.23298 12.3651 8.08333 12.0873 8.02564 11.7844C7.96795 11.4815 8.00502 11.1681 8.13181 10.8871C5.83263 11.818 3.34662 12.1949 0.874818 11.9871C0.66879 11.9594 0.476487 11.8683 0.324655 11.7263C0.172823 11.5844 0.0690089 11.3986 0.0276501 11.1949C-0.0137087 10.9912 0.00944392 10.7796 0.0938881 10.5897C0.178332 10.3997 0.31987 10.2408 0.498818 10.1351C1.10335 9.44916 1.5532 8.6412 1.81782 7.76605C3.12281 4.67305 5.09881 -0.000948555 11.9988 -0.000948555C14.3532 -0.00652603 16.6336 0.8211 18.4363 2.33541C20.2391 3.84973 21.4479 5.95306 21.8488 8.27305C22.4852 8.53909 23.0287 8.98723 23.4112 9.56118C23.7938 10.1351 23.9982 10.8093 23.9988 11.4991C23.9971 12.33 23.6936 13.1321 23.1448 13.7561C23.1518 13.7821 23.1698 13.8031 23.1748 13.8311L23.9238 18.1431ZM7.99881 19.9391C6.41706 19.0914 5.06468 17.8725 4.05781 16.3871C3.97213 16.2575 3.85588 16.1511 3.71932 16.0772C3.58276 16.0032 3.4301 15.964 3.27481 15.9631H3.25781C3.03888 15.9677 2.82834 16.0482 2.66217 16.1908C2.49601 16.3334 2.38454 16.5293 2.34682 16.7451L2.04682 18.4841C1.97175 18.9148 1.99176 19.3568 2.10545 19.779C2.21914 20.2013 2.42376 20.5936 2.70497 20.9284C2.98619 21.2632 3.3372 21.5326 3.73344 21.7175C4.12967 21.9025 4.56154 21.9985 4.99881 21.9991H7.99881V19.9391ZM21.9538 18.4841L21.3258 14.8711C21.1356 14.9164 20.9419 14.9452 20.7468 14.9571C19.7379 17.0859 18.0741 18.836 15.9988 19.9511V21.9991H18.9988C19.4362 21.999 19.8683 21.9032 20.2648 21.7185C20.6614 21.5338 21.0127 21.2647 21.2942 20.9299C21.5758 20.5951 21.7807 20.2028 21.8946 19.7805C22.0085 19.3581 22.0287 18.916 21.9538 18.4851V18.4841Z" fill="#405462"/>
</g>
<defs>
<clipPath id="clip0_653_14761">
<rect width="24" height="24" fill="white"/>
</clipPath>
</defs>
</svg>
