<svg width="24" height="24" viewBox="0 0 24 24" fill="none" xmlns="http://www.w3.org/2000/svg">
<g clip-path="url(#clip0_653_14752)">
<path d="M24.0006 7.49963C24.0033 6.10633 23.6171 4.73993 22.8854 3.5542C22.1537 2.36847 21.1057 1.41046 19.8591 0.787977C18.6126 0.165495 17.2171 -0.0967544 15.8297 0.0307389C14.4422 0.158232 13.1178 0.670408 12.0056 1.50963C11.1067 0.831789 10.0666 0.365038 8.96265 0.144002C7.85868 -0.0770348 6.71911 -0.0466847 5.62846 0.232801C4.53782 0.512286 3.52409 1.03373 2.66248 1.75847C1.80086 2.4832 1.11347 3.39262 0.651294 4.41927C0.189113 5.44592 -0.0359953 6.56345 -0.00733497 7.68897C0.0213254 8.81449 0.303019 9.91911 0.816852 10.9209C1.33068 11.9227 2.06347 12.796 2.96085 13.4759C3.85823 14.1558 4.89719 14.625 6.00064 14.8486V18.9996H4.00064C3.73542 18.9996 3.48107 19.105 3.29353 19.2925C3.106 19.4801 3.00064 19.7344 3.00064 19.9996C3.00064 20.2648 3.106 20.5192 3.29353 20.7067C3.48107 20.8943 3.73542 20.9996 4.00064 20.9996H6.00064V22.9996C6.00064 23.2648 6.106 23.5192 6.29353 23.7067C6.48107 23.8943 6.73542 23.9996 7.00064 23.9996C7.26586 23.9996 7.52021 23.8943 7.70775 23.7067C7.89528 23.5192 8.00064 23.2648 8.00064 22.9996V20.9996H10.0006C10.2659 20.9996 10.5202 20.8943 10.7077 20.7067C10.8953 20.5192 11.0006 20.2648 11.0006 19.9996C11.0006 19.7344 10.8953 19.4801 10.7077 19.2925C10.5202 19.105 10.2659 18.9996 10.0006 18.9996H8.00064V14.9756C9.45217 14.8823 10.8445 14.3657 12.0056 13.4896C13.1644 14.3628 14.5528 14.8789 16.0006 14.9746V18.9996H14.0006C13.7354 18.9996 13.4811 19.105 13.2935 19.2925C13.106 19.4801 13.0006 19.7344 13.0006 19.9996C13.0006 20.2648 13.106 20.5192 13.2935 20.7067C13.4811 20.8943 13.7354 20.9996 14.0006 20.9996H16.0006V22.9996C16.0006 23.2648 16.106 23.5192 16.2935 23.7067C16.4811 23.8943 16.7354 23.9996 17.0006 23.9996C17.2659 23.9996 17.5202 23.8943 17.7077 23.7067C17.8953 23.5192 18.0006 23.2648 18.0006 22.9996V20.9996H20.0006C20.2659 20.9996 20.5202 20.8943 20.7077 20.7067C20.8953 20.5192 21.0006 20.2648 21.0006 19.9996C21.0006 19.7344 20.8953 19.4801 20.7077 19.2925C20.5202 19.105 20.2659 18.9996 20.0006 18.9996H18.0006V14.8486C19.6934 14.5006 21.2144 13.5797 22.3074 12.241C23.4003 10.9023 23.9983 9.22779 24.0006 7.49963V7.49963ZM22.0006 7.49963C22.0006 8.58743 21.6781 9.6508 21.0737 10.5553C20.4694 11.4597 19.6104 12.1647 18.6054 12.581C17.6004 12.9973 16.4945 13.1062 15.4276 12.894C14.3607 12.6817 13.3807 12.1579 12.6116 11.3887C11.8424 10.6195 11.3185 9.63953 11.1063 8.57263C10.8941 7.50573 11.003 6.39987 11.4193 5.39487C11.8356 4.38988 12.5405 3.5309 13.445 2.92655C14.3495 2.3222 15.4128 1.99963 16.5006 1.99963C17.9588 2.00122 19.3569 2.58119 20.388 3.6123C21.4191 4.64341 21.9991 6.04143 22.0006 7.49963V7.49963ZM2.00064 7.49963C1.9989 6.50261 2.2687 5.52393 2.78108 4.66863C3.29347 3.81334 4.0291 3.11373 4.90901 2.64489C5.78893 2.17604 6.77991 1.95567 7.77559 2.00742C8.77128 2.05917 9.73407 2.38109 10.5606 2.93863C9.54947 4.24402 9.00076 5.84842 9.00076 7.49963C9.00076 9.15084 9.54947 10.7552 10.5606 12.0606C9.73407 12.6182 8.77128 12.9401 7.77559 12.9918C6.77991 13.0436 5.78893 12.8232 4.90901 12.3544C4.0291 11.8855 3.29347 11.1859 2.78108 10.3306C2.2687 9.47534 1.9989 8.49666 2.00064 7.49963V7.49963Z" fill="#405462"/>
</g>
<defs>
<clipPath id="clip0_653_14752">
<rect width="24" height="24" fill="white"/>
</clipPath>
</defs>
</svg>
