<svg width="24" height="24" viewBox="0 0 24 24" fill="none" xmlns="http://www.w3.org/2000/svg">
<g clip-path="url(#clip0_1296_6322)">
<path d="M20 7.99991C20.0012 6.46007 19.558 4.95259 18.7235 3.65844C17.8891 2.36429 16.6989 1.33846 15.2958 0.704086C13.8927 0.0697121 12.3363 -0.146246 10.8135 0.0821342C9.29067 0.310515 7.86613 0.973528 6.71084 1.99159C5.55556 3.00965 4.71864 4.33949 4.30054 5.82149C3.88244 7.30349 3.90093 8.87466 4.35379 10.3464C4.80665 11.8182 5.67463 13.1279 6.85355 14.1185C8.03247 15.1091 9.47223 15.7384 11 15.9309V18.9999H9C8.73478 18.9999 8.48043 19.1053 8.29289 19.2928C8.10535 19.4803 8 19.7347 8 19.9999C8 20.2651 8.10535 20.5195 8.29289 20.707C8.48043 20.8946 8.73478 20.9999 9 20.9999H11V22.9999C11 23.2651 11.1054 23.5195 11.2929 23.707C11.4804 23.8946 11.7348 23.9999 12 23.9999C12.2652 23.9999 12.5196 23.8946 12.7071 23.707C12.8946 23.5195 13 23.2651 13 22.9999V20.9999H15C15.2652 20.9999 15.5196 20.8946 15.7071 20.707C15.8946 20.5195 16 20.2651 16 19.9999C16 19.7347 15.8946 19.4803 15.7071 19.2928C15.5196 19.1053 15.2652 18.9999 15 18.9999H13V15.9309C14.9315 15.6858 16.7076 14.7455 17.9959 13.2857C19.2843 11.826 19.9968 9.94689 20 7.99991ZM6 7.99991C6 6.81322 6.35189 5.65319 7.01118 4.66649C7.67047 3.6798 8.60754 2.91076 9.7039 2.45663C10.8003 2.00251 12.0067 1.88369 13.1705 2.1152C14.3344 2.34671 15.4035 2.91816 16.2426 3.75727C17.0818 4.59639 17.6532 5.66548 17.8847 6.82937C18.1162 7.99326 17.9974 9.19966 17.5433 10.296C17.0891 11.3924 16.3201 12.3294 15.3334 12.9887C14.3467 13.648 13.1867 13.9999 12 13.9999C10.4092 13.9983 8.88399 13.3657 7.75911 12.2408C6.63424 11.1159 6.00159 9.59072 6 7.99991Z" fill="#405462"/>
</g>
<defs>
<clipPath id="clip0_1296_6322">
<rect width="24" height="24" fill="white"/>
</clipPath>
</defs>
</svg>
