<svg width="24" height="24" viewBox="0 0 24 24" fill="none" xmlns="http://www.w3.org/2000/svg">
<g clip-path="url(#clip0_653_14666)">
<path d="M23.2209 5.743L20.2099 1.675C19.8396 1.15733 19.3513 0.735369 18.7854 0.444077C18.2195 0.152784 17.5924 0.000553721 16.9559 1.76239e-06H7.0459C6.41253 -0.000592735 5.78808 0.149225 5.22393 0.437125C4.65978 0.725025 4.17205 1.14278 3.8009 1.656L0.735902 5.753C0.236866 6.45669 -0.020853 7.30308 0.00131979 8.16547C0.0234926 9.02786 0.324364 9.85989 0.858902 10.537L9.6509 22.865C9.93109 23.2198 10.2882 23.5063 10.6953 23.7029C11.1024 23.8995 11.5488 24.0011 12.0009 24C12.4607 23.9991 12.9142 23.8927 13.3265 23.689C13.7388 23.4853 14.0988 23.1897 14.3789 22.825L23.1009 10.634C23.6594 9.94699 23.9741 9.09409 23.9959 8.20899C24.0176 7.32388 23.745 6.45658 23.2209 5.743V5.743ZM18.5929 2.851L21.6109 6.929C21.6269 6.951 21.6309 6.977 21.6469 7H16.7549L15.3269 2H16.9559C17.2769 2.001 17.5929 2.07876 17.8777 2.2268C18.1625 2.37485 18.4077 2.58887 18.5929 2.851V2.851ZM12.0009 19.118L9.3009 9H14.7009L12.0009 19.118ZM9.3269 7L10.7549 2H13.2469L14.6749 7H9.3269ZM5.4179 2.837C5.60345 2.57839 5.84785 2.36762 6.13092 2.22208C6.41399 2.07655 6.72761 2.00043 7.0459 2H8.6749L7.2469 7H2.3189C2.3329 6.978 2.3369 6.951 2.3529 6.93L5.4179 2.837ZM2.4489 9.325C2.3767 9.22302 2.31473 9.11416 2.2639 9H7.2329L10.2269 20.23L2.4489 9.325ZM13.7719 20.24L16.7719 9H21.7579C21.6935 9.14927 21.6119 9.29055 21.5149 9.421L13.7719 20.24Z" fill="#405462"/>
</g>
<defs>
<clipPath id="clip0_653_14666">
<rect width="24" height="24" fill="white"/>
</clipPath>
</defs>
</svg>
