<svg width="24" height="24" viewBox="0 0 24 24" fill="none" xmlns="http://www.w3.org/2000/svg">
<g clip-path="url(#clip0_1296_6436)">
<path d="M13 14.1838V7.99976C13 7.73455 12.8946 7.48019 12.7071 7.29266C12.5196 7.10512 12.2652 6.99976 12 6.99976C11.7348 6.99976 11.4804 7.10512 11.2929 7.29266C11.1054 7.48019 11 7.73455 11 7.99976V14.1838C10.3345 14.4196 9.77369 14.8831 9.41674 15.4923C9.0598 16.1015 8.92965 16.8173 9.0493 17.5132C9.16895 18.209 9.53069 18.8402 10.0706 19.2953C10.6105 19.7503 11.2939 19.9998 12 19.9998C12.7061 19.9998 13.3895 19.7503 13.9294 19.2953C14.4693 18.8402 14.8311 18.209 14.9507 17.5132C15.0704 16.8173 14.9402 16.1015 14.5833 15.4923C14.2263 14.8831 13.6655 14.4196 13 14.1838V14.1838ZM17 12.1108V4.99976C16.789 -1.60924 7.209 -1.60024 7 4.99976V12.1108C6.03533 13.0953 5.38281 14.3428 5.12426 15.6967C4.8657 17.0506 5.01262 18.4507 5.5466 19.7215C6.08058 20.9922 6.97784 22.0771 8.12587 22.8399C9.27391 23.6028 10.6216 24.0097 12 24.0097C13.3784 24.0097 14.7261 23.6028 15.8741 22.8399C17.0222 22.0771 17.9194 20.9922 18.4534 19.7215C18.9874 18.4507 19.1343 17.0506 18.8757 15.6967C18.6172 14.3428 17.9647 13.0953 17 12.1108V12.1108ZM12 21.9998C10.9935 21.9885 10.0137 21.6748 9.18785 21.0994C8.36198 20.524 7.72823 19.7136 7.36892 18.7734C7.00961 17.8332 6.94136 16.8066 7.17303 15.8271C7.4047 14.8476 7.92558 13.9604 8.668 13.2808C8.77246 13.187 8.85601 13.0723 8.91321 12.9441C8.97041 12.8159 8.99998 12.6771 9 12.5368V4.99976C9 4.20411 9.31607 3.44105 9.87868 2.87844C10.4413 2.31583 11.2044 1.99976 12 1.99976C12.7957 1.99976 13.5587 2.31583 14.1213 2.87844C14.6839 3.44105 15 4.20411 15 4.99976V12.5368C15 12.6771 15.0296 12.8159 15.0868 12.9441C15.144 13.0723 15.2275 13.187 15.332 13.2808C16.0744 13.9604 16.5953 14.8476 16.827 15.8271C17.0586 16.8066 16.9904 17.8332 16.6311 18.7734C16.2718 19.7136 15.638 20.524 14.8122 21.0994C13.9863 21.6748 13.0065 21.9885 12 21.9998Z" fill="#405462"/>
</g>
<defs>
<clipPath id="clip0_1296_6436">
<rect width="24" height="24" fill="white"/>
</clipPath>
</defs>
</svg>
