<svg width="24" height="24" viewBox="0 0 24 24" fill="none" xmlns="http://www.w3.org/2000/svg">
<path d="M12.002 1.99707C6.48795 1.99707 2.00195 6.48307 2.00195 11.9971C2.00195 17.5111 6.48795 21.9971 12.002 21.9971C17.516 21.9971 22.002 17.5111 22.002 11.9971C22.002 6.48307 17.516 1.99707 12.002 1.99707ZM12.002 19.9971C7.59095 19.9971 4.00195 16.4081 4.00195 11.9971C4.00195 7.58607 7.59095 3.99707 12.002 3.99707C16.413 3.99707 20.002 7.58607 20.002 11.9971C20.002 16.4081 16.413 19.9971 12.002 19.9971Z" fill="#405462"/>
<path d="M13 8.99707H15V14.9971H13V8.99707ZM9 8.99707H11V14.9971H9V8.99707Z" fill="#405462"/>
</svg>
