<svg width="24" height="24" viewBox="0 0 24 24" fill="none" xmlns="http://www.w3.org/2000/svg">
<g clip-path="url(#clip0_1296_6424)">
<path d="M20.0002 7.989C19.9978 7.19316 19.7569 6.41631 19.3086 5.75875C18.8603 5.10118 18.2252 4.59307 17.4852 4.3L15.0002 3.307V2C15.2655 2 15.5198 1.89464 15.7073 1.70711C15.8949 1.51957 16.0002 1.26522 16.0002 1C16.0002 0.734784 15.8949 0.48043 15.7073 0.292893C15.5198 0.105357 15.2655 0 15.0002 0L9.00023 0C8.73502 0 8.48066 0.105357 8.29313 0.292893C8.10559 0.48043 8.00023 0.734784 8.00023 1C8.00023 1.26522 8.10559 1.51957 8.29313 1.70711C8.48066 1.89464 8.73502 2 9.00023 2V3.307L6.51423 4.3C5.88485 4.55784 5.33161 4.97191 4.90679 5.50308C4.48198 6.03425 4.19962 6.66497 4.08641 7.33563C3.9732 8.00629 4.03287 8.69475 4.25979 9.33593C4.4867 9.97711 4.87336 10.5498 5.38323 11C4.9566 11.3747 4.6148 11.8362 4.38066 12.3535C4.14651 12.8708 4.02539 13.4322 4.02539 14C4.02539 14.5678 4.14651 15.1292 4.38066 15.6465C4.6148 16.1638 4.9566 16.6253 5.38323 17C4.77885 17.5372 4.35117 18.2447 4.15644 19.0295C3.96171 19.8143 4.00903 20.6397 4.29219 21.3971C4.57536 22.1545 5.0811 22.8085 5.74292 23.2731C6.40475 23.7376 7.19168 23.9911 8.00023 24H16.0002C16.8089 23.9913 17.5959 23.738 18.2579 23.2735C18.9199 22.809 19.4258 22.155 19.7091 21.3975C19.9924 20.6401 20.0398 19.8146 19.8451 19.0297C19.6504 18.2448 19.2227 17.5372 18.6182 17C19.0449 16.6253 19.3867 16.1638 19.6208 15.6465C19.855 15.1292 19.9761 14.5678 19.9761 14C19.9761 13.4322 19.855 12.8708 19.6208 12.3535C19.3867 11.8362 19.0449 11.3747 18.6182 11C19.0507 10.6263 19.3978 10.164 19.6362 9.64459C19.8747 9.12514 19.9988 8.56055 20.0002 7.989ZM18.0002 20C18.0002 20.5304 17.7895 21.0391 17.4144 21.4142C17.0394 21.7893 16.5307 22 16.0002 22H8.00023C7.4698 22 6.96109 21.7893 6.58602 21.4142C6.21095 21.0391 6.00023 20.5304 6.00023 20C6.00023 19.4696 6.21095 18.9609 6.58602 18.5858C6.96109 18.2107 7.4698 18 8.00023 18H16.0002C16.5307 18 17.0394 18.2107 17.4144 18.5858C17.7895 18.9609 18.0002 19.4696 18.0002 20ZM18.0002 14C18.0002 14.5304 17.7895 15.0391 17.4144 15.4142C17.0394 15.7893 16.5307 16 16.0002 16H8.00023C7.4698 16 6.96109 15.7893 6.58602 15.4142C6.21095 15.0391 6.00023 14.5304 6.00023 14C6.00023 13.4696 6.21095 12.9609 6.58602 12.5858C6.96109 12.2107 7.4698 12 8.00023 12H16.0002C16.5307 12 17.0394 12.2107 17.4144 12.5858C17.7895 12.9609 18.0002 13.4696 18.0002 14ZM8.00023 10C7.54226 9.99138 7.10112 9.82581 6.75056 9.53098C6.40001 9.23614 6.16128 8.82991 6.07428 8.38019C5.98729 7.93047 6.0573 7.46452 6.27262 7.06022C6.48794 6.65593 6.83551 6.33779 7.25723 6.159L10.3712 4.913C10.557 4.8388 10.7162 4.71062 10.8283 4.54502C10.9404 4.37941 11.0003 4.18399 11.0002 3.984V2H13.0002V3.984C13.0002 4.18399 13.0601 4.37941 13.1722 4.54502C13.2843 4.71062 13.4435 4.8388 13.6292 4.913L16.7422 6.158C17.1645 6.33639 17.5126 6.65441 17.7284 7.05883C17.9442 7.46324 18.0145 7.92951 17.9276 8.37958C17.8407 8.82965 17.6018 9.2362 17.2509 9.53118C16.9001 9.82616 16.4585 9.99167 16.0002 10H8.00023Z" fill="#405462"/>
</g>
<defs>
<clipPath id="clip0_1296_6424">
<rect width="24" height="24" fill="white"/>
</clipPath>
</defs>
</svg>
