<svg width="24" height="24" viewBox="0 0 24 24" fill="none" xmlns="http://www.w3.org/2000/svg">
<g clip-path="url(#clip0_1296_6493)">
<path d="M13.0213 1.00178C13.0213 0.736127 13.1268 0.481355 13.3147 0.29351C13.5025 0.105665 13.7573 0.000134751 14.023 0.000134751C16.6786 0.00305114 19.2246 1.05929 21.1024 2.93711C22.9803 4.81492 24.0365 7.36095 24.0394 10.0166C24.0394 10.2822 23.9339 10.537 23.746 10.7249C23.5582 10.9127 23.3034 11.0182 23.0378 11.0182C22.7721 11.0182 22.5173 10.9127 22.3295 10.7249C22.1416 10.537 22.0361 10.2822 22.0361 10.0166C22.0337 7.8921 21.1887 5.8553 19.6865 4.35306C18.1842 2.85082 16.1474 2.00581 14.023 2.00343C13.7573 2.00343 13.5025 1.8979 13.3147 1.71005C13.1268 1.52221 13.0213 1.26743 13.0213 1.00178V1.00178ZM14.023 6.01001C15.0856 6.01001 16.1047 6.43213 16.856 7.18351C17.6074 7.93489 18.0295 8.95398 18.0295 10.0166C18.0295 10.2822 18.1351 10.537 18.3229 10.7249C18.5108 10.9127 18.7655 11.0182 19.0312 11.0182C19.2968 11.0182 19.5516 10.9127 19.7395 10.7249C19.9273 10.537 20.0328 10.2822 20.0328 10.0166C20.0312 8.42316 19.3975 6.89545 18.2708 5.76872C17.1441 4.642 15.6164 4.00831 14.023 4.00672C13.7573 4.00672 13.5025 4.11225 13.3147 4.30009C13.1268 4.48794 13.0213 4.74271 13.0213 5.00836C13.0213 5.27401 13.1268 5.52879 13.3147 5.71663C13.5025 5.90448 13.7573 6.01001 14.023 6.01001V6.01001ZM23.1309 16.7667C23.7114 17.3487 24.0373 18.1372 24.0373 18.9593C24.0373 19.7813 23.7114 20.5698 23.1309 21.1519L22.2194 22.2026C14.0159 30.0565 -5.94685 10.0987 1.78585 1.8692L2.93775 0.86756C3.52047 0.30331 4.30192 -0.0088309 5.11302 -0.00133282C5.92413 0.00616526 6.69967 0.332699 7.27187 0.907625C7.30292 0.938676 9.15897 3.34964 9.15897 3.34964C9.7097 3.92821 10.0163 4.69678 10.015 5.49556C10.0137 6.29435 9.70458 7.06191 9.15195 7.63868L7.99205 9.09708C8.63395 10.6568 9.57772 12.0742 10.7691 13.268C11.9605 14.4618 13.3761 15.4085 14.9345 16.0535L16.4019 14.8866C16.9787 14.3344 17.7461 14.0257 18.5447 14.0245C19.3432 14.0234 20.1115 14.33 20.6899 14.8806C20.6899 14.8806 23.0999 16.7356 23.1309 16.7667ZM21.7526 18.2231C21.7526 18.2231 19.3557 16.379 19.3247 16.348C19.1183 16.1434 18.8395 16.0286 18.5489 16.0286C18.2583 16.0286 17.9795 16.1434 17.7731 16.348C17.7461 16.376 15.7258 17.9857 15.7258 17.9857C15.5896 18.094 15.4276 18.1651 15.2556 18.1918C15.0837 18.2185 14.9077 18.1999 14.7451 18.1379C12.7263 17.3863 10.8925 16.2095 9.36814 14.6873C7.84374 13.1652 6.66427 11.3332 5.90963 9.31544C5.84272 9.15062 5.8209 8.97096 5.84643 8.79492C5.87195 8.61888 5.9439 8.45281 6.05487 8.31379C6.05487 8.31379 7.66451 6.29247 7.69155 6.26643C7.89616 6.06007 8.01096 5.78125 8.01096 5.49065C8.01096 5.20006 7.89616 4.92123 7.69155 4.71488C7.6605 4.68483 5.81648 2.28589 5.81648 2.28589C5.60703 2.09809 5.33369 1.99751 5.05247 2.00477C4.77125 2.01204 4.50346 2.12659 4.30399 2.32495L3.1521 3.3266C-2.49918 10.1218 14.8002 26.4616 20.755 20.8344L21.6675 19.7826C21.8813 19.5846 22.0098 19.3111 22.0257 19.0201C22.0416 18.729 21.9436 18.4432 21.7526 18.2231V18.2231Z" fill="#405462"/>
</g>
<defs>
<clipPath id="clip0_1296_6493">
<rect width="24" height="24" fill="white"/>
</clipPath>
</defs>
</svg>
