<svg width="24" height="24" viewBox="0 0 24 24" fill="none" xmlns="http://www.w3.org/2000/svg">
<g clip-path="url(#clip0_653_14758)">
<path d="M22.9984 20.9992H21.7194L20.3984 17.0502C20.1995 16.4537 19.8183 15.9349 19.3085 15.5668C18.7987 15.1988 18.1862 15.0002 17.5574 14.9992H13.9984C13.468 14.9992 12.9593 14.7885 12.5842 14.4134C12.2092 14.0383 11.9984 13.5296 11.9984 12.9992H17.9984C18.2637 12.9992 18.518 12.8938 18.7055 12.7063C18.8931 12.5188 18.9984 12.2644 18.9984 11.9992C18.9984 11.734 18.8931 11.4796 18.7055 11.2921C18.518 11.1046 18.2637 10.9992 17.9984 10.9992H11.9984V7.99921C11.9924 7.95399 11.9834 7.90922 11.9714 7.86521C12.9181 7.6278 13.7453 7.05248 14.2973 6.24759C14.8492 5.4427 15.0879 4.46377 14.9683 3.49516C14.8487 2.52654 14.3791 1.63507 13.6479 0.988622C12.9167 0.342173 11.9744 -0.0146484 10.9984 -0.0146484C10.0225 -0.0146484 9.08017 0.342173 8.34898 0.988622C7.6178 1.63507 7.14819 2.52654 7.02859 3.49516C6.90898 4.46377 7.14764 5.4427 7.69961 6.24759C8.25158 7.05248 9.07878 7.6278 10.0254 7.86521C10.0135 7.90922 10.0044 7.95399 9.99844 7.99921V12.9992C10.0005 14.0433 10.4108 15.0451 11.1415 15.7908C11.8723 16.5365 12.8656 16.967 13.9094 16.9902C13.7267 18.0831 13.2448 19.1041 12.5173 19.9399C11.7897 20.7757 10.845 21.3937 9.7877 21.7254C8.73042 22.0571 7.60194 22.0895 6.52735 21.8191C5.45276 21.5487 4.47405 20.986 3.69972 20.1933C2.92539 19.4007 2.38568 18.4091 2.14043 17.3285C1.89518 16.2479 1.95396 15.1205 2.31027 14.0712C2.66658 13.022 3.30649 12.0919 4.15906 11.3841C5.01163 10.6763 6.04356 10.2184 7.14044 10.0612C7.40314 10.0235 7.64011 9.88307 7.79924 9.67069C7.95836 9.4583 8.0266 9.1914 7.98894 8.92871C7.95128 8.66601 7.8108 8.42903 7.59842 8.26991C7.38603 8.11078 7.11914 8.04255 6.85644 8.08021C5.3804 8.2919 3.99291 8.91191 2.85054 9.87028C1.70816 10.8286 0.856364 12.0872 0.391275 13.504C-0.0738145 14.9207 -0.133686 16.4392 0.218417 17.8882C0.570519 19.3372 1.32058 20.6589 2.38396 21.7042C3.44734 22.7496 4.78171 23.4769 6.23649 23.8041C7.69128 24.1314 9.20857 24.0455 10.6171 23.5563C12.0257 23.067 13.2695 22.1938 14.2082 21.0352C15.1469 19.8765 15.743 18.4786 15.9294 16.9992H17.5574C17.7674 16.9992 17.9721 17.0652 18.1424 17.188C18.3127 17.3107 18.4401 17.484 18.5064 17.6832L20.0504 22.3152C20.1167 22.5142 20.244 22.6874 20.4141 22.8102C20.5842 22.9329 20.7886 22.999 20.9984 22.9992H22.9984C23.2637 22.9992 23.518 22.8939 23.7055 22.7063C23.8931 22.5188 23.9984 22.2644 23.9984 21.9992C23.9984 21.734 23.8931 21.4796 23.7055 21.2921C23.518 21.1046 23.2637 20.9992 22.9984 20.9992ZM8.99844 3.99921C8.99844 3.60364 9.11574 3.21696 9.3355 2.88807C9.55526 2.55917 9.86762 2.30282 10.2331 2.15145C10.5985 2.00007 11.0007 1.96047 11.3886 2.03764C11.7766 2.11481 12.1329 2.30529 12.4127 2.58499C12.6924 2.8647 12.8828 3.22106 12.96 3.60903C13.0372 3.99699 12.9976 4.39912 12.8462 4.76457C12.6948 5.13003 12.4385 5.44238 12.1096 5.66215C11.7807 5.88191 11.394 5.99921 10.9984 5.99921C10.468 5.99921 9.9593 5.78849 9.58423 5.41342C9.20915 5.03835 8.99844 4.52964 8.99844 3.99921Z" fill="#405462"/>
</g>
<defs>
<clipPath id="clip0_653_14758">
<rect width="24" height="24" fill="white"/>
</clipPath>
</defs>
</svg>
