<svg width="24" height="24" viewBox="0 0 24 24" fill="none" xmlns="http://www.w3.org/2000/svg">
<g clip-path="url(#clip0_653_14756)">
<path d="M12.0029 -0.00195312C5.3653 -0.00195312 -0.015625 5.37897 -0.015625 12.0166C-0.015625 18.6542 5.3653 24.0351 12.0029 24.0351C18.6406 24.0351 24.0215 18.6542 24.0215 12.0166C24.0215 5.37897 18.6406 -0.00195312 12.0029 -0.00195312ZM21.8747 10.5002V10.5032C20.9675 11.0681 19.9755 11.4837 18.9367 11.7342C18.7213 8.53112 17.6625 5.44202 15.8677 2.78022C19.0757 4.13453 21.3503 7.05775 21.8747 10.5002ZM11.9997 2.00027C12.2526 2.00027 12.4997 2.01925 12.7487 2.03828C15.2435 4.77784 16.7256 8.28869 16.9487 11.9873C15.5821 12.034 14.2206 11.7992 12.9487 11.2973C12.7496 7.91589 11.1344 4.77508 8.49969 2.64625C9.61784 2.2217 10.8036 2.00284 11.9997 2.00027ZM6.48664 3.66527C7.42606 4.27787 8.25589 5.04386 8.94162 5.93125C5.94416 7.9413 3.60983 10.7949 2.23367 14.1312C1.34347 10.0982 3.03556 5.9342 6.48664 3.66527ZM3.35567 17.0052C4.35392 13.1868 6.70686 9.86186 9.97569 7.65025C10.5676 8.86633 10.9055 10.1903 10.9687 11.5412C8.23962 13.6151 6.52447 16.7544 6.25367 20.1713C5.07111 19.3368 4.08256 18.2568 3.35567 17.0052ZM11.9997 22.0002C10.7059 21.9999 9.42463 21.7472 8.22767 21.2562C8.20564 19.9663 8.43383 18.6843 8.89967 17.4813C12.1866 18.9404 15.8368 19.3756 19.3747 18.7302C17.4873 20.8113 14.8091 21.9988 11.9997 22.0002ZM9.79967 15.6902C10.4336 14.7078 11.2355 13.8446 12.1687 13.1403C13.5822 13.7118 15.092 14.0081 16.6167 14.0132C18.4717 14.0131 20.3018 13.5853 21.9647 12.7632C21.871 13.9855 21.5513 15.1797 21.0217 16.2852C17.3292 17.4273 13.3506 17.2164 9.79967 15.6902Z" fill="#405462"/>
</g>
<defs>
<clipPath id="clip0_653_14756">
<rect width="24" height="24" fill="white"/>
</clipPath>
</defs>
</svg>
