<svg width="23" height="23" viewBox="0 0 23 23" fill="none" xmlns="http://www.w3.org/2000/svg">
<g clip-path="url(#clip0_1336_6548)">
<path d="M18.5275 14.0561C17.8029 14.0567 17.0894 14.2336 16.4484 14.5715C15.8074 14.9094 15.2583 15.3983 14.8485 15.9958L8.61067 13.1792C9.05372 12.1094 9.05544 10.9077 8.61546 9.83657L14.8446 7.00565C15.4521 7.88421 16.3543 8.51595 17.3877 8.78628C18.421 9.05661 19.517 8.94762 20.4769 8.47909C21.4367 8.01056 22.1969 7.21351 22.6194 6.23253C23.042 5.25155 23.0989 4.15161 22.78 3.13224C22.461 2.11286 21.7873 1.24156 20.8809 0.676394C19.9746 0.111226 18.8957 -0.110381 17.8399 0.0517726C16.7842 0.213926 15.8216 0.749099 15.1266 1.56021C14.4317 2.37133 14.0504 3.40467 14.0521 4.47278C14.0561 4.72559 14.0818 4.97759 14.1288 5.22603L7.50667 8.2352C6.87066 7.63932 6.07445 7.24221 5.21585 7.09263C4.35724 6.94306 3.47365 7.04755 2.67361 7.39326C1.87358 7.73897 1.19195 8.31084 0.712469 9.03863C0.232987 9.76641 -0.0234649 10.6184 -0.0253798 11.4899C-0.0272947 12.3615 0.22541 13.2146 0.70169 13.9445C1.17797 14.6743 1.85708 15.2492 2.65559 15.5984C3.45409 15.9477 4.33722 16.056 5.19647 15.9102C6.05573 15.7644 6.85368 15.3708 7.4923 14.7777L14.1316 17.7754C14.0855 18.0236 14.0602 18.2753 14.0559 18.5277C14.0557 19.4124 14.3179 20.2772 14.8093 21.0129C15.3007 21.7485 15.9992 22.3219 16.8165 22.6606C17.6337 22.9992 18.5331 23.0878 19.4008 22.9153C20.2685 22.7428 21.0655 22.3168 21.691 21.6912C22.3166 21.0657 22.7426 20.2686 22.9151 19.401C23.0877 18.5333 22.999 17.6339 22.6604 16.8166C22.3217 15.9994 21.7483 15.3008 21.0127 14.8095C20.277 14.3181 19.4122 14.0559 18.5275 14.0561V14.0561ZM18.5275 1.9169C19.0331 1.91671 19.5273 2.06645 19.9477 2.34718C20.3682 2.62791 20.6959 3.02702 20.8895 3.49402C21.0831 3.96103 21.1339 4.47496 21.0353 4.97082C20.9368 5.46667 20.6935 5.92217 20.3361 6.27972C19.9787 6.63726 19.5233 6.88078 19.0274 6.97947C18.5316 7.07817 18.0177 7.02761 17.5506 6.83419C17.0835 6.64077 16.6843 6.31318 16.4034 5.89285C16.1225 5.47251 15.9726 4.97832 15.9726 4.47278C15.9731 3.79524 16.2424 3.14558 16.7214 2.6664C17.2004 2.18722 17.85 1.91767 18.5275 1.9169V1.9169ZM4.47259 14.0561C3.96704 14.0563 3.4728 13.9066 3.05236 13.6258C2.63192 13.3451 2.30418 12.946 2.11059 12.479C1.91699 12.012 1.86624 11.4981 1.96475 11.0022C2.06326 10.5063 2.30661 10.0508 2.66402 9.6933C3.02142 9.33576 3.47683 9.09224 3.97265 8.99354C4.46847 8.89485 4.98242 8.94541 5.4495 9.13883C5.91658 9.33225 6.31581 9.65984 6.5967 10.0802C6.87758 10.5005 7.02751 10.9947 7.02751 11.5002C7.02675 12.1777 6.75735 12.8272 6.27841 13.3063C5.79946 13.7855 5.15005 14.0551 4.47259 14.0561ZM18.5275 21.0836C18.022 21.0836 17.5278 20.9337 17.1075 20.6528C16.6872 20.372 16.3596 19.9728 16.1662 19.5058C15.9727 19.0388 15.9221 18.5249 16.0207 18.0291C16.1194 17.5333 16.3628 17.0779 16.7202 16.7204C17.0777 16.363 17.5331 16.1196 18.0289 16.0209C18.5247 15.9223 19.0386 15.9729 19.5056 16.1664C19.9726 16.3598 20.3718 16.6874 20.6526 17.1077C20.9335 17.528 21.0834 18.0222 21.0834 18.5277C21.0829 19.2054 20.8134 19.8552 20.3342 20.3344C19.855 20.8136 19.2052 21.0831 18.5275 21.0836V21.0836Z" fill="#405462"/>
</g>
<defs>
<clipPath id="clip0_1336_6548">
<rect width="23" height="23" fill="white"/>
</clipPath>
</defs>
</svg>
