<svg width="24" height="24" viewBox="0 0 24 24" fill="none" xmlns="http://www.w3.org/2000/svg">
<g clip-path="url(#clip0_1303_6403)">
<path d="M23.7102 16.2898L15.5402 8.11982C15.0757 7.65418 14.524 7.28476 13.9165 7.03269C13.3091 6.78063 12.6579 6.65088 12.0002 6.65088C11.3425 6.65088 10.6913 6.78063 10.0839 7.03269C9.4764 7.28476 8.92464 7.65418 8.46019 8.11982L0.290185 16.2898C0.101882 16.4781 -0.00390625 16.7335 -0.00390625 16.9998C-0.00390625 17.2661 0.101882 17.5215 0.290185 17.7098C0.478489 17.8981 0.733884 18.0039 1.00019 18.0039C1.26649 18.0039 1.52188 17.8981 1.71019 17.7098L9.88019 9.53982C10.4427 8.97802 11.2052 8.66246 12.0002 8.66246C12.7952 8.66246 13.5577 8.97802 14.1202 9.53982L22.2902 17.7098C22.3832 17.8035 22.4938 17.8779 22.6156 17.9287C22.7375 17.9795 22.8682 18.0056 23.0002 18.0056C23.1322 18.0056 23.2629 17.9795 23.3848 17.9287C23.5066 17.8779 23.6172 17.8035 23.7102 17.7098C23.8039 17.6169 23.8783 17.5063 23.9291 17.3844C23.9798 17.2625 24.006 17.1318 24.006 16.9998C24.006 16.8678 23.9798 16.7371 23.9291 16.6152C23.8783 16.4934 23.8039 16.3828 23.7102 16.2898V16.2898Z" fill="#405462"/>
</g>
<defs>
<clipPath id="clip0_1303_6403">
<rect width="24" height="24" fill="white"/>
</clipPath>
</defs>
</svg>
