<svg width="24" height="24" viewBox="0 0 24 24" fill="none" xmlns="http://www.w3.org/2000/svg">
<g clip-path="url(#clip0_653_14757)">
<path d="M20.8057 4.29013C20.7128 4.19722 20.6025 4.12352 20.4811 4.07323C20.3597 4.02295 20.2296 3.99707 20.0982 3.99707C19.9668 3.99707 19.8367 4.02295 19.7153 4.07323C19.5939 4.12352 19.4836 4.19722 19.3907 4.29013C19.2978 4.38304 19.2241 4.49334 19.1738 4.61473C19.1235 4.73612 19.0977 4.86623 19.0977 4.99763C19.0977 5.12902 19.1235 5.25913 19.1738 5.38052C19.2241 5.50192 19.2978 5.61222 19.3907 5.70513C21.0577 7.37603 21.9938 9.6399 21.9938 12.0001C21.9938 14.3604 21.0577 16.6242 19.3907 18.2951C19.2031 18.4828 19.0977 18.7373 19.0977 19.0026C19.0977 19.268 19.2031 19.5225 19.3907 19.7101C19.5784 19.8978 19.8328 20.0032 20.0982 20.0032C20.3636 20.0032 20.6181 19.8978 20.8057 19.7101C22.8475 17.6637 23.9942 14.8909 23.9942 12.0001C23.9942 9.10932 22.8475 6.33656 20.8057 4.29013V4.29013Z" fill="#405462"/>
<path d="M18.099 7.29092C18.0061 7.19768 17.8958 7.12366 17.7743 7.07307C17.6527 7.02248 17.5224 6.99633 17.3908 6.9961C17.2592 6.99586 17.1288 7.02156 17.0071 7.07172C16.8854 7.12187 16.7748 7.19551 16.6815 7.28842C16.5883 7.38133 16.5143 7.49169 16.4637 7.61321C16.4131 7.73473 16.387 7.86502 16.3867 7.99665C16.3865 8.12828 16.4122 8.25866 16.4623 8.38036C16.5125 8.50205 16.5861 8.61268 16.679 8.70592C17.5518 9.58 18.042 10.7647 18.042 11.9999C18.042 13.2351 17.5518 14.4198 16.679 15.2939C16.5861 15.3871 16.5125 15.4978 16.4623 15.6195C16.4122 15.7412 16.3865 15.8715 16.3867 16.0032C16.387 16.1348 16.4131 16.2651 16.4637 16.3866C16.5143 16.5081 16.5883 16.6185 16.6815 16.7114C16.8698 16.899 17.125 17.0042 17.3908 17.0037C17.5224 17.0035 17.6527 16.9773 17.7743 16.9268C17.8958 16.8762 18.0061 16.8021 18.099 16.7089C19.3464 15.4592 20.0469 13.7656 20.0469 11.9999C20.0469 10.2342 19.3464 8.54066 18.099 7.29092V7.29092Z" fill="#405462"/>
<path d="M13.82 0.200111C10.7793 0.771379 8.07468 2.48996 6.266 5.00011H5C3.67457 5.00223 2.40403 5.52969 1.4668 6.46691C0.529579 7.40414 0.00211562 8.67468 0 10.0001L0 14.0001C0.00211562 15.3255 0.529579 16.5961 1.4668 17.5333C2.40403 18.4705 3.67457 18.998 5 19.0001H6.266C8.07504 21.5099 10.7795 23.2284 13.82 23.8001C13.8796 23.8118 13.9403 23.8175 14.001 23.8171C14.2662 23.8171 14.5206 23.7118 14.7081 23.5242C14.8956 23.3367 15.001 23.0823 15.001 22.8171V1.18611C15.0014 1.03925 14.9694 0.894101 14.9073 0.760993C14.8453 0.627886 14.7546 0.510084 14.6419 0.415959C14.5292 0.321834 14.3971 0.253698 14.255 0.216392C14.113 0.179087 13.9644 0.173528 13.82 0.200111V0.200111ZM13 21.5351C10.7944 20.832 8.89788 19.3914 7.629 17.4551C7.53834 17.3156 7.41432 17.201 7.26817 17.1215C7.12201 17.0421 6.95835 17.0003 6.792 17.0001H5C4.20435 17.0001 3.44129 16.684 2.87868 16.1214C2.31607 15.5588 2 14.7958 2 14.0001V10.0001C2 9.20446 2.31607 8.4414 2.87868 7.87879C3.44129 7.31618 4.20435 7.00011 5 7.00011H6.8C6.96617 7.00009 7.12971 6.95866 7.27585 6.87957C7.42198 6.80048 7.54611 6.68621 7.637 6.54711C8.90329 4.61135 10.7969 3.17006 13 2.46511V21.5351Z" fill="#405462"/>
</g>
<defs>
<clipPath id="clip0_653_14757">
<rect width="24" height="24" fill="white"/>
</clipPath>
</defs>
</svg>
