<svg width="24" height="24" viewBox="0 0 24 24" fill="none" xmlns="http://www.w3.org/2000/svg">
<g clip-path="url(#clip0_1336_6470)">
<path d="M23 11H19.938C19.8461 10.2671 19.6526 9.55053 19.363 8.871L22.018 7.325C22.2313 7.18417 22.3826 6.96701 22.4408 6.71811C22.499 6.46922 22.4596 6.2075 22.3309 5.9867C22.2021 5.76591 21.9937 5.6028 21.7484 5.53088C21.5031 5.45896 21.2396 5.4837 21.012 5.6L18.354 7.145C17.9198 6.58095 17.4131 6.07661 16.847 5.645L18.388 2.997C18.5214 2.76772 18.5583 2.49484 18.4905 2.23838C18.4227 1.98192 18.2558 1.7629 18.0265 1.6295C17.7972 1.4961 17.5243 1.45924 17.2679 1.52703C17.0114 1.59483 16.7924 1.76172 16.659 1.991L15.12 4.633C14.4431 4.34579 13.7296 4.15363 13 4.062V1C13 0.734784 12.8946 0.48043 12.7071 0.292893C12.5196 0.105357 12.2652 0 12 0C11.7348 0 11.4804 0.105357 11.2929 0.292893C11.1054 0.48043 11 0.734784 11 1V4.062C10.2747 4.15304 9.56536 4.34349 8.892 4.628L7.355 1.986C7.29056 1.86943 7.20349 1.76691 7.09889 1.68445C6.99429 1.60199 6.87427 1.54126 6.74588 1.50582C6.61748 1.47038 6.4833 1.46095 6.35121 1.47807C6.21913 1.4952 6.09179 1.53855 5.97668 1.60556C5.86157 1.67257 5.76101 1.76191 5.6809 1.86831C5.60079 1.97472 5.54274 2.09607 5.51017 2.22522C5.4776 2.35437 5.47115 2.48872 5.49122 2.6204C5.51128 2.75207 5.55744 2.87841 5.627 2.992L7.163 5.633C6.59437 6.06564 6.0859 6.57209 5.651 7.139L3 5.6C2.77305 5.49115 2.5134 5.47188 2.27287 5.54605C2.03234 5.62022 1.82863 5.78236 1.70239 6.00012C1.57616 6.21788 1.53668 6.47523 1.59185 6.72082C1.64701 6.9664 1.79276 7.18215 2 7.325L4.64 8.865C4.34885 9.54628 4.15431 10.2649 4.062 11H1C0.734784 11 0.48043 11.1054 0.292893 11.2929C0.105357 11.4804 0 11.7348 0 12C0 12.2652 0.105357 12.5196 0.292893 12.7071C0.48043 12.8946 0.734784 13 1 13H4.062C4.15424 13.733 4.3481 14.4495 4.638 15.129L2 16.662C1.88647 16.7283 1.78712 16.8163 1.70761 16.9211C1.6281 17.0258 1.57 17.1451 1.53662 17.2723C1.50323 17.3995 1.49523 17.532 1.51305 17.6622C1.53088 17.7925 1.57418 17.918 1.6405 18.0315C1.70682 18.145 1.79485 18.2444 1.89956 18.3239C2.00428 18.4034 2.12363 18.4615 2.2508 18.4949C2.50763 18.5623 2.78072 18.5249 3.01 18.391L5.647 16.856C6.07893 17.4197 6.58328 17.9241 7.147 18.356L5.6 21C5.46646 21.2294 5.42953 21.5025 5.49732 21.7591C5.56512 22.0158 5.73209 22.235 5.9615 22.3685C6.19091 22.502 6.46398 22.539 6.72062 22.4712C6.97726 22.4034 7.19646 22.2364 7.33 22.007L8.868 19.361C9.54833 19.6517 10.2659 19.8459 11 19.938V23C11 23.2652 11.1054 23.5196 11.2929 23.7071C11.4804 23.8946 11.7348 24 12 24C12.2652 24 12.5196 23.8946 12.7071 23.7071C12.8946 23.5196 13 23.2652 13 23V19.938C13.7381 19.8454 14.4595 19.6495 15.143 19.356L16.686 22.007C16.8195 22.2361 17.0386 22.4029 17.2951 22.4705C17.5515 22.5381 17.8244 22.501 18.0535 22.3675C18.2826 22.234 18.4494 22.0149 18.517 21.7584C18.5846 21.502 18.5475 21.2291 18.414 21L16.868 18.343C17.4279 17.9123 17.9288 17.41 18.358 16.849L21.005 18.39C21.2343 18.5234 21.5072 18.5603 21.7636 18.4925C22.0201 18.4247 22.2391 18.2578 22.3725 18.0285C22.5059 17.7992 22.5428 17.5263 22.475 17.2699C22.4072 17.0134 22.2403 16.7944 22.011 16.661L19.365 15.121C19.6534 14.444 19.8462 13.7301 19.938 13H23C23.2652 13 23.5196 12.8946 23.7071 12.7071C23.8946 12.5196 24 12.2652 24 12C24 11.7348 23.8946 11.4804 23.7071 11.2929C23.5196 11.1054 23.2652 11 23 11ZM12 18C4.356 17.906 3.792 6.32 12 6C19.929 6.252 19.928 17.749 12 18ZM13.455 15.771C7.889 17.5 5.64 9.3 11.361 8.051C11.9211 7.9649 12.4926 7.98799 13.044 8.119C13.1377 8.14304 13.2233 8.19165 13.292 8.2598C13.3607 8.32796 13.41 8.4132 13.4347 8.50673C13.4595 8.60027 13.4588 8.69872 13.4329 8.79193C13.4069 8.88514 13.3566 8.96974 13.287 9.037C12.8692 9.40693 12.5405 9.86659 12.3254 10.3816C12.1104 10.8965 12.0146 11.4534 12.0453 12.0107C12.076 12.5679 12.2323 13.1109 12.5026 13.5992C12.7729 14.0874 13.1501 14.5082 13.606 14.83C13.6825 14.8901 13.7415 14.9695 13.7769 15.06C13.8123 15.1506 13.8229 15.2489 13.8075 15.3449C13.7921 15.4409 13.7513 15.5311 13.6893 15.606C13.6273 15.6809 13.5464 15.7379 13.455 15.771Z" fill="#405462"/>
</g>
<defs>
<clipPath id="clip0_1336_6470">
<rect width="24" height="24" fill="white"/>
</clipPath>
</defs>
</svg>
