<svg width="24" height="24" viewBox="0 0 24 24" fill="none" xmlns="http://www.w3.org/2000/svg">
<g clip-path="url(#clip0_653_14759)">
<path d="M10.9994 22.9998C10.9994 22.802 11.0581 22.6087 11.1679 22.4442C11.2778 22.2798 11.434 22.1516 11.6167 22.0759C11.7994 22.0002 12.0005 21.9804 12.1945 22.019C12.3885 22.0576 12.5667 22.1529 12.7065 22.2927C12.8464 22.4326 12.9416 22.6107 12.9802 22.8047C13.0188 22.9987 12.999 23.1998 12.9233 23.3825C12.8476 23.5652 12.7194 23.7214 12.555 23.8313C12.3905 23.9412 12.1972 23.9998 11.9994 23.9998C11.7342 23.9998 11.4798 23.8945 11.2923 23.7069C11.1048 23.5194 10.9994 23.265 10.9994 22.9998ZM15.5344 20.8778C15.7219 20.6903 15.8272 20.436 15.8272 20.1708C15.8272 19.9057 15.7219 19.6513 15.5344 19.4638C14.5968 18.5265 13.3252 17.9999 11.9994 17.9999C10.6736 17.9999 9.40204 18.5265 8.4644 19.4638C8.28224 19.6524 8.18145 19.905 8.18373 20.1672C8.18601 20.4294 8.29118 20.6802 8.47658 20.8656C8.66199 21.051 8.9128 21.1562 9.175 21.1585C9.4372 21.1608 9.6898 21.06 9.8784 20.8778C10.4501 20.3329 11.2096 20.0289 11.9994 20.0289C12.7892 20.0289 13.5487 20.3329 14.1204 20.8778C14.3079 21.0653 14.5622 21.1706 14.8274 21.1706C15.0926 21.1706 15.3469 21.0653 15.5344 20.8778ZM18.3634 18.0498C18.5509 17.8623 18.6562 17.608 18.6562 17.3428C18.6562 17.0777 18.5509 16.8233 18.3634 16.6358C16.6743 14.9504 14.3856 14.0039 11.9994 14.0039C9.61325 14.0039 7.32453 14.9504 5.6354 16.6358C5.45324 16.8244 5.35245 17.077 5.35473 17.3392C5.35701 17.6014 5.46217 17.8522 5.64758 18.0376C5.83299 18.223 6.0838 18.3282 6.346 18.3305C6.6082 18.3328 6.8608 18.232 7.0494 18.0498C8.3636 16.7396 10.1437 16.0039 11.9994 16.0039C13.8552 16.0039 15.6352 16.7396 16.9494 18.0498C17.1369 18.2373 17.3912 18.3426 17.6564 18.3426C17.9216 18.3426 18.1759 18.2373 18.3634 18.0498ZM5.9864 22.1608C6.00755 22.0312 6.00296 21.8987 5.9729 21.7708C5.94283 21.643 5.88788 21.5223 5.81118 21.4157C5.73447 21.3091 5.63752 21.2187 5.52586 21.1495C5.4142 21.0804 5.29002 21.034 5.1604 21.0128C4.40476 20.8933 3.70261 20.549 3.1454 20.0248C2.58819 19.5006 2.20175 18.8208 2.0364 18.0738C1.9288 17.3596 2.04657 16.6295 2.37332 15.9854C2.70007 15.3412 3.21953 14.8149 3.8594 14.4798C4.32003 14.2271 4.66269 13.8032 4.81332 13.2998C4.96395 12.7965 4.91046 12.2541 4.6644 11.7898C4.27556 11.0493 4.04585 10.2356 3.99001 9.40108C3.93416 8.56654 4.05342 7.72953 4.34013 6.94379C4.62684 6.15806 5.07466 5.44094 5.65486 4.83848C6.23505 4.23601 6.9348 3.76151 7.70919 3.44543C8.48357 3.12934 9.31549 2.97866 10.1516 3.00304C10.9876 3.02743 11.8093 3.22635 12.564 3.58703C13.3186 3.94771 13.9895 4.46219 14.5336 5.09745C15.0777 5.73271 15.483 6.4747 15.7234 7.27582C15.8714 7.75852 16.1351 8.19778 16.4915 8.5554C16.8479 8.91301 17.2862 9.17817 17.7684 9.32782C19.0748 9.72551 20.2054 10.5589 20.9718 11.6891C21.7383 12.8193 22.0942 14.178 21.9804 15.5388C21.891 16.5607 21.5268 17.5394 20.9265 18.3712C20.3262 19.203 19.5121 19.857 18.5704 20.2638C18.3372 20.3814 18.1593 20.5855 18.0746 20.8326C17.9899 21.0796 18.0053 21.35 18.1173 21.5859C18.2294 21.8218 18.4293 22.0044 18.6743 22.0949C18.9193 22.1853 19.19 22.1763 19.4284 22.0698C20.6912 21.5164 21.7807 20.6315 22.5812 19.5089C23.3818 18.3864 23.8635 17.068 23.9754 15.6938C24.1264 13.8795 23.651 12.0682 22.6283 10.562C21.6056 9.05585 20.0975 7.94574 18.3554 7.41682C18.1839 7.36351 18.0282 7.2686 17.9022 7.14053C17.7762 7.01246 17.6839 6.85522 17.6334 6.68282C17.104 4.9829 16.0227 3.50816 14.5606 2.49211C13.0985 1.47606 11.3393 0.976765 9.56149 1.0733C7.78367 1.16982 6.08884 1.85666 4.74539 3.02504C3.40193 4.19342 2.48663 5.77657 2.1444 7.52382C1.79481 9.29171 2.0698 11.1261 2.9224 12.7138C1.91741 13.2393 1.10126 14.0651 0.587574 15.0761C0.0738831 16.0872 -0.11179 17.2333 0.056401 18.3548C0.284885 19.5229 0.865666 20.593 1.7206 21.4212C2.57554 22.2493 3.6636 22.7957 4.8384 22.9868C4.96802 23.008 5.10053 23.0034 5.22837 22.9733C5.35621 22.9432 5.47688 22.8883 5.58348 22.8116C5.69009 22.7349 5.78054 22.6379 5.84967 22.5263C5.9188 22.4146 5.96526 22.2904 5.9864 22.1608Z" fill="#405462"/>
</g>
<defs>
<clipPath id="clip0_653_14759">
<rect width="24" height="24" fill="white"/>
</clipPath>
</defs>
</svg>
