<svg width="24" height="24" viewBox="0 0 24 24" fill="none" xmlns="http://www.w3.org/2000/svg">
<g clip-path="url(#clip0_653_14583)">
<path d="M14.9982 24.0001C13.3177 23.9988 11.6561 23.6452 10.1208 22.9621C8.58536 22.279 7.21026 21.2815 6.0842 20.0341C4.94963 18.7852 4.09362 17.3093 3.57295 15.7044C3.05228 14.0995 2.87886 12.4022 3.0642 10.7251C3.363 8.1151 4.5016 5.67282 6.30856 3.76594C8.11553 1.85906 10.4931 0.590793 13.0832 0.152087C14.7576 -0.106538 16.4664 -0.0369114 18.1142 0.357087C18.5457 0.467946 18.9397 0.692091 19.2555 1.00633C19.5713 1.32056 19.7974 1.71348 19.9104 2.14441C20.0233 2.57534 20.0191 3.02864 19.8981 3.45739C19.7771 3.88615 19.5438 4.27478 19.2222 4.58309C14.6622 8.74909 15.0582 15.2271 20.0292 18.9931C20.3807 19.269 20.6518 19.634 20.8144 20.0502C20.9769 20.4664 21.025 20.9185 20.9535 21.3596C20.882 21.8006 20.6937 22.2145 20.408 22.558C20.1223 22.9016 19.7498 23.1623 19.3292 23.3131C17.931 23.7699 16.4691 24.0018 14.9982 24.0001ZM15.0742 2.00009C14.5127 1.99874 13.952 2.0412 13.3972 2.12709C11.2407 2.4918 9.26106 3.54713 7.75621 5.13422C6.25136 6.72131 5.30276 8.75427 5.0532 10.9271C4.8972 12.3271 5.04097 13.7443 5.47494 15.0845C5.90891 16.4247 6.62316 17.6572 7.5702 18.7001C8.95653 20.1798 10.7425 21.2253 12.7114 21.7099C14.6803 22.1945 16.7475 22.0973 18.6622 21.4301C18.7447 21.3992 18.8176 21.347 18.8735 21.2788C18.9294 21.2106 18.9662 21.1289 18.9803 21.0419C18.9945 20.9549 18.9853 20.8657 18.9539 20.7834C18.9224 20.7011 18.8697 20.6285 18.8012 20.5731C12.8722 16.0951 12.4012 8.08709 17.8532 3.12409C17.9158 3.066 17.9609 2.99162 17.9835 2.9093C18.0061 2.82698 18.0053 2.73998 17.9812 2.65809C17.9604 2.57117 17.9163 2.49159 17.8535 2.42796C17.7908 2.36433 17.7118 2.31908 17.6252 2.29709C16.79 2.09561 15.9334 1.99589 15.0742 2.00009Z" fill="#405462"/>
</g>
<defs>
<clipPath id="clip0_653_14583">
<rect width="24" height="24" fill="white"/>
</clipPath>
</defs>
</svg>
