<svg width="24" height="24" viewBox="0 0 24 24" fill="none" xmlns="http://www.w3.org/2000/svg">
<g clip-path="url(#clip0_653_14662)">
<path d="M23.9001 11.4375C23.5072 8.41297 21.9773 5.65148 19.6214 3.71439C17.2655 1.7773 14.2605 0.809959 11.217 1.009C8.17347 1.20803 5.31996 2.55851 3.23644 4.78593C1.15291 7.01335 -0.00428024 9.95055 7.4054e-05 13.0005C-0.00569035 14.6331 0.325132 16.2492 0.971889 17.7482C1.61865 19.2471 2.56745 20.5967 3.75907 21.7125C4.67041 22.5563 5.87123 23.0174 7.11307 23.0005H16.8801C18.192 23.0036 19.4525 22.4903 20.3891 21.5715C21.7238 20.273 22.7364 18.6803 23.346 16.9208C23.9556 15.1612 24.1453 13.2835 23.9001 11.4375V11.4375ZM18.9911 20.1375C18.4284 20.6919 17.6699 21.002 16.8801 21.0005H7.11307C6.38235 21.0156 5.67357 20.7504 5.13207 20.2595C4.13935 19.3297 3.3489 18.2052 2.81003 16.9563C2.27116 15.7073 1.99544 14.3608 2.00007 13.0005C2.00106 11.5928 2.29885 10.2011 2.87401 8.91615C3.44918 7.63125 4.28879 6.48205 5.33807 5.54355C7.16122 3.89945 9.53111 2.99292 11.9861 3.00055C12.3783 3.00071 12.7703 3.02275 13.1601 3.06655C15.0357 3.28438 16.8112 4.02911 18.281 5.21447C19.7508 6.39983 20.8547 7.97732 21.4649 9.76424C22.0751 11.5511 22.1666 13.4744 21.7287 15.3111C21.2909 17.1479 20.3417 18.823 18.9911 20.1425V20.1375ZM7.80707 17.2855C7.9967 17.4712 8.10482 17.7246 8.10763 17.9899C8.11044 18.2553 8.00773 18.5109 7.82207 18.7005C7.63642 18.8902 7.38304 18.9983 7.11768 19.0011C6.85232 19.0039 6.5967 18.9012 6.40707 18.7155C5.27203 17.6037 4.49377 16.1791 4.17148 14.6233C3.8492 13.0674 3.99749 11.4509 4.59746 9.97967C5.19743 8.50844 6.22189 7.24919 7.54027 6.36243C8.85865 5.47567 10.4112 5.00156 12.0001 5.00055C12.3825 5.00044 12.7645 5.02751 13.1431 5.08155C13.2731 5.10029 13.3982 5.14447 13.5111 5.21156C13.624 5.27866 13.7227 5.36734 13.8013 5.47256C13.88 5.57778 13.9371 5.69746 13.9695 5.82477C14.0019 5.95209 14.0089 6.08454 13.9901 6.21455C13.9729 6.34528 13.9297 6.47124 13.863 6.58503C13.7964 6.69883 13.7077 6.79815 13.6022 6.87716C13.4966 6.95617 13.3763 7.01327 13.2483 7.04511C13.1204 7.07695 12.9874 7.08288 12.8571 7.06255C11.6056 6.88379 10.3296 7.10491 9.21117 7.69435C8.09278 8.28379 7.18915 9.21144 6.62923 10.3449C6.06932 11.4784 5.88174 12.7597 6.09325 14.0061C6.30477 15.2525 6.90457 16.4003 7.80707 17.2855V17.2855ZM19.9191 11.8575C19.9731 12.2361 20.0002 12.6181 20.0001 13.0005C20.0033 14.0662 19.7918 15.1216 19.378 16.1037C18.9643 17.0858 18.3569 17.9744 17.5921 18.7165C17.4022 18.9022 17.1463 19.0048 16.8808 19.0018C16.6152 18.9988 16.3617 18.8904 16.1761 18.7005C15.9904 18.5107 15.8878 18.2548 15.8908 17.9892C15.8938 17.7237 16.0022 17.4702 16.1921 17.2845C16.8677 16.626 17.378 15.8169 17.6811 14.9234C17.9842 14.0298 18.0716 13.0773 17.9361 12.1435C17.8981 11.8809 17.9661 11.6138 18.1251 11.4013C18.284 11.1887 18.5209 11.048 18.7836 11.01C19.0463 10.9721 19.3133 11.0401 19.5258 11.199C19.7384 11.358 19.8791 11.5949 19.9171 11.8575H19.9191ZM13.9261 12.4885C14.0464 12.9213 14.0201 13.3817 13.8511 13.7979C13.6821 14.2141 13.3801 14.5626 12.9922 14.789C12.6043 15.0155 12.1523 15.107 11.7068 15.0495C11.2613 14.9919 10.8475 14.7884 10.5298 14.4708C10.2122 14.1532 10.0087 13.7393 9.95117 13.2938C9.89359 12.8484 9.98516 12.3964 10.2116 12.0084C10.438 11.6205 10.7865 11.3185 11.2027 11.1495C11.6189 10.9806 12.0793 10.9542 12.5121 11.0745L16.2931 7.29355C16.3853 7.19804 16.4957 7.12186 16.6177 7.06945C16.7397 7.01704 16.8709 6.98945 17.0037 6.9883C17.1365 6.98714 17.2681 7.01245 17.391 7.06273C17.5139 7.11301 17.6256 7.18726 17.7195 7.28115C17.8134 7.37505 17.8876 7.4867 17.9379 7.60959C17.9882 7.73249 18.0135 7.86417 18.0123 7.99695C18.0112 8.12973 17.9836 8.26095 17.9312 8.38295C17.8788 8.50496 17.8026 8.6153 17.7071 8.70755L13.9261 12.4885Z" fill="#405462"/>
</g>
<defs>
<clipPath id="clip0_653_14662">
<rect width="24" height="24" fill="white"/>
</clipPath>
</defs>
</svg>
