<svg width="24" height="24" viewBox="0 0 24 24" fill="none" xmlns="http://www.w3.org/2000/svg">
<g clip-path="url(#clip0_1296_6324)">
<path d="M21.9967 0H16.0103V1.99547H20.5859L13.7693 8.81208C10.0802 5.90208 4.73049 6.53372 1.82049 10.2229C-1.08951 13.912 -0.457818 19.2617 3.23134 22.1717C6.9205 25.0817 12.2702 24.45 15.1802 20.7609C17.6174 17.671 17.6174 13.3128 15.1802 10.2229L21.9967 3.40631V7.98197H23.9922V1.99547C23.9922 0.893391 23.0988 0 21.9967 0ZM8.52718 21.9504C4.94542 21.9504 2.04184 19.0468 2.04184 15.465C2.04184 11.8833 4.94542 8.9797 8.52718 8.9797C12.1089 8.9797 15.0125 11.8833 15.0125 15.465C15.0081 19.045 12.1071 21.946 8.52718 21.9504Z" fill="#405462"/>
</g>
<defs>
<clipPath id="clip0_1296_6324">
<rect width="24" height="24" fill="white"/>
</clipPath>
</defs>
</svg>
