<svg width="24" height="24" viewBox="0 0 24 24" fill="none" xmlns="http://www.w3.org/2000/svg">
<g clip-path="url(#clip0_1296_6438)">
<path d="M0 11.9999C0 11.7347 0.105357 11.4803 0.292893 11.2928C0.48043 11.1053 0.734784 10.9999 1 10.9999H7C7.26522 10.9999 7.51957 11.1053 7.70711 11.2928C7.89464 11.4803 8 11.7347 8 11.9999C8 12.2651 7.89464 12.5195 7.70711 12.707C7.51957 12.8946 7.26522 12.9999 7 12.9999H1C0.734784 12.9999 0.48043 12.8946 0.292893 12.707C0.105357 12.5195 0 12.2651 0 11.9999ZM20.886 11.1069C21.3845 10.4841 21.7263 9.75076 21.8829 8.96852C22.0395 8.18628 22.0063 7.3779 21.786 6.61116C21.5657 5.84442 21.1648 5.14166 20.6169 4.56183C20.069 3.98199 19.39 3.54197 18.637 3.27867C17.8839 3.01536 17.0787 2.93644 16.2889 3.04853C15.499 3.16062 14.7476 3.46045 14.0975 3.92287C13.4474 4.3853 12.9177 4.99684 12.5528 5.70623C12.1878 6.41561 11.9983 7.20216 12 7.99991C12 8.26513 12.1054 8.51948 12.2929 8.70702C12.4804 8.89456 12.7348 8.99991 13 8.99991C13.2652 8.99991 13.5196 8.89456 13.7071 8.70702C13.8946 8.51948 14 8.26513 14 7.99991C14 7.40657 14.1759 6.82655 14.5056 6.3332C14.8352 5.83986 15.3038 5.45534 15.8519 5.22828C16.4001 5.00121 17.0033 4.9418 17.5853 5.05756C18.1672 5.17331 18.7018 5.45904 19.1213 5.87859C19.5409 6.29815 19.8266 6.8327 19.9424 7.41464C20.0581 7.99659 19.9987 8.59979 19.7716 9.14796C19.5446 9.69614 19.1601 10.1647 18.6667 10.4943C18.1734 10.824 17.5933 10.9999 17 10.9999H11C10.7348 10.9999 10.4804 11.1053 10.2929 11.2928C10.1054 11.4803 10 11.7347 10 11.9999C10 12.2651 10.1054 12.5195 10.2929 12.707C10.4804 12.8946 10.7348 12.9999 11 12.9999H20C20.5304 12.9999 21.0391 13.2106 21.4142 13.5857C21.7893 13.9608 22 14.4695 22 14.9999C21.991 17.3369 18.719 17.6479 17.943 15.6669C17.8547 15.4168 17.6706 15.212 17.4313 15.0976C17.192 14.9832 16.9171 14.9686 16.667 15.0569C16.4169 15.1452 16.2121 15.3293 16.0977 15.5686C15.9833 15.8079 15.9687 16.0828 16.057 16.3329C17.615 20.4149 23.952 19.5789 24 14.9999C23.9983 14.0943 23.6893 13.2161 23.1236 12.509C22.558 11.8018 21.7691 11.3075 20.886 11.1069V11.1069ZM11 15.9999H1C0.734784 15.9999 0.48043 16.1053 0.292893 16.2928C0.105357 16.4803 0 16.7347 0 16.9999C0 17.2651 0.105357 17.5195 0.292893 17.707C0.48043 17.8946 0.734784 17.9999 1 17.9999H11C11.5304 17.9999 12.0391 18.2106 12.4142 18.5857C12.7893 18.9608 13 19.4695 13 19.9999C12.991 22.3369 9.719 22.6479 8.943 20.6669C8.89927 20.5431 8.83158 20.4291 8.74378 20.3314C8.65599 20.2337 8.54982 20.1543 8.43134 20.0976C8.31285 20.041 8.18436 20.0083 8.05322 20.0013C7.92207 19.9943 7.79084 20.0132 7.667 20.0569C7.54316 20.1006 7.42915 20.1683 7.33148 20.2561C7.2338 20.3439 7.15438 20.4501 7.09773 20.5686C7.04109 20.6871 7.00834 20.8156 7.00135 20.9467C6.99436 21.0778 7.01327 21.2091 7.057 21.3329C8.615 25.4149 14.952 24.5789 15 19.9999C15 18.939 14.5786 17.9216 13.8284 17.1715C13.0783 16.4213 12.0609 15.9999 11 15.9999V15.9999ZM1 7.99991H7C8.06087 7.99991 9.07828 7.57849 9.82843 6.82834C10.5786 6.0782 11 5.06078 11 3.99991C10.952 -0.581086 4.613 -1.41409 3.057 2.66691C2.96868 2.91701 2.98333 3.19195 3.09773 3.43125C3.21213 3.67055 3.4169 3.8546 3.667 3.94291C3.9171 4.03123 4.19204 4.01658 4.43133 3.90218C4.67063 3.78778 4.85468 3.58301 4.943 3.33291C5.72 1.35091 8.991 1.66291 9 3.99991C9 4.53035 8.78929 5.03905 8.41421 5.41413C8.03914 5.7892 7.53043 5.99991 7 5.99991H1C0.734784 5.99991 0.48043 6.10527 0.292893 6.29281C0.105357 6.48034 0 6.7347 0 6.99991C0 7.26513 0.105357 7.51948 0.292893 7.70702C0.48043 7.89456 0.734784 7.99991 1 7.99991V7.99991Z" fill="#405462"/>
</g>
<defs>
<clipPath id="clip0_1296_6438">
<rect width="24" height="24" fill="white"/>
</clipPath>
</defs>
</svg>
