<svg width="24" height="24" viewBox="0 0 24 24" fill="none" xmlns="http://www.w3.org/2000/svg">
<g clip-path="url(#clip0_1296_6359)">
<path d="M1.44467 6.66899C1.10983 6.76466 0.805771 6.94611 0.562584 7.19537C0.319396 7.44464 0.145508 7.75308 0.058126 8.09018C-0.0292559 8.42728 -0.027103 8.78136 0.0643716 9.11738C0.155846 9.45339 0.333472 9.75969 0.579673 10.006L3.99167 13.414V20H10.5847L14.0197 23.43C14.204 23.6159 14.4233 23.7636 14.665 23.8645C14.9066 23.9654 15.1658 24.0176 15.4277 24.018C15.5998 24.0176 15.7712 23.9955 15.9377 23.952C16.2746 23.8671 16.5833 23.695 16.8326 23.4529C17.0819 23.2108 17.263 22.9073 17.3577 22.573L23.9917 0.0209961L1.44467 6.66899ZM2.00067 8.59199L19.0287 3.57199L5.99367 16.586V12.586L2.00067 8.59199ZM15.4407 22.016L11.4137 18H7.41367L20.4467 4.97799L15.4407 22.016Z" fill="#405462"/>
</g>
<defs>
<clipPath id="clip0_1296_6359">
<rect width="24" height="24" fill="white"/>
</clipPath>
</defs>
</svg>
