<svg width="24" height="24" viewBox="0 0 24 24" fill="none" xmlns="http://www.w3.org/2000/svg">
<g clip-path="url(#clip0_1336_6540)">
<path d="M23.6992 0.306859C23.5117 0.119693 23.2576 0.0145717 22.9927 0.0145717C22.7278 0.0145717 22.4737 0.119693 22.2862 0.306859L10.0922 12.4939C9.23038 11.4632 8.51928 10.3154 7.98018 9.08486L9.13818 7.63086C9.68843 7.05528 9.9961 6.29004 9.9974 5.49376C9.9987 4.69748 9.69354 3.93123 9.14518 3.35386C9.14518 3.35386 7.29318 0.949859 7.26318 0.919859C6.69311 0.345597 5.91994 0.0187426 5.11082 0.00994779C4.30169 0.00115295 3.52161 0.311125 2.93918 0.872859L1.79018 1.87286C-2.22582 6.32086 1.15218 12.5869 5.33918 17.2439L0.299183 22.2799C0.124431 22.4697 0.0298396 22.7198 0.0351847 22.9778C0.0405298 23.2358 0.145398 23.4817 0.327863 23.6642C0.510329 23.8466 0.756266 23.9515 1.01426 23.9569C1.27225 23.9622 1.52232 23.8676 1.71218 23.6929L23.6992 1.71986C23.8863 1.53237 23.9915 1.27828 23.9915 1.01336C23.9915 0.748439 23.8863 0.494346 23.6992 0.306859V0.306859ZM2.00618 6.24486C1.99069 5.1622 2.40243 4.11705 3.15218 3.33586L4.30118 2.33586C4.50028 2.13811 4.76742 2.02393 5.04794 2.01668C5.32846 2.00943 5.60114 2.10966 5.81018 2.29686C5.81018 2.29686 7.65118 4.68586 7.68118 4.71586C7.8863 4.92102 8.00153 5.19925 8.00153 5.48936C8.00153 5.77947 7.8863 6.0577 7.68118 6.26286C7.65518 6.28886 6.04718 8.29986 6.04718 8.29986C5.9359 8.43837 5.86353 8.60402 5.83752 8.77978C5.81151 8.95554 5.83279 9.13506 5.89918 9.29986C6.56042 10.9811 7.49502 12.5415 8.66518 13.9179L6.75118 15.8329C3.80818 12.6739 2.00618 9.08686 2.00618 6.24486ZM23.0842 16.7329C23.6622 17.3138 23.9866 18.0999 23.9866 18.9194C23.9866 19.7388 23.6622 20.525 23.0842 21.1059L22.1742 22.1539C18.2992 25.6809 13.5992 23.6179 9.19918 20.6449C9.09413 20.5661 9.00562 20.4674 8.93871 20.3544C8.8718 20.2414 8.82781 20.1163 8.80923 19.9863C8.77173 19.7237 8.84005 19.457 8.99918 19.2449C9.15831 19.0327 9.39521 18.8924 9.65776 18.8549C9.92031 18.8174 10.187 18.8857 10.3992 19.0449C13.9082 21.3599 17.7312 23.3869 20.7192 20.7939L21.6302 19.7449C21.8446 19.5475 21.9735 19.2742 21.9894 18.9831C22.0053 18.6921 21.9069 18.4064 21.7152 18.1869C21.7152 18.1869 19.3232 16.3469 19.2932 16.3169C19.0872 16.1129 18.8091 15.9985 18.5192 15.9985C18.2293 15.9985 17.9512 16.1129 17.7452 16.3169C17.7182 16.3439 15.7022 17.9499 15.7022 17.9499C15.5686 18.0568 15.4097 18.1274 15.2408 18.1549C15.0719 18.1824 14.8988 18.1659 14.7382 18.1069C14.0815 17.8571 13.4427 17.5627 12.8262 17.2259C12.613 17.0914 12.4584 16.8815 12.3934 16.638C12.3284 16.3945 12.3577 16.1354 12.4755 15.9126C12.5932 15.6898 12.7908 15.5197 13.0287 15.4363C13.2665 15.3529 13.527 15.3624 13.7582 15.4629C14.1292 15.6629 14.5142 15.8539 14.9142 16.0239L16.3762 14.8609C16.9519 14.3105 17.7175 14.0028 18.514 14.0017C19.3105 14.0006 20.0769 14.3061 20.6542 14.8549C20.6542 14.8549 23.0532 16.6999 23.0842 16.7329Z" fill="#405462"/>
</g>
<defs>
<clipPath id="clip0_1336_6540">
<rect width="24" height="24" fill="white"/>
</clipPath>
</defs>
</svg>
