<svg width="24" height="24" viewBox="0 0 24 24" fill="none" xmlns="http://www.w3.org/2000/svg">
<g clip-path="url(#clip0_653_14654)">
<path d="M17.9954 2.28638C16.7748 1.19592 15.28 0.45896 13.6717 0.154808C12.0635 -0.149344 10.4028 -0.00917345 8.86825 0.560236C7.33375 1.12964 5.98357 2.10673 4.96302 3.38635C3.94248 4.66596 3.2902 6.19966 3.07639 7.82238C2.88437 9.24522 3.03794 10.6934 3.52411 12.0443C4.01028 13.3952 4.81473 14.6092 5.86939 15.5834C6.52159 16.1553 7.04787 16.8565 7.41488 17.6425C7.78188 18.4285 7.98161 19.2821 8.00139 20.1494V20.3104C8.00245 21.2887 8.39156 22.2267 9.08334 22.9184C9.77512 23.6102 10.7131 23.9993 11.6914 24.0004H12.3114C13.2897 23.9993 14.2277 23.6102 14.9194 22.9184C15.6112 22.2267 16.0003 21.2887 16.0014 20.3104V19.7614C16.0164 18.9948 16.1967 18.2406 16.5302 17.5502C16.8636 16.8598 17.3423 16.2496 17.9334 15.7614C18.892 14.9218 19.6612 13.8882 20.1902 12.7289C20.7191 11.5696 20.9957 10.3111 21.0015 9.03685C21.0074 7.7626 20.7424 6.50165 20.2242 5.33753C19.7059 4.17342 18.9462 3.13272 17.9954 2.28438V2.28638ZM12.3114 22.0004H11.6914C11.2433 21.9998 10.8138 21.8216 10.497 21.5048C10.1801 21.188 10.0019 20.7584 10.0014 20.3104C10.0014 20.3104 9.99439 20.0504 9.99339 20.0004H14.0014V20.3104C14.0009 20.7584 13.8226 21.188 13.5058 21.5048C13.189 21.8216 12.7594 21.9998 12.3114 22.0004ZM16.6114 14.2594C15.4728 15.2469 14.6506 16.5481 14.2474 18.0004H13.0014V10.8164C13.5843 10.6103 14.0893 10.2291 14.4473 9.72508C14.8053 9.22101 14.9988 8.61864 15.0014 8.00038C15.0014 7.73516 14.896 7.48081 14.7085 7.29327C14.521 7.10573 14.2666 7.00038 14.0014 7.00038C13.7362 7.00038 13.4818 7.10573 13.2943 7.29327C13.1068 7.48081 13.0014 7.73516 13.0014 8.00038C13.0014 8.26559 12.896 8.51995 12.7085 8.70748C12.521 8.89502 12.2666 9.00038 12.0014 9.00038C11.7362 9.00038 11.4818 8.89502 11.2943 8.70748C11.1068 8.51995 11.0014 8.26559 11.0014 8.00038C11.0014 7.73516 10.896 7.48081 10.7085 7.29327C10.521 7.10573 10.2666 7.00038 10.0014 7.00038C9.73618 7.00038 9.48182 7.10573 9.29429 7.29327C9.10675 7.48081 9.00139 7.73516 9.00139 8.00038C9.00396 8.61864 9.19748 9.22101 9.55548 9.72508C9.91348 10.2291 10.4185 10.6103 11.0014 10.8164V18.0004H9.67939C9.22838 16.5096 8.38251 15.1686 7.23139 14.1194C6.25435 13.209 5.55812 12.0381 5.22486 10.7449C4.89161 9.45165 4.93524 8.09009 5.3506 6.82087C5.76597 5.55165 6.53573 4.42773 7.56906 3.58174C8.60239 2.73575 9.85615 2.20301 11.1824 2.04638C11.4573 2.01569 11.7338 2.00033 12.0104 2.00038C13.728 1.99527 15.3861 2.629 16.6624 3.77838C17.4021 4.43797 17.9931 5.24726 18.3963 6.1526C18.7995 7.05794 19.0057 8.03864 19.0012 9.0297C18.9966 10.0208 18.7815 10.9995 18.37 11.9011C17.9585 12.8027 17.3601 13.6066 16.6144 14.2594H16.6114Z" fill="#405462"/>
</g>
<defs>
<clipPath id="clip0_653_14654">
<rect width="24" height="24" fill="white"/>
</clipPath>
</defs>
</svg>
