<svg width="24" height="24" viewBox="0 0 24 24" fill="none" xmlns="http://www.w3.org/2000/svg">
<g clip-path="url(#clip0_1296_6434)">
<path d="M10.0009 17.0001C9.81992 16.9999 9.64239 16.9507 9.48722 16.8576C9.33206 16.7645 9.20506 16.631 9.11977 16.4714C9.03448 16.3118 8.99409 16.1321 9.00292 15.9513C9.01174 15.7706 9.06945 15.5956 9.16988 15.4451L13.1699 9.4451C13.3171 9.22444 13.5459 9.07129 13.806 9.01935C14.0661 8.9674 14.3362 9.02091 14.5569 9.1681C14.7775 9.3153 14.9307 9.54412 14.9826 9.80423C15.0346 10.0643 14.9811 10.3344 14.8339 10.5551L10.8339 16.5551C10.7424 16.6922 10.6185 16.8045 10.4732 16.8821C10.3279 16.9598 10.1656 17.0003 10.0009 17.0001ZM19.7799 20.7781C26.6379 13.4421 21.2989 6.2571 15.2149 1.1781C14.3192 0.413023 13.1799 -0.00732422 12.0019 -0.00732422C10.8239 -0.00732422 9.68458 0.413023 8.78888 1.1781C2.70688 6.2311 -2.62912 13.4911 4.22288 20.7781C6.28576 22.8409 9.08358 23.9998 12.0009 23.9998C14.9182 23.9998 17.716 22.8409 19.7789 20.7781H19.7799ZM13.9199 2.7001C18.7009 6.7771 24.4309 12.9661 18.3649 19.3641C16.6715 21.0415 14.3844 21.9825 12.0009 21.9825C9.61737 21.9825 7.33024 21.0415 5.63688 19.3641C-0.434123 12.9641 5.31188 6.7641 10.0819 2.7021C10.6171 2.24579 11.2975 1.99515 12.0009 1.99515C12.7043 1.99515 13.3846 2.24579 13.9199 2.7021V2.7001ZM8.00088 10.0001C8.00088 10.2653 8.10623 10.5197 8.29377 10.7072C8.48131 10.8947 8.73566 11.0001 9.00088 11.0001C9.26609 11.0001 9.52045 10.8947 9.70798 10.7072C9.89552 10.5197 10.0009 10.2653 10.0009 10.0001C10.0009 9.73489 9.89552 9.48053 9.70798 9.293C9.52045 9.10546 9.26609 9.0001 9.00088 9.0001C8.73566 9.0001 8.48131 9.10546 8.29377 9.293C8.10623 9.48053 8.00088 9.73489 8.00088 10.0001ZM14.0009 16.0001C14.0009 16.2653 14.1062 16.5197 14.2938 16.7072C14.4813 16.8947 14.7357 17.0001 15.0009 17.0001C15.2661 17.0001 15.5204 16.8947 15.708 16.7072C15.8955 16.5197 16.0009 16.2653 16.0009 16.0001C16.0009 15.7349 15.8955 15.4805 15.708 15.293C15.5204 15.1055 15.2661 15.0001 15.0009 15.0001C14.7357 15.0001 14.4813 15.1055 14.2938 15.293C14.1062 15.4805 14.0009 15.7349 14.0009 16.0001Z" fill="#405462"/>
</g>
<defs>
<clipPath id="clip0_1296_6434">
<rect width="24" height="24" fill="white"/>
</clipPath>
</defs>
</svg>
