<svg width="24" height="24" viewBox="0 0 24 24" fill="none" xmlns="http://www.w3.org/2000/svg">
<g clip-path="url(#clip0_653_14755)">
<path d="M22.9 8.95601C22.2246 8.61373 21.4133 8.68507 20.808 9.13999L18.975 10.501C18.7151 7.94763 16.5666 6.00424 14 6.00101H13.915L9.79303 1.87999C9.23208 1.3151 8.46816 0.998507 7.67203 1.00099H0.999984C0.447703 1.00099 0 1.44874 0 2.00102C0 2.5533 0.447703 3.00101 0.999984 3.00101H7.67198C7.93706 3.00171 8.19112 3.10699 8.379 3.29402L11.086 6.00101H5.00002C2.23997 6.00434 0.00332813 8.24098 0 11.001V19.001C0.00332813 21.761 2.23997 23.9977 5.00002 24.001H14C16.5666 23.9978 18.7151 22.0544 18.975 19.501L20.805 20.865C21.6886 21.5277 22.9423 21.3487 23.605 20.465C23.8646 20.1189 24.005 19.6978 24.005 19.265V10.744C24.0076 9.98609 23.5791 9.29266 22.9 8.95601ZM17 19.001C17 20.6578 15.6569 22.001 14 22.001H5.00002C3.34317 22.001 2.00002 20.6578 2.00002 19.001V11.001C2.00002 9.34418 3.34317 8.00102 5.00002 8.00102H14C15.6569 8.00102 17 9.34418 17 11.001V19.001ZM22 19.258L19 17.022V12.98L22 10.7441V19.258Z" fill="#405462"/>
</g>
<defs>
<clipPath id="clip0_653_14755">
<rect width="24" height="24" fill="white"/>
</clipPath>
</defs>
</svg>
