<svg width="24" height="24" viewBox="0 0 24 24" fill="none" xmlns="http://www.w3.org/2000/svg">
<g clip-path="url(#clip0_1336_6514)">
<path d="M22.9 8.95503C22.2246 8.61275 21.4133 8.68409 20.808 9.13902L18.975 10.5C18.7151 7.94666 16.5666 6.00327 14 6.00003H13.915L9.79303 1.87901C9.23208 1.31412 8.46816 0.99753 7.67203 1.00001H0.999984C0.447703 1.00001 0 1.44776 0 2.00005C0 2.55233 0.447703 3.00003 0.999984 3.00003H7.67198C7.93706 3.00073 8.19112 3.10601 8.379 3.29305L11.086 6.00003H5.00002C2.23997 6.00336 0.00332813 8.24 0 11V19.0001C0.00332813 21.7601 2.23997 23.9968 5.00002 24H14C16.5666 23.9968 18.7151 22.0534 18.975 19.5L20.805 20.864C21.6886 21.5268 22.9423 21.3477 23.605 20.4641C23.8646 20.1179 24.005 19.6968 24.005 19.2641V10.743C24.0076 9.98511 23.5791 9.29169 22.9 8.95503ZM17 19C17 20.6569 15.6569 22 14 22H5.00002C3.34317 22 2.00002 20.6569 2.00002 19V11C2.00002 9.3432 3.34317 8.00005 5.00002 8.00005H14C15.6569 8.00005 17 9.3432 17 11V19ZM22 19.257L19 17.021V12.9791L22 10.7431V19.257Z" fill="#405462"/>
</g>
<defs>
<clipPath id="clip0_1336_6514">
<rect width="24" height="24" fill="white"/>
</clipPath>
</defs>
</svg>
