<svg width="24" height="24" viewBox="0 0 24 24" fill="none" xmlns="http://www.w3.org/2000/svg">
<path d="M21.4979 0.00976562H16.0149V3.00053H18.885L14.2274 7.65812C10.178 4.77648 4.55919 5.72312 1.6775 9.77256C-1.20418 13.822 -0.257497 19.4408 3.79194 22.3225C7.84138 25.2041 13.4601 24.2575 16.3418 20.208C18.5645 17.0846 18.5645 12.896 16.3418 9.77261L20.9994 5.11502V7.98512H23.9902V2.50206C23.9902 1.12562 22.8744 0.00976562 21.4979 0.00976562ZM9.03646 20.945C5.73294 20.945 3.05497 18.267 3.05497 14.9635C3.05497 11.6601 5.73299 8.98206 9.03646 8.98206C12.3399 8.98206 15.0179 11.6601 15.0179 14.9635C15.0147 18.2657 12.3386 20.9417 9.03646 20.945Z" fill="#405462"/>
</svg>
