<svg width="24" height="24" viewBox="0 0 24 24" fill="none" xmlns="http://www.w3.org/2000/svg">
<g clip-path="url(#clip0_1336_6482)">
<path d="M1.77062 6.21489C1.2518 6.36168 0.796441 6.67665 0.476066 7.11034C0.155692 7.54402 -0.0115471 8.07184 0.000619884 8.61089C0.0231931 9.25999 0.30012 9.87419 0.77162 10.3209L4.00062 13.5479V19.9999H10.4486L13.7136 23.2669C13.9367 23.4926 14.2024 23.6719 14.4952 23.7943C14.788 23.9167 15.1022 23.9797 15.4196 23.9799C15.6282 23.9798 15.8359 23.9529 16.0376 23.8999C16.4489 23.796 16.8253 23.585 17.1285 23.2883C17.4317 22.9916 17.6509 22.6198 17.7636 22.2109L24.0006 -0.0161133L1.77062 6.21489ZM3.53362 8.85589L16.7426 5.15589L7.00062 14.8999V12.3259L3.53362 8.85589ZM15.1336 20.4559L11.6756 16.9999H9.10062L18.8346 7.25889L15.1336 20.4559Z" fill="#405462"/>
</g>
<defs>
<clipPath id="clip0_1336_6482">
<rect width="24" height="24" fill="white"/>
</clipPath>
</defs>
</svg>
