<svg width="24" height="24" viewBox="0 0 24 24" fill="none" xmlns="http://www.w3.org/2000/svg">
<g clip-path="url(#clip0_1336_6461)">
<path d="M24.001 11.246C23.856 8.9064 23.0295 6.66035 21.6235 4.78472C20.2175 2.90909 18.2933 1.48589 16.0883 0.690534C13.8832 -0.104819 11.4936 -0.237551 9.21403 0.308699C6.93445 0.854949 4.86454 2.0563 3.25944 3.76467C1.65434 5.47304 0.584225 7.61376 0.180997 9.92293C-0.222232 12.2321 0.059056 14.6088 0.990185 16.76C1.92132 18.9113 3.46159 20.7431 5.42113 22.0295C7.38068 23.316 9.67384 24.001 12.018 24H18.501C19.9591 23.9982 21.3569 23.4181 22.388 22.3871C23.419 21.356 23.9991 19.9582 24.001 18.5V11.34V11.246ZM21.001 18.5C21.001 19.1631 20.7376 19.799 20.2687 20.2678C19.7999 20.7366 19.164 21 18.501 21H12.018C10.7474 20.9993 9.49132 20.7307 8.33154 20.2119C7.17176 19.6931 6.13435 18.9357 5.28696 17.989C4.43581 17.0431 3.79676 15.9261 3.41267 14.7129C3.02858 13.4997 2.90832 12.2185 3.05996 10.955C3.29922 8.96321 4.19438 7.1076 5.6044 5.68056C7.01442 4.25352 8.85915 3.33617 10.848 3.07303C11.2371 3.02447 11.6288 3.00009 12.021 3.00003C14.1171 2.99403 16.1486 3.72535 17.76 5.06603C18.6993 5.84634 19.4708 6.80893 20.0279 7.89568C20.5849 8.98243 20.9159 10.1708 21.001 11.389V18.5Z" fill="#405462"/>
<path d="M9.5 11H12.5C12.8978 11 13.2794 10.842 13.5607 10.5607C13.842 10.2794 14 9.89782 14 9.5C14 9.10218 13.842 8.72064 13.5607 8.43934C13.2794 8.15804 12.8978 8 12.5 8H9.5C9.10218 8 8.72064 8.15804 8.43934 8.43934C8.15804 8.72064 8 9.10218 8 9.5C8 9.89782 8.15804 10.2794 8.43934 10.5607C8.72064 10.842 9.10218 11 9.5 11Z" fill="#405462"/>
<path d="M16.5 13H9.5C9.10218 13 8.72064 13.158 8.43934 13.4393C8.15804 13.7206 8 14.1022 8 14.5C8 14.8978 8.15804 15.2794 8.43934 15.5607C8.72064 15.842 9.10218 16 9.5 16H16.5C16.8978 16 17.2794 15.842 17.5607 15.5607C17.842 15.2794 18 14.8978 18 14.5C18 14.1022 17.842 13.7206 17.5607 13.4393C17.2794 13.158 16.8978 13 16.5 13Z" fill="#405462"/>
</g>
<defs>
<clipPath id="clip0_1336_6461">
<rect width="24" height="24" fill="white"/>
</clipPath>
</defs>
</svg>
