<svg width="24" height="24" viewBox="0 0 24 24" fill="none" xmlns="http://www.w3.org/2000/svg">
<path d="M17.92 1.50508C17.9196 1.90277 17.7614 2.28404 17.48 2.56508L9.80797 10.2371C9.57575 10.4692 9.39155 10.7449 9.26587 11.0482C9.14019 11.3516 9.0755 11.6767 9.0755 12.0051C9.0755 12.3334 9.14019 12.6586 9.26587 12.9619C9.39155 13.2653 9.57575 13.5409 9.80797 13.7731L17.47 21.4351C17.7432 21.718 17.8944 22.0969 17.891 22.4902C17.8876 22.8835 17.7298 23.2597 17.4517 23.5378C17.1736 23.8159 16.7974 23.9737 16.4041 23.9771C16.0108 23.9805 15.6319 23.8293 15.349 23.5561L7.68697 15.9001C6.65673 14.8678 6.07812 13.469 6.07812 12.0106C6.07812 10.5522 6.65673 9.15334 7.68697 8.12108L15.359 0.444075C15.5688 0.234159 15.8361 0.0911886 16.1271 0.0332545C16.4182 -0.0246796 16.7199 0.00502652 16.9941 0.118614C17.2683 0.232201 17.5026 0.424565 17.6674 0.671364C17.8322 0.918163 17.9201 1.2083 17.92 1.50508V1.50508Z" fill="#405462"/>
</svg>
