<svg width="24" height="24" viewBox="0 0 24 24" fill="none" xmlns="http://www.w3.org/2000/svg">
<g clip-path="url(#clip0_1296_6383)">
<path d="M23.863 6.88049L0 6.99149V6.00049C0.00158786 4.67489 0.528882 3.40405 1.46622 2.46671C2.40356 1.52937 3.6744 1.00208 5 1.00049H7.528C7.9934 1.00087 8.45239 1.10903 8.869 1.31649L12.025 2.90049C12.1645 2.96731 12.3173 3.00151 12.472 3.00049H19C20.1297 3.00274 21.2254 3.38749 22.1084 4.09206C22.9915 4.79663 23.6099 5.77949 23.863 6.88049V6.88049ZM24 8.88049V18.0005C23.9984 19.3261 23.4711 20.5969 22.5338 21.5343C21.5964 22.4716 20.3256 22.9989 19 23.0005H5C3.6744 22.9989 2.40356 22.4716 1.46622 21.5343C0.528882 20.5969 0.00158786 19.3261 0 18.0005L0 8.99149L24 8.88049ZM16 16.0005C16 15.7353 15.8946 15.4809 15.7071 15.2934C15.5196 15.1058 15.2652 15.0005 15 15.0005H13V13.0005C13 12.7353 12.8946 12.4809 12.7071 12.2934C12.5196 12.1058 12.2652 12.0005 12 12.0005C11.7348 12.0005 11.4804 12.1058 11.2929 12.2934C11.1054 12.4809 11 12.7353 11 13.0005V15.0005H9C8.73478 15.0005 8.48043 15.1058 8.29289 15.2934C8.10536 15.4809 8 15.7353 8 16.0005C8 16.2657 8.10536 16.5201 8.29289 16.7076C8.48043 16.8951 8.73478 17.0005 9 17.0005H11V19.0005C11 19.2657 11.1054 19.5201 11.2929 19.7076C11.4804 19.8951 11.7348 20.0005 12 20.0005C12.2652 20.0005 12.5196 19.8951 12.7071 19.7076C12.8946 19.5201 13 19.2657 13 19.0005V17.0005H15C15.2652 17.0005 15.5196 16.8951 15.7071 16.7076C15.8946 16.5201 16 16.2657 16 16.0005Z" fill="#405462"/>
</g>
<defs>
<clipPath id="clip0_1296_6383">
<rect width="24" height="24" fill="white"/>
</clipPath>
</defs>
</svg>
