<svg width="24" height="24" viewBox="0 0 24 24" fill="none" xmlns="http://www.w3.org/2000/svg">
<g clip-path="url(#clip0_1303_6322)">
<path d="M16.5 14.0005C16.5 14.3983 16.342 14.7798 16.0607 15.0611C15.7794 15.3425 15.3978 15.5005 15 15.5005H13.5V17.0005C13.5 17.3983 13.342 17.7798 13.0607 18.0611C12.7794 18.3425 12.3978 18.5005 12 18.5005C11.6022 18.5005 11.2206 18.3425 10.9393 18.0611C10.658 17.7798 10.5 17.3983 10.5 17.0005V15.5005H9C8.60218 15.5005 8.22064 15.3425 7.93934 15.0611C7.65804 14.7798 7.5 14.3983 7.5 14.0005C7.5 13.6027 7.65804 13.2211 7.93934 12.9398C8.22064 12.6585 8.60218 12.5005 9 12.5005H10.5V11.0005C10.5 10.6027 10.658 10.2211 10.9393 9.93983C11.2206 9.65852 11.6022 9.50049 12 9.50049C12.3978 9.50049 12.7794 9.65852 13.0607 9.93983C13.342 10.2211 13.5 10.6027 13.5 11.0005V12.5005H15C15.3978 12.5005 15.7794 12.6585 16.0607 12.9398C16.342 13.2211 16.5 13.6027 16.5 14.0005V14.0005ZM24 8.50049V17.5005C23.9984 18.9587 23.4184 20.3567 22.3873 21.3878C21.3562 22.4189 19.9582 22.9989 18.5 23.0005H5.5C4.0418 22.9989 2.64377 22.4189 1.61267 21.3878C0.581561 20.3567 0.00158817 18.9587 0 17.5005L0 6.50049C0.00158817 5.04229 0.581561 3.64426 1.61267 2.61316C2.64377 1.58205 4.0418 1.00208 5.5 1.00049H8C8.2329 1.00035 8.46263 1.05444 8.671 1.15849L12.354 3.00049H18.5C19.9582 3.00208 21.3562 3.58205 22.3873 4.61316C23.4184 5.64426 23.9984 7.04229 24 8.50049ZM21 8.50049C20.9998 8.33253 20.9828 8.16502 20.949 8.00049H3V17.5005C3 18.1635 3.26339 18.7994 3.73223 19.2683C4.20107 19.7371 4.83696 20.0005 5.5 20.0005H18.5C19.163 20.0005 19.7989 19.7371 20.2678 19.2683C20.7366 18.7994 21 18.1635 21 17.5005V8.50049Z" fill="#405462"/>
</g>
<defs>
<clipPath id="clip0_1303_6322">
<rect width="24" height="24" fill="white"/>
</clipPath>
</defs>
</svg>
