<svg width="24" height="24" viewBox="0 0 24 24" fill="none" xmlns="http://www.w3.org/2000/svg">
<g clip-path="url(#clip0_1336_6506)">
<path d="M19 16.9998C19.0016 18.1483 18.7206 19.2796 18.1818 20.2939C17.6429 21.3082 16.8627 22.1743 15.91 22.8159C14.9574 23.4575 13.8615 23.8547 12.719 23.9727C11.5765 24.0907 10.4225 23.9257 9.35887 23.4924C8.2952 23.059 7.35451 22.3706 6.61976 21.4878C5.885 20.605 5.37875 19.555 5.14566 18.4303C4.91257 17.3057 4.9598 16.1409 5.28319 15.0388C5.60657 13.9367 6.19617 12.9312 6.99999 12.1108V4.99976C7.21099 -1.60924 16.791 -1.60024 17 4.99976V12.1108C18.2789 13.4171 18.9966 15.1716 19 16.9998ZM15 16.9998C14.9999 16.3795 14.8075 15.7744 14.4494 15.268C14.0912 14.7615 13.5848 14.3785 13 14.1718V7.99976C13 7.73455 12.8946 7.48019 12.7071 7.29266C12.5196 7.10512 12.2652 6.99976 12 6.99976C11.7348 6.99976 11.4804 7.10512 11.2929 7.29266C11.1054 7.48019 11 7.73455 11 7.99976V14.1718C10.4814 14.3551 10.0233 14.6775 9.67555 15.1036C9.32783 15.5298 9.10397 16.0433 9.02843 16.5881C8.95288 17.1329 9.02856 17.688 9.2472 18.1927C9.46584 18.6974 9.81901 19.1323 10.2681 19.4498C10.7172 19.7673 11.245 19.9553 11.7937 19.9931C12.3424 20.0309 12.891 19.9172 13.3794 19.6643C13.8678 19.4114 14.2773 19.0291 14.5631 18.5591C14.8489 18.0892 15.0001 17.5498 15 16.9998V16.9998Z" fill="#405462"/>
</g>
<defs>
<clipPath id="clip0_1336_6506">
<rect width="24" height="24" fill="white"/>
</clipPath>
</defs>
</svg>
