<svg width="24" height="24" viewBox="0 0 24 24" fill="none" xmlns="http://www.w3.org/2000/svg">
<g clip-path="url(#clip0_1296_6354)">
<path d="M23.7068 1.71059L1.70685 23.7106C1.61374 23.8034 1.50326 23.877 1.38171 23.9272C1.26016 23.9773 1.12992 24.003 0.998431 24.0028C0.732879 24.0025 0.478353 23.8966 0.290845 23.7086C0.103337 23.5205 -0.0017933 23.2657 -0.00141822 23.0002C-0.00104315 22.7346 0.104806 22.4801 0.292845 22.2926L5.33584 17.2516C1.14684 12.5936 -2.23615 6.31659 1.78385 1.86759L2.93385 0.867586C3.51596 0.304961 4.29613 -0.00594114 5.10566 0.00210552C5.91519 0.0101522 6.68903 0.336501 7.25985 0.910586C7.29085 0.940586 9.14384 3.34759 9.14384 3.34759C9.69338 3.92516 9.99927 4.69225 9.99797 5.48949C9.99666 6.28672 9.68827 7.05281 9.13684 7.62859L7.53685 9.52859C8.07635 10.7592 8.78777 11.9069 9.64984 12.9376L22.2928 0.299586C22.4829 0.127021 22.732 0.0341462 22.9886 0.0401905C23.2453 0.0462349 23.4897 0.150735 23.6714 0.332056C23.8532 0.513377 23.9582 0.757629 23.9648 1.01424C23.9714 1.27086 23.879 1.52018 23.7068 1.71059V1.71059ZM20.6558 14.8576C20.0784 14.3079 19.3114 14.0018 18.5141 14.003C17.7169 14.0041 16.9508 14.3123 16.3748 14.8636L14.4688 16.4696C14.0688 16.2996 13.6838 16.1106 13.3118 15.9076C13.1248 15.8081 12.9107 15.7717 12.7013 15.8037C12.4919 15.8358 12.2985 15.9347 12.1498 16.0856L9.08884 19.1466C8.98682 19.2474 8.90768 19.369 8.8568 19.5032C8.80593 19.6373 8.78451 19.7808 8.79399 19.9239C8.80348 20.0671 8.84365 20.2065 8.91178 20.3327C8.97991 20.459 9.0744 20.5691 9.18884 20.6556C13.5968 23.6316 18.2998 25.6976 22.1788 22.1656L23.0888 21.1176C23.6681 20.5365 23.9933 19.7495 23.9933 18.9291C23.9933 18.1086 23.6681 17.3217 23.0888 16.7406C23.0618 16.7086 20.6558 14.8576 20.6558 14.8576Z" fill="#405462"/>
</g>
<defs>
<clipPath id="clip0_1296_6354">
<rect width="24" height="24" fill="white"/>
</clipPath>
</defs>
</svg>
