<svg width="24" height="24" viewBox="0 0 24 24" fill="none" xmlns="http://www.w3.org/2000/svg">
<path d="M12 20.9997C8.1358 20.9953 5.00441 17.8638 5 13.9997V4.9997C5 4.79968 5.01298 4.59971 5.03 4.40771C3.194 5.19643 2.003 7.00145 2 8.99968V18.9996C2.00328 21.7597 4.23992 23.9964 6.99997 23.9997H13C14.9982 23.9967 16.8032 22.8056 17.592 20.9697C17.392 20.9867 17.2 20.9997 17 20.9997H12Z" fill="#405462"/>
<path d="M21.155 3.27231L18.871 0.913324C18.6195 0.658652 18.3246 0.451043 18 0.300293V4.00028H21.66C21.5288 3.73389 21.3586 3.4885 21.155 3.27231Z" fill="#405462"/>
<path d="M17 3.99982C17 4.55211 17.4477 4.99981 18 4.99981H21.966C21.8923 4.3505 21.6074 3.74332 21.155 3.27181L18.871 0.912824C18.3714 0.406387 17.7085 0.0932148 17 0.0288086V3.99982Z" fill="#405462"/>
<path d="M15 3.99998V0H12C9.23997 0.00332813 7.00333 2.23997 7 5.00002V14C7.00333 16.7601 9.23997 18.9967 12 19H17C19.7601 18.9967 21.9967 16.7601 22 14V6.99998H18C16.3432 6.99998 15 5.65688 15 3.99998Z" fill="#405462"/>
</svg>
