<svg width="24" height="24" viewBox="0 0 24 24" fill="none" xmlns="http://www.w3.org/2000/svg">
<g clip-path="url(#clip0_653_14595)">
<path d="M10 11.9994C10 12.2646 9.89464 12.5189 9.70711 12.7065C9.51957 12.894 9.26522 12.9994 9 12.9994H4.069C4.31113 14.9321 5.25065 16.7098 6.71105 17.9987C8.17145 19.2875 10.0522 19.9988 12 19.9988C13.9478 19.9988 15.8286 19.2875 17.289 17.9987C18.7493 16.7098 19.6889 14.9321 19.931 12.9994H15C14.7348 12.9994 14.4804 12.894 14.2929 12.7065C14.1054 12.5189 14 12.2646 14 11.9994C14 11.7342 14.1054 11.4798 14.2929 11.2923C14.4804 11.1047 14.7348 10.9994 15 10.9994H20V8.99938H15C14.7348 8.99938 14.4804 8.89402 14.2929 8.70648C14.1054 8.51895 14 8.26459 14 7.99938C14 7.73416 14.1054 7.47981 14.2929 7.29227C14.4804 7.10473 14.7348 6.99938 15 6.99938H19.931C19.6889 5.06669 18.7493 3.28893 17.289 2.00008C15.8286 0.711234 13.9478 0 12 0C10.0522 0 8.17145 0.711234 6.71105 2.00008C5.25065 3.28893 4.31113 5.06669 4.069 6.99938H9C9.26522 6.99938 9.51957 7.10473 9.70711 7.29227C9.89464 7.47981 10 7.73416 10 7.99938C10 8.26459 9.89464 8.51895 9.70711 8.70648C9.51957 8.89402 9.26522 8.99938 9 8.99938H4V10.9994H9C9.26522 10.9994 9.51957 11.1047 9.70711 11.2923C9.89464 11.4798 10 11.7342 10 11.9994Z" fill="#405462"/>
<path d="M23 12C22.7348 12 22.4804 12.1054 22.2929 12.2929C22.1054 12.4804 22 12.7348 22 13C21.9974 15.3861 21.0483 17.6738 19.361 19.361C17.6738 21.0483 15.3861 21.9974 13 22H11C8.61395 21.9971 6.32645 21.0479 4.63925 19.3607C2.95206 17.6735 2.00291 15.3861 2 13C2 12.7348 1.89464 12.4804 1.70711 12.2929C1.51957 12.1054 1.26522 12 1 12C0.734784 12 0.48043 12.1054 0.292893 12.2929C0.105357 12.4804 0 12.7348 0 13C0.00344047 15.9163 1.16347 18.7122 3.22563 20.7744C5.28778 22.8365 8.08367 23.9966 11 24H13C15.9163 23.9966 18.7122 22.8365 20.7744 20.7744C22.8365 18.7122 23.9966 15.9163 24 13C24 12.7348 23.8946 12.4804 23.7071 12.2929C23.5196 12.1054 23.2652 12 23 12Z" fill="#405462"/>
</g>
<defs>
<clipPath id="clip0_653_14595">
<rect width="24" height="24" fill="white"/>
</clipPath>
</defs>
</svg>
