<svg width="24" height="24" viewBox="0 0 24 24" fill="none" xmlns="http://www.w3.org/2000/svg">
<path d="M22.4994 17.9999C22.3023 17.9999 22.1072 17.961 21.9251 17.8855C21.7431 17.81 21.5777 17.6994 21.4384 17.5599L13.7674 9.88893C13.5353 9.65672 13.2596 9.47251 12.9563 9.34683C12.6529 9.22115 12.3278 9.15647 11.9994 9.15647C11.6711 9.15647 11.3459 9.22115 11.0426 9.34683C10.7392 9.47251 10.4636 9.65672 10.2314 9.88893L2.56941 17.5509C2.28651 17.8242 1.9076 17.9754 1.51431 17.9719C1.12101 17.9685 0.744796 17.8108 0.466684 17.5327C0.188571 17.2545 0.0308181 16.8783 0.0274005 16.485C0.0239828 16.0917 0.175174 15.7128 0.448412 15.4299L8.11041 7.76794C9.1425 6.73776 10.5412 6.15918 11.9994 6.15918C13.4577 6.15918 14.8563 6.73776 15.8884 7.76794L23.5604 15.4399C23.77 15.6498 23.9127 15.917 23.9704 16.2079C24.0281 16.4988 23.9983 16.8003 23.8848 17.0742C23.7712 17.3482 23.579 17.5824 23.3325 17.7471C23.0859 17.9119 22.796 17.9999 22.4994 17.9999Z" fill="#405462"/>
</svg>
