<svg width="24" height="24" viewBox="0 0 24 24" fill="none" xmlns="http://www.w3.org/2000/svg">
<g clip-path="url(#clip0_653_14537)">
<path d="M11.1231 12.5366C10.8445 12.2578 10.5137 12.0367 10.1496 11.8858C9.78545 11.7349 9.39519 11.6572 9.00106 11.6572C8.60693 11.6572 8.21667 11.7349 7.85257 11.8858C7.48847 12.0367 7.15766 12.2578 6.87906 12.5366L0.0390625 19.3766C0.131523 20.6307 0.693971 21.8037 1.61393 22.6609C2.5339 23.5182 3.74357 23.9967 5.00106 24.0006H19.0011C19.9808 24.0004 20.9386 23.7106 21.7541 23.1676L11.1231 12.5366Z" fill="#405462"/>
<path d="M18 7.99999C19.1046 7.99999 20 7.10456 20 6C20 4.89543 19.1046 4 18 4C16.8954 4 16 4.89543 16 6C16 7.10456 16.8954 7.99999 18 7.99999Z" fill="#405462"/>
<path d="M19 0H5C3.67441 0.00158786 2.40356 0.528882 1.46622 1.46622C0.528882 2.40356 0.00158786 3.67441 0 5L0 16.586L5.464 11.122C5.92831 10.6576 6.47956 10.2892 7.08628 10.0378C7.69299 9.78644 8.34328 9.65707 9 9.65707C9.65672 9.65707 10.307 9.78644 10.9137 10.0378C11.5204 10.2892 12.0717 10.6576 12.536 11.122L23.167 21.753C23.71 20.9375 23.9998 19.9797 24 19V5C23.9984 3.67441 23.4711 2.40356 22.5338 1.46622C21.5964 0.528882 20.3256 0.00158786 19 0V0ZM18 10C17.2089 10 16.4355 9.7654 15.7777 9.32588C15.1199 8.88635 14.6072 8.26164 14.3045 7.53073C14.0017 6.79983 13.9225 5.99556 14.0769 5.21964C14.2312 4.44372 14.6122 3.73098 15.1716 3.17157C15.731 2.61216 16.4437 2.2312 17.2196 2.07686C17.9956 1.92252 18.7998 2.00173 19.5307 2.30448C20.2616 2.60723 20.8864 3.11992 21.3259 3.77772C21.7654 4.43552 22 5.20888 22 6C22 7.06087 21.5786 8.07828 20.8284 8.82843C20.0783 9.57857 19.0609 10 18 10Z" fill="#405462"/>
</g>
<defs>
<clipPath id="clip0_653_14537">
<rect width="24" height="24" fill="white"/>
</clipPath>
</defs>
</svg>
