<svg width="24" height="24" viewBox="0 0 24 24" fill="none" xmlns="http://www.w3.org/2000/svg">
<g clip-path="url(#clip0_653_14513)">
<path d="M23.863 6.88L0 6.991V6C0.00158786 4.67441 0.528882 3.40356 1.46622 2.46622C2.40356 1.52888 3.67441 1.00159 5 1H7.528C7.9934 1.00039 8.45239 1.10855 8.869 1.316L12.025 2.9C12.1645 2.96682 12.3173 3.00102 12.472 3H19C20.1297 3.00225 21.2254 3.387 22.1084 4.09157C22.9915 4.79614 23.6099 5.779 23.863 6.88ZM24 8.88V18C23.9984 19.3256 23.4711 20.5964 22.5338 21.5338C21.5964 22.4711 20.3256 22.9984 19 23H5C3.67441 22.9984 2.40356 22.4711 1.46622 21.5338C0.528882 20.5964 0.00158786 19.3256 0 18L0 8.991L24 8.88ZM16 16C16 15.7348 15.8946 15.4804 15.7071 15.2929C15.5196 15.1054 15.2652 15 15 15H13V13C13 12.7348 12.8946 12.4804 12.7071 12.2929C12.5196 12.1054 12.2652 12 12 12C11.7348 12 11.4804 12.1054 11.2929 12.2929C11.1054 12.4804 11 12.7348 11 13V15H9C8.73478 15 8.48043 15.1054 8.29289 15.2929C8.10536 15.4804 8 15.7348 8 16C8 16.2652 8.10536 16.5196 8.29289 16.7071C8.48043 16.8946 8.73478 17 9 17H11V19C11 19.2652 11.1054 19.5196 11.2929 19.7071C11.4804 19.8946 11.7348 20 12 20C12.2652 20 12.5196 19.8946 12.7071 19.7071C12.8946 19.5196 13 19.2652 13 19V17H15C15.2652 17 15.5196 16.8946 15.7071 16.7071C15.8946 16.5196 16 16.2652 16 16Z" fill="#405462"/>
</g>
<defs>
<clipPath id="clip0_653_14513">
<rect width="24" height="24" fill="white"/>
</clipPath>
</defs>
</svg>
