<svg width="24" height="24" viewBox="0 0 24 24" fill="none" xmlns="http://www.w3.org/2000/svg">
<g clip-path="url(#clip0_1336_6555)">
<path d="M15.0006 24C13.2497 24.0012 11.5197 23.6193 9.93201 22.8809C8.34435 22.1426 6.9375 21.0658 5.81019 19.726C4.68287 18.3862 3.86241 16.816 3.40636 15.1255C2.95032 13.435 2.86974 11.6651 3.1703 9.94018C3.47085 8.21522 4.14525 6.57694 5.14616 5.14028C6.14708 3.70363 7.45026 2.50342 8.96426 1.62387C10.4783 0.744322 12.1664 0.206751 13.9102 0.0488784C15.654 -0.108994 17.4113 0.116658 19.0586 0.709999C19.552 0.887023 19.9888 1.19316 20.3236 1.59649C20.6584 1.99982 20.8789 2.48558 20.962 3.00311C21.0451 3.52064 20.9879 4.05101 20.7963 4.5389C20.6047 5.02679 20.2857 5.45435 19.8726 5.777C14.7726 9.697 14.7846 14.316 19.8726 18.223C20.2857 18.5458 20.6046 18.9735 20.796 19.4615C20.9875 19.9495 21.0445 20.48 20.9612 20.9975C20.8778 21.5151 20.6572 22.0008 20.3222 22.404C19.9872 22.8072 19.5501 23.1132 19.0566 23.29C17.7546 23.7548 16.3831 23.9949 15.0006 24V24ZM15.0006 3C13.6924 2.99855 12.3996 3.28233 11.2122 3.83156C10.0249 4.38079 8.97154 5.18227 8.12558 6.18017C7.27962 7.17806 6.66138 8.34839 6.31392 9.60963C5.96646 10.8709 5.89814 12.1927 6.11371 13.483C6.32928 14.7734 6.82357 16.0012 7.56214 17.081C8.30071 18.1608 9.2658 19.0666 10.3902 19.7353C11.5146 20.4041 12.7713 20.8196 14.0727 20.9531C15.3741 21.0865 16.6889 20.9346 17.9256 20.508C11.4146 15.443 11.4366 8.539 17.9256 3.492C16.9831 3.17294 15.9956 3.00684 15.0006 3V3Z" fill="#405462"/>
</g>
<defs>
<clipPath id="clip0_1336_6555">
<rect width="24" height="24" fill="white"/>
</clipPath>
</defs>
</svg>
