<svg width="24" height="24" viewBox="0 0 24 24" fill="none" xmlns="http://www.w3.org/2000/svg">
<g clip-path="url(#clip0_1296_6475)">
<path d="M19 14C18.2696 14.0027 17.5488 14.1664 16.8889 14.4794C16.229 14.7924 15.6462 15.2471 15.182 15.811L9.782 13.373C9.91937 12.928 9.99277 12.4657 10 12C9.99352 11.5393 9.9225 11.0819 9.789 10.641L15.183 8.19098C15.9398 9.08168 16.9863 9.67728 18.1386 9.87319C19.2909 10.0691 20.4754 9.85277 21.484 9.26222C22.4927 8.67167 23.2611 7.74464 23.6542 6.64391C24.0474 5.54319 24.0402 4.33914 23.6339 3.2432C23.2276 2.14726 22.4481 1.22949 21.4325 0.651056C20.4168 0.0726209 19.2298 -0.129501 18.08 0.0801824C16.9301 0.289866 15.8909 0.897949 15.1447 1.79765C14.3986 2.69736 13.9933 3.83116 14 4.99997C14 5.14197 14.03 5.27597 14.042 5.41497L8.1 8.11198C7.224 7.39813 6.13001 7.0057 5 6.99997C3.67392 6.99997 2.40215 7.52676 1.46447 8.46444C0.526784 9.40212 0 10.6739 0 12C0 13.3261 0.526784 14.5978 1.46447 15.5355C2.40215 16.4732 3.67392 17 5 17C6.12512 16.9954 7.21506 16.6074 8.09 15.9L14.042 18.587C14.03 18.726 14 18.859 14 19C14 19.9889 14.2932 20.9556 14.8427 21.7778C15.3921 22.6001 16.173 23.2409 17.0866 23.6194C18.0002 23.9978 19.0055 24.0968 19.9755 23.9039C20.9454 23.711 21.8363 23.2348 22.5355 22.5355C23.2348 21.8362 23.711 20.9453 23.9039 19.9754C24.0969 19.0055 23.9978 18.0002 23.6194 17.0866C23.241 16.1729 22.6001 15.392 21.7779 14.8426C20.9556 14.2932 19.9889 14 19 14V14ZM19 2.99997C19.3956 2.99997 19.7822 3.11727 20.1111 3.33704C20.44 3.5568 20.6964 3.86916 20.8478 4.23461C20.9991 4.60006 21.0387 5.00219 20.9616 5.39016C20.8844 5.77812 20.6939 6.13448 20.4142 6.41419C20.1345 6.69389 19.7781 6.88438 19.3902 6.96155C19.0022 7.03872 18.6001 6.99911 18.2346 6.84773C17.8692 6.69636 17.5568 6.44001 17.3371 6.11111C17.1173 5.78222 17 5.39554 17 4.99997C17 4.46954 17.2107 3.96083 17.5858 3.58576C17.9609 3.21069 18.4696 2.99997 19 2.99997V2.99997ZM5 14C4.60444 14 4.21776 13.8827 3.88886 13.6629C3.55996 13.4432 3.30362 13.1308 3.15224 12.7653C3.00087 12.3999 2.96126 11.9978 3.03843 11.6098C3.1156 11.2218 3.30608 10.8655 3.58579 10.5858C3.86549 10.3061 4.22186 10.1156 4.60982 10.0384C4.99778 9.96123 5.39992 10.0008 5.76537 10.1522C6.13082 10.3036 6.44318 10.5599 6.66294 10.8888C6.8827 11.2177 7 11.6044 7 12C7 12.5304 6.78929 13.0391 6.41421 13.4142C6.03914 13.7893 5.53043 14 5 14ZM19 21C18.6044 21 18.2178 20.8827 17.8889 20.6629C17.56 20.4432 17.3036 20.1308 17.1522 19.7653C17.0009 19.3999 16.9613 18.9978 17.0384 18.6098C17.1156 18.2218 17.3061 17.8655 17.5858 17.5858C17.8655 17.3061 18.2219 17.1156 18.6098 17.0384C18.9978 16.9612 19.3999 17.0008 19.7654 17.1522C20.1308 17.3036 20.4432 17.5599 20.6629 17.8888C20.8827 18.2177 21 18.6044 21 19C21 19.5304 20.7893 20.0391 20.4142 20.4142C20.0391 20.7893 19.5304 21 19 21Z" fill="#405462"/>
</g>
<defs>
<clipPath id="clip0_1296_6475">
<rect width="24" height="24" fill="white"/>
</clipPath>
</defs>
</svg>
