<svg width="24" height="24" viewBox="0 0 24 24" fill="none" xmlns="http://www.w3.org/2000/svg">
<g clip-path="url(#clip0_1335_6443)">
<path d="M17 17.4995C17 17.8974 16.842 18.2789 16.5607 18.5602C16.2794 18.8415 15.8978 18.9995 15.5 18.9995H8.5C8.10218 18.9995 7.72064 18.8415 7.43934 18.5602C7.15804 18.2789 7 17.8974 7 17.4995C7 17.1017 7.15804 16.7202 7.43934 16.4389C7.72064 16.1576 8.10218 15.9995 8.5 15.9995H15.5C15.8978 15.9995 16.2794 16.1576 16.5607 16.4389C16.842 16.7202 17 17.1017 17 17.4995V17.4995ZM22 7.15653V18.4995C21.9984 19.9577 21.4184 21.3558 20.3873 22.3869C19.3562 23.418 17.9582 23.9979 16.5 23.9995H7.5C6.0418 23.9979 4.64377 23.418 3.61267 22.3869C2.58156 21.3558 2.00159 19.9577 2 18.4995V5.49953C2.00159 4.04133 2.58156 2.6433 3.61267 1.6122C4.64377 0.581092 6.0418 0.00111979 7.5 -0.00046838H14.843C15.5656 -0.00241845 16.2813 0.138962 16.9489 0.415491C17.6164 0.692019 18.2225 1.0982 18.732 1.61053L20.389 3.26753C20.9013 3.77705 21.3075 4.38312 21.584 5.05067C21.8606 5.71821 22.002 6.43398 22 7.15653V7.15653ZM18.985 6.99953H17C16.4696 6.99953 15.9609 6.78882 15.5858 6.41375C15.2107 6.03867 15 5.52996 15 4.99953V3.01553C14.947 3.01153 7.5 2.99953 7.5 2.99953C6.83696 2.99953 6.20107 3.26292 5.73223 3.73176C5.26339 4.20061 5 4.83649 5 5.49953V18.4995C5 19.1626 5.26339 19.7985 5.73223 20.2673C6.20107 20.7361 6.83696 20.9995 7.5 20.9995H16.5C17.163 20.9995 17.7989 20.7361 18.2678 20.2673C18.7366 19.7985 19 19.1626 19 18.4995C19 18.4995 18.988 7.05253 18.985 6.99953ZM14.5 8.99953H9.5C8.83696 8.99953 8.20107 9.26292 7.73223 9.73176C7.26339 10.2006 7 10.8365 7 11.4995C7 12.1626 7.26339 12.7985 7.73223 13.2673C8.20107 13.7361 8.83696 13.9995 9.5 13.9995H14.5C15.163 13.9995 15.7989 13.7361 16.2678 13.2673C16.7366 12.7985 17 12.1626 17 11.4995C17 10.8365 16.7366 10.2006 16.2678 9.73176C15.7989 9.26292 15.163 8.99953 14.5 8.99953V8.99953Z" fill="#405462"/>
</g>
<defs>
<clipPath id="clip0_1335_6443">
<rect width="24" height="24" fill="white"/>
</clipPath>
</defs>
</svg>
