<svg width="24" height="24" viewBox="0 0 24 24" fill="none" xmlns="http://www.w3.org/2000/svg">
<path d="M19.7384 5.10616L16.0004 1.64016C14.9344 0.601857 13.5066 0.0183332 12.0185 0.012736C10.5304 0.00713868 9.09825 0.579906 8.02441 1.61016L4.22041 5.14716C3.19512 6.16891 2.38111 7.3826 1.82487 8.71894C1.26862 10.0553 0.981039 11.4881 0.978532 12.9356C0.976025 14.383 1.25864 15.8168 1.81025 17.1551C2.36187 18.4934 3.17166 19.7099 4.19341 20.7352C5.21516 21.7605 6.42886 22.5745 7.76519 23.1307C9.10153 23.6869 10.5343 23.9745 11.9818 23.977C13.4293 23.9795 14.8631 23.6969 16.2014 23.1453C17.5396 22.5937 18.7561 21.7839 19.7814 20.7622C21.8446 18.6765 22.9983 15.859 22.9902 12.9253C22.9822 9.9916 21.813 7.18041 19.7384 5.10616V5.10616ZM17.6544 18.6462C16.1498 20.1518 14.1088 20.9981 11.9802 20.9988C9.8517 20.9996 7.81005 20.1547 6.30441 18.6502C4.79878 17.1456 3.9525 15.1045 3.95175 12.976C3.951 10.8475 4.79584 8.8058 6.30041 7.30016L10.1004 3.77516C10.6138 3.27295 11.305 2.99423 12.0231 2.99985C12.7412 3.00547 13.428 3.29498 13.9334 3.80516L17.6554 7.25916C19.1575 8.77345 20.0002 10.82 20 12.9529C19.9998 15.0858 19.1567 17.1321 17.6544 18.6462ZM15.7214 10.3722L10.7214 17.3722C10.6069 17.5325 10.4619 17.6687 10.2948 17.773C10.1276 17.8774 9.94155 17.9477 9.74719 17.9801C9.55284 18.0125 9.35401 18.0064 9.16205 17.9619C8.97009 17.9175 8.78876 17.8357 8.62841 17.7212C8.46807 17.6066 8.33185 17.4617 8.22753 17.2945C8.12322 17.1274 8.05285 16.9413 8.02044 16.7469C7.95499 16.3544 8.04815 15.952 8.27941 15.6282L13.2794 8.62816C13.3939 8.46782 13.5389 8.3316 13.7061 8.22728C13.8732 8.12297 14.0593 8.05259 14.2536 8.02019C14.448 7.98778 14.6468 7.99397 14.8388 8.0384C15.0307 8.08284 15.2121 8.16465 15.3724 8.27916C15.5328 8.39367 15.669 8.53865 15.7733 8.7058C15.8776 8.87296 15.948 9.05903 15.9804 9.25338C16.0128 9.44773 16.0066 9.64657 15.9622 9.83853C15.9177 10.0305 15.8359 10.2118 15.7214 10.3722V10.3722ZM10.0004 9.50016C10.0004 9.10234 9.84238 8.72081 9.56107 8.4395C9.27977 8.1582 8.89824 8.00016 8.50041 8.00016C8.10259 8.00016 7.72106 8.1582 7.43975 8.4395C7.15845 8.72081 7.00041 9.10234 7.00041 9.50016C7.00041 9.89799 7.15845 10.2795 7.43975 10.5608C7.72106 10.8421 8.10259 11.0002 8.50041 11.0002C8.89824 11.0002 9.27977 10.8421 9.56107 10.5608C9.84238 10.2795 10.0004 9.89799 10.0004 9.50016ZM15.5004 15.0002C15.1026 15.0002 14.7211 15.1582 14.4398 15.4395C14.1584 15.7208 14.0004 16.1023 14.0004 16.5002C14.0004 16.898 14.1584 17.2795 14.4398 17.5608C14.7211 17.8421 15.1026 18.0002 15.5004 18.0002C15.8982 18.0002 16.2798 17.8421 16.5611 17.5608C16.8424 17.2795 17.0004 16.898 17.0004 16.5002C17.0004 16.1023 16.8424 15.7208 16.5611 15.4395C16.2798 15.1582 15.8982 15.0002 15.5004 15.0002V15.0002Z" fill="#405462"/>
</svg>
