<svg width="24" height="24" viewBox="0 0 24 24" fill="none" xmlns="http://www.w3.org/2000/svg">
<g clip-path="url(#clip0_653_14584)">
<path d="M14.9982 24.0001C13.3177 23.9988 11.6561 23.6452 10.1208 22.9621C8.58536 22.279 7.21026 21.2815 6.0842 20.0341C4.94963 18.7852 4.09362 17.3093 3.57295 15.7044C3.05228 14.0995 2.87886 12.4022 3.0642 10.7251C3.363 8.1151 4.5016 5.67282 6.30856 3.76594C8.11553 1.85906 10.4931 0.590793 13.0832 0.152087C14.7576 -0.106538 16.4664 -0.0369114 18.1142 0.357087C18.5457 0.467946 18.9397 0.692091 19.2555 1.00633C19.5713 1.32056 19.7974 1.71348 19.9104 2.14441C20.0233 2.57534 20.0191 3.02864 19.8981 3.45739C19.7771 3.88615 19.5438 4.27478 19.2222 4.58309C14.6622 8.74909 15.0582 15.2271 20.0292 18.9931C20.3807 19.269 20.6518 19.634 20.8144 20.0502C20.9769 20.4664 21.025 20.9185 20.9535 21.3596C20.882 21.8006 20.6937 22.2145 20.408 22.558C20.1223 22.9016 19.7498 23.1623 19.3292 23.3131C17.931 23.7699 16.4691 24.0018 14.9982 24.0001Z" fill="#405462"/>
</g>
<defs>
<clipPath id="clip0_653_14584">
<rect width="24" height="24" fill="white"/>
</clipPath>
</defs>
</svg>
