<svg width="24" height="24" viewBox="0 0 24 24" fill="none" xmlns="http://www.w3.org/2000/svg">
<g clip-path="url(#clip0_653_14781)">
<path d="M22.7922 1.60947L13.2622 13.9995H18.0002C18.2655 13.9995 18.5198 14.1048 18.7073 14.2924C18.8949 14.4799 19.0002 14.7343 19.0002 14.9995C19.0002 15.2647 18.8949 15.519 18.7073 15.7066C18.5198 15.8941 18.2655 15.9995 18.0002 15.9995H13.0002V17.9995H18.0002C18.2655 17.9995 18.5198 18.1048 18.7073 18.2924C18.8949 18.4799 19.0002 18.7343 19.0002 18.9995C19.0002 19.2647 18.8949 19.519 18.7073 19.7066C18.5198 19.8941 18.2655 19.9995 18.0002 19.9995H13.0002V22.9995C13.0002 23.2647 12.8949 23.519 12.7073 23.7066C12.5198 23.8941 12.2655 23.9995 12.0002 23.9995C11.735 23.9995 11.4807 23.8941 11.2931 23.7066C11.1056 23.519 11.0002 23.2647 11.0002 22.9995V19.9995H6.00024C5.73502 19.9995 5.48067 19.8941 5.29313 19.7066C5.1056 19.519 5.00024 19.2647 5.00024 18.9995C5.00024 18.7343 5.1056 18.4799 5.29313 18.2924C5.48067 18.1048 5.73502 17.9995 6.00024 17.9995H11.0002V15.9995H6.00024C5.73502 15.9995 5.48067 15.8941 5.29313 15.7066C5.1056 15.519 5.00024 15.2647 5.00024 14.9995C5.00024 14.7343 5.1056 14.4799 5.29313 14.2924C5.48067 14.1048 5.73502 13.9995 6.00024 13.9995H10.7382L1.20824 1.60947C1.05433 1.39887 0.988812 1.13646 1.02565 0.878222C1.06249 0.619987 1.19878 0.386369 1.40543 0.2272C1.61209 0.0680312 1.87277 -0.0040873 2.13185 0.0262282C2.39093 0.0565438 2.62791 0.186894 2.79224 0.389472L12.0002 12.3595L21.2082 0.389472C21.287 0.281731 21.3865 0.190837 21.5009 0.122148C21.6153 0.0534582 21.7423 0.0083617 21.8744 -0.0104846C22.0065 -0.0293309 22.141 -0.0215459 22.2701 0.0124119C22.3992 0.0463697 22.5201 0.105813 22.6258 0.18724C22.7315 0.268667 22.8199 0.370431 22.8857 0.486534C22.9515 0.602638 22.9933 0.730734 23.0089 0.863274C23.0244 0.995814 23.0132 1.13012 22.976 1.25827C22.9388 1.38643 22.8763 1.50584 22.7922 1.60947Z" fill="#405462"/>
</g>
<defs>
<clipPath id="clip0_653_14781">
<rect width="24" height="24" fill="white"/>
</clipPath>
</defs>
</svg>
