<svg width="24" height="24" viewBox="0 0 24 24" fill="none" xmlns="http://www.w3.org/2000/svg">
<g clip-path="url(#clip0_653_14487)">
<path d="M20.492 7.96968L10.954 0.975679C10.209 0.430164 9.32755 0.101591 8.40727 0.0263818C7.48699 -0.0488277 6.56385 0.132264 5.74019 0.549583C4.91653 0.966902 4.22451 1.60415 3.74085 2.39069C3.25718 3.17722 3.00076 4.08233 3.00001 5.00568V19.0007C2.99857 19.9249 3.25365 20.8315 3.73686 21.6193C4.22006 22.4072 4.91243 23.0455 5.7369 23.4633C6.56137 23.881 7.48559 24.0617 8.40668 23.9854C9.32777 23.909 10.2096 23.5785 10.954 23.0307L20.492 16.0367C21.1249 15.5722 21.6395 14.9653 21.9942 14.265C22.349 13.5647 22.5338 12.7907 22.5338 12.0057C22.5338 11.2207 22.349 10.4467 21.9942 9.74637C21.6395 9.04607 21.1249 8.43913 20.492 7.97468V7.96968Z" fill="#405462"/>
</g>
<defs>
<clipPath id="clip0_653_14487">
<rect width="24" height="24" fill="white"/>
</clipPath>
</defs>
</svg>
