<svg width="24" height="24" viewBox="0 0 24 24" fill="none" xmlns="http://www.w3.org/2000/svg">
<g clip-path="url(#clip0_653_14655)">
<path d="M5.86939 15.5828C4.81473 14.6086 4.01028 13.3947 3.52411 12.0438C3.03794 10.6928 2.88437 9.24465 3.07639 7.82181C3.26626 6.37907 3.80313 5.00388 4.64098 3.81412C5.47884 2.62435 6.59269 1.65549 7.88707 0.990577C9.18145 0.325661 10.6178 -0.0154801 12.0729 -0.00360659C13.528 0.00826692 14.9586 0.372801 16.2419 1.05875C17.5253 1.7447 18.6232 2.73161 19.4415 3.93489C20.2598 5.13817 20.7742 6.52193 20.9405 7.96757C21.1068 9.41322 20.9201 10.8776 20.3963 12.2353C19.8726 13.5929 19.0275 14.8034 17.9334 15.7628C17.2289 16.3685 16.6819 17.1361 16.3394 17.9998H13.0014V10.8158C13.5843 10.6097 14.0893 10.2286 14.4473 9.72451C14.8053 9.22044 14.9988 8.61807 15.0014 7.99981C15.0014 7.73459 14.896 7.48024 14.7085 7.2927C14.521 7.10516 14.2666 6.99981 14.0014 6.99981C13.7362 6.99981 13.4818 7.10516 13.2943 7.2927C13.1068 7.48024 13.0014 7.73459 13.0014 7.99981C13.0014 8.26502 12.896 8.51938 12.7085 8.70691C12.521 8.89445 12.2666 8.99981 12.0014 8.99981C11.7362 8.99981 11.4818 8.89445 11.2943 8.70691C11.1068 8.51938 11.0014 8.26502 11.0014 7.99981C11.0014 7.73459 10.896 7.48024 10.7085 7.2927C10.521 7.10516 10.2666 6.99981 10.0014 6.99981C9.73618 6.99981 9.48182 7.10516 9.29429 7.2927C9.10675 7.48024 9.00139 7.73459 9.00139 7.99981C9.00396 8.61807 9.19748 9.22044 9.55548 9.72451C9.91348 10.2286 10.4185 10.6097 11.0014 10.8158V17.9998H7.56439C7.18209 17.0804 6.60362 16.2555 5.86939 15.5828ZM8.00139 19.9998V20.3098C8.00245 21.2881 8.39156 22.2261 9.08334 22.9179C9.77512 23.6096 10.7131 23.9987 11.6914 23.9998H12.3114C13.2897 23.9987 14.2277 23.6096 14.9194 22.9179C15.6112 22.2261 16.0003 21.2881 16.0014 20.3098V19.9998H8.00139Z" fill="#405462"/>
</g>
<defs>
<clipPath id="clip0_653_14655">
<rect width="24" height="24" fill="white"/>
</clipPath>
</defs>
</svg>
