<svg width="24" height="24" viewBox="0 0 24 24" fill="none" xmlns="http://www.w3.org/2000/svg">
<g clip-path="url(#clip0_653_14780)">
<path d="M10 16.9998H7.329C6.93472 17.0011 6.54411 16.924 6.17985 16.7731C5.81558 16.6222 5.4849 16.4005 5.207 16.1208L0.052 10.9658C0.023 11.3078 0 11.6508 0 11.9998C0.0043918 15.0071 1.13694 17.9033 3.17374 20.1158C5.21054 22.3283 8.00334 23.6961 11 23.9488V17.9998C11 17.7346 10.8946 17.4802 10.7071 17.2927C10.5196 17.1052 10.2652 16.9998 10 16.9998Z" fill="#405462"/>
<path d="M20.436 3.47852L18.646 5.26852C18.1763 5.73561 17.5414 5.99863 16.879 6.00052H15.5C15.3674 6.00052 15.2402 6.05319 15.1464 6.14696C15.0527 6.24073 15 6.36791 15 6.50052V7.50052C15 8.16356 14.7366 8.79944 14.2678 9.26828C13.7989 9.73712 13.163 10.0005 12.5 10.0005C12.3674 10.0005 12.2402 10.0532 12.1464 10.147C12.0527 10.2407 12 10.3679 12 10.5005V11.0005C12 11.2657 12.1054 11.5201 12.2929 11.7076C12.4804 11.8952 12.7348 12.0005 13 12.0005H16C16.7956 12.0005 17.5587 12.3166 18.1213 12.8792C18.6839 13.4418 19 14.2049 19 15.0005V15.9625C19 16.0949 19.0525 16.2218 19.146 16.3155L21.771 18.9415C23.4258 16.6272 24.2005 13.7983 23.9558 10.9638C23.7111 8.12921 22.463 5.47499 20.436 3.47852Z" fill="#405462"/>
<path d="M17 15.9625V15.0005C17 14.7353 16.8946 14.4809 16.7071 14.2934C16.5196 14.1059 16.2652 14.0005 16 14.0005H13C12.2044 14.0005 11.4413 13.6844 10.8787 13.1218C10.3161 12.5592 10 11.7962 10 11.0005V10.5005C10 9.83747 10.2634 9.20158 10.7322 8.73274C11.2011 8.2639 11.837 8.00051 12.5 8.00051C12.6326 8.00051 12.7598 7.94783 12.8536 7.85406C12.9473 7.76029 13 7.63312 13 7.50051V6.50051C13 5.83747 13.2634 5.20158 13.7322 4.73274C14.2011 4.2639 14.837 4.00051 15.5 4.00051H16.879C17.0112 3.99973 17.1379 3.94734 17.232 3.85451L18.893 2.19351C17.3379 1.09518 15.5434 0.383482 13.6582 0.117466C11.7731 -0.14855 9.85166 0.0387804 8.05339 0.663917C6.25512 1.28905 4.63183 2.33398 3.31819 3.71199C2.00456 5.09001 1.03844 6.7614 0.5 8.58751L6.62 14.7075C6.71308 14.8006 6.82362 14.8744 6.94529 14.9247C7.06695 14.975 7.19735 15.0007 7.329 15.0005H10C10.7957 15.0005 11.5587 15.3166 12.1213 15.8792C12.6839 16.4418 13 17.2049 13 18.0005V23.9495C15.8267 23.7169 18.4788 22.4874 20.483 20.4805L17.732 17.7295C17.2649 17.2598 17.0019 16.6249 17 15.9625Z" fill="#405462"/>
</g>
<defs>
<clipPath id="clip0_653_14780">
<rect width="24" height="24" fill="white"/>
</clipPath>
</defs>
</svg>
