<svg width="24" height="24" viewBox="0 0 24 24" fill="none" xmlns="http://www.w3.org/2000/svg">
<g clip-path="url(#clip0_1463_6354)">
<path d="M22.2 2.16267C21.6299 1.68703 20.9611 1.34431 20.242 1.15941C19.523 0.9745 18.7718 0.952043 18.043 1.09367L16.279 1.52567C15.3584 1.69436 14.5262 2.1805 13.9271 2.89949C13.3279 3.61847 12.9999 4.52478 13 5.46067V20.9277C12.3369 21.0247 11.6631 21.0247 11 20.9277V5.46067C11.0033 4.53341 10.6828 3.63408 10.0939 2.91787C9.50493 2.20167 8.68444 1.71352 7.774 1.53767L5.9 1.08167C5.17916 0.949761 4.43813 0.977917 3.72938 1.16414C3.02062 1.35037 2.36147 1.69011 1.79857 2.15932C1.23567 2.62853 0.782786 3.21574 0.471982 3.87937C0.161178 4.54301 4.88125e-05 5.26686 0 5.99967L0 16.7927C5.74559e-05 17.9635 0.410977 19.0971 1.16113 19.996C1.91129 20.8949 2.95311 21.5021 4.105 21.7117L10.391 22.8547C11.455 23.048 12.545 23.048 13.609 22.8547L19.9 21.7117C21.051 21.5011 22.0916 20.8934 22.8408 19.9946C23.5899 19.0958 24.0002 17.9627 24 16.7927V5.99967C24.0005 5.26711 23.8394 4.54347 23.5283 3.88026C23.2171 3.21705 22.7636 2.6306 22.2 2.16267Z" fill="#405462"/>
</g>
<defs>
<clipPath id="clip0_1463_6354">
<rect width="24" height="24" fill="white"/>
</clipPath>
</defs>
</svg>
