<svg width="24" height="24" viewBox="0 0 24 24" fill="none" xmlns="http://www.w3.org/2000/svg">
<g clip-path="url(#clip0_1296_6485)">
<path d="M12 14C11.2044 14 10.4413 14.3161 9.87868 14.8787C9.31607 15.4413 9 16.2044 9 17V24.026H15V17C15 16.2044 14.6839 15.4413 14.1213 14.8787C13.5587 14.3161 12.7956 14 12 14Z" fill="#405462"/>
<path d="M13.338 0.839103C12.9707 0.504489 12.4941 0.319336 12 0.319336C11.5059 0.319336 11.0293 0.504489 10.662 0.839103L0 10.5527V21.0801C0 21.9392 0.337142 22.7631 0.937258 23.3706C1.53737 23.9781 2.35131 24.3193 3.2 24.3193H7V17.2042C7 15.8619 7.52678 14.5745 8.46447 13.6253C9.40215 12.6762 10.6739 12.1429 12 12.1429C13.3261 12.1429 14.5979 12.6762 15.5355 13.6253C16.4732 14.5745 17 15.8619 17 17.2042V24.3163H20.8C21.6487 24.3163 22.4626 23.975 23.0627 23.3676C23.6629 22.7601 24 21.9362 24 21.0771V10.5497L13.338 0.839103Z" fill="#405462"/>
</g>
<defs>
<clipPath id="clip0_1296_6485">
<rect width="24" height="24" fill="white"/>
</clipPath>
</defs>
</svg>
