<svg width="24" height="24" viewBox="0 0 24 24" fill="none" xmlns="http://www.w3.org/2000/svg">
<g clip-path="url(#clip0_1336_6489)">
<path d="M23.0003 10.9998C22.7351 10.9998 22.4807 10.8945 22.2932 10.7069C22.1057 10.5194 22.0003 10.265 22.0003 9.99981C21.9982 7.87873 21.1546 5.84512 19.6548 4.34529C18.155 2.84546 16.1214 2.00192 14.0003 1.99981C13.7351 1.99981 13.4807 1.89445 13.2932 1.70691C13.1057 1.51938 13.0003 1.26502 13.0003 0.999807C13.0003 0.73459 13.1057 0.480236 13.2932 0.2927C13.4807 0.105163 13.7351 -0.000193459 14.0003 -0.000193459C16.6516 0.00271814 19.1934 1.05722 21.0681 2.93195C22.9429 4.80669 23.9974 7.34854 24.0003 9.99981C24.0003 10.265 23.8949 10.5194 23.7074 10.7069C23.5199 10.8945 23.2655 10.9998 23.0003 10.9998ZM20.0003 9.99981C20.0003 8.40851 19.3682 6.88239 18.2429 5.75717C17.1177 4.63195 15.5916 3.99981 14.0003 3.99981C13.7351 3.99981 13.4807 4.10516 13.2932 4.2927C13.1057 4.48024 13.0003 4.73459 13.0003 4.99981C13.0003 5.26502 13.1057 5.51938 13.2932 5.70691C13.4807 5.89445 13.7351 5.99981 14.0003 5.99981C15.0612 5.99981 16.0786 6.42123 16.8287 7.17138C17.5789 7.92153 18.0003 8.93894 18.0003 9.99981C18.0003 10.265 18.1057 10.5194 18.2932 10.7069C18.4807 10.8945 18.7351 10.9998 19.0003 10.9998C19.2655 10.9998 19.5199 10.8945 19.7074 10.7069C19.8949 10.5194 20.0003 10.265 20.0003 9.99981ZM22.1833 22.1638L23.0933 21.1148C23.6725 20.5337 23.9977 19.7468 23.9977 18.9263C23.9977 18.1059 23.6725 17.3189 23.0933 16.7378C23.0623 16.7068 20.6563 14.8558 20.6563 14.8558C20.0788 14.3061 19.3118 14.0001 18.5146 14.0012C17.7174 14.0023 16.9512 14.3105 16.3753 14.8618L14.4693 16.4678C12.9135 15.8239 11.5002 14.879 10.3106 13.6873C9.12098 12.4957 8.17851 11.0807 7.5373 9.52381L9.1373 7.62381C9.68901 7.04798 9.99759 6.28168 9.9989 5.48421C10.0002 4.68674 9.69412 3.91943 9.1443 3.34181C9.1443 3.34181 7.2913 0.938807 7.2603 0.907807C6.68975 0.333555 5.91618 0.00682856 5.10672 -0.00177868C4.29727 -0.0103859 3.51693 0.299817 2.9343 0.861807L1.7843 1.86181C-5.0097 9.74381 9.62029 24.2608 17.7623 23.9998C18.5845 24.0046 19.3993 23.8446 20.1586 23.5292C20.9179 23.2139 21.6064 22.7496 22.1833 22.1638V22.1638Z" fill="#405462"/>
</g>
<defs>
<clipPath id="clip0_1336_6489">
<rect width="24" height="24" fill="white"/>
</clipPath>
</defs>
</svg>
