<svg width="24" height="24" viewBox="0 0 24 24" fill="none" xmlns="http://www.w3.org/2000/svg">
<g clip-path="url(#clip0_653_14782)">
<path d="M9.99826 20C12.3051 20.0028 14.5414 19.2047 16.3253 17.742L22.2913 23.707C22.4799 23.8892 22.7325 23.99 22.9947 23.9877C23.2569 23.9854 23.5077 23.8802 23.6931 23.6948C23.8785 23.5094 23.9837 23.2586 23.9859 22.9964C23.9882 22.7342 23.8874 22.4816 23.7053 22.293L17.7393 16.328C19.1761 14.5698 19.9718 12.375 19.9956 10.1044C20.0193 7.83391 19.2696 5.62292 17.8697 3.8351C16.4699 2.04728 14.5033 0.789087 12.2934 0.267458C10.0835 -0.254171 7.76181 -0.00817549 5.71027 0.964985C3.65874 1.93815 1.99948 3.58052 1.00539 5.622C0.0112942 7.66347 -0.258433 9.98248 0.240567 12.1976C0.739567 14.4128 1.97758 16.3921 3.75099 17.8102C5.5244 19.2282 7.72761 20.0005 9.99826 20ZM6.99826 9.00001H8.99826V7.00001C8.99826 6.73479 9.10361 6.48044 9.29115 6.2929C9.47869 6.10537 9.73304 6.00001 9.99826 6.00001C10.2635 6.00001 10.5178 6.10537 10.7054 6.2929C10.8929 6.48044 10.9983 6.73479 10.9983 7.00001V9.00001H12.9983C13.2635 9.00001 13.5178 9.10537 13.7054 9.2929C13.8929 9.48044 13.9983 9.73479 13.9983 10C13.9983 10.2652 13.8929 10.5196 13.7054 10.7071C13.5178 10.8947 13.2635 11 12.9983 11H10.9983V13C10.9983 13.2652 10.8929 13.5196 10.7054 13.7071C10.5178 13.8947 10.2635 14 9.99826 14C9.73304 14 9.47869 13.8947 9.29115 13.7071C9.10361 13.5196 8.99826 13.2652 8.99826 13V11H6.99826C6.73304 11 6.47869 10.8947 6.29115 10.7071C6.10361 10.5196 5.99826 10.2652 5.99826 10C5.99826 9.73479 6.10361 9.48044 6.29115 9.2929C6.47869 9.10537 6.73304 9.00001 6.99826 9.00001Z" fill="#405462"/>
</g>
<defs>
<clipPath id="clip0_653_14782">
<rect width="24" height="24" fill="white"/>
</clipPath>
</defs>
</svg>
