<svg width="24" height="24" viewBox="0 0 24 24" fill="none" xmlns="http://www.w3.org/2000/svg">
<g clip-path="url(#clip0_653_14771)">
<path d="M10.0008 19H8.00079V16.683C7.03947 15.8265 6.27401 14.7729 5.75652 13.594C5.23904 12.415 4.98169 11.1384 5.002 9.85101C5.02231 8.56364 5.3198 7.29577 5.87421 6.13372C6.42862 4.97168 7.22693 3.94275 8.21479 3.117C7.81429 3.04282 7.40808 3.00368 7.00079 3C5.24046 3.01356 3.54986 3.68987 2.26589 4.89418C0.981911 6.09849 0.198831 7.74235 0.0726923 9.49821C-0.0534468 11.2541 0.486616 12.993 1.58526 14.3685C2.68391 15.7439 4.26047 16.655 6.00079 16.92V19H4.00079C3.73557 19 3.48122 19.1054 3.29368 19.2929C3.10615 19.4804 3.00079 19.7348 3.00079 20C3.00079 20.2652 3.10615 20.5196 3.29368 20.7071C3.48122 20.8946 3.73557 21 4.00079 21H6.00079V23C6.00079 23.2652 6.10615 23.5196 6.29368 23.7071C6.48122 23.8946 6.73557 24 7.00079 24C7.266 24 7.52036 23.8946 7.70789 23.7071C7.89543 23.5196 8.00079 23.2652 8.00079 23V21H10.0008C10.266 21 10.5204 20.8946 10.7079 20.7071C10.8954 20.5196 11.0008 20.2652 11.0008 20C11.0008 19.7348 10.8954 19.4804 10.7079 19.2929C10.5204 19.1054 10.266 19 10.0008 19Z" fill="#405462"/>
<path d="M22.0007 0H18.0007C17.7355 0 17.4812 0.105357 17.2936 0.292893C17.1061 0.48043 17.0007 0.734784 17.0007 1C17.0007 1.26522 17.1061 1.51957 17.2936 1.70711C17.4812 1.89464 17.7355 2 18.0007 2H20.5867L18.1867 4.4C16.7648 3.33408 14.9918 2.84643 13.2248 3.03522C11.4577 3.224 9.82776 4.07521 8.66308 5.41748C7.49841 6.75974 6.88547 8.49339 6.94767 10.2694C7.00987 12.0455 7.74258 13.732 8.9983 14.9895C10.254 16.247 11.9395 16.9821 13.7154 17.0468C15.4914 17.1115 17.2259 16.501 18.5698 15.3382C19.9137 14.1754 20.7672 12.5467 20.9585 10.7799C21.1498 9.01313 20.6646 7.23947 19.6007 5.816L22.0007 3.416V6C22.0007 6.26522 22.1061 6.51957 22.2936 6.70711C22.4812 6.89464 22.7355 7 23.0007 7C23.266 7 23.5203 6.89464 23.7078 6.70711C23.8954 6.51957 24.0007 6.26522 24.0007 6V2C24.0007 1.46957 23.79 0.960859 23.415 0.585786C23.0399 0.210714 22.5312 0 22.0007 0V0Z" fill="#405462"/>
</g>
<defs>
<clipPath id="clip0_653_14771">
<rect width="24" height="24" fill="white"/>
</clipPath>
</defs>
</svg>
