<svg width="24" height="24" viewBox="0 0 24 24" fill="none" xmlns="http://www.w3.org/2000/svg">
<g clip-path="url(#clip0_653_14769)">
<path d="M10.007 3L8 2.986C7.9963 2.19278 7.67859 1.43331 7.11639 0.873724C6.55418 0.314139 5.79323 -8.63726e-06 5 1.78109e-10L3 1.7811e-10C2.20435 1.7811e-10 1.44129 0.31607 0.87868 0.87868C0.31607 1.44129 0 2.20435 0 3L0 5C-2.16263e-06 5.79444 0.315107 6.55644 0.876203 7.11885C1.4373 7.68126 2.19856 7.99815 2.993 8L2.979 9.993C2.97808 10.1244 3.00306 10.2547 3.05253 10.3764C3.102 10.4982 3.17497 10.609 3.26729 10.7025C3.3596 10.796 3.46945 10.8704 3.59054 10.9215C3.71163 10.9725 3.84159 10.9992 3.973 11H3.979C4.24301 11 4.49631 10.8956 4.68364 10.7096C4.87098 10.5236 4.97715 10.271 4.979 10.007L4.993 8H5C5.79565 8 6.55871 7.68393 7.12132 7.12132C7.68393 6.55871 8 5.79565 8 5V4.986L9.993 5H10C10.1313 5.00046 10.2614 4.97505 10.3829 4.92522C10.5045 4.87539 10.6149 4.80212 10.7081 4.70958C10.8013 4.61705 10.8754 4.50707 10.926 4.38592C10.9767 4.26477 11.003 4.13482 11.0035 4.0035C11.004 3.87218 10.9785 3.74205 10.9287 3.62055C10.8789 3.49905 10.8056 3.38855 10.7131 3.29537C10.6205 3.20218 10.5106 3.12814 10.3894 3.07746C10.2683 3.02678 10.1383 3.00046 10.007 3Z" fill="#405462"/>
<path d="M20.9996 0H18.9996C18.2052 -2.16263e-06 17.4432 0.315107 16.8808 0.876203C16.3183 1.4373 16.0015 2.19856 15.9996 2.993L14.0056 2.979H13.9996C13.7344 2.97807 13.4797 3.08254 13.2915 3.26942C13.1033 3.4563 12.997 3.71028 12.9961 3.9755C12.9952 4.24072 13.0996 4.49544 13.2865 4.68363C13.4734 4.87182 13.7274 4.97807 13.9926 4.979L15.9996 4.993V5C15.9996 5.79565 16.3157 6.55871 16.8783 7.12132C17.4409 7.68393 18.204 8 18.9996 8H19.0136L18.9996 9.993C18.9987 10.1243 19.0236 10.2545 19.073 10.3762C19.1224 10.4979 19.1953 10.6087 19.2875 10.7022C19.3797 10.7957 19.4895 10.8701 19.6104 10.9212C19.7314 10.9723 19.8613 10.9991 19.9926 11H19.9996C20.2636 11 20.5169 10.8956 20.7042 10.7096C20.8916 10.5236 20.9978 10.271 20.9996 10.007L21.0136 8C21.8068 7.9963 22.5663 7.67859 23.1259 7.11639C23.6855 6.55418 23.9996 5.79323 23.9996 5V3C23.9996 2.20435 23.6835 1.44129 23.1209 0.87868C22.5583 0.31607 21.7952 0 20.9996 0V0Z" fill="#405462"/>
<path d="M21.0066 15.999L21.0206 14.005C21.0214 13.8737 20.9963 13.7435 20.9468 13.6219C20.8973 13.5003 20.8243 13.3896 20.732 13.2962C20.6397 13.2027 20.5299 13.1284 20.4088 13.0774C20.2878 13.0265 20.1579 12.9998 20.0266 12.999H20.0206C19.7566 12.999 19.5033 13.1034 19.316 13.2894C19.1286 13.4755 19.0224 13.728 19.0206 13.992L19.0066 15.999H18.9996C18.204 15.999 17.4409 16.3151 16.8783 16.8777C16.3157 17.4403 15.9996 18.2034 15.9996 18.999V19.013L14.0066 18.999H13.9996C13.7344 18.9981 13.4797 19.1026 13.2915 19.2894C13.1033 19.4763 12.997 19.7303 12.9961 19.9955C12.9952 20.2607 13.0996 20.5155 13.2865 20.7036C13.4734 20.8918 13.7274 20.9981 13.9926 20.999L15.9996 21.013C16.0033 21.8062 16.321 22.5657 16.8832 23.1253C17.4454 23.6849 18.2064 23.999 18.9996 23.999H20.9996C21.7952 23.999 22.5583 23.6829 23.1209 23.1203C23.6835 22.5577 23.9996 21.7947 23.9996 20.999V18.999C23.9996 18.2046 23.6845 17.4426 23.1234 16.8802C22.5623 16.3178 21.801 16.0009 21.0066 15.999Z" fill="#405462"/>
<path d="M10.007 19.02L8 19.006V18.999C8 18.2034 7.68393 17.4403 7.12132 16.8777C6.55871 16.3151 5.79565 15.999 5 15.999H4.986L5 14.006C5.00092 13.8747 4.97597 13.7445 4.92656 13.6228C4.87716 13.5011 4.80427 13.3904 4.71206 13.2969C4.61985 13.2034 4.51013 13.1289 4.38915 13.0778C4.26818 13.0267 4.13832 12.9999 4.007 12.999H4C3.73599 12.999 3.48269 13.1034 3.29536 13.2894C3.10802 13.4755 3.00185 13.728 3 13.992L2.986 15.999C2.19278 16.0027 1.43331 16.3204 0.873724 16.8826C0.314139 17.4448 -8.63726e-06 18.2058 1.78109e-10 18.999L1.78109e-10 20.999C1.7811e-10 21.7947 0.31607 22.5577 0.87868 23.1203C1.44129 23.6829 2.20435 23.999 3 23.999H5C5.79444 23.999 6.55644 23.6839 7.11885 23.1228C7.68126 22.5617 7.99815 21.8004 8 21.006L9.994 21.02H10C10.2652 21.0209 10.5199 20.9165 10.7081 20.7296C10.8963 20.5427 11.0026 20.2887 11.0035 20.0235C11.0044 19.7583 10.9 19.5036 10.7131 19.3154C10.5262 19.1272 10.2722 19.0209 10.007 19.02Z" fill="#405462"/>
</g>
<defs>
<clipPath id="clip0_653_14769">
<rect width="24" height="24" fill="white"/>
</clipPath>
</defs>
</svg>
