<svg width="24" height="24" viewBox="0 0 24 24" fill="none" xmlns="http://www.w3.org/2000/svg">
<g clip-path="url(#clip0_1296_6340)">
<path d="M18.738 4.012L16.245 0.779C16.0582 0.53662 15.8182 0.340347 15.5436 0.205293C15.269 0.0702384 14.967 4.97488e-06 14.661 0L9.339 0C9.03314 0.000157934 8.73139 0.0704648 8.45696 0.205513C8.18253 0.340562 7.94273 0.536754 7.756 0.779L5.262 4.012C3.84702 4.07329 2.51023 4.67806 1.53002 5.70036C0.549818 6.72267 0.00176351 8.0837 0 9.5L0 18.5C0.00158817 19.9582 0.581561 21.3562 1.61267 22.3873C2.64377 23.4184 4.0418 23.9984 5.5 24H18.5C19.9582 23.9984 21.3562 23.4184 22.3873 22.3873C23.4184 21.3562 23.9984 19.9582 24 18.5V9.5C23.9982 8.0837 23.4502 6.72267 22.47 5.70036C21.4898 4.67806 20.153 4.07329 18.738 4.012ZM21 18.5C21 19.163 20.7366 19.7989 20.2678 20.2678C19.7989 20.7366 19.163 21 18.5 21H5.5C4.83696 21 4.20107 20.7366 3.73223 20.2678C3.26339 19.7989 3 19.163 3 18.5V9.5C3 8.83696 3.26339 8.20107 3.73223 7.73223C4.20107 7.26339 4.83696 7 5.5 7H18.5C19.163 7 19.7989 7.26339 20.2678 7.73223C20.7366 8.20107 21 8.83696 21 9.5V18.5Z" fill="#405462"/>
<path d="M12 8.5C10.9122 8.5 9.84883 8.82257 8.94436 9.42692C8.03989 10.0313 7.33495 10.8902 6.91866 11.8952C6.50238 12.9002 6.39346 14.0061 6.60568 15.073C6.8179 16.1399 7.34172 17.1199 8.11091 17.8891C8.8801 18.6583 9.86011 19.1821 10.927 19.3943C11.9939 19.6065 13.0998 19.4976 14.1048 19.0813C15.1097 18.665 15.9687 17.9601 16.5731 17.0556C17.1774 16.1512 17.5 15.0878 17.5 14C17.4984 12.5418 16.9184 11.1438 15.8873 10.1127C14.8562 9.08156 13.4582 8.50159 12 8.5V8.5ZM12 16.5C11.5055 16.5 11.0222 16.3534 10.6111 16.0787C10.1999 15.804 9.87952 15.4135 9.6903 14.9567C9.50108 14.4999 9.45157 13.9972 9.54803 13.5123C9.6445 13.0273 9.8826 12.5819 10.2322 12.2322C10.5819 11.8826 11.0273 11.6445 11.5123 11.548C11.9972 11.4516 12.4999 11.5011 12.9567 11.6903C13.4135 11.8795 13.804 12.1999 14.0787 12.6111C14.3534 13.0222 14.5 13.5055 14.5 14C14.5 14.663 14.2366 15.2989 13.7678 15.7678C13.2989 16.2366 12.663 16.5 12 16.5V16.5Z" fill="#405462"/>
</g>
<defs>
<clipPath id="clip0_1296_6340">
<rect width="24" height="24" fill="white"/>
</clipPath>
</defs>
</svg>
