<svg width="24" height="24" viewBox="0 0 24 24" fill="none" xmlns="http://www.w3.org/2000/svg">
<g clip-path="url(#clip0_1336_6516)">
<path d="M6.5 13H1.5C1.10218 13 0.720644 12.842 0.43934 12.5607C0.158035 12.2794 0 11.8978 0 11.5C0 11.1022 0.158035 10.7206 0.43934 10.4393C0.720644 10.158 1.10218 10 1.5 10H6.5C6.89782 10 7.27936 10.158 7.56066 10.4393C7.84196 10.7206 8 11.1022 8 11.5C8 11.8978 7.84196 12.2794 7.56066 12.5607C7.27936 12.842 6.89782 13 6.5 13Z" fill="#405462"/>
<path d="M18.5 13.0002H11.5C11.1022 13.0002 10.7206 12.8422 10.4393 12.5609C10.158 12.2796 10 11.898 10 11.5002C10 11.1024 10.158 10.7208 10.4393 10.4395C10.7206 10.1582 11.1022 10.0002 11.5 10.0002H18.5C18.831 10.0002 19.1587 9.93452 19.4642 9.80689C19.7696 9.67926 20.0466 9.49224 20.2792 9.25669C20.5117 9.02115 20.6952 8.74176 20.819 8.43474C20.9427 8.12773 21.0042 7.79919 21 7.4682C20.9874 7.00413 20.8161 6.55839 20.5148 6.20521C20.2135 5.85204 19.8003 5.61275 19.344 5.5272C19.0563 5.47698 18.7612 5.49035 18.4793 5.56638C18.1973 5.64241 17.9355 5.77925 17.7121 5.96729C17.4887 6.15533 17.3092 6.39 17.1861 6.65483C17.0631 6.91965 16.9996 7.2082 17 7.5002C17 7.89803 16.842 8.27956 16.5607 8.56086C16.2794 8.84217 15.8978 9.0002 15.5 9.0002C12.733 8.6822 14.322 4.7752 15.76 3.6922C16.4826 3.07724 17.3653 2.6806 18.305 2.54861C19.2446 2.41662 20.2024 2.55474 21.0665 2.94683C21.9306 3.33892 22.6653 3.96879 23.1847 4.76286C23.7042 5.55693 23.9869 6.48242 24 7.4312C24.0091 8.15926 23.8736 8.88188 23.6013 9.55716C23.329 10.2324 22.9253 10.8469 22.4137 11.365C21.9021 11.883 21.2926 12.2943 20.6208 12.575C19.949 12.8557 19.2281 13.0003 18.5 13.0002Z" fill="#405462"/>
<path d="M7 8.00013H1.5C1.10218 8.00013 0.720644 7.8421 0.43934 7.56079C0.158035 7.27949 0 6.89796 0 6.50013C0 6.10231 0.158035 5.72077 0.43934 5.43947C0.720644 5.15817 1.10218 5.00013 1.5 5.00013H7C7.2405 5.01057 7.47748 4.93953 7.67258 4.79852C7.86768 4.6575 8.00947 4.45477 8.075 4.22313C8.10332 4.0799 8.09935 3.93215 8.06337 3.79064C8.02738 3.64914 7.9603 3.51744 7.867 3.40513C7.75293 3.29641 7.61787 3.21212 7.47008 3.15741C7.3223 3.10271 7.16491 3.07874 7.00754 3.08698C6.85017 3.09522 6.69614 3.13549 6.55488 3.20533C6.41362 3.27516 6.2881 3.3731 6.186 3.49313C6.0627 3.64892 5.90969 3.77867 5.73583 3.87483C5.56198 3.971 5.37075 4.03167 5.17326 4.05332C4.97577 4.07497 4.77594 4.05717 4.58538 4.00096C4.39482 3.94474 4.21733 3.85123 4.06321 3.72586C3.90909 3.60048 3.78141 3.44573 3.68758 3.27061C3.59376 3.09548 3.53566 2.90346 3.51667 2.70569C3.49767 2.50792 3.51815 2.30835 3.57691 2.11856C3.63568 1.92878 3.73157 1.75255 3.859 1.60013C4.2377 1.13371 4.71371 0.755635 5.25375 0.492355C5.7938 0.229075 6.38483 0.0869411 6.98553 0.0758929C7.58623 0.0648447 8.1821 0.185149 8.73145 0.428392C9.28081 0.671636 9.77041 1.03195 10.166 1.48413C10.5404 1.93369 10.8114 2.46012 10.9597 3.02609C11.108 3.59206 11.1299 4.18372 11.024 4.75913C10.8391 5.68512 10.335 6.51681 9.59955 7.10913C8.86414 7.70144 7.94413 8.01677 7 8.00013V8.00013Z" fill="#405462"/>
<path d="M15.585 24.0079C14.8761 24.0058 14.1763 23.8478 13.5354 23.545C12.8944 23.2422 12.3279 22.8021 11.876 22.2559C11.7512 22.1034 11.6578 21.9277 11.6009 21.7391C11.544 21.5504 11.5248 21.3524 11.5444 21.1563C11.5641 20.9603 11.6221 20.77 11.7153 20.5964C11.8085 20.4227 11.935 20.2691 12.0875 20.1444C12.24 20.0196 12.4156 19.9261 12.6043 19.8693C12.793 19.8124 12.991 19.7932 13.1871 19.8128C13.583 19.8525 13.947 20.0478 14.199 20.3559C14.3538 20.5378 14.5444 20.6857 14.759 20.7906C14.9735 20.8954 15.2074 20.9548 15.446 20.9652C15.6846 20.9755 15.9228 20.9365 16.1456 20.8506C16.3684 20.7647 16.5711 20.6337 16.741 20.4659C16.8847 20.2937 16.9882 20.0915 17.0439 19.8743C17.0996 19.657 17.1061 19.43 17.063 19.2099C16.9724 18.8522 16.7613 18.5367 16.4654 18.3163C16.1694 18.096 15.8066 17.9842 15.438 17.9999H1.5C1.10218 17.9999 0.720644 17.8419 0.43934 17.5605C0.158035 17.2792 0 16.8977 0 16.4999C0 16.1021 0.158035 15.7205 0.43934 15.4392C0.720644 15.1579 1.10218 14.9999 1.5 14.9999H15.438C16.5111 14.979 17.5574 15.3359 18.394 16.0082C19.2306 16.6805 19.8044 17.6255 20.015 18.6779C20.136 19.3283 20.1123 19.9973 19.9455 20.6375C19.7788 21.2777 19.4732 21.8733 19.0503 22.3821C18.6275 22.8908 18.0978 23.3002 17.4989 23.5812C16.9 23.8622 16.2465 24.0079 15.585 24.0079V24.0079Z" fill="#405462"/>
</g>
<defs>
<clipPath id="clip0_1336_6516">
<rect width="24" height="24" fill="white"/>
</clipPath>
</defs>
</svg>
