<svg width="24" height="24" viewBox="0 0 24 24" fill="none" xmlns="http://www.w3.org/2000/svg">
<g clip-path="url(#clip0_653_14768)">
<path d="M21 16V12C20.9997 10.6566 20.698 9.33026 20.1172 8.11881C19.5364 6.90735 18.6912 5.84161 17.644 5.00004H20.277C20.4986 5.37765 20.8385 5.67169 21.2441 5.83662C21.6497 6.00156 22.0983 6.0282 22.5206 5.91243C22.9429 5.79665 23.3152 5.54491 23.5799 5.19618C23.8447 4.84745 23.9871 4.42117 23.9851 3.98333C23.9831 3.5455 23.8369 3.12052 23.569 2.77418C23.3011 2.42785 22.9266 2.17947 22.5033 2.0675C22.08 1.95553 21.6316 1.98621 21.2275 2.15479C20.8235 2.32337 20.4862 2.62045 20.268 3.00004H15.858C15.6397 2.14246 15.1419 1.38204 14.4433 0.838933C13.7446 0.295822 12.8849 0.000976563 12 0.000976562C11.1151 0.000976563 10.2554 0.295822 9.55672 0.838933C8.85806 1.38204 8.36027 2.14246 8.142 3.00004H3.723C3.50139 2.62243 3.16148 2.32839 2.75589 2.16346C2.3503 1.99852 1.90166 1.97188 1.4794 2.08766C1.05714 2.20343 0.684827 2.45517 0.42008 2.8039C0.155333 3.15263 0.0129225 3.57891 0.0148928 4.01675C0.0168631 4.45458 0.163104 4.87956 0.430979 5.2259C0.698853 5.57223 1.07342 5.82061 1.4967 5.93258C1.91999 6.04455 2.36837 6.01387 2.77246 5.84529C3.17655 5.67671 3.51379 5.37963 3.732 5.00004H6.356C5.30876 5.84161 4.46362 6.90735 3.88281 8.11881C3.30201 9.33026 3.00033 10.6566 3 12V16C2.20435 16 1.44129 16.3161 0.87868 16.8787C0.31607 17.4413 0 18.2044 0 19L0 21C0 21.7957 0.31607 22.5588 0.87868 23.1214C1.44129 23.684 2.20435 24 3 24H5C5.79565 24 6.55871 23.684 7.12132 23.1214C7.68393 22.5588 8 21.7957 8 21V19C8 18.2044 7.68393 17.4413 7.12132 16.8787C6.55871 16.3161 5.79565 16 5 16V12C5.00163 10.7687 5.32801 9.55966 5.94621 8.49481C6.5644 7.42995 7.45254 6.54699 8.521 5.93504C8.86194 6.56001 9.36493 7.08161 9.97712 7.445C10.5893 7.80839 11.2881 8.00017 12 8.00017C12.7119 8.00017 13.4107 7.80839 14.0229 7.445C14.6351 7.08161 15.1381 6.56001 15.479 5.93504C16.5475 6.54699 17.4356 7.42995 18.0538 8.49481C18.672 9.55966 18.9984 10.7687 19 12V16C18.2044 16 17.4413 16.3161 16.8787 16.8787C16.3161 17.4413 16 18.2044 16 19V21C16 21.7957 16.3161 22.5588 16.8787 23.1214C17.4413 23.684 18.2044 24 19 24H21C21.7956 24 22.5587 23.684 23.1213 23.1214C23.6839 22.5588 24 21.7957 24 21V19C24 18.2044 23.6839 17.4413 23.1213 16.8787C22.5587 16.3161 21.7956 16 21 16Z" fill="#405462"/>
</g>
<defs>
<clipPath id="clip0_653_14768">
<rect width="24" height="24" fill="white"/>
</clipPath>
</defs>
</svg>
