<svg width="24" height="24" viewBox="0 0 24 24" fill="none" xmlns="http://www.w3.org/2000/svg">
<g clip-path="url(#clip0_653_14696)">
<path d="M11.9936 10H2.36159L2.05559 7.556C1.97772 7.12337 1.9952 6.67897 2.10682 6.2538C2.21843 5.82863 2.42148 5.43293 2.70181 5.09434C2.98213 4.75574 3.33297 4.4824 3.72983 4.29339C4.1267 4.10438 4.56003 4.00425 4.99959 4H12.6596L11.9936 10ZM12.9936 19.11C12.9791 19.2405 12.9391 19.3669 12.8758 19.482C12.8125 19.5971 12.7272 19.6986 12.6247 19.7806C12.5222 19.8627 12.4045 19.9238 12.2783 19.9604C12.1522 19.997 12.0201 20.0084 11.8896 19.994C11.7591 19.9796 11.6326 19.9395 11.5176 19.8762C11.4025 19.8129 11.301 19.7276 11.2189 19.6251C11.1369 19.5226 11.0758 19.4049 11.0392 19.2788C11.0025 19.1526 10.9911 19.0205 11.0056 18.89L11.7716 12H2.61259L3.56759 19.622C3.72079 20.8302 4.309 21.9411 5.22213 22.747C6.13526 23.5528 7.31074 23.9982 8.52859 24H15.4696C16.6876 23.998 17.8633 23.5524 18.7765 22.7464C19.6898 21.9404 20.2782 20.8294 20.4316 19.621L21.3836 12H13.7836L12.9936 19.11ZM21.6336 10L21.9266 7.653C22.0244 7.21443 22.0224 6.75949 21.9209 6.32179C21.8193 5.88408 21.6207 5.47478 21.3397 5.12412C21.0587 4.77346 20.7026 4.49039 20.2975 4.29582C19.8925 4.10126 19.4489 4.00016 18.9996 4H14.6726L14.0066 10H21.6336ZM14.7996 2.89C14.8266 2.646 14.9424 2.42045 15.125 2.25632C15.3075 2.0922 15.5441 2.00097 15.7896 2H19.9996C20.2648 2 20.5192 1.89464 20.7067 1.70711C20.8942 1.51957 20.9996 1.26522 20.9996 1C20.9996 0.734784 20.8942 0.48043 20.7067 0.292893C20.5192 0.105357 20.2648 0 19.9996 0L15.7896 0C15.0514 0.000168296 14.3391 0.272519 13.7891 0.764943C13.2392 1.25737 12.89 1.93529 12.8086 2.669L12.6606 4H14.6726L14.7996 2.89Z" fill="#405462"/>
</g>
<defs>
<clipPath id="clip0_653_14696">
<rect width="24" height="24" fill="white"/>
</clipPath>
</defs>
</svg>
