<svg width="24" height="24" viewBox="0 0 24 24" fill="none" xmlns="http://www.w3.org/2000/svg">
<g clip-path="url(#clip0_653_14779)">
<path d="M23.9238 18.1431C24.0486 18.8613 24.0149 19.5981 23.8249 20.3019C23.635 21.0057 23.2934 21.6594 22.8242 22.2173C22.355 22.7752 21.7695 23.2237 21.1087 23.5315C20.4479 23.8393 19.7278 23.9989 18.9988 23.9991H15.9988C15.7336 23.9991 15.4792 23.8937 15.2917 23.7062C15.1042 23.5186 14.9988 23.2643 14.9988 22.9991V20.4091C14.0445 20.7916 13.0269 20.9918 11.9988 20.9991C10.9701 20.9885 9.95247 20.785 8.99882 20.3991V22.9991C8.99882 23.2643 8.89346 23.5186 8.70592 23.7062C8.51839 23.8937 8.26404 23.9991 7.99882 23.9991H4.99882C4.26985 23.9989 3.54973 23.8393 2.88892 23.5315C2.22811 23.2237 1.6426 22.7752 1.17339 22.2173C0.704193 21.6594 0.362657 21.0057 0.172715 20.3019C-0.0172275 19.5981 -0.0509812 18.8613 0.0738187 18.1431L0.373819 16.4031C0.473577 15.8243 0.744413 15.2888 1.1514 14.8654C1.55839 14.4421 2.08287 14.1504 2.6572 14.0279C3.23154 13.9055 3.82939 13.9579 4.37366 14.1784C4.91794 14.3989 5.38368 14.7774 5.71082 15.2651C6.97482 17.1231 9.40782 18.9991 11.9988 18.9991C15.1288 18.9991 18.2128 16.2201 19.1288 13.6231C19.2023 13.4278 19.3334 13.2596 19.5046 13.1405C19.6759 13.0214 19.8792 12.957 20.0878 12.9561L20.5198 12.9631C20.7134 12.9654 20.9056 12.9293 21.0851 12.8568C21.2647 12.7842 21.428 12.6767 21.5656 12.5405C21.7032 12.4043 21.8124 12.2421 21.8868 12.0633C21.9611 11.8845 21.9992 11.6927 21.9988 11.4991C21.9985 11.1483 21.8752 10.8088 21.6505 10.5395C21.4258 10.2702 21.1138 10.0882 20.7688 10.0251C20.5561 9.98646 20.3615 9.87994 20.2144 9.72146C20.0673 9.56299 19.9755 9.36109 19.9528 9.14605C19.8202 7.88164 19.3866 6.6674 18.6884 5.60491C17.9902 4.54242 17.0478 3.6626 15.9398 3.03905C15.657 3.92426 15.2791 4.77622 14.8128 5.58005C13.5148 7.42021 11.8214 8.94652 9.85682 10.0471C10.1563 10.1206 10.4258 10.2846 10.6287 10.5168C10.8316 10.749 10.958 11.0382 10.9907 11.3448C11.0234 11.6514 10.9608 11.9607 10.8114 12.2304C10.662 12.5002 10.4331 12.7174 10.1559 12.8524C9.87863 12.9874 9.56651 13.0337 9.26202 12.9849C8.95753 12.9362 8.67546 12.7948 8.45423 12.5799C8.23299 12.3651 8.08334 12.0873 8.02565 11.7844C7.96796 11.4815 8.00503 11.1681 8.13182 10.8871C5.83264 11.818 3.34662 12.1949 0.874819 11.9871C0.66879 11.9594 0.476488 11.8683 0.324656 11.7263C0.172823 11.5844 0.069009 11.3986 0.0276501 11.1949C-0.0137088 10.9912 0.00944393 10.7796 0.0938883 10.5897C0.178333 10.3997 0.319871 10.2408 0.498819 10.1351C1.10335 9.44916 1.5532 8.6412 1.81782 7.76605C3.12282 4.67305 5.09882 -0.000948555 11.9988 -0.000948555C14.3532 -0.00652603 16.6336 0.8211 18.4364 2.33541C20.2391 3.84973 21.4479 5.95306 21.8488 8.27305C22.4852 8.53909 23.0288 8.98723 23.4113 9.56118C23.7938 10.1351 23.9982 10.8093 23.9988 11.4991C23.9971 12.33 23.6936 13.1321 23.1448 13.7561C23.1518 13.7821 23.1698 13.8031 23.1748 13.8311L23.9238 18.1431ZM15.9988 11.4991C15.9988 11.2024 15.9108 10.9124 15.746 10.6657C15.5812 10.419 15.3469 10.2268 15.0728 10.1132C14.7988 9.9997 14.4972 9.97 14.2062 10.0279C13.9152 10.0858 13.6479 10.2286 13.4382 10.4384C13.2284 10.6482 13.0855 10.9154 13.0276 11.2064C12.9698 11.4974 12.9995 11.799 13.113 12.0731C13.2265 12.3472 13.4188 12.5814 13.6655 12.7463C13.9121 12.9111 14.2021 12.9991 14.4988 12.9991C14.8966 12.9991 15.2782 12.841 15.5595 12.5597C15.8408 12.2784 15.9988 11.8969 15.9988 11.4991Z" fill="#405462"/>
</g>
<defs>
<clipPath id="clip0_653_14779">
<rect width="24" height="24" fill="white"/>
</clipPath>
</defs>
</svg>
