<svg width="24" height="24" viewBox="0 0 24 24" fill="none" xmlns="http://www.w3.org/2000/svg">
<g clip-path="url(#clip0_1336_6465)">
<path d="M14.1209 12.0005L23.5605 2.56186C24.1465 1.9759 24.1465 1.02587 23.5605 0.439959C22.9745 -0.146002 22.0245 -0.146002 21.4386 0.439959L12 9.87954L2.56137 0.439959C1.97541 -0.146002 1.02538 -0.146002 0.43947 0.439959C-0.146443 1.02592 -0.14649 1.97594 0.43947 2.56186L9.87905 12.0005L0.43947 21.4391C-0.14649 22.0251 -0.14649 22.9751 0.43947 23.561C1.02543 24.1469 1.97545 24.147 2.56137 23.561L12 14.1214L21.4386 23.561C22.0245 24.147 22.9745 24.147 23.5605 23.561C24.1464 22.975 24.1464 22.025 23.5605 21.4391L14.1209 12.0005Z" fill="#405462"/>
</g>
<defs>
<clipPath id="clip0_1336_6465">
<rect width="24" height="24" fill="white"/>
</clipPath>
</defs>
</svg>
