<svg width="24" height="24" viewBox="0 0 24 24" fill="none" xmlns="http://www.w3.org/2000/svg">
<path d="M13.606 14.83C13.6825 14.8901 13.7415 14.9695 13.7769 15.06C13.8123 15.1506 13.8229 15.2489 13.8075 15.3449C13.7921 15.4409 13.7513 15.5311 13.6893 15.606C13.6273 15.6809 13.5464 15.7379 13.455 15.771C7.889 17.5 5.64 9.3 11.361 8.051C11.9211 7.9649 12.4926 7.98799 13.044 8.119C13.1377 8.14304 13.2233 8.19165 13.292 8.2598C13.3607 8.32796 13.41 8.4132 13.4347 8.50673C13.4595 8.60027 13.4588 8.69872 13.4329 8.79193C13.4069 8.88514 13.3566 8.96974 13.287 9.037C12.8692 9.40693 12.5405 9.86659 12.3254 10.3816C12.1104 10.8965 12.0146 11.4534 12.0453 12.0107C12.076 12.5679 12.2323 13.1109 12.5026 13.5992C12.7729 14.0874 13.1501 14.5082 13.606 14.83V14.83ZM24 12C24 12.3978 23.842 12.7794 23.5607 13.0607C23.2794 13.342 22.8978 13.5 22.5 13.5H20.865C20.6396 14.836 20.1141 16.1035 19.328 17.207L20.485 18.364C20.7582 18.6469 20.9094 19.0258 20.906 19.4191C20.9026 19.8124 20.7448 20.1886 20.4667 20.4667C20.1886 20.7448 19.8124 20.9026 19.4191 20.906C19.0258 20.9094 18.6469 20.7582 18.364 20.485L17.207 19.328C16.1035 20.1141 14.836 20.6396 13.5 20.865V22.5C13.5 22.8978 13.342 23.2794 13.0607 23.5607C12.7794 23.842 12.3978 24 12 24C11.6022 24 11.2206 23.842 10.9393 23.5607C10.658 23.2794 10.5 22.8978 10.5 22.5V20.865C9.16399 20.6396 7.89652 20.1141 6.793 19.328L5.636 20.485C5.3531 20.7582 4.97419 20.9094 4.5809 20.906C4.1876 20.9026 3.81138 20.7448 3.53327 20.4667C3.25516 20.1886 3.09741 19.8124 3.09399 19.4191C3.09057 19.0258 3.24176 18.6469 3.515 18.364L4.672 17.207C3.88589 16.1035 3.36037 14.836 3.135 13.5H1.5C1.10218 13.5 0.720644 13.342 0.43934 13.0607C0.158035 12.7794 0 12.3978 0 12C0 11.6022 0.158035 11.2206 0.43934 10.9393C0.720644 10.658 1.10218 10.5 1.5 10.5H3.135C3.36037 9.16399 3.88589 7.89652 4.672 6.793L3.515 5.636C3.24176 5.3531 3.09057 4.97419 3.09399 4.5809C3.09741 4.1876 3.25516 3.81138 3.53327 3.53327C3.81138 3.25516 4.1876 3.09741 4.5809 3.09399C4.97419 3.09057 5.3531 3.24176 5.636 3.515L6.793 4.672C7.89652 3.88589 9.16399 3.36037 10.5 3.135V1.5C10.5 1.10218 10.658 0.720644 10.9393 0.43934C11.2206 0.158035 11.6022 0 12 0C12.3978 0 12.7794 0.158035 13.0607 0.43934C13.342 0.720644 13.5 1.10218 13.5 1.5V3.135C14.836 3.36037 16.1035 3.88589 17.207 4.672L18.364 3.515C18.6469 3.24176 19.0258 3.09057 19.4191 3.09399C19.8124 3.09741 20.1886 3.25516 20.4667 3.53327C20.7448 3.81138 20.9026 4.1876 20.906 4.5809C20.9094 4.97419 20.7582 5.3531 20.485 5.636L19.328 6.793C20.1141 7.89652 20.6396 9.16399 20.865 10.5H22.5C22.8978 10.5 23.2794 10.658 23.5607 10.9393C23.842 11.2206 24 11.6022 24 12ZM18 12C17.748 4.071 6.251 4.072 6 12C6.252 19.929 17.749 19.928 18 12Z" fill="#405462"/>
</svg>
