<svg width="24" height="24" viewBox="0 0 24 24" fill="none" xmlns="http://www.w3.org/2000/svg">
<g clip-path="url(#clip0_653_14775)">
<path d="M20.7993 4.29258C20.6085 4.12255 20.3599 4.03199 20.1045 4.03949C19.8491 4.047 19.6062 4.15201 19.4258 4.33296C19.2453 4.51391 19.141 4.75707 19.1342 5.01251C19.1274 5.26796 19.2187 5.51631 19.3893 5.70658C21.0555 7.37706 21.9912 9.64017 21.9912 11.9996C21.9912 14.359 21.0555 16.6221 19.3893 18.2926C19.2877 18.3831 19.2057 18.4934 19.1483 18.6167C19.0908 18.74 19.0591 18.8737 19.0551 19.0097C19.0511 19.1457 19.0749 19.281 19.125 19.4075C19.1751 19.5339 19.2505 19.6488 19.3466 19.7452C19.4426 19.8415 19.5573 19.9172 19.6836 19.9677C19.81 20.0182 19.9453 20.0423 20.0812 20.0387C20.2172 20.0351 20.351 20.0038 20.4745 19.9467C20.598 19.8896 20.7085 19.8079 20.7993 19.7066C22.8404 17.661 23.9868 14.8893 23.9868 11.9996C23.9868 9.10984 22.8404 6.33812 20.7993 4.29258Z" fill="#405462"/>
<path d="M18.0943 7.29357C18.002 7.19806 17.8917 7.12188 17.7697 7.06947C17.6477 7.01706 17.5165 6.98947 17.3837 6.98832C17.2509 6.98717 17.1192 7.01247 16.9963 7.06275C16.8734 7.11303 16.7618 7.18728 16.6679 7.28117C16.574 7.37507 16.4997 7.48672 16.4495 7.60961C16.3992 7.73251 16.3739 7.86419 16.375 7.99697C16.3762 8.12975 16.4038 8.26097 16.4562 8.38297C16.5086 8.50498 16.5848 8.61532 16.6803 8.70757C17.5519 9.58183 18.0414 10.766 18.0414 12.0006C18.0414 13.2351 17.5519 14.4193 16.6803 15.2936C16.5848 15.3858 16.5086 15.4961 16.4562 15.6182C16.4038 15.7402 16.3762 15.8714 16.375 16.0042C16.3739 16.1369 16.3992 16.2686 16.4495 16.3915C16.4997 16.5144 16.574 16.6261 16.6679 16.7199C16.7618 16.8138 16.8734 16.8881 16.9963 16.9384C17.1192 16.9887 17.2509 17.014 17.3837 17.0128C17.5165 17.0117 17.6477 16.9841 17.7697 16.9317C17.8917 16.8792 18.002 16.8031 18.0943 16.7076C19.3406 15.4581 20.0406 13.7654 20.0406 12.0006C20.0406 10.2358 19.3406 8.54302 18.0943 7.29357Z" fill="#405462"/>
<path d="M13.819 0.20597C10.7805 0.776295 8.0773 2.49217 6.268 4.99897H5C3.67441 5.00056 2.40356 5.52785 1.46622 6.46519C0.528882 7.40253 0.00158786 8.67338 0 9.99897L0 13.999C0.00158786 15.3246 0.528882 16.5954 1.46622 17.5328C2.40356 18.4701 3.67441 18.9974 5 18.999H6.269C8.07777 21.5059 10.7807 23.2218 13.819 23.792C13.9632 23.8185 14.1115 23.813 14.2533 23.7759C14.3951 23.7387 14.5271 23.6709 14.6397 23.5771C14.7524 23.4833 14.8431 23.3659 14.9054 23.2331C14.9676 23.1004 14.9999 22.9556 15 22.809V1.18897C14.9999 1.04236 14.9676 0.897553 14.9054 0.764815C14.8431 0.632077 14.7524 0.514652 14.6397 0.420859C14.5271 0.327065 14.3951 0.259197 14.2533 0.222062C14.1115 0.184927 13.9632 0.179433 13.819 0.20597Z" fill="#405462"/>
</g>
<defs>
<clipPath id="clip0_653_14775">
<rect width="24" height="24" fill="white"/>
</clipPath>
</defs>
</svg>
