<svg width="24" height="24" viewBox="0 0 24 24" fill="none" xmlns="http://www.w3.org/2000/svg">
<g clip-path="url(#clip0_653_14776)">
<path d="M7.99954 3C7.99954 2.40666 8.17549 1.82664 8.50513 1.33329C8.83478 0.839943 9.30331 0.455426 9.85149 0.228363C10.3997 0.00129986 11.0029 -0.0581102 11.5848 0.0576455C12.1668 0.173401 12.7013 0.459124 13.1209 0.878681C13.5404 1.29824 13.8261 1.83279 13.9419 2.41473C14.0577 2.99667 13.9982 3.59987 13.7712 4.14805C13.5441 4.69623 13.1596 5.16477 12.6663 5.49441C12.1729 5.82406 11.5929 6 10.9995 6C10.2039 6 9.44083 5.68393 8.87822 5.12132C8.31561 4.55871 7.99954 3.79565 7.99954 3ZM22.9995 21H21.7205L20.3995 17.051C20.2006 16.4545 19.8194 15.9356 19.3096 15.5676C18.7998 15.1996 18.1873 15.001 17.5585 15H13.9995C13.4691 15 12.9604 14.7893 12.5853 14.4142C12.2103 14.0391 11.9995 13.5304 11.9995 13H17.9995C18.2648 13 18.5191 12.8946 18.7066 12.7071C18.8942 12.5196 18.9995 12.2652 18.9995 12C18.9995 11.7348 18.8942 11.4804 18.7066 11.2929C18.5191 11.1054 18.2648 11 17.9995 11H11.9995V8C11.9995 7.73479 11.8942 7.48043 11.7066 7.2929C11.5191 7.10536 11.2648 7 10.9995 7C10.7343 7 10.48 7.10536 10.2924 7.2929C10.1049 7.48043 9.99954 7.73479 9.99954 8V13C9.99954 14.0609 10.421 15.0783 11.1711 15.8284C11.9213 16.5786 12.9387 17 13.9995 17H17.5585C17.7685 17 17.9732 17.066 18.1435 17.1888C18.3138 17.3115 18.4412 17.4848 18.5075 17.684L20.0515 22.316C20.1178 22.515 20.2451 22.6882 20.4152 22.811C20.5853 22.9337 20.7897 22.9998 20.9995 23H22.9995C23.2648 23 23.5191 22.8946 23.7066 22.7071C23.8942 22.5196 23.9995 22.2652 23.9995 22C23.9995 21.7348 23.8942 21.4804 23.7066 21.2929C23.5191 21.1054 23.2648 21 22.9995 21ZM13.7855 18.988C12.2314 18.9393 10.7576 18.2866 9.67714 17.1684C8.5967 16.0503 7.99487 14.5549 7.99954 13V9.071C7.99956 8.92767 7.96877 8.78601 7.90925 8.65562C7.84973 8.52523 7.76288 8.40915 7.65457 8.31527C7.54627 8.22138 7.41905 8.15187 7.28153 8.11145C7.14402 8.07103 6.99942 8.06065 6.85754 8.081C4.87549 8.37907 3.07738 9.40984 1.81859 10.9696C0.559804 12.5293 -0.0680562 14.5046 0.0591064 16.5049C0.186269 18.5052 1.0592 20.385 2.50537 21.7728C3.95154 23.1605 5.8657 23.9553 7.86954 24H7.99954C9.29178 24.0003 10.5648 23.6874 11.7096 23.0879C12.8544 22.4884 13.8368 21.6203 14.5725 20.558C14.6751 20.4105 14.7359 20.2381 14.7488 20.0589C14.7616 19.8797 14.7259 19.7004 14.6455 19.5397C14.5651 19.3791 14.4429 19.2431 14.2917 19.146C14.1406 19.0489 13.9661 18.9943 13.7865 18.988H13.7855Z" fill="#405462"/>
</g>
<defs>
<clipPath id="clip0_653_14776">
<rect width="24" height="24" fill="white"/>
</clipPath>
</defs>
</svg>
