<svg width="24" height="24" viewBox="0 0 24 24" fill="none" xmlns="http://www.w3.org/2000/svg">
<path d="M9.8792 18.122C11.0504 19.294 12.9499 19.2946 14.1219 18.1234C14.1223 18.1229 14.1227 18.1225 14.1232 18.122L17.3342 14.911C17.7046 14.5014 17.6728 13.869 17.2631 13.4986C16.8817 13.1537 16.3009 13.1543 15.9202 13.5L12.9942 16.427L13.0012 1.00003C13.0012 0.447703 12.5535 0 12.0012 0C11.4489 0 11.0012 0.447703 11.0012 0.999984L10.9922 16.408L8.0822 13.5C7.69145 13.1095 7.05817 13.1098 6.6677 13.5005C6.27723 13.8913 6.27746 14.5245 6.66821 14.915L9.8792 18.122Z" fill="#405462"/>
<path d="M23 16C22.4477 16 22 16.4477 22 17V21C22 21.5523 21.5523 22 21 22H3C2.44772 22 2.00002 21.5523 2.00002 21V17C2.00002 16.4477 1.55231 16 1.00003 16C0.447703 16 0 16.4477 0 17V21C0 22.6569 1.34316 24 3 24H21C22.6568 24 24 22.6569 24 21V17C24 16.4477 23.5523 16 23 16Z" fill="#405462"/>
</svg>
