<svg width="24" height="24" viewBox="0 0 24 24" fill="none" xmlns="http://www.w3.org/2000/svg">
<path d="M11.4527 14.0182C7.19099 14.4034 3.94415 18.0045 4.00073 22.2832V22.5002C4.00073 23.3286 4.67231 24.0002 5.50073 24.0002C6.32915 24.0002 7.00073 23.3286 7.00073 22.5002V22.2232C6.95563 19.5961 8.89438 17.3558 11.5007 17.0232C14.252 16.7504 16.7035 18.7596 16.9763 21.5108C16.9924 21.6734 17.0006 21.8368 17.0007 22.0002V22.5002C17.0007 23.3286 17.6723 24.0002 18.5007 24.0002C19.3291 24.0002 20.0007 23.3286 20.0007 22.5002V22.0002C19.9958 17.5769 16.4061 13.9951 11.9829 14C11.806 14.0002 11.6292 14.0063 11.4527 14.0182Z" fill="#405462"/>
<path d="M12 12C15.3137 12 18 9.31369 18 6C18 2.68631 15.3137 0 12 0C8.68631 0 6 2.68631 6 6C6.00328 9.31233 8.68767 11.9967 12 12ZM12 3C13.6568 3 15 4.34316 15 6C15 7.65684 13.6568 9 12 9C10.3432 9 9 7.65684 9 6C9 4.34316 10.3432 3 12 3Z" fill="#405462"/>
</svg>
