<svg width="24" height="24" viewBox="0 0 24 24" fill="none" xmlns="http://www.w3.org/2000/svg">
<g clip-path="url(#clip0_653_14434)">
<path d="M12 14.9912C10.3432 14.9912 9 16.3344 9 17.9912V23.9912H15V17.9912C15 16.3344 13.6568 14.9912 12 14.9912Z" fill="#405462"/>
<path d="M17 17.9919V23.9919H21C22.6568 23.9919 24 22.6487 24 20.9919V11.8709C24.0002 11.3514 23.7983 10.8522 23.437 10.4789L14.939 1.29188C13.4396 -0.330467 10.9089 -0.430077 9.28655 1.06936C9.20949 1.14061 9.13523 1.21481 9.06403 1.29188L0.581016 10.4759C0.208734 10.8507 -0.000140554 11.3576 7.09607e-08 11.8859V20.9919C7.09607e-08 22.6487 1.34316 23.9919 3 23.9919H6.99998V17.9919C7.01869 15.2651 9.22027 13.0383 11.8784 12.9742C14.6255 12.9079 16.9791 15.1726 17 17.9919Z" fill="#405462"/>
<path d="M12 14.9912C10.3432 14.9912 9 16.3344 9 17.9912V23.9912H15V17.9912C15 16.3344 13.6568 14.9912 12 14.9912Z" fill="#405462"/>
</g>
<defs>
<clipPath id="clip0_653_14434">
<rect width="24" height="24" fill="white"/>
</clipPath>
</defs>
</svg>
