<svg width="24" height="24" viewBox="0 0 24 24" fill="none" xmlns="http://www.w3.org/2000/svg">
<path d="M19.9998 1.38919e-05H18.2428C17.7171 -0.00137567 17.1965 0.101493 16.7109 0.302666C16.2253 0.503839 15.7844 0.799322 15.4138 1.17201L12.1718 4.41401C11.4236 5.16534 11.0024 6.18171 10.9998 7.24201V10.99C8.14478 12.976 3.49078 16.266 2.87878 16.879C2.44368 17.317 2.15468 17.8789 2.05138 18.4876C1.94808 19.0962 2.03554 19.722 2.30178 20.279L0.292786 22.293C0.105315 22.4805 0 22.7348 0 23C0 23.2652 0.105315 23.5195 0.292786 23.707C0.480314 23.8945 0.734621 23.9998 0.999785 23.9998C1.26495 23.9998 1.51926 23.8945 1.70678 23.707L3.71378 21.7C4.27093 21.9718 4.89923 22.0621 5.51036 21.9582C6.12148 21.8543 6.68468 21.5616 7.12078 21.121C7.73378 20.509 11.0208 15.855 13.0098 13H16.7568C17.2824 13.0014 17.8031 12.8985 18.2887 12.6974C18.7742 12.4962 19.2151 12.2007 19.5858 11.828L22.8278 8.58601C23.5759 7.83468 23.9971 6.81831 23.9998 5.75801V4.00001C23.9998 2.93915 23.5783 1.92173 22.8282 1.17159C22.078 0.421441 21.0606 1.38919e-05 19.9998 1.38919e-05ZM19.7068 5.70701L14.7068 10.707C14.5182 10.8892 14.2656 10.99 14.0034 10.9877C13.7412 10.9854 13.4904 10.8802 13.305 10.6948C13.1195 10.5094 13.0144 10.2586 13.0121 9.99642C13.0098 9.73422 13.1106 9.48162 13.2928 9.29301L18.2928 4.29301C18.385 4.1975 18.4954 4.12132 18.6174 4.06891C18.7394 4.0165 18.8706 3.98892 19.0034 3.98776C19.1361 3.98661 19.2678 4.01191 19.3907 4.06219C19.5136 4.11247 19.6253 4.18673 19.7192 4.28062C19.813 4.37451 19.8873 4.48616 19.9376 4.60906C19.9879 4.73196 20.0132 4.86364 20.012 4.99642C20.0109 5.12919 19.9833 5.26041 19.9309 5.38242C19.8785 5.50442 19.8023 5.61477 19.7068 5.70701Z" fill="#405462"/>
</svg>
