<svg width="24" height="24" viewBox="0 0 24 24" fill="none" xmlns="http://www.w3.org/2000/svg">
<g clip-path="url(#clip0_653_14682)">
<path d="M23.9001 11.4375C23.5072 8.41296 21.9773 5.65148 19.6214 3.71439C17.2655 1.7773 14.2605 0.809959 11.217 1.009C8.17347 1.20803 5.31996 2.55851 3.23644 4.78593C1.15291 7.01335 -0.00428024 9.95055 7.4054e-05 13.0005C-0.00569035 14.6331 0.325132 16.2492 0.971889 17.7482C1.61865 19.2471 2.56745 20.5967 3.75907 21.7125C4.67041 22.5563 5.87123 23.0174 7.11307 23.0005H16.8801C18.192 23.0036 19.4525 22.4903 20.3891 21.5715C21.7238 20.273 22.7364 18.6803 23.346 16.9208C23.9556 15.1612 24.1453 13.2835 23.9001 11.4375ZM7.47207 19.6615C7.3853 19.7602 7.27994 19.8408 7.162 19.8988C7.04406 19.9567 6.91586 19.9908 6.78473 19.9992C6.65359 20.0075 6.5221 19.99 6.39776 19.9475C6.27342 19.905 6.15867 19.8384 6.06007 19.7515C4.68566 18.5449 3.71184 16.9478 3.26851 15.1734C2.82519 13.399 2.93342 11.5316 3.57879 9.82027C4.22416 8.10896 5.37597 6.6351 6.8806 5.5953C8.38522 4.55549 10.1711 3.99918 12.0001 4.00055C12.7586 4.00078 13.5141 4.09585 14.2491 4.28355C14.3763 4.31638 14.4959 4.37395 14.6009 4.45298C14.7059 4.53201 14.7943 4.63094 14.861 4.74414C14.9278 4.85733 14.9716 4.98257 14.99 5.1127C15.0084 5.24283 15.0009 5.3753 14.9681 5.50255C14.9352 5.6298 14.8777 5.74934 14.7986 5.85434C14.7196 5.95934 14.6207 6.04775 14.5075 6.11451C14.3943 6.18128 14.2691 6.22509 14.1389 6.24346C14.0088 6.26182 13.8763 6.25438 13.7491 6.22155C12.2256 5.82667 10.6134 5.95719 9.17329 6.59198C7.73315 7.22678 6.54922 8.32876 5.81291 9.71973C5.0766 11.1107 4.83096 12.7094 5.11571 14.2572C5.40045 15.8051 6.19895 17.2117 7.38207 18.2495C7.48075 18.3363 7.56136 18.4417 7.61929 18.5596C7.67722 18.6776 7.71134 18.8058 7.7197 18.9369C7.72806 19.068 7.71049 19.1995 7.668 19.3239C7.62551 19.4482 7.55893 19.563 7.47207 19.6615ZM12.0001 15.0005C11.7134 15.0043 11.4292 14.9464 11.1669 14.8308C10.9046 14.7151 10.6701 14.5444 10.4796 14.3302C10.289 14.116 10.1467 13.8634 10.0623 13.5893C9.97789 13.3153 9.95341 13.0264 9.99049 12.7421C10.0276 12.4578 10.1253 12.1848 10.2772 11.9416C10.429 11.6984 10.6313 11.4907 10.8705 11.3325C11.1096 11.1744 11.38 11.0695 11.6632 11.025C11.9465 10.9805 12.2359 10.9974 12.5121 11.0745L16.2931 7.29355C16.3853 7.19804 16.4957 7.12186 16.6177 7.06945C16.7397 7.01704 16.8709 6.98945 17.0037 6.9883C17.1365 6.98714 17.2681 7.01245 17.391 7.06273C17.5139 7.11301 17.6256 7.18726 17.7195 7.28115C17.8134 7.37505 17.8876 7.4867 17.9379 7.60959C17.9882 7.73249 18.0135 7.86417 18.0123 7.99695C18.0112 8.12973 17.9836 8.26095 17.9312 8.38295C17.8788 8.50496 17.8026 8.6153 17.7071 8.70755L13.9261 12.4885C14.0095 12.7843 14.0227 13.0955 13.9648 13.3972C13.9068 13.699 13.7793 13.9831 13.5923 14.227C13.4053 14.4709 13.1641 14.6678 12.8877 14.8021C12.6113 14.9363 12.3073 15.0043 12.0001 15.0005ZM17.9401 19.7515C17.7401 19.9194 17.4825 20.0024 17.2222 19.9828C16.9619 19.9633 16.7195 19.8427 16.5469 19.6468C16.3743 19.451 16.2851 19.1954 16.2984 18.9347C16.3117 18.674 16.4264 18.4288 16.6181 18.2515C17.5904 17.3988 18.3072 16.293 18.6887 15.0572C19.0703 13.8214 19.1015 12.504 18.7791 11.2515C18.7128 10.9946 18.7513 10.7217 18.8861 10.4931C19.0209 10.2645 19.2411 10.0989 19.4981 10.0325C19.7551 9.96624 20.0279 10.0047 20.2565 10.1396C20.4851 10.2744 20.6508 10.4946 20.7171 10.7515C20.9048 11.4865 20.9999 12.242 21.0001 13.0005C20.9986 14.2786 20.7249 15.5416 20.1973 16.7057C19.6697 17.8697 18.9002 18.908 17.9401 19.7515Z" fill="#405462"/>
</g>
<defs>
<clipPath id="clip0_653_14682">
<rect width="24" height="24" fill="white"/>
</clipPath>
</defs>
</svg>
