<svg width="24" height="24" viewBox="0 0 24 24" fill="none" xmlns="http://www.w3.org/2000/svg">
<g clip-path="url(#clip0_653_14770)">
<path d="M11.0006 20.0005C11.0006 20.2657 10.8952 20.5201 10.7077 20.7076C10.5201 20.8952 10.2658 21.0005 10.0006 21.0005H8.00057V23.0005C8.00057 23.2657 7.89521 23.5201 7.70768 23.7076C7.52014 23.8952 7.26579 24.0005 7.00057 24.0005C6.73535 24.0005 6.481 23.8952 6.29346 23.7076C6.10593 23.5201 6.00057 23.2657 6.00057 23.0005V21.0005H4.00057C3.73535 21.0005 3.481 20.8952 3.29346 20.7076C3.10593 20.5201 3.00057 20.2657 3.00057 20.0005C3.00057 19.7353 3.10593 19.4809 3.29346 19.2934C3.481 19.1059 3.73535 19.0005 4.00057 19.0005H6.00057V14.8495C4.98499 14.6451 4.02276 14.2325 3.17456 13.6377C2.32635 13.043 1.61056 12.2789 1.0723 11.3938C0.534042 10.5087 0.184992 9.52161 0.0471538 8.49487C-0.0906842 7.46813 -0.014321 6.42397 0.27143 5.42821C0.55718 4.43245 1.04612 3.50668 1.70743 2.70927C2.36874 1.91186 3.18807 1.26009 4.11379 0.795063C5.0395 0.330034 6.05151 0.0618244 7.08603 0.00734168C8.12055 -0.0471411 9.15513 0.113285 10.1246 0.478506C9.1412 1.36497 8.35499 2.4481 7.81685 3.65774C7.2787 4.86738 7.00063 6.17656 7.00063 7.50051C7.00063 8.82445 7.2787 10.1336 7.81685 11.3433C8.35499 12.5529 9.1412 13.636 10.1246 14.5225C9.44232 14.7762 8.72686 14.9294 8.00057 14.9775V19.0005H10.0006C10.2658 19.0005 10.5201 19.1059 10.7077 19.2934C10.8952 19.4809 11.0006 19.7353 11.0006 20.0005ZM24.0006 7.50051C24.0022 6.03809 23.5762 4.60711 22.7751 3.38365C21.974 2.16019 20.8327 1.19763 19.4916 0.614413C18.1505 0.0312001 16.6682 -0.147217 15.227 0.101117C13.7858 0.349451 12.4487 1.0137 11.3801 2.01213C10.3116 3.01055 9.55824 4.29959 9.21281 5.72062C8.86737 7.14165 8.94492 8.63267 9.4359 10.0102C9.92688 11.3877 10.8099 12.5917 11.9762 13.4739C13.1426 14.3561 14.5414 14.878 16.0006 14.9755V19.0005H14.0006C13.7354 19.0005 13.481 19.1059 13.2935 19.2934C13.1059 19.4809 13.0006 19.7353 13.0006 20.0005C13.0006 20.2657 13.1059 20.5201 13.2935 20.7076C13.481 20.8952 13.7354 21.0005 14.0006 21.0005H16.0006V23.0005C16.0006 23.2657 16.1059 23.5201 16.2935 23.7076C16.481 23.8952 16.7354 24.0005 17.0006 24.0005C17.2658 24.0005 17.5201 23.8952 17.7077 23.7076C17.8952 23.5201 18.0006 23.2657 18.0006 23.0005V21.0005H20.0006C20.2658 21.0005 20.5201 20.8952 20.7077 20.7076C20.8952 20.5201 21.0006 20.2657 21.0006 20.0005C21.0006 19.7353 20.8952 19.4809 20.7077 19.2934C20.5201 19.1059 20.2658 19.0005 20.0006 19.0005H18.0006V14.8495C19.6933 14.5015 21.2144 13.5805 22.3073 12.2419C23.4002 10.9032 23.9983 9.22867 24.0006 7.50051Z" fill="#405462"/>
</g>
<defs>
<clipPath id="clip0_653_14770">
<rect width="24" height="24" fill="white"/>
</clipPath>
</defs>
</svg>
