<svg width="24" height="24" viewBox="0 0 24 24" fill="none" xmlns="http://www.w3.org/2000/svg">
<g clip-path="url(#clip0_1303_6329)">
<path d="M13.5 9H12V7.5C12 6.67158 11.3284 6 10.5 6C9.67158 6 9 6.67158 9 7.5V9H7.5C6.67158 9 6 9.67158 6 10.5C6 11.3284 6.67158 12 7.5 12H9V13.5C9 14.3284 9.67158 15 10.5 15C11.3284 15 12 14.3284 12 13.5V12H13.5C14.3284 12 15 11.3284 15 10.5C15 9.67158 14.3284 9 13.5 9Z" fill="#405462"/>
<path d="M23.5626 21.448L18.9199 16.8043C22.3971 12.1608 21.4516 5.57773 16.8081 2.10058C12.1647 -1.37656 5.58168 -0.431184 2.10449 4.21226C-1.3727 8.8557 -0.427227 15.4388 4.21621 18.9159C7.94685 21.7095 13.0723 21.7108 16.8042 18.9189L21.449 23.5636C22.0326 24.1473 22.979 24.1473 23.5626 23.5636C24.1463 22.98 24.1463 22.0336 23.5626 21.45V21.448ZM10.5527 18.0224C6.42679 18.0224 3.08207 14.6777 3.08207 10.5518C3.08207 6.42584 6.42684 3.08112 10.5527 3.08112C14.6786 3.08112 18.0234 6.42584 18.0234 10.5518C18.019 14.6759 14.6769 18.0181 10.5527 18.0224Z" fill="#405462"/>
</g>
<defs>
<clipPath id="clip0_1303_6329">
<rect width="24" height="24" fill="white"/>
</clipPath>
</defs>
</svg>
