<svg width="24" height="24" viewBox="0 0 24 24" fill="none" xmlns="http://www.w3.org/2000/svg">
<g clip-path="url(#clip0_653_14783)">
<path d="M23.7086 22.2927L17.7426 16.3277C19.3663 14.3413 20.1643 11.8069 19.9718 9.24859C19.7793 6.69032 18.6109 4.30389 16.7083 2.58288C14.8056 0.861869 12.3144 -0.0620676 9.74965 0.00216107C7.18494 0.0663897 4.74302 1.11387 2.92894 2.92796C1.11485 4.74205 0.0673663 7.18397 0.00313764 9.74867C-0.061091 12.3134 0.862845 14.8047 2.58386 16.7073C4.30487 18.6099 6.69129 19.7783 9.24957 19.9708C11.8078 20.1634 14.3423 19.3653 16.3286 17.7417L22.2946 23.7067C22.4832 23.8888 22.7358 23.9896 22.998 23.9873C23.2602 23.9851 23.511 23.8799 23.6965 23.6945C23.8819 23.5091 23.987 23.2583 23.9893 22.9961C23.9916 22.7339 23.8908 22.4813 23.7086 22.2927ZM13.0016 10.9997H7.00164C6.73642 10.9997 6.48207 10.8943 6.29453 10.7068C6.10699 10.5192 6.00164 10.2649 6.00164 9.99966C6.00164 9.73444 6.10699 9.48009 6.29453 9.29255C6.48207 9.10502 6.73642 8.99966 7.00164 8.99966H13.0016C13.2669 8.99966 13.5212 9.10502 13.7087 9.29255C13.8963 9.48009 14.0016 9.73444 14.0016 9.99966C14.0016 10.2649 13.8963 10.5192 13.7087 10.7068C13.5212 10.8943 13.2669 10.9997 13.0016 10.9997Z" fill="#405462"/>
</g>
<defs>
<clipPath id="clip0_653_14783">
<rect width="24" height="24" fill="white"/>
</clipPath>
</defs>
</svg>
