<svg width="24" height="24" viewBox="0 0 24 24" fill="none" xmlns="http://www.w3.org/2000/svg">
<g clip-path="url(#clip0_1336_6512)">
<path d="M19.0002 10.707C19.6406 10.004 19.997 9.08803 20.0002 8.137C19.9977 7.35129 19.7566 6.58485 19.309 5.93915C18.8613 5.29344 18.2281 4.7989 17.4932 4.521L16.0002 3.96V2.908C16.3295 2.78708 16.606 2.55455 16.7817 2.25085C16.9573 1.94715 17.0209 1.59149 16.9615 1.24572C16.902 0.899964 16.7233 0.58598 16.4563 0.358381C16.1893 0.130783 15.851 0.00397079 15.5002 0L8.50015 0C8.14934 0.00397079 7.81102 0.130783 7.54403 0.358381C7.27704 0.58598 7.09827 0.899964 7.03882 1.24572C6.97937 1.59149 7.043 1.94715 7.21864 2.25085C7.39428 2.55455 7.67081 2.78708 8.00015 2.908V3.96L6.50715 4.521C5.77222 4.7989 5.13901 5.29344 4.69134 5.93915C4.24367 6.58485 4.00264 7.35129 4.00015 8.137C4.00329 9.08803 4.35969 10.004 5.00015 10.707C4.32518 11.5308 3.97066 12.5708 4.0019 13.6353C4.03314 14.6998 4.44804 15.7172 5.17015 16.5C4.58383 17.1431 4.19745 17.943 4.0582 18.802C3.91895 19.6611 4.03285 20.5421 4.386 21.3374C4.73914 22.1328 5.31625 22.8081 6.04685 23.281C6.77744 23.7538 7.62991 24.0036 8.50015 24H15.5002C16.3704 24.0036 17.2229 23.7538 17.9535 23.281C18.6841 22.8081 19.2612 22.1328 19.6143 21.3374C19.9675 20.5421 20.0814 19.6611 19.9421 18.802C19.8029 17.943 19.4165 17.1431 18.8302 16.5C19.5523 15.7172 19.9672 14.6998 19.9984 13.6353C20.0296 12.5708 19.6751 11.5308 19.0002 10.707V10.707ZM15.5002 15H8.50015C8.10233 15 7.7208 14.842 7.43949 14.5607C7.15819 14.2794 7.00015 13.8978 7.00015 13.5C7.00015 13.1022 7.15819 12.7206 7.43949 12.4393C7.7208 12.158 8.10233 12 8.50015 12H15.5002C15.898 12 16.2795 12.158 16.5608 12.4393C16.8421 12.7206 17.0002 13.1022 17.0002 13.5C17.0002 13.8978 16.8421 14.2794 16.5608 14.5607C16.2795 14.842 15.898 15 15.5002 15V15ZM7.56015 7.33L10.0262 6.4C10.3115 6.29317 10.5575 6.10199 10.7315 5.8519C10.9055 5.6018 10.9992 5.30466 11.0002 5V3H13.0002V5C13.0011 5.30466 13.0948 5.6018 13.2688 5.8519C13.4428 6.10199 13.6888 6.29317 13.9742 6.4L16.4402 7.326C16.6296 7.39642 16.7883 7.53118 16.8885 7.70673C16.9887 7.88229 17.024 8.08746 16.9883 8.28641C16.9525 8.48536 16.848 8.66542 16.693 8.79512C16.538 8.92483 16.3423 8.99593 16.1402 8.996H7.86215C7.66002 8.99593 7.46434 8.92483 7.30931 8.79512C7.15429 8.66542 7.04977 8.48536 7.01403 8.28641C6.97829 8.08746 7.0136 7.88229 7.11379 7.70673C7.21399 7.53118 7.37268 7.39642 7.56215 7.326L7.56015 7.33ZM15.5002 21H8.50015C8.10233 21 7.7208 20.842 7.43949 20.5607C7.15819 20.2794 7.00015 19.8978 7.00015 19.5C7.00015 19.1022 7.15819 18.7206 7.43949 18.4393C7.7208 18.158 8.10233 18 8.50015 18H15.5002C15.898 18 16.2795 18.158 16.5608 18.4393C16.8421 18.7206 17.0002 19.1022 17.0002 19.5C17.0002 19.8978 16.8421 20.2794 16.5608 20.5607C16.2795 20.842 15.898 21 15.5002 21V21Z" fill="#405462"/>
</g>
<defs>
<clipPath id="clip0_1336_6512">
<rect width="24" height="24" fill="white"/>
</clipPath>
</defs>
</svg>
