<svg width="24" height="24" viewBox="0 0 24 24" fill="none" xmlns="http://www.w3.org/2000/svg">
<g clip-path="url(#clip0_1336_6493)">
<path d="M3.08661 10.6841C3.81076 5.76306 8.38705 2.36083 13.3081 3.08498C14.987 3.33203 16.562 4.04842 17.8516 5.15163L16.6907 6.31251C16.3016 6.7017 16.3017 7.33267 16.6909 7.72176C16.8777 7.90851 17.1311 8.01347 17.3952 8.01351H21.9651C22.5155 8.01351 22.9616 7.56739 22.9616 7.01705V2.44715C22.9614 1.89681 22.5152 1.45077 21.9649 1.45087C21.7007 1.45091 21.4474 1.55587 21.2606 1.74262L19.9651 3.03803C15.025 -1.36557 7.45042 -0.930701 3.04681 4.00937C1.48674 5.75947 0.474339 7.92878 0.135035 10.2486C0.00125732 11.071 0.559491 11.8462 1.38187 11.98C1.45595 11.992 1.53078 11.9985 1.60585 11.9994C2.35826 11.9913 2.98983 11.4303 3.08661 10.6841Z" fill="#405462"/>
<path d="M22.3947 11.9995C21.6423 12.0076 21.0107 12.5687 20.9139 13.3149C20.1898 18.2359 15.6135 21.6381 10.6925 20.914C9.01353 20.667 7.43855 19.9506 6.14898 18.8474L7.30986 17.6865C7.69896 17.2973 7.69887 16.6663 7.30963 16.2772C7.12284 16.0905 6.86948 15.9855 6.60533 15.9855H2.03553C1.48519 15.9855 1.03906 16.4316 1.03906 16.982V21.5518C1.0392 22.1022 1.48543 22.5482 2.03577 22.5481C2.29991 22.5481 2.55327 22.4431 2.74006 22.2564L4.03548 20.961C8.97438 25.365 16.5484 24.9315 20.9525 19.9926C22.5134 18.2421 23.5263 16.072 23.8655 13.7514C23.9999 12.929 23.4421 12.1535 22.6198 12.0192C22.5454 12.007 22.4701 12.0004 22.3947 11.9995Z" fill="#405462"/>
</g>
<defs>
<clipPath id="clip0_1336_6493">
<rect width="24" height="24" fill="white"/>
</clipPath>
</defs>
</svg>
