<svg width="24" height="24" viewBox="0 0 24 24" fill="none" xmlns="http://www.w3.org/2000/svg">
<g clip-path="url(#clip0_653_14774)">
<path d="M23.9904 12.1589C23.9666 13.9093 23.5569 15.633 22.7904 17.2069C22.7168 17.2061 22.6433 17.2138 22.5714 17.2299C20.7536 17.7643 18.866 18.0236 16.9714 17.9989C14.9319 18.0559 12.8965 17.7859 10.9424 17.1989C10.7101 17.1201 10.501 16.9847 10.334 16.805C10.1671 16.6252 10.0475 16.4067 9.98608 16.1691C9.92466 15.9316 9.92334 15.6825 9.98223 15.4444C10.0411 15.2062 10.1584 14.9864 10.3234 14.8049C10.6601 14.4302 11.0202 14.0772 11.4014 13.7479C11.5982 13.5895 11.8325 13.4849 12.0817 13.444C12.3309 13.4032 12.5865 13.4276 12.8234 13.5149C14.1019 13.9414 15.4407 14.1595 16.7884 14.1609C19.3229 14.1348 21.8061 13.4445 23.9904 12.1589ZM15.2464 12.0229C15.4731 12.0597 15.7052 12.0435 15.9245 11.9756C16.1439 11.9077 16.3446 11.79 16.5109 11.6317C16.6772 11.4733 16.8046 11.2787 16.8831 11.0629C16.9616 10.8471 16.9891 10.6161 16.9634 10.3879C16.5005 6.60854 14.7906 3.09143 12.1044 0.392883C12.0023 0.282158 11.927 0.149393 11.8844 0.00488281C10.3025 0.016479 8.73871 0.343173 7.28444 0.965883C8.80231 2.09837 10.073 3.52878 11.0187 5.16953C11.9645 6.81028 12.5653 8.62681 12.7844 10.5079C12.8256 10.7973 12.9515 11.0681 13.1461 11.2862C13.3408 11.5044 13.5955 11.6601 13.8784 11.7339C14.3276 11.8603 14.7846 11.9568 15.2464 12.0229ZM20.9204 11.3799C21.9367 11.0069 22.9049 10.5141 23.8044 9.91188C23.392 7.59518 22.3084 5.45054 20.6883 3.74399C19.0681 2.03743 16.9826 0.844055 14.6904 0.311883C17.0281 3.12211 18.5055 6.54703 18.9454 10.1759C18.9724 10.3968 19.049 10.6088 19.1695 10.7959C19.29 10.983 19.4513 11.1403 19.6414 11.2562C19.8314 11.372 20.0452 11.4433 20.2667 11.4648C20.4882 11.4862 20.7117 11.4572 20.9204 11.3799ZM16.7984 19.9989C14.3353 20.0398 11.8843 19.6468 9.55744 18.8379C9.37013 18.7694 9.17064 18.7406 8.97161 18.7533C8.77258 18.7659 8.57835 18.8198 8.40123 18.9115C8.22411 19.0031 8.06797 19.1306 7.94268 19.2858C7.8174 19.4409 7.72572 19.6204 7.67344 19.8129C7.40557 20.8682 7.28476 21.9555 7.31444 23.0439C9.69401 24.0554 12.3369 24.2702 14.8486 23.6561C17.3602 23.0421 19.6059 21.6322 21.2504 19.6369C19.7835 19.9149 18.2911 20.0363 16.7984 19.9989ZM10.7984 10.8299C10.735 10.2399 10.627 9.65558 10.4754 9.08188C10.4099 8.84369 10.2853 8.62592 10.1131 8.44878C9.94094 8.27164 9.72678 8.14089 9.49054 8.06866C9.2543 7.99643 9.00365 7.98507 8.76184 8.03564C8.52004 8.0862 8.29494 8.19705 8.10744 8.35788C5.22463 10.8886 3.16903 14.2273 2.20744 17.9409C2.15857 18.2193 2.12751 18.5005 2.11444 18.7829C2.97283 20.0312 4.05837 21.1069 5.31444 21.9539C5.42123 20.0592 5.91448 18.2063 6.76385 16.5093C7.61322 14.8123 8.80076 13.307 10.2534 12.0859C10.4402 11.9371 10.5875 11.7448 10.6825 11.5258C10.7776 11.3068 10.8174 11.0679 10.7984 10.8299ZM7.76544 4.10788C7.04133 3.31119 6.21124 2.61771 5.29844 2.04688C3.08182 3.52763 1.42462 5.70772 0.590954 8.23971C-0.242714 10.7717 -0.204877 13.5099 0.698436 16.0179C1.99401 12.1478 4.38211 8.73551 7.57444 6.19288C7.72838 6.07167 7.85601 5.92036 7.94953 5.74819C8.04305 5.57601 8.1005 5.38658 8.11837 5.19146C8.13625 4.99634 8.11417 4.79963 8.05349 4.61333C7.99281 4.42703 7.8948 4.25505 7.76544 4.10788Z" fill="#405462"/>
</g>
<defs>
<clipPath id="clip0_653_14774">
<rect width="24" height="24" fill="white"/>
</clipPath>
</defs>
</svg>
