<svg width="24" height="24" viewBox="0 0 24 24" fill="none" xmlns="http://www.w3.org/2000/svg">
<g clip-path="url(#clip0_1296_6349)">
<path d="M22.412 8.70049C21.9924 8.54998 21.5415 8.50838 21.1015 8.57956C20.6615 8.65074 20.2467 8.83238 19.896 9.10749L18.811 9.91549C18.5494 8.96388 18.029 8.10348 17.3077 7.42997C16.5863 6.75646 15.6923 6.29624 14.725 6.10049L10.146 1.52549C9.48982 0.869371 8.59994 0.500686 7.672 0.500488H1.5C1.10218 0.500488 0.720644 0.658524 0.43934 0.939828C0.158035 1.22113 0 1.60266 0 2.00049H0C0 2.39831 0.158035 2.77984 0.43934 3.06115C0.720644 3.34245 1.10218 3.50049 1.5 3.50049H7.672C7.73771 3.50037 7.80279 3.5132 7.86353 3.53826C7.92427 3.56331 7.97948 3.60009 8.026 3.64649L10.38 6.00049H5.318C3.90758 6.00049 2.55492 6.56078 1.55761 7.55809C0.560288 8.55541 0 9.90807 0 11.3185L0 18.6825C0 19.3809 0.137554 20.0724 0.404809 20.7176C0.672063 21.3628 1.06378 21.9491 1.55761 22.4429C2.55492 23.4402 3.90758 24.0005 5.318 24.0005H13.682C14.8472 23.999 15.9798 23.6155 16.9062 22.9087C17.8326 22.2019 18.5017 21.2109 18.811 20.0875L20.011 20.9785C20.4416 21.3014 20.9648 21.4768 21.503 21.4785C22.0295 21.4756 22.542 21.3085 22.969 21.0005C23.2987 20.7495 23.5641 20.4238 23.7434 20.0502C23.9226 19.6766 24.0106 19.2657 24 18.8515V11.0275C24.0011 10.5247 23.85 10.0333 23.5666 9.61794C23.2831 9.2026 22.8806 8.88277 22.412 8.70049V8.70049ZM16 18.6825C15.9992 19.297 15.7547 19.8861 15.3202 20.3207C14.8857 20.7552 14.2965 20.9997 13.682 21.0005H5.318C4.70347 20.9997 4.11434 20.7552 3.6798 20.3207C3.24527 19.8861 3.00079 19.297 3 18.6825V11.3185C3.00079 10.704 3.24527 10.1148 3.6798 9.68029C4.11434 9.24575 4.70347 9.00128 5.318 9.00049H13.682C14.2965 9.00128 14.8857 9.24575 15.3202 9.68029C15.7547 10.1148 15.9992 10.704 16 11.3185V18.6825Z" fill="#405462"/>
</g>
<defs>
<clipPath id="clip0_1296_6349">
<rect width="24" height="24" fill="white"/>
</clipPath>
</defs>
</svg>
