<svg width="24" height="24" viewBox="0 0 24 24" fill="none" xmlns="http://www.w3.org/2000/svg">
<path d="M12.7506 7C11.447 7.06473 10.4411 8.17122 10.5006 9.475C10.56 8.17122 9.5541 7.06473 8.25055 7C6.947 7.06473 5.94111 8.17122 6.00055 9.475C6.00055 11.422 8.53855 13.74 9.80057 14.755C10.2092 15.0841 10.7919 15.0841 11.2006 14.755C12.4646 13.74 15.0006 11.422 15.0006 9.475C15.06 8.17122 14.0541 7.06473 12.7506 7Z" fill="#405462"/>
<path d="M23.5614 21.4395L18.9187 16.7957C22.3925 12.1539 21.4457 5.57493 16.804 2.10103C12.1622 -1.37288 5.58318 -0.426051 2.10932 4.21575C-1.36453 8.85754 -0.4178 15.4365 4.224 18.9104C7.953 21.7012 13.075 21.7012 16.804 18.9104L21.4477 23.5552C22.0314 24.1388 22.9777 24.1388 23.5614 23.5552C24.1451 22.9715 24.1451 22.0252 23.5614 21.4415V21.4395ZM3.0809 10.5433C3.0809 6.41737 6.42562 3.07265 10.5516 3.07265C14.6775 3.07265 18.0222 6.41737 18.0222 10.5433C18.0222 14.6692 14.6775 18.014 10.5516 18.014C6.42745 18.0096 3.08531 14.6674 3.0809 10.5433Z" fill="#405462"/>
</svg>
