<svg width="24" height="24" viewBox="0 0 24 24" fill="none" xmlns="http://www.w3.org/2000/svg">
<g clip-path="url(#clip0_1336_6499)">
<path d="M14.5 5C14.9945 5 15.4778 4.85338 15.8889 4.57868C16.3 4.30397 16.6205 3.91353 16.8097 3.45671C16.9989 2.99989 17.0484 2.49723 16.952 2.01228C16.8555 1.52732 16.6174 1.08187 16.2678 0.732234C15.9181 0.382603 15.4727 0.144501 14.9877 0.0480379C14.5028 -0.0484251 14.0001 0.00108321 13.5433 0.190302C13.0865 0.379521 12.696 0.699953 12.4213 1.11108C12.1466 1.5222 12 2.00555 12 2.5C12 3.16304 12.2634 3.79893 12.7322 4.26777C13.2011 4.73661 13.837 5 14.5 5V5ZM22 11H19.13C18.9578 10.9993 18.7887 10.9545 18.6388 10.8697C18.489 10.785 18.3633 10.6632 18.274 10.516L16.43 7.453C16.1621 7.01078 15.7851 6.64487 15.335 6.39041C14.8849 6.13596 14.377 6.00152 13.86 6H7.236C6.67854 5.99806 6.13168 6.15236 5.65746 6.44541C5.18323 6.73847 4.80061 7.15855 4.553 7.658L3.105 10.558C3.0463 10.6755 3.01132 10.8035 3.00207 10.9345C2.99281 11.0656 3.00946 11.1972 3.05106 11.3218C3.13508 11.5735 3.31563 11.7815 3.553 11.9C3.79037 12.0186 4.06511 12.038 4.31678 11.9539C4.4414 11.9123 4.5566 11.8466 4.65581 11.7605C4.75502 11.6744 4.8363 11.5695 4.895 11.452L6.342 8.553C6.42444 8.38648 6.5519 8.2464 6.70992 8.14865C6.86794 8.05091 7.05019 7.99941 7.236 8H9.454L7.7 12.273C7.43245 12.9256 7.40338 13.6516 7.61789 14.3235C7.83241 14.9954 8.27679 15.5702 8.873 15.947L12.989 18.547V23C12.989 23.2667 13.0949 23.5224 13.2835 23.711C13.4721 23.8996 13.7278 24.0055 13.9945 24.0055C14.2612 24.0055 14.5169 23.8996 14.7055 23.711C14.8941 23.5224 15 23.2667 15 23V18C14.998 17.8306 14.9535 17.6645 14.8705 17.5168C14.7875 17.3691 14.6687 17.2447 14.525 17.155L12.49 15.868L15.19 9.277L16.557 11.547C16.8252 11.9896 17.2027 12.3557 17.6534 12.6102C18.104 12.8647 18.6125 12.9989 19.13 13H22C22.2652 13 22.5196 12.8946 22.7071 12.7071C22.8946 12.5196 23 12.2652 23 12C23 11.7348 22.8946 11.4804 22.7071 11.2929C22.5196 11.1054 22.2652 11 22 11ZM8.432 18.114C8.21081 18.6719 7.82672 19.1501 7.32978 19.4865C6.83284 19.823 6.2461 20.0019 5.646 20H3C2.73478 20 2.48043 19.8946 2.29289 19.7071C2.10536 19.5196 2 19.2652 2 19C2 18.7348 2.10536 18.4804 2.29289 18.2929C2.48043 18.1054 2.73478 18 3 18H5.646C5.84601 18.0007 6.04157 17.941 6.20714 17.8288C6.3727 17.7166 6.50056 17.557 6.574 17.371C6.67253 17.1246 6.8649 16.9275 7.10879 16.8229C7.35268 16.7184 7.62811 16.715 7.8745 16.8135C8.12089 16.912 8.31804 17.1044 8.42259 17.3483C8.52714 17.5922 8.53053 17.8676 8.432 18.114Z" fill="#405462"/>
</g>
<defs>
<clipPath id="clip0_1336_6499">
<rect width="24" height="24" fill="white"/>
</clipPath>
</defs>
</svg>
