<svg width="24" height="24" viewBox="0 0 24 24" fill="none" xmlns="http://www.w3.org/2000/svg">
<path d="M6.07812 22.5C6.07848 22.1023 6.23674 21.7211 6.51813 21.44L14.1901 13.768C14.4223 13.5359 14.6066 13.2602 14.7322 12.9569C14.8579 12.6535 14.9226 12.3284 14.9226 12C14.9226 11.6717 14.8579 11.3465 14.7322 11.0432C14.6066 10.7398 14.4223 10.4642 14.1901 10.232L6.52812 2.56502C6.25489 2.28211 6.1037 1.90321 6.10711 1.50992C6.11053 1.11662 6.26829 0.740401 6.5464 0.462289C6.82451 0.184177 7.20073 0.0264236 7.59402 0.0230059C7.98732 0.0195883 8.36622 0.17078 8.64912 0.444017L16.3111 8.10502C17.3414 9.13728 17.92 10.5361 17.92 11.9945C17.92 13.4529 17.3414 14.8518 16.3111 15.884L8.63913 23.556C8.42965 23.7656 8.16277 23.9085 7.87217 23.9666C7.58158 24.0247 7.28028 23.9954 7.00631 23.8824C6.73234 23.7695 6.49798 23.5779 6.33278 23.3319C6.16759 23.0858 6.07898 22.7964 6.07812 22.5V22.5Z" fill="#405462"/>
</svg>
