<svg width="24" height="24" viewBox="0 0 24 24" fill="none" xmlns="http://www.w3.org/2000/svg">
<path d="M3.99998 0H6.99998C9.20911 0 11 1.79086 11 3.99998V6.99998C11 9.20911 9.20911 11 6.99998 11H3.99998C1.79086 11 0 9.20916 0 6.99998V3.99998C0 1.79086 1.79086 0 3.99998 0Z" fill="#405462"/>
<path d="M3.99998 13H6.99998C9.20911 13 11 14.7909 11 17V20C11 22.2091 9.20911 24 6.99998 24H3.99998C1.79086 24 0 22.2092 0 20V17C0 14.7909 1.79086 13 3.99998 13Z" fill="#405462"/>
<path d="M17 13H20C22.2091 13 24 14.7909 24 17V20C24 22.2092 22.2091 24 20 24H17C14.7909 24 13 22.2092 13 20V17C13 14.7909 14.7908 13 17 13Z" fill="#405462"/>
<path d="M14 6.99995H17V9.99995C17 10.5522 17.4477 10.9999 18 10.9999C18.5522 10.9999 19 10.5522 19 9.99995V6.99995H22C22.5522 6.99995 22.9999 6.55225 22.9999 5.99997C22.9999 5.44769 22.5522 4.99998 22 4.99998H19V1.99998C19 1.4477 18.5522 1 18 1C17.4477 1 17 1.4477 17 1.99998V4.99998H14C13.4477 4.99998 13 5.44769 13 5.99997C13 6.55225 13.4477 6.99995 14 6.99995Z" fill="#405462"/>
</svg>
