<svg width="24" height="24" viewBox="0 0 24 24" fill="none" xmlns="http://www.w3.org/2000/svg">
<g clip-path="url(#clip0_1336_6472)">
<path d="M20 8.00022C20.0008 6.48199 19.5695 4.99489 18.7566 3.71263C17.9437 2.43037 16.7827 1.4059 15.4092 0.7589C14.0358 0.1119 12.5066 -0.130918 11.0002 0.0588135C9.49392 0.248545 8.07269 0.862991 6.90257 1.83037C5.73245 2.79775 4.86176 4.07813 4.39221 5.52192C3.92267 6.96571 3.87365 8.51331 4.2509 9.98392C4.62814 11.4545 5.41607 12.7874 6.52263 13.8269C7.62919 14.8664 9.0087 15.5696 10.5 15.8542V18.0002H9C8.60217 18.0002 8.22064 18.1583 7.93934 18.4396C7.65803 18.7209 7.5 19.1024 7.5 19.5002C7.5 19.898 7.65803 20.2796 7.93934 20.5609C8.22064 20.8422 8.60217 21.0002 9 21.0002H10.5V22.5002C10.5 22.898 10.658 23.2796 10.9393 23.5609C11.2206 23.8422 11.6022 24.0002 12 24.0002C12.3978 24.0002 12.7794 23.8422 13.0607 23.5609C13.342 23.2796 13.5 22.898 13.5 22.5002V21.0002H15C15.3978 21.0002 15.7794 20.8422 16.0607 20.5609C16.342 20.2796 16.5 19.898 16.5 19.5002C16.5 19.1024 16.342 18.7209 16.0607 18.4396C15.7794 18.1583 15.3978 18.0002 15 18.0002H13.5V15.8542C15.3269 15.5035 16.9748 14.5279 18.1608 13.0948C19.3469 11.6617 19.9971 9.86046 20 8.00022ZM7 8.00022C7 7.01131 7.29324 6.04461 7.84265 5.22236C8.39206 4.40012 9.17295 3.75926 10.0866 3.38082C11.0002 3.00238 12.0055 2.90336 12.9755 3.09629C13.9454 3.28922 14.8363 3.76542 15.5355 4.46468C16.2348 5.16394 16.711 6.05486 16.9039 7.02476C17.0969 7.99467 16.9978 9 16.6194 9.91363C16.241 10.8273 15.6001 11.6082 14.7779 12.1576C13.9556 12.707 12.9889 13.0002 12 13.0002C10.6744 12.9986 9.40356 12.4713 8.46622 11.534C7.52888 10.5967 7.00159 9.32581 7 8.00022V8.00022Z" fill="#405462"/>
</g>
<defs>
<clipPath id="clip0_1336_6472">
<rect width="24" height="24" fill="white"/>
</clipPath>
</defs>
</svg>
