<svg width="24" height="24" viewBox="0 0 24 24" fill="none" xmlns="http://www.w3.org/2000/svg">
<g clip-path="url(#clip0_1296_6420)">
<path d="M10.0008 24C8.68349 24.0025 7.37891 23.7419 6.16364 23.2334C4.94837 22.725 3.8469 21.9789 2.92383 21.039C-4.03917 14.063 3.40083 4.95404 6.54283 1.56904C6.974 1.07395 7.50675 0.677544 8.10484 0.406798C8.70293 0.136053 9.35232 -0.00268004 10.0088 3.92142e-05C10.6768 0.000811675 11.3366 0.1465 11.9428 0.427051C12.5489 0.707601 13.087 1.11633 13.5198 1.62504C16.6488 5.00004 24.0168 14.088 17.0778 21.039C16.1548 21.9789 15.0533 22.725 13.838 23.2334C12.6228 23.7419 11.3182 24.0025 10.0008 24V24ZM10.0058 3.00004C9.77159 2.99922 9.54002 3.04984 9.32748 3.14833C9.11495 3.24682 8.92663 3.39078 8.77583 3.57004C5.67483 7.05604 0.0118341 13.982 5.05683 18.929C5.70455 19.581 6.47483 20.0985 7.32333 20.4516C8.17183 20.8047 9.0818 20.9864 10.0008 20.9864C10.9199 20.9864 11.8298 20.8047 12.6783 20.4516C13.5268 20.0985 14.2971 19.581 14.9448 18.929C19.9838 14.006 14.3318 7.05004 11.2818 3.62904C11.13 3.43541 10.9366 3.27836 10.7159 3.16949C10.4952 3.06062 10.2529 3.00271 10.0068 3.00004H10.0058ZM21.5008 5.00004C20.8378 5.00004 20.2019 4.73665 19.7331 4.26781C19.2642 3.79897 19.0008 3.16308 19.0008 2.50004C19.0008 1.837 19.2642 1.20111 19.7331 0.732272C20.2019 0.263431 20.8378 3.92142e-05 21.5008 3.92142e-05C22.1639 3.92142e-05 22.7998 0.263431 23.2686 0.732272C23.7374 1.20111 24.0008 1.837 24.0008 2.50004C24.0008 3.16308 23.7374 3.79897 23.2686 4.26781C22.7998 4.73665 22.1639 5.00004 21.5008 5.00004Z" fill="#405462"/>
</g>
<defs>
<clipPath id="clip0_1296_6420">
<rect width="24" height="24" fill="white"/>
</clipPath>
</defs>
</svg>
