<svg width="24" height="24" viewBox="0 0 24 24" fill="none" xmlns="http://www.w3.org/2000/svg">
<path d="M23.1204 7.12186L20.7064 4.70686L22.7064 2.70686L21.2924 1.29286L19.2924 3.29286L16.8784 0.878859C16.5998 0.60023 16.269 0.379206 15.905 0.22841C15.541 0.0776141 15.1509 0 14.7569 0C14.3629 0 13.9727 0.0776141 13.6087 0.22841C13.2447 0.379206 12.9139 0.60023 12.6354 0.878859L9.80736 3.70686L14.3424 8.24286L8.24236 14.3429L3.70636 9.80786L0.878359 12.6359C0.315946 13.1984 0 13.9614 0 14.7569C0 15.5524 0.315946 16.3153 0.878359 16.8779L3.29236 19.2929L1.29236 21.2929L2.70636 22.7069L4.70636 20.7069L7.12036 23.1209C7.39894 23.3995 7.72968 23.6205 8.09369 23.7713C8.4577 23.9221 8.84785 23.9997 9.24186 23.9997C9.63587 23.9997 10.026 23.9221 10.39 23.7713C10.754 23.6205 11.0848 23.3995 11.3634 23.1209L14.1914 20.2929L9.65636 15.7569L15.7564 9.65686L20.2914 14.1919L23.1194 11.3639C23.6818 10.8013 23.9977 10.0384 23.9977 9.24286C23.9977 8.44737 23.6818 7.68444 23.1194 7.12186H23.1204Z" fill="#405462"/>
</svg>
