<svg width="24" height="24" viewBox="0 0 24 24" fill="none" xmlns="http://www.w3.org/2000/svg">
<path d="M12 21.0001C8.1358 20.9957 5.00441 17.8643 5 14.0002V5.00019C5 4.80017 5.01298 4.6002 5.03 4.4082C3.194 5.19692 2.003 7.00193 2 9.00016V19.0001C2.00328 21.7602 4.23992 23.9969 6.99997 24.0001H13C14.9982 23.9971 16.8032 22.8061 17.592 20.9701C17.392 20.9872 17.2 21.0001 17 21.0001H12Z" fill="#405462"/>
<path d="M21.155 3.27182L18.871 0.912836C18.6195 0.658164 18.3246 0.450555 18 0.299805V3.99979H21.66C21.5288 3.7334 21.3586 3.48801 21.155 3.27182Z" fill="#405462"/>
<path d="M17 4.00031C17 4.55259 17.4477 5.0003 18 5.0003H21.966C21.8923 4.35098 21.6074 3.74381 21.155 3.2723L18.871 0.913312C18.3714 0.406875 17.7085 0.0937031 17 0.0292969V4.00031Z" fill="#405462"/>
<path d="M15 3.99998V0H12C9.23997 0.00332812 7.00333 2.23997 7 5.00002V14C7.00333 16.7601 9.23997 18.9967 12 19H17C19.7601 18.9967 21.9967 16.7601 22 14V6.99998H18C16.3432 6.99998 15 5.65688 15 3.99998Z" fill="#405462"/>
</svg>
