<svg width="24" height="24" viewBox="0 0 24 24" fill="none" xmlns="http://www.w3.org/2000/svg">
<path d="M20.41 4.04902L18.018 1.63102C16.9824 0.590578 15.576 0.0039375 14.108 0H7.50003C4.46384 0.00332813 2.00333 2.4638 2 5.49998V18.5C2.00333 21.5362 4.46384 23.9967 7.50003 24H16.5C19.5362 23.9967 21.9967 21.5362 22 18.5V7.917C22.0038 6.46786 21.4319 5.07652 20.41 4.04902ZM19 18.5C19 19.8807 17.8807 21 16.5 21H7.50003C6.11933 21 5.00005 19.8807 5.00005 18.5V5.49998C5 4.11928 6.11933 3 7.50003 3H13V6.99998C13 8.10455 13.8955 9 15 9H19V18.5V18.5Z" fill="#405462"/>
</svg>
