<svg width="24" height="24" viewBox="0 0 24 24" fill="none" xmlns="http://www.w3.org/2000/svg">
<path d="M19.0615 13.439L14.4755 8.85401C13.8089 8.21718 12.9224 7.86182 12.0005 7.86182C11.0786 7.86182 10.1921 8.21718 9.52548 8.85401L4.93948 13.439C4.65809 13.7204 4.5 14.1021 4.5 14.5C4.5 14.898 4.65809 15.2796 4.93948 15.561C5.22088 15.8424 5.60253 16.0005 6.00048 16.0005C6.39843 16.0005 6.78009 15.8424 7.06148 15.561L11.6475 10.975C11.7412 10.8813 11.8684 10.8286 12.001 10.8286C12.1336 10.8286 12.2607 10.8813 12.3545 10.975L16.9395 15.561C17.2209 15.8424 17.6025 16.0005 18.0005 16.0005C18.3984 16.0005 18.7801 15.8424 19.0615 15.561C19.3429 15.2796 19.501 14.898 19.501 14.5C19.501 14.1021 19.3429 13.7204 19.0615 13.439Z" fill="#405462"/>
</svg>
