<svg width="24" height="24" viewBox="0 0 24 24" fill="none" xmlns="http://www.w3.org/2000/svg">
<g clip-path="url(#clip0_1296_6318)">
<path d="M19.2545 7.25424C19.2545 3.25423 16.0003 0 12.0003 0C8.00032 0 4.74609 3.25423 4.74609 7.25424C4.74609 11.0239 7.63658 14.1308 11.3175 14.4761V17.1839C9.74549 17.5016 8.55813 18.8936 8.55813 20.5578C8.55813 21.4773 8.91617 22.3417 9.5663 22.9919C10.2164 23.642 11.0809 24 12.0003 24C13.8984 24 15.4425 22.4559 15.4425 20.5578C15.4425 18.8935 14.2551 17.5015 12.6831 17.1839V14.4761C16.3641 14.1308 19.2545 11.0239 19.2545 7.25424ZM6.11172 7.25424C6.11172 4.00728 8.75332 1.36562 12.0003 1.36562C15.2472 1.36562 17.8889 4.00728 17.8889 7.25424C17.8889 10.5012 15.2473 13.1428 12.0003 13.1428C8.75327 13.1428 6.11172 10.5012 6.11172 7.25424ZM14.0769 20.5578C14.0769 21.7028 13.1453 22.6344 12.0003 22.6344C11.4456 22.6344 10.9241 22.4184 10.5319 22.0262C10.1397 21.634 9.92376 21.1125 9.92376 20.5578C9.92376 19.4128 10.8553 18.4813 12.0003 18.4813C13.1453 18.4813 14.0769 19.4128 14.0769 20.5578Z" fill="#405462"/>
<path d="M15.9683 7.25419C15.9683 5.06593 14.188 3.28564 11.9998 3.28564C9.81149 3.28564 8.03125 5.06588 8.03125 7.25415C8.03125 9.44241 9.81149 11.2227 11.9998 11.2227C14.188 11.2227 15.9683 9.44246 15.9683 7.25419ZM9.39687 7.25415C9.39687 5.81892 10.5645 4.65127 11.9998 4.65127C13.435 4.65127 14.6027 5.81892 14.6027 7.25419C14.6027 8.68942 13.435 9.85707 11.9998 9.85707C10.5645 9.85707 9.39687 8.68942 9.39687 7.25415Z" fill="#405462"/>
</g>
<defs>
<clipPath id="clip0_1296_6318">
<rect width="24" height="24" fill="white"/>
</clipPath>
</defs>
</svg>
