<svg width="24" height="24" viewBox="0 0 24 24" fill="none" xmlns="http://www.w3.org/2000/svg">
<g clip-path="url(#clip0_1296_6351)">
<path d="M10 11.9999C10 12.2651 9.89464 12.5194 9.70711 12.707C9.51957 12.8945 9.26522 12.9999 9 12.9999H4.069C4.31113 14.9325 5.25065 16.7103 6.71105 17.9992C8.17145 19.288 10.0522 19.9992 12 19.9992C13.9478 19.9992 15.8286 19.288 17.289 17.9992C18.7493 16.7103 19.6889 14.9325 19.931 12.9999H15C14.7348 12.9999 14.4804 12.8945 14.2929 12.707C14.1054 12.5194 14 12.2651 14 11.9999C14 11.7346 14.1054 11.4803 14.2929 11.2928C14.4804 11.1052 14.7348 10.9999 15 10.9999H20V8.99987H15C14.7348 8.99987 14.4804 8.89451 14.2929 8.70697C14.1054 8.51944 14 8.26508 14 7.99987C14 7.73465 14.1054 7.4803 14.2929 7.29276C14.4804 7.10522 14.7348 6.99987 15 6.99987H19.931C19.6889 5.06718 18.7493 3.28942 17.289 2.00057C15.8286 0.711722 13.9478 0.000488281 12 0.000488281C10.0522 0.000488281 8.17145 0.711722 6.71105 2.00057C5.25065 3.28942 4.31113 5.06718 4.069 6.99987H9C9.26522 6.99987 9.51957 7.10522 9.70711 7.29276C9.89464 7.4803 10 7.73465 10 7.99987C10 8.26508 9.89464 8.51944 9.70711 8.70697C9.51957 8.89451 9.26522 8.99987 9 8.99987H4V10.9999H9C9.26522 10.9999 9.51957 11.1052 9.70711 11.2928C9.89464 11.4803 10 11.7346 10 11.9999Z" fill="#405462"/>
<path d="M23 12C22.7348 12 22.4804 12.1054 22.2929 12.2929C22.1054 12.4804 22 12.7348 22 13C21.9974 15.3861 21.0483 17.6738 19.361 19.361C17.6738 21.0483 15.3861 21.9974 13 22H11C8.61395 21.9971 6.32645 21.0479 4.63925 19.3607C2.95206 17.6735 2.00291 15.3861 2 13C2 12.7348 1.89464 12.4804 1.70711 12.2929C1.51957 12.1054 1.26522 12 1 12C0.734784 12 0.48043 12.1054 0.292893 12.2929C0.105357 12.4804 0 12.7348 0 13C0.00344047 15.9163 1.16347 18.7122 3.22563 20.7744C5.28778 22.8365 8.08367 23.9966 11 24H13C15.9163 23.9966 18.7122 22.8365 20.7744 20.7744C22.8365 18.7122 23.9966 15.9163 24 13C24 12.7348 23.8946 12.4804 23.7071 12.2929C23.5196 12.1054 23.2652 12 23 12Z" fill="#405462"/>
</g>
<defs>
<clipPath id="clip0_1296_6351">
<rect width="24" height="24" fill="white"/>
</clipPath>
</defs>
</svg>
