<svg width="24" height="24" viewBox="0 0 24 24" fill="none" xmlns="http://www.w3.org/2000/svg">
<g clip-path="url(#clip0_653_14685)">
<path d="M19.0007 2.00002H9.95669C9.19491 1.99767 8.4428 2.1706 7.75855 2.50545C7.0743 2.84029 6.47626 3.32806 6.01069 3.93102L0.210694 11.386C0.0741394 11.5616 0 11.7776 0 12C0 12.2224 0.0741394 12.4385 0.210694 12.614L6.01069 20.069C6.47626 20.672 7.0743 21.1598 7.75855 21.4946C8.4428 21.8294 9.19491 22.0024 9.95669 22H19.0007C20.3263 21.9984 21.5971 21.4711 22.5345 20.5338C23.4718 19.5965 23.9991 18.3256 24.0007 17V7.00002C23.9991 5.67443 23.4718 4.40358 22.5345 3.46624C21.5971 2.52891 20.3263 2.00161 19.0007 2.00002ZM17.7077 14.293C17.8032 14.3853 17.8794 14.4956 17.9318 14.6176C17.9842 14.7396 18.0118 14.8708 18.0129 15.0036C18.0141 15.1364 17.9888 15.2681 17.9385 15.391C17.8882 15.5139 17.814 15.6255 17.7201 15.7194C17.6262 15.8133 17.5145 15.8876 17.3916 15.9378C17.2688 15.9881 17.1371 16.0134 17.0043 16.0123C16.8715 16.0111 16.7403 15.9835 16.6183 15.9311C16.4963 15.8787 16.3859 15.8025 16.2937 15.707L14.0007 13.414L11.7077 15.707C11.5191 15.8892 11.2665 15.99 11.0043 15.9877C10.7421 15.9854 10.4913 15.8803 10.3059 15.6948C10.1205 15.5094 10.0153 15.2586 10.013 14.9964C10.0107 14.7342 10.1115 14.4816 10.2937 14.293L12.5867 12L10.2937 9.70702C10.1115 9.51842 10.0107 9.26582 10.013 9.00362C10.0153 8.74143 10.1205 8.49061 10.3059 8.30521C10.4913 8.1198 10.7421 8.01463 11.0043 8.01235C11.2665 8.01007 11.5191 8.11087 11.7077 8.29302L14.0007 10.586L16.2937 8.29302C16.4823 8.11087 16.7349 8.01007 16.9971 8.01235C17.2593 8.01463 17.5101 8.1198 17.6955 8.30521C17.8809 8.49061 17.9861 8.74143 17.9884 9.00362C17.9906 9.26582 17.8899 9.51842 17.7077 9.70702L15.4147 12L17.7077 14.293Z" fill="#405462"/>
</g>
<defs>
<clipPath id="clip0_653_14685">
<rect width="24" height="24" fill="white"/>
</clipPath>
</defs>
</svg>
