<svg width="24" height="24" viewBox="0 0 24 24" fill="none" xmlns="http://www.w3.org/2000/svg">
<g clip-path="url(#clip0_653_14777)">
<path d="M15.9998 22.9998C15.9998 22.802 16.0585 22.6087 16.1683 22.4442C16.2782 22.2798 16.4344 22.1516 16.6171 22.0759C16.7999 22.0002 17.0009 21.9804 17.1949 22.019C17.3889 22.0576 17.5671 22.1528 17.7069 22.2927C17.8468 22.4325 17.942 22.6107 17.9806 22.8047C18.0192 22.9987 17.9994 23.1997 17.9237 23.3825C17.848 23.5652 17.7198 23.7214 17.5554 23.8313C17.3909 23.9411 17.1976 23.9998 16.9998 23.9998C16.7346 23.9998 16.4802 23.8944 16.2927 23.7069C16.1052 23.5194 15.9998 23.265 15.9998 22.9998ZM20.5348 20.8778C20.7223 20.6903 20.8276 20.4359 20.8276 20.1708C20.8276 19.9056 20.7223 19.6513 20.5348 19.4638C19.5972 18.5264 18.3256 17.9999 16.9998 17.9999C15.674 17.9999 14.4025 18.5264 13.4648 19.4638C13.2827 19.6524 13.1819 19.905 13.1841 20.1672C13.1864 20.4294 13.2916 20.6802 13.477 20.8656C13.6624 21.051 13.9132 21.1562 14.1754 21.1585C14.4376 21.1607 14.6902 21.0599 14.8788 20.8778C15.4505 20.3328 16.21 20.0288 16.9998 20.0288C17.7896 20.0288 18.5491 20.3328 19.1208 20.8778C19.3083 21.0653 19.5627 21.1706 19.8278 21.1706C20.093 21.1706 20.3473 21.0653 20.5348 20.8778ZM23.3638 18.0498C23.5513 17.8623 23.6566 17.608 23.6566 17.3428C23.6566 17.0776 23.5513 16.8233 23.3638 16.6358C21.6747 14.9504 19.386 14.0038 16.9998 14.0038C14.6137 14.0038 12.3249 14.9504 10.6358 16.6358C10.4537 16.8244 10.3529 17.077 10.3551 17.3392C10.3574 17.6014 10.4626 17.8522 10.648 18.0376C10.8334 18.223 11.0842 18.3282 11.3464 18.3305C11.6086 18.3327 11.8612 18.2319 12.0498 18.0498C13.364 16.7396 15.1441 16.0038 16.9998 16.0038C18.8556 16.0038 20.6356 16.7396 21.9498 18.0498C22.1373 18.2373 22.3917 18.3426 22.6568 18.3426C22.922 18.3426 23.1763 18.2373 23.3638 18.0498ZM9.22182 19.4638C8.94319 19.1852 8.72216 18.8545 8.57137 18.4905C8.42057 18.1264 8.34296 17.7363 8.34296 17.3423C8.34296 16.9483 8.42057 16.5581 8.57137 16.1941C8.72216 15.8301 8.94319 15.4994 9.22182 15.2208C11.1548 13.2932 13.7349 12.1521 16.4615 12.0189C19.1881 11.8857 21.8671 12.7698 23.9788 14.4998C23.8843 12.8776 23.2947 11.3233 22.2895 10.0466C21.2842 8.76991 19.9116 7.83216 18.3568 7.35979C18.1853 7.30673 18.0296 7.21202 17.9036 7.08412C17.7776 6.95621 17.6853 6.79909 17.6348 6.62679C17.1057 4.92641 16.0243 3.45119 14.562 2.43482C13.0997 1.41846 11.3401 0.919046 9.56193 1.0157C7.78374 1.11236 6.08864 1.79956 4.74513 2.96845C3.40163 4.13733 2.48654 5.72107 2.14482 7.46879C1.79326 9.23546 2.07657 11.0695 2.94482 12.6478C1.93326 13.17 1.11072 13.996 0.592733 15.0098C0.0747427 16.0235 -0.112671 17.1741 0.0568164 18.2998C0.317638 19.6075 1.01785 20.7867 2.04122 21.6416C3.06458 22.4966 4.34955 22.9758 5.68282 22.9998H12.7828C11.1158 21.3468 9.48682 19.7288 9.22182 19.4638Z" fill="#405462"/>
</g>
<defs>
<clipPath id="clip0_653_14777">
<rect width="24" height="24" fill="white"/>
</clipPath>
</defs>
</svg>
